<?xml version="1.0" encoding="utf-8" standalone="no"?>
<!DOCTYPE svg PUBLIC "-//W3C//DTD SVG 1.1//EN"
  "http://www.w3.org/Graphics/SVG/1.1/DTD/svg11.dtd">
<svg height="288pt" version="1.1" viewBox="0 0 576 288" width="576pt" xmlns="http://www.w3.org/2000/svg" xmlns:xlink="http://www.w3.org/1999/xlink">
 <metadata>
  <rdf:RDF xmlns:cc="http://creativecommons.org/ns#" xmlns:dc="http://purl.org/dc/elements/1.1/" xmlns:rdf="http://www.w3.org/1999/02/22-rdf-syntax-ns#">
   <cc:Work>
    <dc:type rdf:resource="http://purl.org/dc/dcmitype/StillImage"/>
    <dc:date>2021-11-08T16:35:14.068671</dc:date>
    <dc:format>image/svg+xml</dc:format>
    <dc:creator>
     <cc:Agent>
      <dc:title>Matplotlib v3.4.2, https://matplotlib.org/</dc:title>
     </cc:Agent>
    </dc:creator>
   </cc:Work>
  </rdf:RDF>
 </metadata>
 <defs>
  <style type="text/css">*{stroke-linecap:butt;stroke-linejoin:round;}</style>
 </defs>
 <g id="figure_1">
  <g id="patch_1">
   <path d="M 0 288 
L 576 288 
L 576 0 
L 0 0 
z
" style="fill:#ffffff;"/>
  </g>
  <g id="axes_1">
   <g id="patch_2">
    <path d="M 72 252 
L 518.4 252 
L 518.4 34.56 
L 72 34.56 
z
" style="fill:#e5e5e5;"/>
   </g>
   <g id="matplotlib.axis_1">
    <g id="xtick_1">
     <g id="line2d_1">
      <path clip-path="url(#p661300e0a3)" d="M 88.191736 252 
L 88.191736 34.56 
" style="fill:none;stroke:#ffffff;stroke-linecap:square;stroke-width:0.8;"/>
     </g>
     <g id="line2d_2">
      <defs>
       <path d="M 0 0 
L 0 3.5 
" id="m80434d4aa3" style="stroke:#555555;stroke-width:0.8;"/>
      </defs>
      <g>
       <use style="fill:#555555;stroke:#555555;stroke-width:0.8;" x="88.191736" xlink:href="#m80434d4aa3" y="252"/>
      </g>
     </g>
     <g id="text_1">
      <!-- 0 -->
      <g style="fill:#555555;" transform="translate(85.010486 266.598437)scale(0.1 -0.1)">
       <defs>
        <path d="M 2034 4250 
Q 1547 4250 1301 3770 
Q 1056 3291 1056 2328 
Q 1056 1369 1301 889 
Q 1547 409 2034 409 
Q 2525 409 2770 889 
Q 3016 1369 3016 2328 
Q 3016 3291 2770 3770 
Q 2525 4250 2034 4250 
z
M 2034 4750 
Q 2819 4750 3233 4129 
Q 3647 3509 3647 2328 
Q 3647 1150 3233 529 
Q 2819 -91 2034 -91 
Q 1250 -91 836 529 
Q 422 1150 422 2328 
Q 422 3509 836 4129 
Q 1250 4750 2034 4750 
z
" id="DejaVuSans-30" transform="scale(0.015625)"/>
       </defs>
       <use xlink:href="#DejaVuSans-30"/>
      </g>
     </g>
    </g>
    <g id="xtick_2">
     <g id="line2d_3">
      <path clip-path="url(#p661300e0a3)" d="M 170.175207 252 
L 170.175207 34.56 
" style="fill:none;stroke:#ffffff;stroke-linecap:square;stroke-width:0.8;"/>
     </g>
     <g id="line2d_4">
      <g>
       <use style="fill:#555555;stroke:#555555;stroke-width:0.8;" x="170.175207" xlink:href="#m80434d4aa3" y="252"/>
      </g>
     </g>
     <g id="text_2">
      <!-- 20 -->
      <g style="fill:#555555;" transform="translate(163.812707 266.598437)scale(0.1 -0.1)">
       <defs>
        <path d="M 1228 531 
L 3431 531 
L 3431 0 
L 469 0 
L 469 531 
Q 828 903 1448 1529 
Q 2069 2156 2228 2338 
Q 2531 2678 2651 2914 
Q 2772 3150 2772 3378 
Q 2772 3750 2511 3984 
Q 2250 4219 1831 4219 
Q 1534 4219 1204 4116 
Q 875 4013 500 3803 
L 500 4441 
Q 881 4594 1212 4672 
Q 1544 4750 1819 4750 
Q 2544 4750 2975 4387 
Q 3406 4025 3406 3419 
Q 3406 3131 3298 2873 
Q 3191 2616 2906 2266 
Q 2828 2175 2409 1742 
Q 1991 1309 1228 531 
z
" id="DejaVuSans-32" transform="scale(0.015625)"/>
       </defs>
       <use xlink:href="#DejaVuSans-32"/>
       <use x="63.623047" xlink:href="#DejaVuSans-30"/>
      </g>
     </g>
    </g>
    <g id="xtick_3">
     <g id="line2d_5">
      <path clip-path="url(#p661300e0a3)" d="M 252.158678 252 
L 252.158678 34.56 
" style="fill:none;stroke:#ffffff;stroke-linecap:square;stroke-width:0.8;"/>
     </g>
     <g id="line2d_6">
      <g>
       <use style="fill:#555555;stroke:#555555;stroke-width:0.8;" x="252.158678" xlink:href="#m80434d4aa3" y="252"/>
      </g>
     </g>
     <g id="text_3">
      <!-- 40 -->
      <g style="fill:#555555;" transform="translate(245.796178 266.598437)scale(0.1 -0.1)">
       <defs>
        <path d="M 2419 4116 
L 825 1625 
L 2419 1625 
L 2419 4116 
z
M 2253 4666 
L 3047 4666 
L 3047 1625 
L 3713 1625 
L 3713 1100 
L 3047 1100 
L 3047 0 
L 2419 0 
L 2419 1100 
L 313 1100 
L 313 1709 
L 2253 4666 
z
" id="DejaVuSans-34" transform="scale(0.015625)"/>
       </defs>
       <use xlink:href="#DejaVuSans-34"/>
       <use x="63.623047" xlink:href="#DejaVuSans-30"/>
      </g>
     </g>
    </g>
    <g id="xtick_4">
     <g id="line2d_7">
      <path clip-path="url(#p661300e0a3)" d="M 334.142149 252 
L 334.142149 34.56 
" style="fill:none;stroke:#ffffff;stroke-linecap:square;stroke-width:0.8;"/>
     </g>
     <g id="line2d_8">
      <g>
       <use style="fill:#555555;stroke:#555555;stroke-width:0.8;" x="334.142149" xlink:href="#m80434d4aa3" y="252"/>
      </g>
     </g>
     <g id="text_4">
      <!-- 60 -->
      <g style="fill:#555555;" transform="translate(327.779649 266.598437)scale(0.1 -0.1)">
       <defs>
        <path d="M 2113 2584 
Q 1688 2584 1439 2293 
Q 1191 2003 1191 1497 
Q 1191 994 1439 701 
Q 1688 409 2113 409 
Q 2538 409 2786 701 
Q 3034 994 3034 1497 
Q 3034 2003 2786 2293 
Q 2538 2584 2113 2584 
z
M 3366 4563 
L 3366 3988 
Q 3128 4100 2886 4159 
Q 2644 4219 2406 4219 
Q 1781 4219 1451 3797 
Q 1122 3375 1075 2522 
Q 1259 2794 1537 2939 
Q 1816 3084 2150 3084 
Q 2853 3084 3261 2657 
Q 3669 2231 3669 1497 
Q 3669 778 3244 343 
Q 2819 -91 2113 -91 
Q 1303 -91 875 529 
Q 447 1150 447 2328 
Q 447 3434 972 4092 
Q 1497 4750 2381 4750 
Q 2619 4750 2861 4703 
Q 3103 4656 3366 4563 
z
" id="DejaVuSans-36" transform="scale(0.015625)"/>
       </defs>
       <use xlink:href="#DejaVuSans-36"/>
       <use x="63.623047" xlink:href="#DejaVuSans-30"/>
      </g>
     </g>
    </g>
    <g id="xtick_5">
     <g id="line2d_9">
      <path clip-path="url(#p661300e0a3)" d="M 416.12562 252 
L 416.12562 34.56 
" style="fill:none;stroke:#ffffff;stroke-linecap:square;stroke-width:0.8;"/>
     </g>
     <g id="line2d_10">
      <g>
       <use style="fill:#555555;stroke:#555555;stroke-width:0.8;" x="416.12562" xlink:href="#m80434d4aa3" y="252"/>
      </g>
     </g>
     <g id="text_5">
      <!-- 80 -->
      <g style="fill:#555555;" transform="translate(409.76312 266.598437)scale(0.1 -0.1)">
       <defs>
        <path d="M 2034 2216 
Q 1584 2216 1326 1975 
Q 1069 1734 1069 1313 
Q 1069 891 1326 650 
Q 1584 409 2034 409 
Q 2484 409 2743 651 
Q 3003 894 3003 1313 
Q 3003 1734 2745 1975 
Q 2488 2216 2034 2216 
z
M 1403 2484 
Q 997 2584 770 2862 
Q 544 3141 544 3541 
Q 544 4100 942 4425 
Q 1341 4750 2034 4750 
Q 2731 4750 3128 4425 
Q 3525 4100 3525 3541 
Q 3525 3141 3298 2862 
Q 3072 2584 2669 2484 
Q 3125 2378 3379 2068 
Q 3634 1759 3634 1313 
Q 3634 634 3220 271 
Q 2806 -91 2034 -91 
Q 1263 -91 848 271 
Q 434 634 434 1313 
Q 434 1759 690 2068 
Q 947 2378 1403 2484 
z
M 1172 3481 
Q 1172 3119 1398 2916 
Q 1625 2713 2034 2713 
Q 2441 2713 2670 2916 
Q 2900 3119 2900 3481 
Q 2900 3844 2670 4047 
Q 2441 4250 2034 4250 
Q 1625 4250 1398 4047 
Q 1172 3844 1172 3481 
z
" id="DejaVuSans-38" transform="scale(0.015625)"/>
       </defs>
       <use xlink:href="#DejaVuSans-38"/>
       <use x="63.623047" xlink:href="#DejaVuSans-30"/>
      </g>
     </g>
    </g>
    <g id="xtick_6">
     <g id="line2d_11">
      <path clip-path="url(#p661300e0a3)" d="M 498.109091 252 
L 498.109091 34.56 
" style="fill:none;stroke:#ffffff;stroke-linecap:square;stroke-width:0.8;"/>
     </g>
     <g id="line2d_12">
      <g>
       <use style="fill:#555555;stroke:#555555;stroke-width:0.8;" x="498.109091" xlink:href="#m80434d4aa3" y="252"/>
      </g>
     </g>
     <g id="text_6">
      <!-- 100 -->
      <g style="fill:#555555;" transform="translate(488.565341 266.598437)scale(0.1 -0.1)">
       <defs>
        <path d="M 794 531 
L 1825 531 
L 1825 4091 
L 703 3866 
L 703 4441 
L 1819 4666 
L 2450 4666 
L 2450 531 
L 3481 531 
L 3481 0 
L 794 0 
L 794 531 
z
" id="DejaVuSans-31" transform="scale(0.015625)"/>
       </defs>
       <use xlink:href="#DejaVuSans-31"/>
       <use x="63.623047" xlink:href="#DejaVuSans-30"/>
       <use x="127.246094" xlink:href="#DejaVuSans-30"/>
      </g>
     </g>
    </g>
    <g id="text_7">
     <!-- Epoch number -->
     <g style="fill:#555555;" transform="translate(251.503125 281.79625)scale(0.12 -0.12)">
      <defs>
       <path d="M 628 4666 
L 3578 4666 
L 3578 4134 
L 1259 4134 
L 1259 2753 
L 3481 2753 
L 3481 2222 
L 1259 2222 
L 1259 531 
L 3634 531 
L 3634 0 
L 628 0 
L 628 4666 
z
" id="DejaVuSans-45" transform="scale(0.015625)"/>
       <path d="M 1159 525 
L 1159 -1331 
L 581 -1331 
L 581 3500 
L 1159 3500 
L 1159 2969 
Q 1341 3281 1617 3432 
Q 1894 3584 2278 3584 
Q 2916 3584 3314 3078 
Q 3713 2572 3713 1747 
Q 3713 922 3314 415 
Q 2916 -91 2278 -91 
Q 1894 -91 1617 61 
Q 1341 213 1159 525 
z
M 3116 1747 
Q 3116 2381 2855 2742 
Q 2594 3103 2138 3103 
Q 1681 3103 1420 2742 
Q 1159 2381 1159 1747 
Q 1159 1113 1420 752 
Q 1681 391 2138 391 
Q 2594 391 2855 752 
Q 3116 1113 3116 1747 
z
" id="DejaVuSans-70" transform="scale(0.015625)"/>
       <path d="M 1959 3097 
Q 1497 3097 1228 2736 
Q 959 2375 959 1747 
Q 959 1119 1226 758 
Q 1494 397 1959 397 
Q 2419 397 2687 759 
Q 2956 1122 2956 1747 
Q 2956 2369 2687 2733 
Q 2419 3097 1959 3097 
z
M 1959 3584 
Q 2709 3584 3137 3096 
Q 3566 2609 3566 1747 
Q 3566 888 3137 398 
Q 2709 -91 1959 -91 
Q 1206 -91 779 398 
Q 353 888 353 1747 
Q 353 2609 779 3096 
Q 1206 3584 1959 3584 
z
" id="DejaVuSans-6f" transform="scale(0.015625)"/>
       <path d="M 3122 3366 
L 3122 2828 
Q 2878 2963 2633 3030 
Q 2388 3097 2138 3097 
Q 1578 3097 1268 2742 
Q 959 2388 959 1747 
Q 959 1106 1268 751 
Q 1578 397 2138 397 
Q 2388 397 2633 464 
Q 2878 531 3122 666 
L 3122 134 
Q 2881 22 2623 -34 
Q 2366 -91 2075 -91 
Q 1284 -91 818 406 
Q 353 903 353 1747 
Q 353 2603 823 3093 
Q 1294 3584 2113 3584 
Q 2378 3584 2631 3529 
Q 2884 3475 3122 3366 
z
" id="DejaVuSans-63" transform="scale(0.015625)"/>
       <path d="M 3513 2113 
L 3513 0 
L 2938 0 
L 2938 2094 
Q 2938 2591 2744 2837 
Q 2550 3084 2163 3084 
Q 1697 3084 1428 2787 
Q 1159 2491 1159 1978 
L 1159 0 
L 581 0 
L 581 4863 
L 1159 4863 
L 1159 2956 
Q 1366 3272 1645 3428 
Q 1925 3584 2291 3584 
Q 2894 3584 3203 3211 
Q 3513 2838 3513 2113 
z
" id="DejaVuSans-68" transform="scale(0.015625)"/>
       <path id="DejaVuSans-20" transform="scale(0.015625)"/>
       <path d="M 3513 2113 
L 3513 0 
L 2938 0 
L 2938 2094 
Q 2938 2591 2744 2837 
Q 2550 3084 2163 3084 
Q 1697 3084 1428 2787 
Q 1159 2491 1159 1978 
L 1159 0 
L 581 0 
L 581 3500 
L 1159 3500 
L 1159 2956 
Q 1366 3272 1645 3428 
Q 1925 3584 2291 3584 
Q 2894 3584 3203 3211 
Q 3513 2838 3513 2113 
z
" id="DejaVuSans-6e" transform="scale(0.015625)"/>
       <path d="M 544 1381 
L 544 3500 
L 1119 3500 
L 1119 1403 
Q 1119 906 1312 657 
Q 1506 409 1894 409 
Q 2359 409 2629 706 
Q 2900 1003 2900 1516 
L 2900 3500 
L 3475 3500 
L 3475 0 
L 2900 0 
L 2900 538 
Q 2691 219 2414 64 
Q 2138 -91 1772 -91 
Q 1169 -91 856 284 
Q 544 659 544 1381 
z
M 1991 3584 
L 1991 3584 
z
" id="DejaVuSans-75" transform="scale(0.015625)"/>
       <path d="M 3328 2828 
Q 3544 3216 3844 3400 
Q 4144 3584 4550 3584 
Q 5097 3584 5394 3201 
Q 5691 2819 5691 2113 
L 5691 0 
L 5113 0 
L 5113 2094 
Q 5113 2597 4934 2840 
Q 4756 3084 4391 3084 
Q 3944 3084 3684 2787 
Q 3425 2491 3425 1978 
L 3425 0 
L 2847 0 
L 2847 2094 
Q 2847 2600 2669 2842 
Q 2491 3084 2119 3084 
Q 1678 3084 1418 2786 
Q 1159 2488 1159 1978 
L 1159 0 
L 581 0 
L 581 3500 
L 1159 3500 
L 1159 2956 
Q 1356 3278 1631 3431 
Q 1906 3584 2284 3584 
Q 2666 3584 2933 3390 
Q 3200 3197 3328 2828 
z
" id="DejaVuSans-6d" transform="scale(0.015625)"/>
       <path d="M 3116 1747 
Q 3116 2381 2855 2742 
Q 2594 3103 2138 3103 
Q 1681 3103 1420 2742 
Q 1159 2381 1159 1747 
Q 1159 1113 1420 752 
Q 1681 391 2138 391 
Q 2594 391 2855 752 
Q 3116 1113 3116 1747 
z
M 1159 2969 
Q 1341 3281 1617 3432 
Q 1894 3584 2278 3584 
Q 2916 3584 3314 3078 
Q 3713 2572 3713 1747 
Q 3713 922 3314 415 
Q 2916 -91 2278 -91 
Q 1894 -91 1617 61 
Q 1341 213 1159 525 
L 1159 0 
L 581 0 
L 581 4863 
L 1159 4863 
L 1159 2969 
z
" id="DejaVuSans-62" transform="scale(0.015625)"/>
       <path d="M 3597 1894 
L 3597 1613 
L 953 1613 
Q 991 1019 1311 708 
Q 1631 397 2203 397 
Q 2534 397 2845 478 
Q 3156 559 3463 722 
L 3463 178 
Q 3153 47 2828 -22 
Q 2503 -91 2169 -91 
Q 1331 -91 842 396 
Q 353 884 353 1716 
Q 353 2575 817 3079 
Q 1281 3584 2069 3584 
Q 2775 3584 3186 3129 
Q 3597 2675 3597 1894 
z
M 3022 2063 
Q 3016 2534 2758 2815 
Q 2500 3097 2075 3097 
Q 1594 3097 1305 2825 
Q 1016 2553 972 2059 
L 3022 2063 
z
" id="DejaVuSans-65" transform="scale(0.015625)"/>
       <path d="M 2631 2963 
Q 2534 3019 2420 3045 
Q 2306 3072 2169 3072 
Q 1681 3072 1420 2755 
Q 1159 2438 1159 1844 
L 1159 0 
L 581 0 
L 581 3500 
L 1159 3500 
L 1159 2956 
Q 1341 3275 1631 3429 
Q 1922 3584 2338 3584 
Q 2397 3584 2469 3576 
Q 2541 3569 2628 3553 
L 2631 2963 
z
" id="DejaVuSans-72" transform="scale(0.015625)"/>
      </defs>
      <use xlink:href="#DejaVuSans-45"/>
      <use x="63.183594" xlink:href="#DejaVuSans-70"/>
      <use x="126.660156" xlink:href="#DejaVuSans-6f"/>
      <use x="187.841797" xlink:href="#DejaVuSans-63"/>
      <use x="242.822266" xlink:href="#DejaVuSans-68"/>
      <use x="306.201172" xlink:href="#DejaVuSans-20"/>
      <use x="337.988281" xlink:href="#DejaVuSans-6e"/>
      <use x="401.367188" xlink:href="#DejaVuSans-75"/>
      <use x="464.746094" xlink:href="#DejaVuSans-6d"/>
      <use x="562.158203" xlink:href="#DejaVuSans-62"/>
      <use x="625.634766" xlink:href="#DejaVuSans-65"/>
      <use x="687.158203" xlink:href="#DejaVuSans-72"/>
     </g>
    </g>
   </g>
   <g id="matplotlib.axis_2">
    <g id="ytick_1">
     <g id="line2d_13">
      <path clip-path="url(#p661300e0a3)" d="M 72 220.961613 
L 518.4 220.961613 
" style="fill:none;stroke:#ffffff;stroke-linecap:square;stroke-width:0.8;"/>
     </g>
     <g id="line2d_14">
      <defs>
       <path d="M 0 0 
L -3.5 0 
" id="mb43ffc09f4" style="stroke:#555555;stroke-width:0.8;"/>
      </defs>
      <g>
       <use style="fill:#555555;stroke:#555555;stroke-width:0.8;" x="72" xlink:href="#mb43ffc09f4" y="220.961613"/>
      </g>
     </g>
     <g id="text_8">
      <!-- 0.75 -->
      <g style="fill:#555555;" transform="translate(42.734375 224.760832)scale(0.1 -0.1)">
       <defs>
        <path d="M 684 794 
L 1344 794 
L 1344 0 
L 684 0 
L 684 794 
z
" id="DejaVuSans-2e" transform="scale(0.015625)"/>
        <path d="M 525 4666 
L 3525 4666 
L 3525 4397 
L 1831 0 
L 1172 0 
L 2766 4134 
L 525 4134 
L 525 4666 
z
" id="DejaVuSans-37" transform="scale(0.015625)"/>
        <path d="M 691 4666 
L 3169 4666 
L 3169 4134 
L 1269 4134 
L 1269 2991 
Q 1406 3038 1543 3061 
Q 1681 3084 1819 3084 
Q 2600 3084 3056 2656 
Q 3513 2228 3513 1497 
Q 3513 744 3044 326 
Q 2575 -91 1722 -91 
Q 1428 -91 1123 -41 
Q 819 9 494 109 
L 494 744 
Q 775 591 1075 516 
Q 1375 441 1709 441 
Q 2250 441 2565 725 
Q 2881 1009 2881 1497 
Q 2881 1984 2565 2268 
Q 2250 2553 1709 2553 
Q 1456 2553 1204 2497 
Q 953 2441 691 2322 
L 691 4666 
z
" id="DejaVuSans-35" transform="scale(0.015625)"/>
       </defs>
       <use xlink:href="#DejaVuSans-30"/>
       <use x="63.623047" xlink:href="#DejaVuSans-2e"/>
       <use x="95.410156" xlink:href="#DejaVuSans-37"/>
       <use x="159.033203" xlink:href="#DejaVuSans-35"/>
      </g>
     </g>
    </g>
    <g id="ytick_2">
     <g id="line2d_15">
      <path clip-path="url(#p661300e0a3)" d="M 72 179.388844 
L 518.4 179.388844 
" style="fill:none;stroke:#ffffff;stroke-linecap:square;stroke-width:0.8;"/>
     </g>
     <g id="line2d_16">
      <g>
       <use style="fill:#555555;stroke:#555555;stroke-width:0.8;" x="72" xlink:href="#mb43ffc09f4" y="179.388844"/>
      </g>
     </g>
     <g id="text_9">
      <!-- 0.80 -->
      <g style="fill:#555555;" transform="translate(42.734375 183.188063)scale(0.1 -0.1)">
       <use xlink:href="#DejaVuSans-30"/>
       <use x="63.623047" xlink:href="#DejaVuSans-2e"/>
       <use x="95.410156" xlink:href="#DejaVuSans-38"/>
       <use x="159.033203" xlink:href="#DejaVuSans-30"/>
      </g>
     </g>
    </g>
    <g id="ytick_3">
     <g id="line2d_17">
      <path clip-path="url(#p661300e0a3)" d="M 72 137.816075 
L 518.4 137.816075 
" style="fill:none;stroke:#ffffff;stroke-linecap:square;stroke-width:0.8;"/>
     </g>
     <g id="line2d_18">
      <g>
       <use style="fill:#555555;stroke:#555555;stroke-width:0.8;" x="72" xlink:href="#mb43ffc09f4" y="137.816075"/>
      </g>
     </g>
     <g id="text_10">
      <!-- 0.85 -->
      <g style="fill:#555555;" transform="translate(42.734375 141.615294)scale(0.1 -0.1)">
       <use xlink:href="#DejaVuSans-30"/>
       <use x="63.623047" xlink:href="#DejaVuSans-2e"/>
       <use x="95.410156" xlink:href="#DejaVuSans-38"/>
       <use x="159.033203" xlink:href="#DejaVuSans-35"/>
      </g>
     </g>
    </g>
    <g id="ytick_4">
     <g id="line2d_19">
      <path clip-path="url(#p661300e0a3)" d="M 72 96.243306 
L 518.4 96.243306 
" style="fill:none;stroke:#ffffff;stroke-linecap:square;stroke-width:0.8;"/>
     </g>
     <g id="line2d_20">
      <g>
       <use style="fill:#555555;stroke:#555555;stroke-width:0.8;" x="72" xlink:href="#mb43ffc09f4" y="96.243306"/>
      </g>
     </g>
     <g id="text_11">
      <!-- 0.90 -->
      <g style="fill:#555555;" transform="translate(42.734375 100.042525)scale(0.1 -0.1)">
       <defs>
        <path d="M 703 97 
L 703 672 
Q 941 559 1184 500 
Q 1428 441 1663 441 
Q 2288 441 2617 861 
Q 2947 1281 2994 2138 
Q 2813 1869 2534 1725 
Q 2256 1581 1919 1581 
Q 1219 1581 811 2004 
Q 403 2428 403 3163 
Q 403 3881 828 4315 
Q 1253 4750 1959 4750 
Q 2769 4750 3195 4129 
Q 3622 3509 3622 2328 
Q 3622 1225 3098 567 
Q 2575 -91 1691 -91 
Q 1453 -91 1209 -44 
Q 966 3 703 97 
z
M 1959 2075 
Q 2384 2075 2632 2365 
Q 2881 2656 2881 3163 
Q 2881 3666 2632 3958 
Q 2384 4250 1959 4250 
Q 1534 4250 1286 3958 
Q 1038 3666 1038 3163 
Q 1038 2656 1286 2365 
Q 1534 2075 1959 2075 
z
" id="DejaVuSans-39" transform="scale(0.015625)"/>
       </defs>
       <use xlink:href="#DejaVuSans-30"/>
       <use x="63.623047" xlink:href="#DejaVuSans-2e"/>
       <use x="95.410156" xlink:href="#DejaVuSans-39"/>
       <use x="159.033203" xlink:href="#DejaVuSans-30"/>
      </g>
     </g>
    </g>
    <g id="ytick_5">
     <g id="line2d_21">
      <path clip-path="url(#p661300e0a3)" d="M 72 54.670538 
L 518.4 54.670538 
" style="fill:none;stroke:#ffffff;stroke-linecap:square;stroke-width:0.8;"/>
     </g>
     <g id="line2d_22">
      <g>
       <use style="fill:#555555;stroke:#555555;stroke-width:0.8;" x="72" xlink:href="#mb43ffc09f4" y="54.670538"/>
      </g>
     </g>
     <g id="text_12">
      <!-- 0.95 -->
      <g style="fill:#555555;" transform="translate(42.734375 58.469756)scale(0.1 -0.1)">
       <use xlink:href="#DejaVuSans-30"/>
       <use x="63.623047" xlink:href="#DejaVuSans-2e"/>
       <use x="95.410156" xlink:href="#DejaVuSans-39"/>
       <use x="159.033203" xlink:href="#DejaVuSans-35"/>
      </g>
     </g>
    </g>
    <g id="text_13">
     <!-- Accuracy -->
     <g style="fill:#555555;" transform="translate(36.23875 170.67375)rotate(-90)scale(0.12 -0.12)">
      <defs>
       <path d="M 2188 4044 
L 1331 1722 
L 3047 1722 
L 2188 4044 
z
M 1831 4666 
L 2547 4666 
L 4325 0 
L 3669 0 
L 3244 1197 
L 1141 1197 
L 716 0 
L 50 0 
L 1831 4666 
z
" id="DejaVuSans-41" transform="scale(0.015625)"/>
       <path d="M 2194 1759 
Q 1497 1759 1228 1600 
Q 959 1441 959 1056 
Q 959 750 1161 570 
Q 1363 391 1709 391 
Q 2188 391 2477 730 
Q 2766 1069 2766 1631 
L 2766 1759 
L 2194 1759 
z
M 3341 1997 
L 3341 0 
L 2766 0 
L 2766 531 
Q 2569 213 2275 61 
Q 1981 -91 1556 -91 
Q 1019 -91 701 211 
Q 384 513 384 1019 
Q 384 1609 779 1909 
Q 1175 2209 1959 2209 
L 2766 2209 
L 2766 2266 
Q 2766 2663 2505 2880 
Q 2244 3097 1772 3097 
Q 1472 3097 1187 3025 
Q 903 2953 641 2809 
L 641 3341 
Q 956 3463 1253 3523 
Q 1550 3584 1831 3584 
Q 2591 3584 2966 3190 
Q 3341 2797 3341 1997 
z
" id="DejaVuSans-61" transform="scale(0.015625)"/>
       <path d="M 2059 -325 
Q 1816 -950 1584 -1140 
Q 1353 -1331 966 -1331 
L 506 -1331 
L 506 -850 
L 844 -850 
Q 1081 -850 1212 -737 
Q 1344 -625 1503 -206 
L 1606 56 
L 191 3500 
L 800 3500 
L 1894 763 
L 2988 3500 
L 3597 3500 
L 2059 -325 
z
" id="DejaVuSans-79" transform="scale(0.015625)"/>
      </defs>
      <use xlink:href="#DejaVuSans-41"/>
      <use x="66.658203" xlink:href="#DejaVuSans-63"/>
      <use x="121.638672" xlink:href="#DejaVuSans-63"/>
      <use x="176.619141" xlink:href="#DejaVuSans-75"/>
      <use x="239.998047" xlink:href="#DejaVuSans-72"/>
      <use x="281.111328" xlink:href="#DejaVuSans-61"/>
      <use x="342.390625" xlink:href="#DejaVuSans-63"/>
      <use x="397.371094" xlink:href="#DejaVuSans-79"/>
     </g>
    </g>
   </g>
   <g id="line2d_23">
    <path clip-path="url(#p661300e0a3)" d="M 92.290909 235.811406 
L 96.390083 190.55529 
L 100.489256 166.293422 
L 104.58843 154.378666 
L 108.687603 148.042976 
L 112.786777 145.207714 
L 116.88595 137.358775 
L 120.985124 134.889352 
L 125.084298 129.252085 
L 129.183471 127.481085 
L 133.282645 123.988972 
L 137.381818 126.150756 
L 141.480992 121.04562 
L 145.580165 118.368334 
L 149.679339 115.574644 
L 153.778512 114.236001 
L 157.877686 110.103667 
L 161.97686 112.232193 
L 166.076033 106.994024 
L 170.175207 108.648621 
L 174.27438 106.104367 
L 178.373554 102.495851 
L 182.472727 106.910879 
L 186.571901 102.687086 
L 190.671074 105.688639 
L 194.770248 100.450471 
L 198.869421 97.374086 
L 202.968595 97.507119 
L 207.067769 100.08463 
L 211.166942 97.457231 
L 215.266116 95.935668 
L 219.365289 100.583503 
L 223.464463 93.125349 
L 227.563636 91.919738 
L 231.66281 91.88648 
L 235.761983 94.256128 
L 239.861157 89.599978 
L 243.960331 91.928053 
L 248.059504 89.733011 
L 252.158678 87.496396 
L 256.257851 88.186504 
L 260.357025 89.292339 
L 264.456198 87.288532 
L 268.555372 87.313476 
L 272.654545 85.725396 
L 276.753719 87.130555 
L 280.852893 88.693692 
L 284.952066 85.135063 
L 289.05124 81.709466 
L 293.150413 83.330804 
L 297.249587 86.373931 
L 301.34876 83.480466 
L 305.447934 82.66564 
L 309.547107 80.728349 
L 313.646281 79.589255 
L 317.745455 80.661833 
L 321.844628 80.05487 
L 325.943802 79.364762 
L 330.042975 78.317128 
L 334.142149 79.190157 
L 338.241322 81.360255 
L 342.340496 77.07826 
L 346.439669 76.953542 
L 350.538843 75.165913 
L 354.638017 76.69579 
L 358.73719 79.331504 
L 362.836364 74.534006 
L 366.935537 74.326143 
L 371.034711 74.46749 
L 375.133884 71.366161 
L 379.233058 73.394913 
L 383.332231 75.980739 
L 387.431405 74.209739 
L 391.530579 72.280762 
L 395.629752 71.540767 
L 399.728926 73.419856 
L 403.828099 70.451561 
L 407.927273 72.172673 
L 412.026446 72.646603 
L 416.12562 70.168866 
L 420.224793 68.672246 
L 424.323967 68.730448 
L 428.42314 67.558096 
L 432.522314 69.852913 
L 436.621488 68.264833 
L 440.720661 66.493833 
L 444.819835 69.578532 
L 448.919008 69.06303 
L 453.018182 66.510462 
L 457.117355 68.206631 
L 461.216529 69.412241 
L 465.315702 66.152936 
L 469.414876 66.335856 
L 473.51405 69.279208 
L 477.613223 67.832476 
L 481.712397 67.134054 
L 485.81157 70.027518 
L 489.910744 65.354739 
L 494.009917 63.425763 
L 498.109091 64.490026 
" style="fill:none;stroke:#e24a33;stroke-linecap:square;stroke-width:1.5;"/>
   </g>
   <g id="line2d_24">
    <path clip-path="url(#p661300e0a3)" d="M 92.290909 213.120989 
L 96.390083 173.859666 
L 100.489256 158.444483 
L 104.58843 144.326371 
L 108.687603 133.883291 
L 112.786777 133.010263 
L 116.88595 123.448526 
L 120.985124 114.80139 
L 125.084298 118.900465 
L 129.183471 113.03039 
L 133.282645 111.176245 
L 137.381818 105.597179 
L 141.480992 103.618316 
L 145.580165 101.30687 
L 149.679339 98.471607 
L 153.778512 95.644658 
L 157.877686 99.33632 
L 161.97686 92.709621 
L 166.076033 92.751194 
L 170.175207 90.339973 
L 174.27438 90.215255 
L 178.373554 86.781344 
L 182.472727 86.615053 
L 186.571901 89.541776 
L 190.671074 84.428325 
L 194.770248 81.933959 
L 198.869421 77.876457 
L 202.968595 82.10025 
L 207.067769 83.164513 
L 211.166942 84.195518 
L 215.266116 75.87265 
L 219.365289 78.450161 
L 223.464463 74.691983 
L 227.563636 77.951288 
L 231.66281 73.802326 
L 235.761983 70.717626 
L 239.861157 74.83333 
L 243.960331 73.303452 
L 248.059504 71.474251 
L 252.158678 71.241443 
L 256.257851 67.042594 
L 260.357025 68.929997 
L 264.456198 69.586847 
L 268.555372 70.260326 
L 272.654545 67.541467 
L 276.753719 67.616298 
L 280.852893 66.643495 
L 284.952066 63.226213 
L 289.05124 63.75003 
L 293.150413 60.515669 
L 297.249587 62.702396 
L 301.34876 61.438584 
L 305.447934 61.895885 
L 309.547107 58.844443 
L 313.646281 57.106702 
L 317.745455 57.879955 
L 321.844628 63.209584 
L 325.943802 60.673645 
L 330.042975 64.282162 
L 334.142149 63.700143 
L 338.241322 57.264678 
L 342.340496 59.825561 
L 346.439669 59.717472 
L 350.538843 55.576824 
L 354.638017 56.981983 
L 358.73719 57.389397 
L 362.836364 56.923782 
L 366.935537 55.402218 
L 371.034711 57.164904 
L 375.133884 54.778627 
L 379.233058 59.102195 
L 383.332231 54.687167 
L 387.431405 53.257063 
L 391.530579 54.678852 
L 395.629752 50.596406 
L 399.728926 56.582885 
L 403.828099 53.381782 
L 407.927273 51.103594 
L 412.026446 53.23212 
L 416.12562 52.284261 
L 420.224793 51.303143 
L 424.323967 49.698434 
L 428.42314 54.845143 
L 432.522314 49.299336 
L 436.621488 50.762697 
L 440.720661 56.948725 
L 444.819835 53.356838 
L 448.919008 49.282707 
L 453.018182 53.573016 
L 457.117355 49.407425 
L 461.216529 50.671237 
L 465.315702 50.247195 
L 469.414876 49.756636 
L 473.51405 47.037777 
L 477.613223 48.235073 
L 481.712397 49.889669 
L 485.81157 47.245641 
L 489.910744 47.511707 
L 494.009917 44.443636 
L 498.109091 50.662923 
" style="fill:none;stroke:#348abd;stroke-linecap:square;stroke-width:1.5;"/>
   </g>
   <g id="line2d_25">
    <path clip-path="url(#p661300e0a3)" d="M 92.290909 200.657473 
L 96.390083 162.626704 
L 100.489256 150.961385 
L 104.58843 136.793385 
L 108.687603 133.07678 
L 112.786777 129.892305 
L 116.88595 121.186968 
L 120.985124 114.302517 
L 125.084298 112.872414 
L 129.183471 110.461193 
L 133.282645 107.102114 
L 137.381818 104.782353 
L 141.480992 101.065748 
L 145.580165 96.875212 
L 149.679339 94.813203 
L 153.778512 97.714982 
L 157.877686 90.398175 
L 161.97686 93.399729 
L 166.076033 88.618861 
L 170.175207 84.835739 
L 174.27438 84.420011 
L 178.373554 82.831931 
L 182.472727 77.868143 
L 186.571901 83.68833 
L 190.671074 85.434386 
L 194.770248 79.905208 
L 198.869421 75.639842 
L 202.968595 79.439593 
L 207.067769 79.431279 
L 211.166942 73.652664 
L 215.266116 76.729049 
L 219.365289 72.588401 
L 223.464463 71.740316 
L 227.563636 75.265687 
L 231.66281 70.626166 
L 235.761983 69.087974 
L 239.861157 65.712265 
L 243.960331 66.751584 
L 248.059504 67.275401 
L 252.158678 65.121932 
L 256.257851 67.724387 
L 260.357025 62.386443 
L 264.456198 63.708457 
L 268.555372 61.288922 
L 272.654545 64.997213 
L 276.753719 63.94958 
L 280.852893 60.158143 
L 284.952066 61.347124 
L 289.05124 59.268486 
L 293.150413 56.591199 
L 297.249587 61.804425 
L 301.34876 59.775674 
L 305.447934 59.418148 
L 309.547107 60.49904 
L 313.646281 62.378129 
L 317.745455 56.57457 
L 321.844628 57.879955 
L 325.943802 63.38419 
L 330.042975 61.97903 
L 334.142149 57.065129 
L 338.241322 62.303298 
L 342.340496 59.958594 
L 346.439669 53.015941 
L 350.538843 58.287368 
L 354.638017 53.423354 
L 358.73719 57.081758 
L 362.836364 55.477049 
L 366.935537 56.20873 
L 371.034711 54.778627 
L 375.133884 52.708303 
L 379.233058 52.159542 
L 383.332231 53.024256 
L 387.431405 54.479303 
L 391.530579 53.148974 
L 395.629752 55.435476 
L 399.728926 49.731693 
L 403.828099 53.822453 
L 407.927273 50.338655 
L 412.026446 53.789195 
L 416.12562 49.981129 
L 420.224793 56.882209 
L 424.323967 50.571462 
L 428.42314 52.517068 
L 432.522314 52.675045 
L 436.621488 50.80427 
L 440.720661 47.187439 
L 444.819835 51.095279 
L 448.919008 50.188993 
L 453.018182 47.046092 
L 457.117355 51.020448 
L 461.216529 50.405171 
L 465.315702 47.054406 
L 469.414876 47.204068 
L 473.51405 47.162495 
L 477.613223 51.55258 
L 481.712397 49.9645 
L 485.81157 45.300035 
L 489.910744 46.563848 
L 494.009917 48.709002 
L 498.109091 49.789894 
" style="fill:none;stroke:#988ed5;stroke-linecap:square;stroke-width:1.5;"/>
   </g>
   <g id="line2d_26">
    <path clip-path="url(#p661300e0a3)" d="M 92.290909 242.116364 
L 96.390083 200.911961 
L 100.489256 180.072953 
L 104.58843 170.390181 
L 108.687603 164.601568 
L 112.786777 164.127954 
L 116.88595 160.181172 
L 120.985124 159.918054 
L 125.084298 156.550133 
L 129.183471 159.286568 
L 133.282645 154.55043 
L 137.381818 160.760034 
L 141.480992 156.234391 
L 145.580165 152.813846 
L 149.679339 154.813549 
L 153.778512 152.919094 
L 157.877686 150.393153 
L 161.97686 155.497658 
L 166.076033 153.234836 
L 170.175207 158.497212 
L 174.27438 153.129589 
L 178.373554 155.445034 
L 182.472727 157.286866 
L 186.571901 155.708153 
L 190.671074 158.970826 
L 194.770248 157.023747 
L 198.869421 155.655529 
L 202.968595 156.234391 
L 207.067769 159.654935 
L 211.166942 158.918202 
L 215.266116 158.707707 
L 219.365289 160.496915 
L 223.464463 156.813252 
L 227.563636 156.076519 
L 231.66281 157.234242 
L 235.761983 158.970826 
L 239.861157 158.444588 
L 243.960331 163.022855 
L 248.059504 158.444588 
L 252.158678 158.18147 
L 256.257851 158.444588 
L 260.357025 162.023004 
L 264.456198 159.707559 
L 268.555372 162.233499 
L 272.654545 158.234093 
L 276.753719 163.391222 
L 280.852893 163.601717 
L 284.952066 162.496618 
L 289.05124 163.022855 
L 293.150413 165.969786 
L 297.249587 166.127657 
L 301.34876 161.391519 
L 305.447934 162.601865 
L 309.547107 164.022707 
L 313.646281 164.391073 
L 317.745455 167.074885 
L 321.844628 165.496172 
L 325.943802 163.285974 
L 330.042975 167.758994 
L 334.142149 164.759439 
L 338.241322 168.285231 
L 342.340496 166.601271 
L 346.439669 167.70637 
L 350.538843 169.337706 
L 354.638017 167.653746 
L 358.73719 170.705924 
L 362.836364 168.022112 
L 366.935537 167.548498 
L 371.034711 167.601122 
L 375.133884 166.759142 
L 379.233058 171.863647 
L 383.332231 171.811023 
L 387.431405 169.706073 
L 391.530579 169.916568 
L 395.629752 171.337409 
L 399.728926 171.811023 
L 403.828099 169.021964 
L 407.927273 169.969191 
L 412.026446 172.495132 
L 416.12562 171.863647 
L 420.224793 168.916716 
L 424.323967 172.442508 
L 428.42314 172.705627 
L 432.522314 171.337409 
L 436.621488 170.6533 
L 440.720661 171.390033 
L 444.819835 174.389587 
L 448.919008 173.337112 
L 453.018182 176.705032 
L 457.117355 173.863349 
L 461.216529 177.126022 
L 465.315702 175.284191 
L 469.414876 175.652557 
L 473.51405 175.652557 
L 477.613223 171.91627 
L 481.712397 176.968151 
L 485.81157 181.020181 
L 489.910744 175.915676 
L 494.009917 176.862904 
L 498.109091 173.705478 
" style="fill:none;stroke:#777777;stroke-dasharray:5.55,2.4;stroke-dashoffset:0;stroke-width:1.5;"/>
   </g>
   <g id="line2d_27">
    <path clip-path="url(#p661300e0a3)" d="M 92.290909 219.014534 
L 96.390083 183.546121 
L 100.489256 169.969191 
L 104.58843 160.812657 
L 108.687603 154.287311 
L 112.786777 155.287163 
L 116.88595 147.288352 
L 120.985124 145.499144 
L 125.084298 151.445629 
L 129.183471 145.762263 
L 133.282645 149.235431 
L 137.381818 145.02553 
L 141.480992 145.814886 
L 145.580165 145.551768 
L 149.679339 147.55147 
L 153.778512 146.130629 
L 157.877686 149.288054 
L 161.97686 145.183401 
L 166.076033 147.446223 
L 170.175207 147.235728 
L 174.27438 147.972461 
L 178.373554 146.2885 
L 182.472727 150.76152 
L 186.571901 149.814292 
L 190.671074 149.603797 
L 194.770248 148.288203 
L 198.869421 148.235579 
L 202.968595 151.761371 
L 207.067769 155.234539 
L 211.166942 155.918648 
L 215.266116 151.235134 
L 219.365289 155.129292 
L 223.464463 151.708747 
L 227.563636 156.602757 
L 231.66281 153.918945 
L 235.761983 151.393005 
L 239.861157 155.339787 
L 243.960331 157.076371 
L 248.059504 156.023895 
L 252.158678 155.287163 
L 256.257851 156.181767 
L 260.357025 155.760777 
L 264.456198 157.392113 
L 268.555372 156.392262 
L 272.654545 157.497361 
L 276.753719 157.918351 
L 280.852893 157.076371 
L 284.952066 156.918499 
L 289.05124 159.391816 
L 293.150413 159.339192 
L 297.249587 159.918054 
L 301.34876 159.497064 
L 305.447934 158.023598 
L 309.547107 160.549539 
L 313.646281 156.129143 
L 317.745455 158.707707 
L 321.844628 165.338301 
L 325.943802 160.075925 
L 330.042975 163.180727 
L 334.142149 161.1284 
L 338.241322 161.023152 
L 342.340496 161.1284 
L 346.439669 161.812509 
L 350.538843 160.70741 
L 354.638017 161.496766 
L 358.73719 162.338746 
L 362.836364 161.707261 
L 366.935537 160.023301 
L 371.034711 162.759737 
L 375.133884 163.706964 
L 379.233058 163.759588 
L 383.332231 162.075628 
L 387.431405 161.286271 
L 391.530579 166.338152 
L 395.629752 162.443994 
L 399.728926 163.917459 
L 403.828099 164.233202 
L 407.927273 163.970083 
L 412.026446 163.970083 
L 416.12562 160.549539 
L 420.224793 162.023004 
L 424.323967 160.70741 
L 428.42314 163.391222 
L 432.522314 162.917608 
L 436.621488 164.496321 
L 440.720661 169.548201 
L 444.819835 163.496469 
L 448.919008 161.181024 
L 453.018182 167.548498 
L 457.117355 162.759737 
L 461.216529 164.391073 
L 465.315702 162.917608 
L 469.414876 164.180578 
L 473.51405 165.127806 
L 477.613223 163.812212 
L 481.712397 164.496321 
L 485.81157 164.969934 
L 489.910744 165.075182 
L 494.009917 163.23335 
L 498.109091 167.864241 
" style="fill:none;stroke:#fbc15e;stroke-dasharray:5.55,2.4;stroke-dashoffset:0;stroke-width:1.5;"/>
   </g>
   <g id="line2d_28">
    <path clip-path="url(#p661300e0a3)" d="M 92.290909 205.121862 
L 96.390083 171.284785 
L 100.489256 164.127954 
L 104.58843 154.392559 
L 108.687603 155.8134 
L 112.786777 152.287609 
L 116.88595 149.603797 
L 120.985124 143.183699 
L 125.084298 146.341124 
L 129.183471 148.919688 
L 133.282645 144.18355 
L 137.381818 148.446074 
L 141.480992 148.235579 
L 145.580165 147.077857 
L 149.679339 146.025381 
L 153.778512 148.077708 
L 157.877686 145.130778 
L 161.97686 149.551173 
L 166.076033 148.182956 
L 170.175207 146.446372 
L 174.27438 150.287906 
L 178.373554 151.235134 
L 182.472727 146.2885 
L 186.571901 150.445777 
L 190.671074 153.234836 
L 194.770248 148.709193 
L 198.869421 150.708896 
L 202.968595 150.393153 
L 207.067769 154.024193 
L 211.166942 150.814143 
L 215.266116 154.813549 
L 219.365289 151.18251 
L 223.464463 153.813698 
L 227.563636 152.234985 
L 231.66281 153.655826 
L 235.761983 152.919094 
L 239.861157 151.550876 
L 243.960331 154.760925 
L 248.059504 153.445331 
L 252.158678 151.761371 
L 256.257851 155.866024 
L 260.357025 154.12944 
L 264.456198 155.760777 
L 268.555372 153.70845 
L 272.654545 155.181915 
L 276.753719 157.076371 
L 280.852893 156.339638 
L 284.952066 157.497361 
L 289.05124 156.129143 
L 293.150413 153.234836 
L 297.249587 159.233945 
L 301.34876 156.655381 
L 305.447934 158.865578 
L 309.547107 157.392113 
L 313.646281 163.23335 
L 317.745455 155.8134 
L 321.844628 157.655232 
L 325.943802 157.707856 
L 330.042975 160.70741 
L 334.142149 158.970826 
L 338.241322 159.181321 
L 342.340496 159.181321 
L 346.439669 158.339341 
L 350.538843 161.865133 
L 354.638017 159.970677 
L 358.73719 160.233796 
L 362.836364 161.654638 
L 366.935537 158.655083 
L 371.034711 162.338746 
L 375.133884 159.707559 
L 379.233058 158.655083 
L 383.332231 159.233945 
L 387.431405 161.865133 
L 391.530579 159.44444 
L 395.629752 162.549241 
L 399.728926 161.917756 
L 403.828099 164.07533 
L 407.927273 159.44444 
L 412.026446 164.07533 
L 416.12562 159.549687 
L 420.224793 164.285825 
L 424.323967 163.338598 
L 428.42314 161.812509 
L 432.522314 162.443994 
L 436.621488 161.917756 
L 440.720661 162.233499 
L 444.819835 162.180875 
L 448.919008 161.233648 
L 453.018182 162.286123 
L 457.117355 161.444143 
L 461.216529 164.654192 
L 465.315702 164.601568 
L 469.414876 161.654638 
L 473.51405 161.54939 
L 477.613223 165.496172 
L 481.712397 165.654043 
L 485.81157 160.70741 
L 489.910744 163.65434 
L 494.009917 162.917608 
L 498.109091 166.653895 
" style="fill:none;stroke:#8eba42;stroke-dasharray:5.55,2.4;stroke-dashoffset:0;stroke-width:1.5;"/>
   </g>
   <g id="patch_3">
    <path d="M 72 252 
L 72 34.56 
" style="fill:none;stroke:#ffffff;stroke-linecap:square;stroke-linejoin:miter;"/>
   </g>
   <g id="patch_4">
    <path d="M 518.4 252 
L 518.4 34.56 
" style="fill:none;stroke:#ffffff;stroke-linecap:square;stroke-linejoin:miter;"/>
   </g>
   <g id="patch_5">
    <path d="M 72 252 
L 518.4 252 
" style="fill:none;stroke:#ffffff;stroke-linecap:square;stroke-linejoin:miter;"/>
   </g>
   <g id="patch_6">
    <path d="M 72 34.56 
L 518.4 34.56 
" style="fill:none;stroke:#ffffff;stroke-linecap:square;stroke-linejoin:miter;"/>
   </g>
   <g id="legend_1">
    <g id="patch_7">
     <path d="M 79 247 
L 178.225 247 
Q 180.225 247 180.225 245 
L 180.225 157.93125 
Q 180.225 155.93125 178.225 155.93125 
L 79 155.93125 
Q 77 155.93125 77 157.93125 
L 77 245 
Q 77 247 79 247 
z
" style="fill:#e5e5e5;opacity:0.8;stroke:#cccccc;stroke-linejoin:miter;stroke-width:0.5;"/>
    </g>
    <g id="line2d_29">
     <path d="M 81 164.029688 
L 101 164.029688 
" style="fill:none;stroke:#e24a33;stroke-linecap:square;stroke-width:1.5;"/>
    </g>
    <g id="line2d_30"/>
    <g id="text_14">
     <!-- depth1(train) -->
     <g transform="translate(109 167.529688)scale(0.1 -0.1)">
      <defs>
       <path d="M 2906 2969 
L 2906 4863 
L 3481 4863 
L 3481 0 
L 2906 0 
L 2906 525 
Q 2725 213 2448 61 
Q 2172 -91 1784 -91 
Q 1150 -91 751 415 
Q 353 922 353 1747 
Q 353 2572 751 3078 
Q 1150 3584 1784 3584 
Q 2172 3584 2448 3432 
Q 2725 3281 2906 2969 
z
M 947 1747 
Q 947 1113 1208 752 
Q 1469 391 1925 391 
Q 2381 391 2643 752 
Q 2906 1113 2906 1747 
Q 2906 2381 2643 2742 
Q 2381 3103 1925 3103 
Q 1469 3103 1208 2742 
Q 947 2381 947 1747 
z
" id="DejaVuSans-64" transform="scale(0.015625)"/>
       <path d="M 1172 4494 
L 1172 3500 
L 2356 3500 
L 2356 3053 
L 1172 3053 
L 1172 1153 
Q 1172 725 1289 603 
Q 1406 481 1766 481 
L 2356 481 
L 2356 0 
L 1766 0 
Q 1100 0 847 248 
Q 594 497 594 1153 
L 594 3053 
L 172 3053 
L 172 3500 
L 594 3500 
L 594 4494 
L 1172 4494 
z
" id="DejaVuSans-74" transform="scale(0.015625)"/>
       <path d="M 1984 4856 
Q 1566 4138 1362 3434 
Q 1159 2731 1159 2009 
Q 1159 1288 1364 580 
Q 1569 -128 1984 -844 
L 1484 -844 
Q 1016 -109 783 600 
Q 550 1309 550 2009 
Q 550 2706 781 3412 
Q 1013 4119 1484 4856 
L 1984 4856 
z
" id="DejaVuSans-28" transform="scale(0.015625)"/>
       <path d="M 603 3500 
L 1178 3500 
L 1178 0 
L 603 0 
L 603 3500 
z
M 603 4863 
L 1178 4863 
L 1178 4134 
L 603 4134 
L 603 4863 
z
" id="DejaVuSans-69" transform="scale(0.015625)"/>
       <path d="M 513 4856 
L 1013 4856 
Q 1481 4119 1714 3412 
Q 1947 2706 1947 2009 
Q 1947 1309 1714 600 
Q 1481 -109 1013 -844 
L 513 -844 
Q 928 -128 1133 580 
Q 1338 1288 1338 2009 
Q 1338 2731 1133 3434 
Q 928 4138 513 4856 
z
" id="DejaVuSans-29" transform="scale(0.015625)"/>
      </defs>
      <use xlink:href="#DejaVuSans-64"/>
      <use x="63.476562" xlink:href="#DejaVuSans-65"/>
      <use x="125" xlink:href="#DejaVuSans-70"/>
      <use x="188.476562" xlink:href="#DejaVuSans-74"/>
      <use x="227.685547" xlink:href="#DejaVuSans-68"/>
      <use x="291.064453" xlink:href="#DejaVuSans-31"/>
      <use x="354.6875" xlink:href="#DejaVuSans-28"/>
      <use x="393.701172" xlink:href="#DejaVuSans-74"/>
      <use x="432.910156" xlink:href="#DejaVuSans-72"/>
      <use x="474.023438" xlink:href="#DejaVuSans-61"/>
      <use x="535.302734" xlink:href="#DejaVuSans-69"/>
      <use x="563.085938" xlink:href="#DejaVuSans-6e"/>
      <use x="626.464844" xlink:href="#DejaVuSans-29"/>
     </g>
    </g>
    <g id="line2d_31">
     <path d="M 81 178.707813 
L 101 178.707813 
" style="fill:none;stroke:#348abd;stroke-linecap:square;stroke-width:1.5;"/>
    </g>
    <g id="line2d_32"/>
    <g id="text_15">
     <!-- depth2(train) -->
     <g transform="translate(109 182.207813)scale(0.1 -0.1)">
      <use xlink:href="#DejaVuSans-64"/>
      <use x="63.476562" xlink:href="#DejaVuSans-65"/>
      <use x="125" xlink:href="#DejaVuSans-70"/>
      <use x="188.476562" xlink:href="#DejaVuSans-74"/>
      <use x="227.685547" xlink:href="#DejaVuSans-68"/>
      <use x="291.064453" xlink:href="#DejaVuSans-32"/>
      <use x="354.6875" xlink:href="#DejaVuSans-28"/>
      <use x="393.701172" xlink:href="#DejaVuSans-74"/>
      <use x="432.910156" xlink:href="#DejaVuSans-72"/>
      <use x="474.023438" xlink:href="#DejaVuSans-61"/>
      <use x="535.302734" xlink:href="#DejaVuSans-69"/>
      <use x="563.085938" xlink:href="#DejaVuSans-6e"/>
      <use x="626.464844" xlink:href="#DejaVuSans-29"/>
     </g>
    </g>
    <g id="line2d_33">
     <path d="M 81 193.385938 
L 101 193.385938 
" style="fill:none;stroke:#988ed5;stroke-linecap:square;stroke-width:1.5;"/>
    </g>
    <g id="line2d_34"/>
    <g id="text_16">
     <!-- depth3(train) -->
     <g transform="translate(109 196.885938)scale(0.1 -0.1)">
      <defs>
       <path d="M 2597 2516 
Q 3050 2419 3304 2112 
Q 3559 1806 3559 1356 
Q 3559 666 3084 287 
Q 2609 -91 1734 -91 
Q 1441 -91 1130 -33 
Q 819 25 488 141 
L 488 750 
Q 750 597 1062 519 
Q 1375 441 1716 441 
Q 2309 441 2620 675 
Q 2931 909 2931 1356 
Q 2931 1769 2642 2001 
Q 2353 2234 1838 2234 
L 1294 2234 
L 1294 2753 
L 1863 2753 
Q 2328 2753 2575 2939 
Q 2822 3125 2822 3475 
Q 2822 3834 2567 4026 
Q 2313 4219 1838 4219 
Q 1578 4219 1281 4162 
Q 984 4106 628 3988 
L 628 4550 
Q 988 4650 1302 4700 
Q 1616 4750 1894 4750 
Q 2613 4750 3031 4423 
Q 3450 4097 3450 3541 
Q 3450 3153 3228 2886 
Q 3006 2619 2597 2516 
z
" id="DejaVuSans-33" transform="scale(0.015625)"/>
      </defs>
      <use xlink:href="#DejaVuSans-64"/>
      <use x="63.476562" xlink:href="#DejaVuSans-65"/>
      <use x="125" xlink:href="#DejaVuSans-70"/>
      <use x="188.476562" xlink:href="#DejaVuSans-74"/>
      <use x="227.685547" xlink:href="#DejaVuSans-68"/>
      <use x="291.064453" xlink:href="#DejaVuSans-33"/>
      <use x="354.6875" xlink:href="#DejaVuSans-28"/>
      <use x="393.701172" xlink:href="#DejaVuSans-74"/>
      <use x="432.910156" xlink:href="#DejaVuSans-72"/>
      <use x="474.023438" xlink:href="#DejaVuSans-61"/>
      <use x="535.302734" xlink:href="#DejaVuSans-69"/>
      <use x="563.085938" xlink:href="#DejaVuSans-6e"/>
      <use x="626.464844" xlink:href="#DejaVuSans-29"/>
     </g>
    </g>
    <g id="line2d_35">
     <path d="M 81 208.064063 
L 101 208.064063 
" style="fill:none;stroke:#777777;stroke-dasharray:5.55,2.4;stroke-dashoffset:0;stroke-width:1.5;"/>
    </g>
    <g id="line2d_36"/>
    <g id="text_17">
     <!-- depth1(valid) -->
     <g transform="translate(109 211.564063)scale(0.1 -0.1)">
      <defs>
       <path d="M 191 3500 
L 800 3500 
L 1894 563 
L 2988 3500 
L 3597 3500 
L 2284 0 
L 1503 0 
L 191 3500 
z
" id="DejaVuSans-76" transform="scale(0.015625)"/>
       <path d="M 603 4863 
L 1178 4863 
L 1178 0 
L 603 0 
L 603 4863 
z
" id="DejaVuSans-6c" transform="scale(0.015625)"/>
      </defs>
      <use xlink:href="#DejaVuSans-64"/>
      <use x="63.476562" xlink:href="#DejaVuSans-65"/>
      <use x="125" xlink:href="#DejaVuSans-70"/>
      <use x="188.476562" xlink:href="#DejaVuSans-74"/>
      <use x="227.685547" xlink:href="#DejaVuSans-68"/>
      <use x="291.064453" xlink:href="#DejaVuSans-31"/>
      <use x="354.6875" xlink:href="#DejaVuSans-28"/>
      <use x="393.701172" xlink:href="#DejaVuSans-76"/>
      <use x="452.880859" xlink:href="#DejaVuSans-61"/>
      <use x="514.160156" xlink:href="#DejaVuSans-6c"/>
      <use x="541.943359" xlink:href="#DejaVuSans-69"/>
      <use x="569.726562" xlink:href="#DejaVuSans-64"/>
      <use x="633.203125" xlink:href="#DejaVuSans-29"/>
     </g>
    </g>
    <g id="line2d_37">
     <path d="M 81 222.742188 
L 101 222.742188 
" style="fill:none;stroke:#fbc15e;stroke-dasharray:5.55,2.4;stroke-dashoffset:0;stroke-width:1.5;"/>
    </g>
    <g id="line2d_38"/>
    <g id="text_18">
     <!-- depth2(valid) -->
     <g transform="translate(109 226.242188)scale(0.1 -0.1)">
      <use xlink:href="#DejaVuSans-64"/>
      <use x="63.476562" xlink:href="#DejaVuSans-65"/>
      <use x="125" xlink:href="#DejaVuSans-70"/>
      <use x="188.476562" xlink:href="#DejaVuSans-74"/>
      <use x="227.685547" xlink:href="#DejaVuSans-68"/>
      <use x="291.064453" xlink:href="#DejaVuSans-32"/>
      <use x="354.6875" xlink:href="#DejaVuSans-28"/>
      <use x="393.701172" xlink:href="#DejaVuSans-76"/>
      <use x="452.880859" xlink:href="#DejaVuSans-61"/>
      <use x="514.160156" xlink:href="#DejaVuSans-6c"/>
      <use x="541.943359" xlink:href="#DejaVuSans-69"/>
      <use x="569.726562" xlink:href="#DejaVuSans-64"/>
      <use x="633.203125" xlink:href="#DejaVuSans-29"/>
     </g>
    </g>
    <g id="line2d_39">
     <path d="M 81 237.420313 
L 101 237.420313 
" style="fill:none;stroke:#8eba42;stroke-dasharray:5.55,2.4;stroke-dashoffset:0;stroke-width:1.5;"/>
    </g>
    <g id="line2d_40"/>
    <g id="text_19">
     <!-- depth3(valid) -->
     <g transform="translate(109 240.920313)scale(0.1 -0.1)">
      <use xlink:href="#DejaVuSans-64"/>
      <use x="63.476562" xlink:href="#DejaVuSans-65"/>
      <use x="125" xlink:href="#DejaVuSans-70"/>
      <use x="188.476562" xlink:href="#DejaVuSans-74"/>
      <use x="227.685547" xlink:href="#DejaVuSans-68"/>
      <use x="291.064453" xlink:href="#DejaVuSans-33"/>
      <use x="354.6875" xlink:href="#DejaVuSans-28"/>
      <use x="393.701172" xlink:href="#DejaVuSans-76"/>
      <use x="452.880859" xlink:href="#DejaVuSans-61"/>
      <use x="514.160156" xlink:href="#DejaVuSans-6c"/>
      <use x="541.943359" xlink:href="#DejaVuSans-69"/>
      <use x="569.726562" xlink:href="#DejaVuSans-64"/>
      <use x="633.203125" xlink:href="#DejaVuSans-29"/>
     </g>
    </g>
   </g>
  </g>
 </g>
 <defs>
  <clipPath id="p661300e0a3">
   <rect height="217.44" width="446.4" x="72" y="34.56"/>
  </clipPath>
 </defs>
</svg>
