<?xml version="1.0" encoding="utf-8" standalone="no"?>
<!DOCTYPE svg PUBLIC "-//W3C//DTD SVG 1.1//EN"
  "http://www.w3.org/Graphics/SVG/1.1/DTD/svg11.dtd">
<svg height="288pt" version="1.1" viewBox="0 0 576 288" width="576pt" xmlns="http://www.w3.org/2000/svg" xmlns:xlink="http://www.w3.org/1999/xlink">
 <metadata>
  <rdf:RDF xmlns:cc="http://creativecommons.org/ns#" xmlns:dc="http://purl.org/dc/elements/1.1/" xmlns:rdf="http://www.w3.org/1999/02/22-rdf-syntax-ns#">
   <cc:Work>
    <dc:type rdf:resource="http://purl.org/dc/dcmitype/StillImage"/>
    <dc:date>2021-11-11T20:26:53.363263</dc:date>
    <dc:format>image/svg+xml</dc:format>
    <dc:creator>
     <cc:Agent>
      <dc:title>Matplotlib v3.4.2, https://matplotlib.org/</dc:title>
     </cc:Agent>
    </dc:creator>
   </cc:Work>
  </rdf:RDF>
 </metadata>
 <defs>
  <style type="text/css">*{stroke-linecap:butt;stroke-linejoin:round;}</style>
 </defs>
 <g id="figure_1">
  <g id="patch_1">
   <path d="M 0 288 
L 576 288 
L 576 0 
L 0 0 
z
" style="fill:#ffffff;"/>
  </g>
  <g id="axes_1">
   <g id="patch_2">
    <path d="M 72 252 
L 518.4 252 
L 518.4 34.56 
L 72 34.56 
z
" style="fill:#e5e5e5;"/>
   </g>
   <g id="matplotlib.axis_1">
    <g id="xtick_1">
     <g id="line2d_1">
      <path clip-path="url(#p21349236b1)" d="M 88.191736 252 
L 88.191736 34.56 
" style="fill:none;stroke:#ffffff;stroke-linecap:square;stroke-width:0.8;"/>
     </g>
     <g id="line2d_2">
      <defs>
       <path d="M 0 0 
L 0 3.5 
" id="m99ef7f5684" style="stroke:#555555;stroke-width:0.8;"/>
      </defs>
      <g>
       <use style="fill:#555555;stroke:#555555;stroke-width:0.8;" x="88.191736" xlink:href="#m99ef7f5684" y="252"/>
      </g>
     </g>
     <g id="text_1">
      <!-- 0 -->
      <g style="fill:#555555;" transform="translate(85.010486 266.598437)scale(0.1 -0.1)">
       <defs>
        <path d="M 2034 4250 
Q 1547 4250 1301 3770 
Q 1056 3291 1056 2328 
Q 1056 1369 1301 889 
Q 1547 409 2034 409 
Q 2525 409 2770 889 
Q 3016 1369 3016 2328 
Q 3016 3291 2770 3770 
Q 2525 4250 2034 4250 
z
M 2034 4750 
Q 2819 4750 3233 4129 
Q 3647 3509 3647 2328 
Q 3647 1150 3233 529 
Q 2819 -91 2034 -91 
Q 1250 -91 836 529 
Q 422 1150 422 2328 
Q 422 3509 836 4129 
Q 1250 4750 2034 4750 
z
" id="DejaVuSans-30" transform="scale(0.015625)"/>
       </defs>
       <use xlink:href="#DejaVuSans-30"/>
      </g>
     </g>
    </g>
    <g id="xtick_2">
     <g id="line2d_3">
      <path clip-path="url(#p21349236b1)" d="M 170.175207 252 
L 170.175207 34.56 
" style="fill:none;stroke:#ffffff;stroke-linecap:square;stroke-width:0.8;"/>
     </g>
     <g id="line2d_4">
      <g>
       <use style="fill:#555555;stroke:#555555;stroke-width:0.8;" x="170.175207" xlink:href="#m99ef7f5684" y="252"/>
      </g>
     </g>
     <g id="text_2">
      <!-- 20 -->
      <g style="fill:#555555;" transform="translate(163.812707 266.598437)scale(0.1 -0.1)">
       <defs>
        <path d="M 1228 531 
L 3431 531 
L 3431 0 
L 469 0 
L 469 531 
Q 828 903 1448 1529 
Q 2069 2156 2228 2338 
Q 2531 2678 2651 2914 
Q 2772 3150 2772 3378 
Q 2772 3750 2511 3984 
Q 2250 4219 1831 4219 
Q 1534 4219 1204 4116 
Q 875 4013 500 3803 
L 500 4441 
Q 881 4594 1212 4672 
Q 1544 4750 1819 4750 
Q 2544 4750 2975 4387 
Q 3406 4025 3406 3419 
Q 3406 3131 3298 2873 
Q 3191 2616 2906 2266 
Q 2828 2175 2409 1742 
Q 1991 1309 1228 531 
z
" id="DejaVuSans-32" transform="scale(0.015625)"/>
       </defs>
       <use xlink:href="#DejaVuSans-32"/>
       <use x="63.623047" xlink:href="#DejaVuSans-30"/>
      </g>
     </g>
    </g>
    <g id="xtick_3">
     <g id="line2d_5">
      <path clip-path="url(#p21349236b1)" d="M 252.158678 252 
L 252.158678 34.56 
" style="fill:none;stroke:#ffffff;stroke-linecap:square;stroke-width:0.8;"/>
     </g>
     <g id="line2d_6">
      <g>
       <use style="fill:#555555;stroke:#555555;stroke-width:0.8;" x="252.158678" xlink:href="#m99ef7f5684" y="252"/>
      </g>
     </g>
     <g id="text_3">
      <!-- 40 -->
      <g style="fill:#555555;" transform="translate(245.796178 266.598437)scale(0.1 -0.1)">
       <defs>
        <path d="M 2419 4116 
L 825 1625 
L 2419 1625 
L 2419 4116 
z
M 2253 4666 
L 3047 4666 
L 3047 1625 
L 3713 1625 
L 3713 1100 
L 3047 1100 
L 3047 0 
L 2419 0 
L 2419 1100 
L 313 1100 
L 313 1709 
L 2253 4666 
z
" id="DejaVuSans-34" transform="scale(0.015625)"/>
       </defs>
       <use xlink:href="#DejaVuSans-34"/>
       <use x="63.623047" xlink:href="#DejaVuSans-30"/>
      </g>
     </g>
    </g>
    <g id="xtick_4">
     <g id="line2d_7">
      <path clip-path="url(#p21349236b1)" d="M 334.142149 252 
L 334.142149 34.56 
" style="fill:none;stroke:#ffffff;stroke-linecap:square;stroke-width:0.8;"/>
     </g>
     <g id="line2d_8">
      <g>
       <use style="fill:#555555;stroke:#555555;stroke-width:0.8;" x="334.142149" xlink:href="#m99ef7f5684" y="252"/>
      </g>
     </g>
     <g id="text_4">
      <!-- 60 -->
      <g style="fill:#555555;" transform="translate(327.779649 266.598437)scale(0.1 -0.1)">
       <defs>
        <path d="M 2113 2584 
Q 1688 2584 1439 2293 
Q 1191 2003 1191 1497 
Q 1191 994 1439 701 
Q 1688 409 2113 409 
Q 2538 409 2786 701 
Q 3034 994 3034 1497 
Q 3034 2003 2786 2293 
Q 2538 2584 2113 2584 
z
M 3366 4563 
L 3366 3988 
Q 3128 4100 2886 4159 
Q 2644 4219 2406 4219 
Q 1781 4219 1451 3797 
Q 1122 3375 1075 2522 
Q 1259 2794 1537 2939 
Q 1816 3084 2150 3084 
Q 2853 3084 3261 2657 
Q 3669 2231 3669 1497 
Q 3669 778 3244 343 
Q 2819 -91 2113 -91 
Q 1303 -91 875 529 
Q 447 1150 447 2328 
Q 447 3434 972 4092 
Q 1497 4750 2381 4750 
Q 2619 4750 2861 4703 
Q 3103 4656 3366 4563 
z
" id="DejaVuSans-36" transform="scale(0.015625)"/>
       </defs>
       <use xlink:href="#DejaVuSans-36"/>
       <use x="63.623047" xlink:href="#DejaVuSans-30"/>
      </g>
     </g>
    </g>
    <g id="xtick_5">
     <g id="line2d_9">
      <path clip-path="url(#p21349236b1)" d="M 416.12562 252 
L 416.12562 34.56 
" style="fill:none;stroke:#ffffff;stroke-linecap:square;stroke-width:0.8;"/>
     </g>
     <g id="line2d_10">
      <g>
       <use style="fill:#555555;stroke:#555555;stroke-width:0.8;" x="416.12562" xlink:href="#m99ef7f5684" y="252"/>
      </g>
     </g>
     <g id="text_5">
      <!-- 80 -->
      <g style="fill:#555555;" transform="translate(409.76312 266.598437)scale(0.1 -0.1)">
       <defs>
        <path d="M 2034 2216 
Q 1584 2216 1326 1975 
Q 1069 1734 1069 1313 
Q 1069 891 1326 650 
Q 1584 409 2034 409 
Q 2484 409 2743 651 
Q 3003 894 3003 1313 
Q 3003 1734 2745 1975 
Q 2488 2216 2034 2216 
z
M 1403 2484 
Q 997 2584 770 2862 
Q 544 3141 544 3541 
Q 544 4100 942 4425 
Q 1341 4750 2034 4750 
Q 2731 4750 3128 4425 
Q 3525 4100 3525 3541 
Q 3525 3141 3298 2862 
Q 3072 2584 2669 2484 
Q 3125 2378 3379 2068 
Q 3634 1759 3634 1313 
Q 3634 634 3220 271 
Q 2806 -91 2034 -91 
Q 1263 -91 848 271 
Q 434 634 434 1313 
Q 434 1759 690 2068 
Q 947 2378 1403 2484 
z
M 1172 3481 
Q 1172 3119 1398 2916 
Q 1625 2713 2034 2713 
Q 2441 2713 2670 2916 
Q 2900 3119 2900 3481 
Q 2900 3844 2670 4047 
Q 2441 4250 2034 4250 
Q 1625 4250 1398 4047 
Q 1172 3844 1172 3481 
z
" id="DejaVuSans-38" transform="scale(0.015625)"/>
       </defs>
       <use xlink:href="#DejaVuSans-38"/>
       <use x="63.623047" xlink:href="#DejaVuSans-30"/>
      </g>
     </g>
    </g>
    <g id="xtick_6">
     <g id="line2d_11">
      <path clip-path="url(#p21349236b1)" d="M 498.109091 252 
L 498.109091 34.56 
" style="fill:none;stroke:#ffffff;stroke-linecap:square;stroke-width:0.8;"/>
     </g>
     <g id="line2d_12">
      <g>
       <use style="fill:#555555;stroke:#555555;stroke-width:0.8;" x="498.109091" xlink:href="#m99ef7f5684" y="252"/>
      </g>
     </g>
     <g id="text_6">
      <!-- 100 -->
      <g style="fill:#555555;" transform="translate(488.565341 266.598437)scale(0.1 -0.1)">
       <defs>
        <path d="M 794 531 
L 1825 531 
L 1825 4091 
L 703 3866 
L 703 4441 
L 1819 4666 
L 2450 4666 
L 2450 531 
L 3481 531 
L 3481 0 
L 794 0 
L 794 531 
z
" id="DejaVuSans-31" transform="scale(0.015625)"/>
       </defs>
       <use xlink:href="#DejaVuSans-31"/>
       <use x="63.623047" xlink:href="#DejaVuSans-30"/>
       <use x="127.246094" xlink:href="#DejaVuSans-30"/>
      </g>
     </g>
    </g>
    <g id="text_7">
     <!-- Epoch number -->
     <g style="fill:#555555;" transform="translate(251.503125 281.79625)scale(0.12 -0.12)">
      <defs>
       <path d="M 628 4666 
L 3578 4666 
L 3578 4134 
L 1259 4134 
L 1259 2753 
L 3481 2753 
L 3481 2222 
L 1259 2222 
L 1259 531 
L 3634 531 
L 3634 0 
L 628 0 
L 628 4666 
z
" id="DejaVuSans-45" transform="scale(0.015625)"/>
       <path d="M 1159 525 
L 1159 -1331 
L 581 -1331 
L 581 3500 
L 1159 3500 
L 1159 2969 
Q 1341 3281 1617 3432 
Q 1894 3584 2278 3584 
Q 2916 3584 3314 3078 
Q 3713 2572 3713 1747 
Q 3713 922 3314 415 
Q 2916 -91 2278 -91 
Q 1894 -91 1617 61 
Q 1341 213 1159 525 
z
M 3116 1747 
Q 3116 2381 2855 2742 
Q 2594 3103 2138 3103 
Q 1681 3103 1420 2742 
Q 1159 2381 1159 1747 
Q 1159 1113 1420 752 
Q 1681 391 2138 391 
Q 2594 391 2855 752 
Q 3116 1113 3116 1747 
z
" id="DejaVuSans-70" transform="scale(0.015625)"/>
       <path d="M 1959 3097 
Q 1497 3097 1228 2736 
Q 959 2375 959 1747 
Q 959 1119 1226 758 
Q 1494 397 1959 397 
Q 2419 397 2687 759 
Q 2956 1122 2956 1747 
Q 2956 2369 2687 2733 
Q 2419 3097 1959 3097 
z
M 1959 3584 
Q 2709 3584 3137 3096 
Q 3566 2609 3566 1747 
Q 3566 888 3137 398 
Q 2709 -91 1959 -91 
Q 1206 -91 779 398 
Q 353 888 353 1747 
Q 353 2609 779 3096 
Q 1206 3584 1959 3584 
z
" id="DejaVuSans-6f" transform="scale(0.015625)"/>
       <path d="M 3122 3366 
L 3122 2828 
Q 2878 2963 2633 3030 
Q 2388 3097 2138 3097 
Q 1578 3097 1268 2742 
Q 959 2388 959 1747 
Q 959 1106 1268 751 
Q 1578 397 2138 397 
Q 2388 397 2633 464 
Q 2878 531 3122 666 
L 3122 134 
Q 2881 22 2623 -34 
Q 2366 -91 2075 -91 
Q 1284 -91 818 406 
Q 353 903 353 1747 
Q 353 2603 823 3093 
Q 1294 3584 2113 3584 
Q 2378 3584 2631 3529 
Q 2884 3475 3122 3366 
z
" id="DejaVuSans-63" transform="scale(0.015625)"/>
       <path d="M 3513 2113 
L 3513 0 
L 2938 0 
L 2938 2094 
Q 2938 2591 2744 2837 
Q 2550 3084 2163 3084 
Q 1697 3084 1428 2787 
Q 1159 2491 1159 1978 
L 1159 0 
L 581 0 
L 581 4863 
L 1159 4863 
L 1159 2956 
Q 1366 3272 1645 3428 
Q 1925 3584 2291 3584 
Q 2894 3584 3203 3211 
Q 3513 2838 3513 2113 
z
" id="DejaVuSans-68" transform="scale(0.015625)"/>
       <path id="DejaVuSans-20" transform="scale(0.015625)"/>
       <path d="M 3513 2113 
L 3513 0 
L 2938 0 
L 2938 2094 
Q 2938 2591 2744 2837 
Q 2550 3084 2163 3084 
Q 1697 3084 1428 2787 
Q 1159 2491 1159 1978 
L 1159 0 
L 581 0 
L 581 3500 
L 1159 3500 
L 1159 2956 
Q 1366 3272 1645 3428 
Q 1925 3584 2291 3584 
Q 2894 3584 3203 3211 
Q 3513 2838 3513 2113 
z
" id="DejaVuSans-6e" transform="scale(0.015625)"/>
       <path d="M 544 1381 
L 544 3500 
L 1119 3500 
L 1119 1403 
Q 1119 906 1312 657 
Q 1506 409 1894 409 
Q 2359 409 2629 706 
Q 2900 1003 2900 1516 
L 2900 3500 
L 3475 3500 
L 3475 0 
L 2900 0 
L 2900 538 
Q 2691 219 2414 64 
Q 2138 -91 1772 -91 
Q 1169 -91 856 284 
Q 544 659 544 1381 
z
M 1991 3584 
L 1991 3584 
z
" id="DejaVuSans-75" transform="scale(0.015625)"/>
       <path d="M 3328 2828 
Q 3544 3216 3844 3400 
Q 4144 3584 4550 3584 
Q 5097 3584 5394 3201 
Q 5691 2819 5691 2113 
L 5691 0 
L 5113 0 
L 5113 2094 
Q 5113 2597 4934 2840 
Q 4756 3084 4391 3084 
Q 3944 3084 3684 2787 
Q 3425 2491 3425 1978 
L 3425 0 
L 2847 0 
L 2847 2094 
Q 2847 2600 2669 2842 
Q 2491 3084 2119 3084 
Q 1678 3084 1418 2786 
Q 1159 2488 1159 1978 
L 1159 0 
L 581 0 
L 581 3500 
L 1159 3500 
L 1159 2956 
Q 1356 3278 1631 3431 
Q 1906 3584 2284 3584 
Q 2666 3584 2933 3390 
Q 3200 3197 3328 2828 
z
" id="DejaVuSans-6d" transform="scale(0.015625)"/>
       <path d="M 3116 1747 
Q 3116 2381 2855 2742 
Q 2594 3103 2138 3103 
Q 1681 3103 1420 2742 
Q 1159 2381 1159 1747 
Q 1159 1113 1420 752 
Q 1681 391 2138 391 
Q 2594 391 2855 752 
Q 3116 1113 3116 1747 
z
M 1159 2969 
Q 1341 3281 1617 3432 
Q 1894 3584 2278 3584 
Q 2916 3584 3314 3078 
Q 3713 2572 3713 1747 
Q 3713 922 3314 415 
Q 2916 -91 2278 -91 
Q 1894 -91 1617 61 
Q 1341 213 1159 525 
L 1159 0 
L 581 0 
L 581 4863 
L 1159 4863 
L 1159 2969 
z
" id="DejaVuSans-62" transform="scale(0.015625)"/>
       <path d="M 3597 1894 
L 3597 1613 
L 953 1613 
Q 991 1019 1311 708 
Q 1631 397 2203 397 
Q 2534 397 2845 478 
Q 3156 559 3463 722 
L 3463 178 
Q 3153 47 2828 -22 
Q 2503 -91 2169 -91 
Q 1331 -91 842 396 
Q 353 884 353 1716 
Q 353 2575 817 3079 
Q 1281 3584 2069 3584 
Q 2775 3584 3186 3129 
Q 3597 2675 3597 1894 
z
M 3022 2063 
Q 3016 2534 2758 2815 
Q 2500 3097 2075 3097 
Q 1594 3097 1305 2825 
Q 1016 2553 972 2059 
L 3022 2063 
z
" id="DejaVuSans-65" transform="scale(0.015625)"/>
       <path d="M 2631 2963 
Q 2534 3019 2420 3045 
Q 2306 3072 2169 3072 
Q 1681 3072 1420 2755 
Q 1159 2438 1159 1844 
L 1159 0 
L 581 0 
L 581 3500 
L 1159 3500 
L 1159 2956 
Q 1341 3275 1631 3429 
Q 1922 3584 2338 3584 
Q 2397 3584 2469 3576 
Q 2541 3569 2628 3553 
L 2631 2963 
z
" id="DejaVuSans-72" transform="scale(0.015625)"/>
      </defs>
      <use xlink:href="#DejaVuSans-45"/>
      <use x="63.183594" xlink:href="#DejaVuSans-70"/>
      <use x="126.660156" xlink:href="#DejaVuSans-6f"/>
      <use x="187.841797" xlink:href="#DejaVuSans-63"/>
      <use x="242.822266" xlink:href="#DejaVuSans-68"/>
      <use x="306.201172" xlink:href="#DejaVuSans-20"/>
      <use x="337.988281" xlink:href="#DejaVuSans-6e"/>
      <use x="401.367188" xlink:href="#DejaVuSans-75"/>
      <use x="464.746094" xlink:href="#DejaVuSans-6d"/>
      <use x="562.158203" xlink:href="#DejaVuSans-62"/>
      <use x="625.634766" xlink:href="#DejaVuSans-65"/>
      <use x="687.158203" xlink:href="#DejaVuSans-72"/>
     </g>
    </g>
   </g>
   <g id="matplotlib.axis_2">
    <g id="ytick_1">
     <g id="line2d_13">
      <path clip-path="url(#p21349236b1)" d="M 72 223.228484 
L 518.4 223.228484 
" style="fill:none;stroke:#ffffff;stroke-linecap:square;stroke-width:0.8;"/>
     </g>
     <g id="line2d_14">
      <defs>
       <path d="M 0 0 
L -3.5 0 
" id="m4d18eb8590" style="stroke:#555555;stroke-width:0.8;"/>
      </defs>
      <g>
       <use style="fill:#555555;stroke:#555555;stroke-width:0.8;" x="72" xlink:href="#m4d18eb8590" y="223.228484"/>
      </g>
     </g>
     <g id="text_8">
      <!-- 0.25 -->
      <g style="fill:#555555;" transform="translate(42.734375 227.027702)scale(0.1 -0.1)">
       <defs>
        <path d="M 684 794 
L 1344 794 
L 1344 0 
L 684 0 
L 684 794 
z
" id="DejaVuSans-2e" transform="scale(0.015625)"/>
        <path d="M 691 4666 
L 3169 4666 
L 3169 4134 
L 1269 4134 
L 1269 2991 
Q 1406 3038 1543 3061 
Q 1681 3084 1819 3084 
Q 2600 3084 3056 2656 
Q 3513 2228 3513 1497 
Q 3513 744 3044 326 
Q 2575 -91 1722 -91 
Q 1428 -91 1123 -41 
Q 819 9 494 109 
L 494 744 
Q 775 591 1075 516 
Q 1375 441 1709 441 
Q 2250 441 2565 725 
Q 2881 1009 2881 1497 
Q 2881 1984 2565 2268 
Q 2250 2553 1709 2553 
Q 1456 2553 1204 2497 
Q 953 2441 691 2322 
L 691 4666 
z
" id="DejaVuSans-35" transform="scale(0.015625)"/>
       </defs>
       <use xlink:href="#DejaVuSans-30"/>
       <use x="63.623047" xlink:href="#DejaVuSans-2e"/>
       <use x="95.410156" xlink:href="#DejaVuSans-32"/>
       <use x="159.033203" xlink:href="#DejaVuSans-35"/>
      </g>
     </g>
    </g>
    <g id="ytick_2">
     <g id="line2d_15">
      <path clip-path="url(#p21349236b1)" d="M 72 194.028068 
L 518.4 194.028068 
" style="fill:none;stroke:#ffffff;stroke-linecap:square;stroke-width:0.8;"/>
     </g>
     <g id="line2d_16">
      <g>
       <use style="fill:#555555;stroke:#555555;stroke-width:0.8;" x="72" xlink:href="#m4d18eb8590" y="194.028068"/>
      </g>
     </g>
     <g id="text_9">
      <!-- 0.50 -->
      <g style="fill:#555555;" transform="translate(42.734375 197.827287)scale(0.1 -0.1)">
       <use xlink:href="#DejaVuSans-30"/>
       <use x="63.623047" xlink:href="#DejaVuSans-2e"/>
       <use x="95.410156" xlink:href="#DejaVuSans-35"/>
       <use x="159.033203" xlink:href="#DejaVuSans-30"/>
      </g>
     </g>
    </g>
    <g id="ytick_3">
     <g id="line2d_17">
      <path clip-path="url(#p21349236b1)" d="M 72 164.827653 
L 518.4 164.827653 
" style="fill:none;stroke:#ffffff;stroke-linecap:square;stroke-width:0.8;"/>
     </g>
     <g id="line2d_18">
      <g>
       <use style="fill:#555555;stroke:#555555;stroke-width:0.8;" x="72" xlink:href="#m4d18eb8590" y="164.827653"/>
      </g>
     </g>
     <g id="text_10">
      <!-- 0.75 -->
      <g style="fill:#555555;" transform="translate(42.734375 168.626872)scale(0.1 -0.1)">
       <defs>
        <path d="M 525 4666 
L 3525 4666 
L 3525 4397 
L 1831 0 
L 1172 0 
L 2766 4134 
L 525 4134 
L 525 4666 
z
" id="DejaVuSans-37" transform="scale(0.015625)"/>
       </defs>
       <use xlink:href="#DejaVuSans-30"/>
       <use x="63.623047" xlink:href="#DejaVuSans-2e"/>
       <use x="95.410156" xlink:href="#DejaVuSans-37"/>
       <use x="159.033203" xlink:href="#DejaVuSans-35"/>
      </g>
     </g>
    </g>
    <g id="ytick_4">
     <g id="line2d_19">
      <path clip-path="url(#p21349236b1)" d="M 72 135.627238 
L 518.4 135.627238 
" style="fill:none;stroke:#ffffff;stroke-linecap:square;stroke-width:0.8;"/>
     </g>
     <g id="line2d_20">
      <g>
       <use style="fill:#555555;stroke:#555555;stroke-width:0.8;" x="72" xlink:href="#m4d18eb8590" y="135.627238"/>
      </g>
     </g>
     <g id="text_11">
      <!-- 1.00 -->
      <g style="fill:#555555;" transform="translate(42.734375 139.426457)scale(0.1 -0.1)">
       <use xlink:href="#DejaVuSans-31"/>
       <use x="63.623047" xlink:href="#DejaVuSans-2e"/>
       <use x="95.410156" xlink:href="#DejaVuSans-30"/>
       <use x="159.033203" xlink:href="#DejaVuSans-30"/>
      </g>
     </g>
    </g>
    <g id="ytick_5">
     <g id="line2d_21">
      <path clip-path="url(#p21349236b1)" d="M 72 106.426823 
L 518.4 106.426823 
" style="fill:none;stroke:#ffffff;stroke-linecap:square;stroke-width:0.8;"/>
     </g>
     <g id="line2d_22">
      <g>
       <use style="fill:#555555;stroke:#555555;stroke-width:0.8;" x="72" xlink:href="#m4d18eb8590" y="106.426823"/>
      </g>
     </g>
     <g id="text_12">
      <!-- 1.25 -->
      <g style="fill:#555555;" transform="translate(42.734375 110.226041)scale(0.1 -0.1)">
       <use xlink:href="#DejaVuSans-31"/>
       <use x="63.623047" xlink:href="#DejaVuSans-2e"/>
       <use x="95.410156" xlink:href="#DejaVuSans-32"/>
       <use x="159.033203" xlink:href="#DejaVuSans-35"/>
      </g>
     </g>
    </g>
    <g id="ytick_6">
     <g id="line2d_23">
      <path clip-path="url(#p21349236b1)" d="M 72 77.226407 
L 518.4 77.226407 
" style="fill:none;stroke:#ffffff;stroke-linecap:square;stroke-width:0.8;"/>
     </g>
     <g id="line2d_24">
      <g>
       <use style="fill:#555555;stroke:#555555;stroke-width:0.8;" x="72" xlink:href="#m4d18eb8590" y="77.226407"/>
      </g>
     </g>
     <g id="text_13">
      <!-- 1.50 -->
      <g style="fill:#555555;" transform="translate(42.734375 81.025626)scale(0.1 -0.1)">
       <use xlink:href="#DejaVuSans-31"/>
       <use x="63.623047" xlink:href="#DejaVuSans-2e"/>
       <use x="95.410156" xlink:href="#DejaVuSans-35"/>
       <use x="159.033203" xlink:href="#DejaVuSans-30"/>
      </g>
     </g>
    </g>
    <g id="ytick_7">
     <g id="line2d_25">
      <path clip-path="url(#p21349236b1)" d="M 72 48.025992 
L 518.4 48.025992 
" style="fill:none;stroke:#ffffff;stroke-linecap:square;stroke-width:0.8;"/>
     </g>
     <g id="line2d_26">
      <g>
       <use style="fill:#555555;stroke:#555555;stroke-width:0.8;" x="72" xlink:href="#m4d18eb8590" y="48.025992"/>
      </g>
     </g>
     <g id="text_14">
      <!-- 1.75 -->
      <g style="fill:#555555;" transform="translate(42.734375 51.825211)scale(0.1 -0.1)">
       <use xlink:href="#DejaVuSans-31"/>
       <use x="63.623047" xlink:href="#DejaVuSans-2e"/>
       <use x="95.410156" xlink:href="#DejaVuSans-37"/>
       <use x="159.033203" xlink:href="#DejaVuSans-35"/>
      </g>
     </g>
    </g>
    <g id="text_15">
     <!-- Error -->
     <g style="fill:#555555;" transform="translate(36.23875 157.902187)rotate(-90)scale(0.12 -0.12)">
      <use xlink:href="#DejaVuSans-45"/>
      <use x="63.183594" xlink:href="#DejaVuSans-72"/>
      <use x="102.546875" xlink:href="#DejaVuSans-72"/>
      <use x="141.410156" xlink:href="#DejaVuSans-6f"/>
      <use x="202.591797" xlink:href="#DejaVuSans-72"/>
     </g>
    </g>
   </g>
   <g id="line2d_27">
    <path clip-path="url(#p21349236b1)" d="M 92.290909 143.815078 
L 96.390083 166.455426 
L 100.489256 177.570924 
L 104.58843 185.591014 
L 108.687603 189.261034 
L 112.786777 194.146242 
L 116.88595 196.661633 
L 120.985124 199.365144 
L 125.084298 202.03699 
L 129.183471 203.782182 
L 133.282645 205.207134 
L 137.381818 206.213408 
L 141.480992 208.302388 
L 145.580165 208.467943 
L 149.679339 210.196792 
L 153.778512 210.069916 
L 157.877686 212.257072 
L 161.97686 212.609344 
L 166.076033 213.272682 
L 170.175207 212.793002 
L 174.27438 215.215282 
L 178.373554 215.472824 
L 182.472727 216.273473 
L 186.571901 216.806267 
L 190.671074 217.600107 
L 194.770248 217.746594 
L 198.869421 217.962421 
L 202.968595 219.020357 
L 207.067769 219.048074 
L 211.166942 219.810853 
L 215.266116 219.629287 
L 219.365289 220.320907 
L 223.464463 221.059806 
L 227.563636 221.316343 
L 231.66281 221.406303 
L 235.761983 221.837169 
L 239.861157 221.719805 
L 243.960331 221.964462 
L 248.059504 222.476987 
L 252.158678 223.085219 
L 256.257851 223.566525 
L 260.357025 222.973572 
L 264.456198 223.716981 
L 268.555372 223.114669 
L 272.654545 224.290553 
L 276.753719 224.519347 
L 280.852893 224.899259 
L 284.952066 225.168445 
L 289.05124 225.520192 
L 293.150413 225.121994 
L 297.249587 225.717526 
L 301.34876 225.983973 
L 305.447934 226.37118 
L 309.547107 226.818207 
L 313.646281 225.895407 
L 317.745455 227.183729 
L 321.844628 227.232856 
L 325.943802 227.300462 
L 330.042975 227.517872 
L 334.142149 227.336075 
L 338.241322 226.966842 
L 342.340496 227.906387 
L 346.439669 228.770009 
L 350.538843 228.603623 
L 354.638017 227.996256 
L 358.73719 229.0637 
L 362.836364 228.939615 
L 366.935537 229.929107 
L 371.034711 229.544461 
L 375.133884 229.053114 
L 379.233058 229.311399 
L 383.332231 229.876974 
L 387.431405 230.557368 
L 391.530579 229.7312 
L 395.629752 228.586709 
L 399.728926 230.739039 
L 403.828099 230.610945 
L 407.927273 230.613881 
L 412.026446 230.484702 
L 416.12562 231.392508 
L 420.224793 231.083326 
L 424.323967 231.370158 
L 428.42314 230.899212 
L 432.522314 232.057402 
L 436.621488 231.279668 
L 440.720661 232.784277 
L 444.819835 232.109663 
L 448.919008 232.275945 
L 453.018182 231.173995 
L 457.117355 232.623599 
L 461.216529 232.752233 
L 465.315702 231.697163 
L 469.414876 232.505325 
L 473.51405 232.46557 
L 477.613223 232.961767 
L 481.712397 233.333723 
L 485.81157 233.437521 
L 489.910744 232.503297 
L 494.009917 233.502707 
L 498.109091 233.975247 
" style="fill:none;stroke:#e24a33;stroke-linecap:square;stroke-width:1.5;"/>
   </g>
   <g id="line2d_28">
    <path clip-path="url(#p21349236b1)" d="M 92.290909 166.213985 
L 96.390083 183.322751 
L 100.489256 193.189346 
L 104.58843 199.325786 
L 108.687603 203.430087 
L 112.786777 205.248425 
L 116.88595 208.97794 
L 120.985124 209.822528 
L 125.084298 213.683553 
L 129.183471 214.005328 
L 133.282645 215.539835 
L 137.381818 216.566343 
L 141.480992 218.25616 
L 145.580165 218.795143 
L 149.679339 220.701883 
L 153.778512 220.303333 
L 157.877686 221.728895 
L 161.97686 222.240732 
L 166.076033 224.317139 
L 170.175207 223.383983 
L 174.27438 224.637268 
L 178.373554 225.256086 
L 182.472727 224.012427 
L 186.571901 226.578963 
L 190.671074 227.279488 
L 194.770248 227.718342 
L 198.869421 228.599996 
L 202.968595 229.011999 
L 207.067769 229.028252 
L 211.166942 227.938422 
L 215.266116 229.071747 
L 219.365289 230.987876 
L 223.464463 231.233863 
L 227.563636 231.367293 
L 231.66281 230.441967 
L 235.761983 231.434624 
L 239.861157 232.703655 
L 243.960331 232.949468 
L 248.059504 232.341282 
L 252.158678 232.529694 
L 256.257851 232.234318 
L 260.357025 232.503114 
L 264.456198 233.68025 
L 268.555372 234.545757 
L 272.654545 234.230953 
L 276.753719 235.490455 
L 280.852893 235.258618 
L 284.952066 235.112868 
L 289.05124 234.746473 
L 293.150413 234.916442 
L 297.249587 236.383064 
L 301.34876 234.258155 
L 305.447934 235.714117 
L 309.547107 237.2488 
L 313.646281 236.744147 
L 317.745455 236.281121 
L 321.844628 235.98816 
L 325.943802 236.363729 
L 330.042975 237.391821 
L 334.142149 237.438908 
L 338.241322 236.433363 
L 342.340496 237.61265 
L 346.439669 237.443149 
L 350.538843 237.606801 
L 354.638017 238.512777 
L 358.73719 237.591944 
L 362.836364 237.983498 
L 366.935537 238.985654 
L 371.034711 238.888601 
L 375.133884 238.040094 
L 379.233058 239.843564 
L 383.332231 239.70132 
L 387.431405 239.281591 
L 391.530579 238.995447 
L 395.629752 239.831174 
L 399.728926 238.407668 
L 403.828099 239.089078 
L 407.927273 237.982088 
L 412.026446 240.586012 
L 416.12562 237.578533 
L 420.224793 239.069046 
L 424.323967 240.358193 
L 428.42314 238.962688 
L 432.522314 240.50482 
L 436.621488 240.323611 
L 440.720661 239.612845 
L 444.819835 239.690438 
L 448.919008 239.157796 
L 453.018182 239.841816 
L 457.117355 240.079529 
L 461.216529 240.078656 
L 465.315702 238.824423 
L 469.414876 240.431416 
L 473.51405 240.105407 
L 477.613223 241.029257 
L 481.712397 239.905342 
L 485.81157 239.257679 
L 489.910744 242.116364 
L 494.009917 239.756177 
L 498.109091 240.948702 
" style="fill:none;stroke:#348abd;stroke-linecap:square;stroke-width:1.5;"/>
   </g>
   <g id="line2d_29">
    <path clip-path="url(#p21349236b1)" d="M 92.290909 167.939144 
L 96.390083 184.682009 
L 100.489256 194.989767 
L 104.58843 200.927518 
L 108.687603 205.650047 
L 112.786777 206.559828 
L 116.88595 208.70952 
L 120.985124 210.874111 
L 125.084298 213.778892 
L 129.183471 215.247459 
L 133.282645 216.689295 
L 137.381818 218.860612 
L 141.480992 219.412841 
L 145.580165 221.847973 
L 149.679339 221.312026 
L 153.778512 223.947657 
L 157.877686 223.752575 
L 161.97686 223.456429 
L 166.076033 225.831223 
L 170.175207 225.770244 
L 174.27438 226.086106 
L 178.373554 227.873481 
L 182.472727 227.233805 
L 186.571901 229.004413 
L 190.671074 227.918716 
L 194.770248 229.960956 
L 198.869421 230.158871 
L 202.968595 229.900091 
L 207.067769 230.175917 
L 211.166942 230.922057 
L 215.266116 232.099792 
L 219.365289 232.797842 
L 223.464463 231.33252 
L 227.563636 233.256817 
L 231.66281 233.079631 
L 235.761983 233.530942 
L 239.861157 233.780255 
L 243.960331 232.79901 
L 248.059504 234.155111 
L 252.158678 233.627437 
L 256.257851 235.391267 
L 260.357025 233.28152 
L 264.456198 234.336347 
L 268.555372 235.614882 
L 272.654545 234.949917 
L 276.753719 233.755688 
L 280.852893 235.924242 
L 284.952066 235.481578 
L 289.05124 234.026481 
L 293.150413 234.425677 
L 297.249587 236.492001 
L 301.34876 235.279807 
L 305.447934 237.060012 
L 309.547107 236.122403 
L 313.646281 235.059116 
L 317.745455 236.915214 
L 321.844628 236.47423 
L 325.943802 237.400834 
L 330.042975 237.406647 
L 334.142149 237.455143 
L 338.241322 237.164765 
L 342.340496 237.376189 
L 346.439669 237.816703 
L 350.538843 237.44114 
L 354.638017 236.466342 
L 358.73719 237.291201 
L 362.836364 237.622556 
L 366.935537 237.538727 
L 371.034711 237.507319 
L 375.133884 238.641609 
L 379.233058 237.894652 
L 383.332231 238.496417 
L 387.431405 237.453661 
L 391.530579 238.375687 
L 395.629752 239.173155 
L 399.728926 238.70949 
L 403.828099 238.188426 
L 407.927273 238.677081 
L 412.026446 237.14104 
L 416.12562 235.765005 
L 420.224793 240.125424 
L 424.323967 237.602724 
L 428.42314 237.657434 
L 432.522314 239.246532 
L 436.621488 237.405677 
L 440.720661 239.262612 
L 444.819835 239.632814 
L 448.919008 238.761248 
L 453.018182 238.483552 
L 457.117355 240.158282 
L 461.216529 238.167134 
L 465.315702 236.404046 
L 469.414876 237.744435 
L 473.51405 240.464365 
L 477.613223 240.032656 
L 481.712397 239.543631 
L 485.81157 240.892819 
L 489.910744 238.400199 
L 494.009917 239.29962 
L 498.109091 238.108396 
" style="fill:none;stroke:#988ed5;stroke-linecap:square;stroke-width:1.5;"/>
   </g>
   <g id="line2d_30">
    <path clip-path="url(#p21349236b1)" d="M 92.290909 141.630981 
L 96.390083 162.17098 
L 100.489256 171.522773 
L 104.58843 178.106728 
L 108.687603 180.993229 
L 112.786777 184.499692 
L 116.88595 185.437248 
L 120.985124 187.376618 
L 125.084298 188.702568 
L 129.183471 189.653443 
L 133.282645 189.216058 
L 137.381818 190.495942 
L 141.480992 190.812891 
L 145.580165 190.206963 
L 149.679339 190.748141 
L 153.778512 189.749469 
L 157.877686 190.466696 
L 161.97686 189.861324 
L 166.076033 189.228823 
L 170.175207 187.815586 
L 174.27438 189.654246 
L 178.373554 187.879211 
L 182.472727 187.546504 
L 186.571901 187.89673 
L 190.671074 188.054287 
L 194.770248 187.196162 
L 198.869421 186.090627 
L 202.968595 186.379538 
L 207.067769 185.762276 
L 211.166942 185.837263 
L 215.266116 184.768601 
L 219.365289 184.386243 
L 223.464463 183.612189 
L 227.563636 183.290249 
L 231.66281 183.092795 
L 235.761983 182.960517 
L 239.861157 180.911418 
L 243.960331 181.153881 
L 248.059504 180.556701 
L 252.158678 180.107297 
L 256.257851 180.019259 
L 260.357025 177.76741 
L 264.456198 178.588649 
L 268.555372 177.153955 
L 272.654545 177.293004 
L 276.753719 176.006295 
L 280.852893 176.212993 
L 284.952066 175.844707 
L 289.05124 174.995807 
L 293.150413 173.777808 
L 297.249587 174.076676 
L 301.34876 173.934632 
L 305.447934 173.406822 
L 309.547107 173.012797 
L 313.646281 171.276963 
L 317.745455 171.142671 
L 321.844628 170.01063 
L 325.943802 169.56635 
L 330.042975 169.262967 
L 334.142149 168.583077 
L 338.241322 167.462016 
L 342.340496 166.789687 
L 346.439669 166.346492 
L 350.538843 165.917559 
L 354.638017 165.304534 
L 358.73719 164.499354 
L 362.836364 164.676263 
L 366.935537 164.611832 
L 371.034711 162.708791 
L 375.133884 162.825522 
L 379.233058 161.248492 
L 383.332231 161.198662 
L 387.431405 160.853741 
L 391.530579 159.389973 
L 395.629752 157.066605 
L 399.728926 158.729044 
L 403.828099 157.105866 
L 407.927273 156.663411 
L 412.026446 155.658388 
L 416.12562 156.571799 
L 420.224793 154.56197 
L 424.323967 154.893223 
L 428.42314 153.00819 
L 432.522314 153.595355 
L 436.621488 152.283972 
L 440.720661 152.787786 
L 444.819835 150.614773 
L 448.919008 149.258325 
L 453.018182 146.783011 
L 457.117355 148.321433 
L 461.216529 148.669067 
L 465.315702 146.625559 
L 469.414876 146.245411 
L 473.51405 146.011692 
L 477.613223 145.690997 
L 481.712397 145.732945 
L 485.81157 144.453786 
L 489.910744 141.776157 
L 494.009917 143.283033 
L 498.109091 142.998319 
" style="fill:none;stroke:#777777;stroke-dasharray:5.55,2.4;stroke-dashoffset:0;stroke-width:1.5;"/>
   </g>
   <g id="line2d_31">
    <path clip-path="url(#p21349236b1)" d="M 92.290909 163.358867 
L 96.390083 177.812394 
L 100.489256 186.208611 
L 104.58843 190.450537 
L 108.687603 192.522685 
L 112.786777 193.394408 
L 116.88595 195.129676 
L 120.985124 194.132603 
L 125.084298 195.857456 
L 129.183471 194.409116 
L 133.282645 195.668053 
L 137.381818 194.272689 
L 141.480992 194.677737 
L 145.580165 193.508099 
L 149.679339 192.770498 
L 153.778512 191.2327 
L 157.877686 190.512765 
L 161.97686 189.334241 
L 166.076033 190.161508 
L 170.175207 187.317955 
L 174.27438 186.961694 
L 178.373554 185.836609 
L 182.472727 183.064177 
L 186.571901 182.710406 
L 190.671074 183.118308 
L 194.770248 180.64952 
L 198.869421 180.542373 
L 202.968595 178.876678 
L 207.067769 176.410201 
L 211.166942 174.96407 
L 215.266116 176.376772 
L 219.365289 173.718582 
L 223.464463 172.861675 
L 227.563636 171.669732 
L 231.66281 167.419471 
L 235.761983 168.72918 
L 239.861157 168.182459 
L 243.960331 167.648048 
L 248.059504 163.977177 
L 252.158678 162.885357 
L 256.257851 160.358639 
L 260.357025 157.59985 
L 264.456198 158.787225 
L 268.555372 158.267545 
L 272.654545 155.364998 
L 276.753719 156.087045 
L 280.852893 154.130514 
L 284.952066 151.31831 
L 289.05124 150.502737 
L 293.150413 148.173396 
L 297.249587 145.874624 
L 301.34876 142.24064 
L 305.447934 142.253499 
L 309.547107 141.139326 
L 313.646281 139.625384 
L 317.745455 135.447665 
L 321.844628 135.312209 
L 325.943802 134.143517 
L 330.042975 133.939499 
L 334.142149 133.203104 
L 338.241322 130.818106 
L 342.340496 131.118344 
L 346.439669 129.714807 
L 350.538843 126.319707 
L 354.638017 127.183931 
L 358.73719 121.370432 
L 362.836364 123.4488 
L 366.935537 122.003634 
L 371.034711 118.989467 
L 375.133884 120.308192 
L 379.233058 117.569654 
L 383.332231 116.2571 
L 387.431405 111.88476 
L 391.530579 113.175767 
L 395.629752 112.268857 
L 399.728926 104.085464 
L 403.828099 106.48188 
L 407.927273 104.690538 
L 412.026446 102.895232 
L 416.12562 101.941986 
L 420.224793 97.748561 
L 424.323967 99.939559 
L 428.42314 94.787766 
L 432.522314 99.758387 
L 436.621488 93.745664 
L 440.720661 93.910714 
L 444.819835 91.601486 
L 448.919008 86.833005 
L 453.018182 89.386061 
L 457.117355 87.05226 
L 461.216529 86.303261 
L 465.315702 81.230537 
L 469.414876 83.136786 
L 473.51405 78.522747 
L 477.613223 79.183426 
L 481.712397 76.312452 
L 485.81157 74.575346 
L 489.910744 79.198487 
L 494.009917 74.062406 
L 498.109091 73.610705 
" style="fill:none;stroke:#fbc15e;stroke-dasharray:5.55,2.4;stroke-dashoffset:0;stroke-width:1.5;"/>
   </g>
   <g id="line2d_32">
    <path clip-path="url(#p21349236b1)" d="M 92.290909 164.210446 
L 96.390083 178.171042 
L 100.489256 185.895632 
L 104.58843 189.482244 
L 108.687603 192.847419 
L 112.786777 192.244525 
L 116.88595 192.186109 
L 120.985124 191.608723 
L 125.084298 192.941983 
L 129.183471 192.735005 
L 133.282645 192.889095 
L 137.381818 193.919325 
L 141.480992 191.542081 
L 145.580165 191.771334 
L 149.679339 189.301528 
L 153.778512 190.468683 
L 157.877686 187.939117 
L 161.97686 187.180074 
L 166.076033 185.240419 
L 170.175207 184.066205 
L 174.27438 181.322211 
L 178.373554 182.148392 
L 182.472727 179.567047 
L 186.571901 178.635093 
L 190.671074 175.315626 
L 194.770248 176.79806 
L 198.869421 172.398195 
L 202.968595 172.922174 
L 207.067769 169.03885 
L 211.166942 170.054817 
L 215.266116 167.270154 
L 219.365289 168.310755 
L 223.464463 164.497824 
L 227.563636 162.684259 
L 231.66281 161.20269 
L 235.761983 159.019219 
L 239.861157 156.445992 
L 243.960331 153.175852 
L 248.059504 155.358288 
L 252.158678 151.384442 
L 256.257851 151.68394 
L 260.357025 144.624914 
L 264.456198 145.467831 
L 268.555372 144.130944 
L 272.654545 143.123699 
L 276.753719 140.62506 
L 280.852893 141.970556 
L 284.952066 136.182181 
L 289.05124 133.621967 
L 293.150413 134.362071 
L 297.249587 129.767622 
L 301.34876 128.870935 
L 305.447934 129.029083 
L 309.547107 125.674294 
L 313.646281 121.643902 
L 317.745455 123.785435 
L 321.844628 121.673219 
L 325.943802 120.878622 
L 330.042975 119.99035 
L 334.142149 116.024116 
L 338.241322 114.574718 
L 342.340496 112.235919 
L 346.439669 113.934732 
L 350.538843 110.939435 
L 354.638017 108.015328 
L 358.73719 108.702351 
L 362.836364 101.16569 
L 366.935537 104.012153 
L 371.034711 98.805168 
L 375.133884 98.650808 
L 379.233058 96.448031 
L 383.332231 101.06767 
L 387.431405 95.774646 
L 391.530579 97.174043 
L 395.629752 92.966003 
L 399.728926 94.888989 
L 403.828099 88.738271 
L 407.927273 85.922091 
L 412.026446 78.826181 
L 416.12562 75.629357 
L 420.224793 86.218404 
L 424.323967 74.631679 
L 428.42314 73.297598 
L 432.522314 78.63335 
L 436.621488 71.374153 
L 440.720661 71.052511 
L 444.819835 76.230836 
L 448.919008 65.998475 
L 453.018182 68.665565 
L 457.117355 62.66399 
L 461.216529 63.400151 
L 465.315702 58.728956 
L 469.414876 54.358892 
L 473.51405 64.010149 
L 477.613223 58.602777 
L 481.712397 59.064494 
L 485.81157 59.797798 
L 489.910744 55.172231 
L 494.009917 54.464664 
L 498.109091 44.443636 
" style="fill:none;stroke:#8eba42;stroke-dasharray:5.55,2.4;stroke-dashoffset:0;stroke-width:1.5;"/>
   </g>
   <g id="patch_3">
    <path d="M 72 252 
L 72 34.56 
" style="fill:none;stroke:#ffffff;stroke-linecap:square;stroke-linejoin:miter;"/>
   </g>
   <g id="patch_4">
    <path d="M 518.4 252 
L 518.4 34.56 
" style="fill:none;stroke:#ffffff;stroke-linecap:square;stroke-linejoin:miter;"/>
   </g>
   <g id="patch_5">
    <path d="M 72 252 
L 518.4 252 
" style="fill:none;stroke:#ffffff;stroke-linecap:square;stroke-linejoin:miter;"/>
   </g>
   <g id="patch_6">
    <path d="M 72 34.56 
L 518.4 34.56 
" style="fill:none;stroke:#ffffff;stroke-linecap:square;stroke-linejoin:miter;"/>
   </g>
   <g id="legend_1">
    <g id="patch_7">
     <path d="M 79 130.62875 
L 178.225 130.62875 
Q 180.225 130.62875 180.225 128.62875 
L 180.225 41.56 
Q 180.225 39.56 178.225 39.56 
L 79 39.56 
Q 77 39.56 77 41.56 
L 77 128.62875 
Q 77 130.62875 79 130.62875 
z
" style="fill:#e5e5e5;opacity:0.8;stroke:#cccccc;stroke-linejoin:miter;stroke-width:0.5;"/>
    </g>
    <g id="line2d_33">
     <path d="M 81 47.658437 
L 101 47.658437 
" style="fill:none;stroke:#e24a33;stroke-linecap:square;stroke-width:1.5;"/>
    </g>
    <g id="line2d_34"/>
    <g id="text_16">
     <!-- depth1(train) -->
     <g transform="translate(109 51.158437)scale(0.1 -0.1)">
      <defs>
       <path d="M 2906 2969 
L 2906 4863 
L 3481 4863 
L 3481 0 
L 2906 0 
L 2906 525 
Q 2725 213 2448 61 
Q 2172 -91 1784 -91 
Q 1150 -91 751 415 
Q 353 922 353 1747 
Q 353 2572 751 3078 
Q 1150 3584 1784 3584 
Q 2172 3584 2448 3432 
Q 2725 3281 2906 2969 
z
M 947 1747 
Q 947 1113 1208 752 
Q 1469 391 1925 391 
Q 2381 391 2643 752 
Q 2906 1113 2906 1747 
Q 2906 2381 2643 2742 
Q 2381 3103 1925 3103 
Q 1469 3103 1208 2742 
Q 947 2381 947 1747 
z
" id="DejaVuSans-64" transform="scale(0.015625)"/>
       <path d="M 1172 4494 
L 1172 3500 
L 2356 3500 
L 2356 3053 
L 1172 3053 
L 1172 1153 
Q 1172 725 1289 603 
Q 1406 481 1766 481 
L 2356 481 
L 2356 0 
L 1766 0 
Q 1100 0 847 248 
Q 594 497 594 1153 
L 594 3053 
L 172 3053 
L 172 3500 
L 594 3500 
L 594 4494 
L 1172 4494 
z
" id="DejaVuSans-74" transform="scale(0.015625)"/>
       <path d="M 1984 4856 
Q 1566 4138 1362 3434 
Q 1159 2731 1159 2009 
Q 1159 1288 1364 580 
Q 1569 -128 1984 -844 
L 1484 -844 
Q 1016 -109 783 600 
Q 550 1309 550 2009 
Q 550 2706 781 3412 
Q 1013 4119 1484 4856 
L 1984 4856 
z
" id="DejaVuSans-28" transform="scale(0.015625)"/>
       <path d="M 2194 1759 
Q 1497 1759 1228 1600 
Q 959 1441 959 1056 
Q 959 750 1161 570 
Q 1363 391 1709 391 
Q 2188 391 2477 730 
Q 2766 1069 2766 1631 
L 2766 1759 
L 2194 1759 
z
M 3341 1997 
L 3341 0 
L 2766 0 
L 2766 531 
Q 2569 213 2275 61 
Q 1981 -91 1556 -91 
Q 1019 -91 701 211 
Q 384 513 384 1019 
Q 384 1609 779 1909 
Q 1175 2209 1959 2209 
L 2766 2209 
L 2766 2266 
Q 2766 2663 2505 2880 
Q 2244 3097 1772 3097 
Q 1472 3097 1187 3025 
Q 903 2953 641 2809 
L 641 3341 
Q 956 3463 1253 3523 
Q 1550 3584 1831 3584 
Q 2591 3584 2966 3190 
Q 3341 2797 3341 1997 
z
" id="DejaVuSans-61" transform="scale(0.015625)"/>
       <path d="M 603 3500 
L 1178 3500 
L 1178 0 
L 603 0 
L 603 3500 
z
M 603 4863 
L 1178 4863 
L 1178 4134 
L 603 4134 
L 603 4863 
z
" id="DejaVuSans-69" transform="scale(0.015625)"/>
       <path d="M 513 4856 
L 1013 4856 
Q 1481 4119 1714 3412 
Q 1947 2706 1947 2009 
Q 1947 1309 1714 600 
Q 1481 -109 1013 -844 
L 513 -844 
Q 928 -128 1133 580 
Q 1338 1288 1338 2009 
Q 1338 2731 1133 3434 
Q 928 4138 513 4856 
z
" id="DejaVuSans-29" transform="scale(0.015625)"/>
      </defs>
      <use xlink:href="#DejaVuSans-64"/>
      <use x="63.476562" xlink:href="#DejaVuSans-65"/>
      <use x="125" xlink:href="#DejaVuSans-70"/>
      <use x="188.476562" xlink:href="#DejaVuSans-74"/>
      <use x="227.685547" xlink:href="#DejaVuSans-68"/>
      <use x="291.064453" xlink:href="#DejaVuSans-31"/>
      <use x="354.6875" xlink:href="#DejaVuSans-28"/>
      <use x="393.701172" xlink:href="#DejaVuSans-74"/>
      <use x="432.910156" xlink:href="#DejaVuSans-72"/>
      <use x="474.023438" xlink:href="#DejaVuSans-61"/>
      <use x="535.302734" xlink:href="#DejaVuSans-69"/>
      <use x="563.085938" xlink:href="#DejaVuSans-6e"/>
      <use x="626.464844" xlink:href="#DejaVuSans-29"/>
     </g>
    </g>
    <g id="line2d_35">
     <path d="M 81 62.336562 
L 101 62.336562 
" style="fill:none;stroke:#348abd;stroke-linecap:square;stroke-width:1.5;"/>
    </g>
    <g id="line2d_36"/>
    <g id="text_17">
     <!-- depth2(train) -->
     <g transform="translate(109 65.836562)scale(0.1 -0.1)">
      <use xlink:href="#DejaVuSans-64"/>
      <use x="63.476562" xlink:href="#DejaVuSans-65"/>
      <use x="125" xlink:href="#DejaVuSans-70"/>
      <use x="188.476562" xlink:href="#DejaVuSans-74"/>
      <use x="227.685547" xlink:href="#DejaVuSans-68"/>
      <use x="291.064453" xlink:href="#DejaVuSans-32"/>
      <use x="354.6875" xlink:href="#DejaVuSans-28"/>
      <use x="393.701172" xlink:href="#DejaVuSans-74"/>
      <use x="432.910156" xlink:href="#DejaVuSans-72"/>
      <use x="474.023438" xlink:href="#DejaVuSans-61"/>
      <use x="535.302734" xlink:href="#DejaVuSans-69"/>
      <use x="563.085938" xlink:href="#DejaVuSans-6e"/>
      <use x="626.464844" xlink:href="#DejaVuSans-29"/>
     </g>
    </g>
    <g id="line2d_37">
     <path d="M 81 77.014687 
L 101 77.014687 
" style="fill:none;stroke:#988ed5;stroke-linecap:square;stroke-width:1.5;"/>
    </g>
    <g id="line2d_38"/>
    <g id="text_18">
     <!-- depth3(train) -->
     <g transform="translate(109 80.514687)scale(0.1 -0.1)">
      <defs>
       <path d="M 2597 2516 
Q 3050 2419 3304 2112 
Q 3559 1806 3559 1356 
Q 3559 666 3084 287 
Q 2609 -91 1734 -91 
Q 1441 -91 1130 -33 
Q 819 25 488 141 
L 488 750 
Q 750 597 1062 519 
Q 1375 441 1716 441 
Q 2309 441 2620 675 
Q 2931 909 2931 1356 
Q 2931 1769 2642 2001 
Q 2353 2234 1838 2234 
L 1294 2234 
L 1294 2753 
L 1863 2753 
Q 2328 2753 2575 2939 
Q 2822 3125 2822 3475 
Q 2822 3834 2567 4026 
Q 2313 4219 1838 4219 
Q 1578 4219 1281 4162 
Q 984 4106 628 3988 
L 628 4550 
Q 988 4650 1302 4700 
Q 1616 4750 1894 4750 
Q 2613 4750 3031 4423 
Q 3450 4097 3450 3541 
Q 3450 3153 3228 2886 
Q 3006 2619 2597 2516 
z
" id="DejaVuSans-33" transform="scale(0.015625)"/>
      </defs>
      <use xlink:href="#DejaVuSans-64"/>
      <use x="63.476562" xlink:href="#DejaVuSans-65"/>
      <use x="125" xlink:href="#DejaVuSans-70"/>
      <use x="188.476562" xlink:href="#DejaVuSans-74"/>
      <use x="227.685547" xlink:href="#DejaVuSans-68"/>
      <use x="291.064453" xlink:href="#DejaVuSans-33"/>
      <use x="354.6875" xlink:href="#DejaVuSans-28"/>
      <use x="393.701172" xlink:href="#DejaVuSans-74"/>
      <use x="432.910156" xlink:href="#DejaVuSans-72"/>
      <use x="474.023438" xlink:href="#DejaVuSans-61"/>
      <use x="535.302734" xlink:href="#DejaVuSans-69"/>
      <use x="563.085938" xlink:href="#DejaVuSans-6e"/>
      <use x="626.464844" xlink:href="#DejaVuSans-29"/>
     </g>
    </g>
    <g id="line2d_39">
     <path d="M 81 91.692813 
L 101 91.692813 
" style="fill:none;stroke:#777777;stroke-dasharray:5.55,2.4;stroke-dashoffset:0;stroke-width:1.5;"/>
    </g>
    <g id="line2d_40"/>
    <g id="text_19">
     <!-- depth1(valid) -->
     <g transform="translate(109 95.192813)scale(0.1 -0.1)">
      <defs>
       <path d="M 191 3500 
L 800 3500 
L 1894 563 
L 2988 3500 
L 3597 3500 
L 2284 0 
L 1503 0 
L 191 3500 
z
" id="DejaVuSans-76" transform="scale(0.015625)"/>
       <path d="M 603 4863 
L 1178 4863 
L 1178 0 
L 603 0 
L 603 4863 
z
" id="DejaVuSans-6c" transform="scale(0.015625)"/>
      </defs>
      <use xlink:href="#DejaVuSans-64"/>
      <use x="63.476562" xlink:href="#DejaVuSans-65"/>
      <use x="125" xlink:href="#DejaVuSans-70"/>
      <use x="188.476562" xlink:href="#DejaVuSans-74"/>
      <use x="227.685547" xlink:href="#DejaVuSans-68"/>
      <use x="291.064453" xlink:href="#DejaVuSans-31"/>
      <use x="354.6875" xlink:href="#DejaVuSans-28"/>
      <use x="393.701172" xlink:href="#DejaVuSans-76"/>
      <use x="452.880859" xlink:href="#DejaVuSans-61"/>
      <use x="514.160156" xlink:href="#DejaVuSans-6c"/>
      <use x="541.943359" xlink:href="#DejaVuSans-69"/>
      <use x="569.726562" xlink:href="#DejaVuSans-64"/>
      <use x="633.203125" xlink:href="#DejaVuSans-29"/>
     </g>
    </g>
    <g id="line2d_41">
     <path d="M 81 106.370937 
L 101 106.370937 
" style="fill:none;stroke:#fbc15e;stroke-dasharray:5.55,2.4;stroke-dashoffset:0;stroke-width:1.5;"/>
    </g>
    <g id="line2d_42"/>
    <g id="text_20">
     <!-- depth2(valid) -->
     <g transform="translate(109 109.870937)scale(0.1 -0.1)">
      <use xlink:href="#DejaVuSans-64"/>
      <use x="63.476562" xlink:href="#DejaVuSans-65"/>
      <use x="125" xlink:href="#DejaVuSans-70"/>
      <use x="188.476562" xlink:href="#DejaVuSans-74"/>
      <use x="227.685547" xlink:href="#DejaVuSans-68"/>
      <use x="291.064453" xlink:href="#DejaVuSans-32"/>
      <use x="354.6875" xlink:href="#DejaVuSans-28"/>
      <use x="393.701172" xlink:href="#DejaVuSans-76"/>
      <use x="452.880859" xlink:href="#DejaVuSans-61"/>
      <use x="514.160156" xlink:href="#DejaVuSans-6c"/>
      <use x="541.943359" xlink:href="#DejaVuSans-69"/>
      <use x="569.726562" xlink:href="#DejaVuSans-64"/>
      <use x="633.203125" xlink:href="#DejaVuSans-29"/>
     </g>
    </g>
    <g id="line2d_43">
     <path d="M 81 121.049062 
L 101 121.049062 
" style="fill:none;stroke:#8eba42;stroke-dasharray:5.55,2.4;stroke-dashoffset:0;stroke-width:1.5;"/>
    </g>
    <g id="line2d_44"/>
    <g id="text_21">
     <!-- depth3(valid) -->
     <g transform="translate(109 124.549062)scale(0.1 -0.1)">
      <use xlink:href="#DejaVuSans-64"/>
      <use x="63.476562" xlink:href="#DejaVuSans-65"/>
      <use x="125" xlink:href="#DejaVuSans-70"/>
      <use x="188.476562" xlink:href="#DejaVuSans-74"/>
      <use x="227.685547" xlink:href="#DejaVuSans-68"/>
      <use x="291.064453" xlink:href="#DejaVuSans-33"/>
      <use x="354.6875" xlink:href="#DejaVuSans-28"/>
      <use x="393.701172" xlink:href="#DejaVuSans-76"/>
      <use x="452.880859" xlink:href="#DejaVuSans-61"/>
      <use x="514.160156" xlink:href="#DejaVuSans-6c"/>
      <use x="541.943359" xlink:href="#DejaVuSans-69"/>
      <use x="569.726562" xlink:href="#DejaVuSans-64"/>
      <use x="633.203125" xlink:href="#DejaVuSans-29"/>
     </g>
    </g>
   </g>
  </g>
 </g>
 <defs>
  <clipPath id="p21349236b1">
   <rect height="217.44" width="446.4" x="72" y="34.56"/>
  </clipPath>
 </defs>
</svg>
