<?xml version="1.0" encoding="utf-8" standalone="no"?>
<!DOCTYPE svg PUBLIC "-//W3C//DTD SVG 1.1//EN"
  "http://www.w3.org/Graphics/SVG/1.1/DTD/svg11.dtd">
<svg height="288pt" version="1.1" viewBox="0 0 576 288" width="576pt" xmlns="http://www.w3.org/2000/svg" xmlns:xlink="http://www.w3.org/1999/xlink">
 <metadata>
  <rdf:RDF xmlns:cc="http://creativecommons.org/ns#" xmlns:dc="http://purl.org/dc/elements/1.1/" xmlns:rdf="http://www.w3.org/1999/02/22-rdf-syntax-ns#">
   <cc:Work>
    <dc:type rdf:resource="http://purl.org/dc/dcmitype/StillImage"/>
    <dc:date>2021-11-08T16:35:13.996818</dc:date>
    <dc:format>image/svg+xml</dc:format>
    <dc:creator>
     <cc:Agent>
      <dc:title>Matplotlib v3.4.2, https://matplotlib.org/</dc:title>
     </cc:Agent>
    </dc:creator>
   </cc:Work>
  </rdf:RDF>
 </metadata>
 <defs>
  <style type="text/css">*{stroke-linecap:butt;stroke-linejoin:round;}</style>
 </defs>
 <g id="figure_1">
  <g id="patch_1">
   <path d="M 0 288 
L 576 288 
L 576 0 
L 0 0 
z
" style="fill:#ffffff;"/>
  </g>
  <g id="axes_1">
   <g id="patch_2">
    <path d="M 72 252 
L 518.4 252 
L 518.4 34.56 
L 72 34.56 
z
" style="fill:#e5e5e5;"/>
   </g>
   <g id="matplotlib.axis_1">
    <g id="xtick_1">
     <g id="line2d_1">
      <path clip-path="url(#p88f0b520e2)" d="M 88.191736 252 
L 88.191736 34.56 
" style="fill:none;stroke:#ffffff;stroke-linecap:square;stroke-width:0.8;"/>
     </g>
     <g id="line2d_2">
      <defs>
       <path d="M 0 0 
L 0 3.5 
" id="m42479c7b74" style="stroke:#555555;stroke-width:0.8;"/>
      </defs>
      <g>
       <use style="fill:#555555;stroke:#555555;stroke-width:0.8;" x="88.191736" xlink:href="#m42479c7b74" y="252"/>
      </g>
     </g>
     <g id="text_1">
      <!-- 0 -->
      <g style="fill:#555555;" transform="translate(85.010486 266.598437)scale(0.1 -0.1)">
       <defs>
        <path d="M 2034 4250 
Q 1547 4250 1301 3770 
Q 1056 3291 1056 2328 
Q 1056 1369 1301 889 
Q 1547 409 2034 409 
Q 2525 409 2770 889 
Q 3016 1369 3016 2328 
Q 3016 3291 2770 3770 
Q 2525 4250 2034 4250 
z
M 2034 4750 
Q 2819 4750 3233 4129 
Q 3647 3509 3647 2328 
Q 3647 1150 3233 529 
Q 2819 -91 2034 -91 
Q 1250 -91 836 529 
Q 422 1150 422 2328 
Q 422 3509 836 4129 
Q 1250 4750 2034 4750 
z
" id="DejaVuSans-30" transform="scale(0.015625)"/>
       </defs>
       <use xlink:href="#DejaVuSans-30"/>
      </g>
     </g>
    </g>
    <g id="xtick_2">
     <g id="line2d_3">
      <path clip-path="url(#p88f0b520e2)" d="M 170.175207 252 
L 170.175207 34.56 
" style="fill:none;stroke:#ffffff;stroke-linecap:square;stroke-width:0.8;"/>
     </g>
     <g id="line2d_4">
      <g>
       <use style="fill:#555555;stroke:#555555;stroke-width:0.8;" x="170.175207" xlink:href="#m42479c7b74" y="252"/>
      </g>
     </g>
     <g id="text_2">
      <!-- 20 -->
      <g style="fill:#555555;" transform="translate(163.812707 266.598437)scale(0.1 -0.1)">
       <defs>
        <path d="M 1228 531 
L 3431 531 
L 3431 0 
L 469 0 
L 469 531 
Q 828 903 1448 1529 
Q 2069 2156 2228 2338 
Q 2531 2678 2651 2914 
Q 2772 3150 2772 3378 
Q 2772 3750 2511 3984 
Q 2250 4219 1831 4219 
Q 1534 4219 1204 4116 
Q 875 4013 500 3803 
L 500 4441 
Q 881 4594 1212 4672 
Q 1544 4750 1819 4750 
Q 2544 4750 2975 4387 
Q 3406 4025 3406 3419 
Q 3406 3131 3298 2873 
Q 3191 2616 2906 2266 
Q 2828 2175 2409 1742 
Q 1991 1309 1228 531 
z
" id="DejaVuSans-32" transform="scale(0.015625)"/>
       </defs>
       <use xlink:href="#DejaVuSans-32"/>
       <use x="63.623047" xlink:href="#DejaVuSans-30"/>
      </g>
     </g>
    </g>
    <g id="xtick_3">
     <g id="line2d_5">
      <path clip-path="url(#p88f0b520e2)" d="M 252.158678 252 
L 252.158678 34.56 
" style="fill:none;stroke:#ffffff;stroke-linecap:square;stroke-width:0.8;"/>
     </g>
     <g id="line2d_6">
      <g>
       <use style="fill:#555555;stroke:#555555;stroke-width:0.8;" x="252.158678" xlink:href="#m42479c7b74" y="252"/>
      </g>
     </g>
     <g id="text_3">
      <!-- 40 -->
      <g style="fill:#555555;" transform="translate(245.796178 266.598437)scale(0.1 -0.1)">
       <defs>
        <path d="M 2419 4116 
L 825 1625 
L 2419 1625 
L 2419 4116 
z
M 2253 4666 
L 3047 4666 
L 3047 1625 
L 3713 1625 
L 3713 1100 
L 3047 1100 
L 3047 0 
L 2419 0 
L 2419 1100 
L 313 1100 
L 313 1709 
L 2253 4666 
z
" id="DejaVuSans-34" transform="scale(0.015625)"/>
       </defs>
       <use xlink:href="#DejaVuSans-34"/>
       <use x="63.623047" xlink:href="#DejaVuSans-30"/>
      </g>
     </g>
    </g>
    <g id="xtick_4">
     <g id="line2d_7">
      <path clip-path="url(#p88f0b520e2)" d="M 334.142149 252 
L 334.142149 34.56 
" style="fill:none;stroke:#ffffff;stroke-linecap:square;stroke-width:0.8;"/>
     </g>
     <g id="line2d_8">
      <g>
       <use style="fill:#555555;stroke:#555555;stroke-width:0.8;" x="334.142149" xlink:href="#m42479c7b74" y="252"/>
      </g>
     </g>
     <g id="text_4">
      <!-- 60 -->
      <g style="fill:#555555;" transform="translate(327.779649 266.598437)scale(0.1 -0.1)">
       <defs>
        <path d="M 2113 2584 
Q 1688 2584 1439 2293 
Q 1191 2003 1191 1497 
Q 1191 994 1439 701 
Q 1688 409 2113 409 
Q 2538 409 2786 701 
Q 3034 994 3034 1497 
Q 3034 2003 2786 2293 
Q 2538 2584 2113 2584 
z
M 3366 4563 
L 3366 3988 
Q 3128 4100 2886 4159 
Q 2644 4219 2406 4219 
Q 1781 4219 1451 3797 
Q 1122 3375 1075 2522 
Q 1259 2794 1537 2939 
Q 1816 3084 2150 3084 
Q 2853 3084 3261 2657 
Q 3669 2231 3669 1497 
Q 3669 778 3244 343 
Q 2819 -91 2113 -91 
Q 1303 -91 875 529 
Q 447 1150 447 2328 
Q 447 3434 972 4092 
Q 1497 4750 2381 4750 
Q 2619 4750 2861 4703 
Q 3103 4656 3366 4563 
z
" id="DejaVuSans-36" transform="scale(0.015625)"/>
       </defs>
       <use xlink:href="#DejaVuSans-36"/>
       <use x="63.623047" xlink:href="#DejaVuSans-30"/>
      </g>
     </g>
    </g>
    <g id="xtick_5">
     <g id="line2d_9">
      <path clip-path="url(#p88f0b520e2)" d="M 416.12562 252 
L 416.12562 34.56 
" style="fill:none;stroke:#ffffff;stroke-linecap:square;stroke-width:0.8;"/>
     </g>
     <g id="line2d_10">
      <g>
       <use style="fill:#555555;stroke:#555555;stroke-width:0.8;" x="416.12562" xlink:href="#m42479c7b74" y="252"/>
      </g>
     </g>
     <g id="text_5">
      <!-- 80 -->
      <g style="fill:#555555;" transform="translate(409.76312 266.598437)scale(0.1 -0.1)">
       <defs>
        <path d="M 2034 2216 
Q 1584 2216 1326 1975 
Q 1069 1734 1069 1313 
Q 1069 891 1326 650 
Q 1584 409 2034 409 
Q 2484 409 2743 651 
Q 3003 894 3003 1313 
Q 3003 1734 2745 1975 
Q 2488 2216 2034 2216 
z
M 1403 2484 
Q 997 2584 770 2862 
Q 544 3141 544 3541 
Q 544 4100 942 4425 
Q 1341 4750 2034 4750 
Q 2731 4750 3128 4425 
Q 3525 4100 3525 3541 
Q 3525 3141 3298 2862 
Q 3072 2584 2669 2484 
Q 3125 2378 3379 2068 
Q 3634 1759 3634 1313 
Q 3634 634 3220 271 
Q 2806 -91 2034 -91 
Q 1263 -91 848 271 
Q 434 634 434 1313 
Q 434 1759 690 2068 
Q 947 2378 1403 2484 
z
M 1172 3481 
Q 1172 3119 1398 2916 
Q 1625 2713 2034 2713 
Q 2441 2713 2670 2916 
Q 2900 3119 2900 3481 
Q 2900 3844 2670 4047 
Q 2441 4250 2034 4250 
Q 1625 4250 1398 4047 
Q 1172 3844 1172 3481 
z
" id="DejaVuSans-38" transform="scale(0.015625)"/>
       </defs>
       <use xlink:href="#DejaVuSans-38"/>
       <use x="63.623047" xlink:href="#DejaVuSans-30"/>
      </g>
     </g>
    </g>
    <g id="xtick_6">
     <g id="line2d_11">
      <path clip-path="url(#p88f0b520e2)" d="M 498.109091 252 
L 498.109091 34.56 
" style="fill:none;stroke:#ffffff;stroke-linecap:square;stroke-width:0.8;"/>
     </g>
     <g id="line2d_12">
      <g>
       <use style="fill:#555555;stroke:#555555;stroke-width:0.8;" x="498.109091" xlink:href="#m42479c7b74" y="252"/>
      </g>
     </g>
     <g id="text_6">
      <!-- 100 -->
      <g style="fill:#555555;" transform="translate(488.565341 266.598437)scale(0.1 -0.1)">
       <defs>
        <path d="M 794 531 
L 1825 531 
L 1825 4091 
L 703 3866 
L 703 4441 
L 1819 4666 
L 2450 4666 
L 2450 531 
L 3481 531 
L 3481 0 
L 794 0 
L 794 531 
z
" id="DejaVuSans-31" transform="scale(0.015625)"/>
       </defs>
       <use xlink:href="#DejaVuSans-31"/>
       <use x="63.623047" xlink:href="#DejaVuSans-30"/>
       <use x="127.246094" xlink:href="#DejaVuSans-30"/>
      </g>
     </g>
    </g>
    <g id="text_7">
     <!-- Epoch number -->
     <g style="fill:#555555;" transform="translate(251.503125 281.79625)scale(0.12 -0.12)">
      <defs>
       <path d="M 628 4666 
L 3578 4666 
L 3578 4134 
L 1259 4134 
L 1259 2753 
L 3481 2753 
L 3481 2222 
L 1259 2222 
L 1259 531 
L 3634 531 
L 3634 0 
L 628 0 
L 628 4666 
z
" id="DejaVuSans-45" transform="scale(0.015625)"/>
       <path d="M 1159 525 
L 1159 -1331 
L 581 -1331 
L 581 3500 
L 1159 3500 
L 1159 2969 
Q 1341 3281 1617 3432 
Q 1894 3584 2278 3584 
Q 2916 3584 3314 3078 
Q 3713 2572 3713 1747 
Q 3713 922 3314 415 
Q 2916 -91 2278 -91 
Q 1894 -91 1617 61 
Q 1341 213 1159 525 
z
M 3116 1747 
Q 3116 2381 2855 2742 
Q 2594 3103 2138 3103 
Q 1681 3103 1420 2742 
Q 1159 2381 1159 1747 
Q 1159 1113 1420 752 
Q 1681 391 2138 391 
Q 2594 391 2855 752 
Q 3116 1113 3116 1747 
z
" id="DejaVuSans-70" transform="scale(0.015625)"/>
       <path d="M 1959 3097 
Q 1497 3097 1228 2736 
Q 959 2375 959 1747 
Q 959 1119 1226 758 
Q 1494 397 1959 397 
Q 2419 397 2687 759 
Q 2956 1122 2956 1747 
Q 2956 2369 2687 2733 
Q 2419 3097 1959 3097 
z
M 1959 3584 
Q 2709 3584 3137 3096 
Q 3566 2609 3566 1747 
Q 3566 888 3137 398 
Q 2709 -91 1959 -91 
Q 1206 -91 779 398 
Q 353 888 353 1747 
Q 353 2609 779 3096 
Q 1206 3584 1959 3584 
z
" id="DejaVuSans-6f" transform="scale(0.015625)"/>
       <path d="M 3122 3366 
L 3122 2828 
Q 2878 2963 2633 3030 
Q 2388 3097 2138 3097 
Q 1578 3097 1268 2742 
Q 959 2388 959 1747 
Q 959 1106 1268 751 
Q 1578 397 2138 397 
Q 2388 397 2633 464 
Q 2878 531 3122 666 
L 3122 134 
Q 2881 22 2623 -34 
Q 2366 -91 2075 -91 
Q 1284 -91 818 406 
Q 353 903 353 1747 
Q 353 2603 823 3093 
Q 1294 3584 2113 3584 
Q 2378 3584 2631 3529 
Q 2884 3475 3122 3366 
z
" id="DejaVuSans-63" transform="scale(0.015625)"/>
       <path d="M 3513 2113 
L 3513 0 
L 2938 0 
L 2938 2094 
Q 2938 2591 2744 2837 
Q 2550 3084 2163 3084 
Q 1697 3084 1428 2787 
Q 1159 2491 1159 1978 
L 1159 0 
L 581 0 
L 581 4863 
L 1159 4863 
L 1159 2956 
Q 1366 3272 1645 3428 
Q 1925 3584 2291 3584 
Q 2894 3584 3203 3211 
Q 3513 2838 3513 2113 
z
" id="DejaVuSans-68" transform="scale(0.015625)"/>
       <path id="DejaVuSans-20" transform="scale(0.015625)"/>
       <path d="M 3513 2113 
L 3513 0 
L 2938 0 
L 2938 2094 
Q 2938 2591 2744 2837 
Q 2550 3084 2163 3084 
Q 1697 3084 1428 2787 
Q 1159 2491 1159 1978 
L 1159 0 
L 581 0 
L 581 3500 
L 1159 3500 
L 1159 2956 
Q 1366 3272 1645 3428 
Q 1925 3584 2291 3584 
Q 2894 3584 3203 3211 
Q 3513 2838 3513 2113 
z
" id="DejaVuSans-6e" transform="scale(0.015625)"/>
       <path d="M 544 1381 
L 544 3500 
L 1119 3500 
L 1119 1403 
Q 1119 906 1312 657 
Q 1506 409 1894 409 
Q 2359 409 2629 706 
Q 2900 1003 2900 1516 
L 2900 3500 
L 3475 3500 
L 3475 0 
L 2900 0 
L 2900 538 
Q 2691 219 2414 64 
Q 2138 -91 1772 -91 
Q 1169 -91 856 284 
Q 544 659 544 1381 
z
M 1991 3584 
L 1991 3584 
z
" id="DejaVuSans-75" transform="scale(0.015625)"/>
       <path d="M 3328 2828 
Q 3544 3216 3844 3400 
Q 4144 3584 4550 3584 
Q 5097 3584 5394 3201 
Q 5691 2819 5691 2113 
L 5691 0 
L 5113 0 
L 5113 2094 
Q 5113 2597 4934 2840 
Q 4756 3084 4391 3084 
Q 3944 3084 3684 2787 
Q 3425 2491 3425 1978 
L 3425 0 
L 2847 0 
L 2847 2094 
Q 2847 2600 2669 2842 
Q 2491 3084 2119 3084 
Q 1678 3084 1418 2786 
Q 1159 2488 1159 1978 
L 1159 0 
L 581 0 
L 581 3500 
L 1159 3500 
L 1159 2956 
Q 1356 3278 1631 3431 
Q 1906 3584 2284 3584 
Q 2666 3584 2933 3390 
Q 3200 3197 3328 2828 
z
" id="DejaVuSans-6d" transform="scale(0.015625)"/>
       <path d="M 3116 1747 
Q 3116 2381 2855 2742 
Q 2594 3103 2138 3103 
Q 1681 3103 1420 2742 
Q 1159 2381 1159 1747 
Q 1159 1113 1420 752 
Q 1681 391 2138 391 
Q 2594 391 2855 752 
Q 3116 1113 3116 1747 
z
M 1159 2969 
Q 1341 3281 1617 3432 
Q 1894 3584 2278 3584 
Q 2916 3584 3314 3078 
Q 3713 2572 3713 1747 
Q 3713 922 3314 415 
Q 2916 -91 2278 -91 
Q 1894 -91 1617 61 
Q 1341 213 1159 525 
L 1159 0 
L 581 0 
L 581 4863 
L 1159 4863 
L 1159 2969 
z
" id="DejaVuSans-62" transform="scale(0.015625)"/>
       <path d="M 3597 1894 
L 3597 1613 
L 953 1613 
Q 991 1019 1311 708 
Q 1631 397 2203 397 
Q 2534 397 2845 478 
Q 3156 559 3463 722 
L 3463 178 
Q 3153 47 2828 -22 
Q 2503 -91 2169 -91 
Q 1331 -91 842 396 
Q 353 884 353 1716 
Q 353 2575 817 3079 
Q 1281 3584 2069 3584 
Q 2775 3584 3186 3129 
Q 3597 2675 3597 1894 
z
M 3022 2063 
Q 3016 2534 2758 2815 
Q 2500 3097 2075 3097 
Q 1594 3097 1305 2825 
Q 1016 2553 972 2059 
L 3022 2063 
z
" id="DejaVuSans-65" transform="scale(0.015625)"/>
       <path d="M 2631 2963 
Q 2534 3019 2420 3045 
Q 2306 3072 2169 3072 
Q 1681 3072 1420 2755 
Q 1159 2438 1159 1844 
L 1159 0 
L 581 0 
L 581 3500 
L 1159 3500 
L 1159 2956 
Q 1341 3275 1631 3429 
Q 1922 3584 2338 3584 
Q 2397 3584 2469 3576 
Q 2541 3569 2628 3553 
L 2631 2963 
z
" id="DejaVuSans-72" transform="scale(0.015625)"/>
      </defs>
      <use xlink:href="#DejaVuSans-45"/>
      <use x="63.183594" xlink:href="#DejaVuSans-70"/>
      <use x="126.660156" xlink:href="#DejaVuSans-6f"/>
      <use x="187.841797" xlink:href="#DejaVuSans-63"/>
      <use x="242.822266" xlink:href="#DejaVuSans-68"/>
      <use x="306.201172" xlink:href="#DejaVuSans-20"/>
      <use x="337.988281" xlink:href="#DejaVuSans-6e"/>
      <use x="401.367188" xlink:href="#DejaVuSans-75"/>
      <use x="464.746094" xlink:href="#DejaVuSans-6d"/>
      <use x="562.158203" xlink:href="#DejaVuSans-62"/>
      <use x="625.634766" xlink:href="#DejaVuSans-65"/>
      <use x="687.158203" xlink:href="#DejaVuSans-72"/>
     </g>
    </g>
   </g>
   <g id="matplotlib.axis_2">
    <g id="ytick_1">
     <g id="line2d_13">
      <path clip-path="url(#p88f0b520e2)" d="M 72 228.973153 
L 518.4 228.973153 
" style="fill:none;stroke:#ffffff;stroke-linecap:square;stroke-width:0.8;"/>
     </g>
     <g id="line2d_14">
      <defs>
       <path d="M 0 0 
L -3.5 0 
" id="m22a7148baa" style="stroke:#555555;stroke-width:0.8;"/>
      </defs>
      <g>
       <use style="fill:#555555;stroke:#555555;stroke-width:0.8;" x="72" xlink:href="#m22a7148baa" y="228.973153"/>
      </g>
     </g>
     <g id="text_8">
      <!-- 0.2 -->
      <g style="fill:#555555;" transform="translate(49.096875 232.772371)scale(0.1 -0.1)">
       <defs>
        <path d="M 684 794 
L 1344 794 
L 1344 0 
L 684 0 
L 684 794 
z
" id="DejaVuSans-2e" transform="scale(0.015625)"/>
       </defs>
       <use xlink:href="#DejaVuSans-30"/>
       <use x="63.623047" xlink:href="#DejaVuSans-2e"/>
       <use x="95.410156" xlink:href="#DejaVuSans-32"/>
      </g>
     </g>
    </g>
    <g id="ytick_2">
     <g id="line2d_15">
      <path clip-path="url(#p88f0b520e2)" d="M 72 204.667771 
L 518.4 204.667771 
" style="fill:none;stroke:#ffffff;stroke-linecap:square;stroke-width:0.8;"/>
     </g>
     <g id="line2d_16">
      <g>
       <use style="fill:#555555;stroke:#555555;stroke-width:0.8;" x="72" xlink:href="#m22a7148baa" y="204.667771"/>
      </g>
     </g>
     <g id="text_9">
      <!-- 0.4 -->
      <g style="fill:#555555;" transform="translate(49.096875 208.466989)scale(0.1 -0.1)">
       <use xlink:href="#DejaVuSans-30"/>
       <use x="63.623047" xlink:href="#DejaVuSans-2e"/>
       <use x="95.410156" xlink:href="#DejaVuSans-34"/>
      </g>
     </g>
    </g>
    <g id="ytick_3">
     <g id="line2d_17">
      <path clip-path="url(#p88f0b520e2)" d="M 72 180.362389 
L 518.4 180.362389 
" style="fill:none;stroke:#ffffff;stroke-linecap:square;stroke-width:0.8;"/>
     </g>
     <g id="line2d_18">
      <g>
       <use style="fill:#555555;stroke:#555555;stroke-width:0.8;" x="72" xlink:href="#m22a7148baa" y="180.362389"/>
      </g>
     </g>
     <g id="text_10">
      <!-- 0.6 -->
      <g style="fill:#555555;" transform="translate(49.096875 184.161608)scale(0.1 -0.1)">
       <use xlink:href="#DejaVuSans-30"/>
       <use x="63.623047" xlink:href="#DejaVuSans-2e"/>
       <use x="95.410156" xlink:href="#DejaVuSans-36"/>
      </g>
     </g>
    </g>
    <g id="ytick_4">
     <g id="line2d_19">
      <path clip-path="url(#p88f0b520e2)" d="M 72 156.057007 
L 518.4 156.057007 
" style="fill:none;stroke:#ffffff;stroke-linecap:square;stroke-width:0.8;"/>
     </g>
     <g id="line2d_20">
      <g>
       <use style="fill:#555555;stroke:#555555;stroke-width:0.8;" x="72" xlink:href="#m22a7148baa" y="156.057007"/>
      </g>
     </g>
     <g id="text_11">
      <!-- 0.8 -->
      <g style="fill:#555555;" transform="translate(49.096875 159.856226)scale(0.1 -0.1)">
       <use xlink:href="#DejaVuSans-30"/>
       <use x="63.623047" xlink:href="#DejaVuSans-2e"/>
       <use x="95.410156" xlink:href="#DejaVuSans-38"/>
      </g>
     </g>
    </g>
    <g id="ytick_5">
     <g id="line2d_21">
      <path clip-path="url(#p88f0b520e2)" d="M 72 131.751625 
L 518.4 131.751625 
" style="fill:none;stroke:#ffffff;stroke-linecap:square;stroke-width:0.8;"/>
     </g>
     <g id="line2d_22">
      <g>
       <use style="fill:#555555;stroke:#555555;stroke-width:0.8;" x="72" xlink:href="#m22a7148baa" y="131.751625"/>
      </g>
     </g>
     <g id="text_12">
      <!-- 1.0 -->
      <g style="fill:#555555;" transform="translate(49.096875 135.550844)scale(0.1 -0.1)">
       <use xlink:href="#DejaVuSans-31"/>
       <use x="63.623047" xlink:href="#DejaVuSans-2e"/>
       <use x="95.410156" xlink:href="#DejaVuSans-30"/>
      </g>
     </g>
    </g>
    <g id="ytick_6">
     <g id="line2d_23">
      <path clip-path="url(#p88f0b520e2)" d="M 72 107.446243 
L 518.4 107.446243 
" style="fill:none;stroke:#ffffff;stroke-linecap:square;stroke-width:0.8;"/>
     </g>
     <g id="line2d_24">
      <g>
       <use style="fill:#555555;stroke:#555555;stroke-width:0.8;" x="72" xlink:href="#m22a7148baa" y="107.446243"/>
      </g>
     </g>
     <g id="text_13">
      <!-- 1.2 -->
      <g style="fill:#555555;" transform="translate(49.096875 111.245462)scale(0.1 -0.1)">
       <use xlink:href="#DejaVuSans-31"/>
       <use x="63.623047" xlink:href="#DejaVuSans-2e"/>
       <use x="95.410156" xlink:href="#DejaVuSans-32"/>
      </g>
     </g>
    </g>
    <g id="ytick_7">
     <g id="line2d_25">
      <path clip-path="url(#p88f0b520e2)" d="M 72 83.140861 
L 518.4 83.140861 
" style="fill:none;stroke:#ffffff;stroke-linecap:square;stroke-width:0.8;"/>
     </g>
     <g id="line2d_26">
      <g>
       <use style="fill:#555555;stroke:#555555;stroke-width:0.8;" x="72" xlink:href="#m22a7148baa" y="83.140861"/>
      </g>
     </g>
     <g id="text_14">
      <!-- 1.4 -->
      <g style="fill:#555555;" transform="translate(49.096875 86.94008)scale(0.1 -0.1)">
       <use xlink:href="#DejaVuSans-31"/>
       <use x="63.623047" xlink:href="#DejaVuSans-2e"/>
       <use x="95.410156" xlink:href="#DejaVuSans-34"/>
      </g>
     </g>
    </g>
    <g id="ytick_8">
     <g id="line2d_27">
      <path clip-path="url(#p88f0b520e2)" d="M 72 58.83548 
L 518.4 58.83548 
" style="fill:none;stroke:#ffffff;stroke-linecap:square;stroke-width:0.8;"/>
     </g>
     <g id="line2d_28">
      <g>
       <use style="fill:#555555;stroke:#555555;stroke-width:0.8;" x="72" xlink:href="#m22a7148baa" y="58.83548"/>
      </g>
     </g>
     <g id="text_15">
      <!-- 1.6 -->
      <g style="fill:#555555;" transform="translate(49.096875 62.634698)scale(0.1 -0.1)">
       <use xlink:href="#DejaVuSans-31"/>
       <use x="63.623047" xlink:href="#DejaVuSans-2e"/>
       <use x="95.410156" xlink:href="#DejaVuSans-36"/>
      </g>
     </g>
    </g>
    <g id="text_16">
     <!-- Error -->
     <g style="fill:#555555;" transform="translate(42.60125 157.902187)rotate(-90)scale(0.12 -0.12)">
      <use xlink:href="#DejaVuSans-45"/>
      <use x="63.183594" xlink:href="#DejaVuSans-72"/>
      <use x="102.546875" xlink:href="#DejaVuSans-72"/>
      <use x="141.410156" xlink:href="#DejaVuSans-6f"/>
      <use x="202.591797" xlink:href="#DejaVuSans-72"/>
     </g>
    </g>
   </g>
   <g id="line2d_29">
    <path clip-path="url(#p88f0b520e2)" d="M 92.290909 141.271386 
L 96.390083 167.158259 
L 100.489256 180.271267 
L 104.58843 187.004175 
L 108.687603 191.312564 
L 112.786777 193.815709 
L 116.88595 197.345525 
L 120.985124 199.551484 
L 125.084298 202.050807 
L 129.183471 202.448022 
L 133.282645 205.170977 
L 137.381818 205.312835 
L 141.480992 207.282264 
L 145.580165 208.46848 
L 149.679339 209.656362 
L 153.778512 210.279348 
L 157.877686 212.204271 
L 161.97686 212.196611 
L 166.076033 213.651756 
L 170.175207 213.399902 
L 174.27438 214.517445 
L 178.373554 215.906367 
L 182.472727 214.263047 
L 186.571901 216.087514 
L 190.671074 215.454215 
L 194.770248 217.461791 
L 198.869421 218.225261 
L 202.968595 218.279026 
L 207.067769 217.972788 
L 211.166942 218.995578 
L 215.266116 219.480612 
L 219.365289 218.106626 
L 223.464463 220.755661 
L 227.563636 221.031968 
L 231.66281 221.514325 
L 235.761983 220.573766 
L 239.861157 222.106402 
L 243.960331 221.774521 
L 248.059504 222.544308 
L 252.158678 223.289157 
L 256.257851 223.078948 
L 260.357025 223.094111 
L 264.456198 223.634393 
L 268.555372 223.909606 
L 272.654545 224.262478 
L 276.753719 224.05133 
L 280.852893 223.917794 
L 284.952066 224.786248 
L 289.05124 225.862381 
L 293.150413 225.596877 
L 297.249587 224.674981 
L 301.34876 225.388837 
L 305.447934 225.991951 
L 309.547107 226.664451 
L 313.646281 227.067065 
L 317.745455 226.857936 
L 321.844628 226.951357 
L 325.943802 227.341401 
L 330.042975 227.515572 
L 334.142149 227.285691 
L 338.241322 227.116714 
L 342.340496 228.284657 
L 346.439669 228.409201 
L 350.538843 228.825651 
L 354.638017 228.529476 
L 358.73719 227.861083 
L 362.836364 229.290085 
L 366.935537 229.488801 
L 371.034711 229.208513 
L 375.133884 230.403613 
L 379.233058 230.175846 
L 383.332231 229.000311 
L 387.431405 229.712909 
L 391.530579 230.301448 
L 395.629752 230.676147 
L 399.728926 230.049612 
L 403.828099 231.000792 
L 407.927273 230.603568 
L 412.026446 230.419482 
L 416.12562 231.475861 
L 420.224793 231.520314 
L 424.323967 231.77181 
L 428.42314 232.148088 
L 432.522314 231.391509 
L 436.621488 231.73627 
L 440.720661 232.104557 
L 444.819835 231.497078 
L 448.919008 231.724239 
L 453.018182 232.796721 
L 457.117355 231.985523 
L 461.216529 232.025462 
L 465.315702 233.000976 
L 469.414876 233.005707 
L 473.51405 232.085708 
L 477.613223 232.619156 
L 481.712397 232.864329 
L 485.81157 232.022568 
L 489.910744 233.508662 
L 494.009917 233.933537 
L 498.109091 233.894027 
" style="fill:none;stroke:#e24a33;stroke-linecap:square;stroke-width:1.5;"/>
   </g>
   <g id="line2d_30">
    <path clip-path="url(#p88f0b520e2)" d="M 92.290909 159.108661 
L 96.390083 179.748368 
L 100.489256 189.404745 
L 104.58843 196.077948 
L 108.687603 200.752582 
L 112.786777 202.660297 
L 116.88595 206.985727 
L 120.985124 210.536501 
L 125.084298 210.104774 
L 129.183471 212.252997 
L 133.282645 213.600792 
L 137.381818 216.122858 
L 141.480992 216.924602 
L 145.580165 218.244106 
L 149.679339 219.69886 
L 153.778512 220.679556 
L 157.877686 220.265844 
L 161.97686 222.457183 
L 166.076033 222.867179 
L 170.175207 223.862394 
L 174.27438 224.188192 
L 178.373554 225.469521 
L 182.472727 225.735316 
L 186.571901 224.665221 
L 190.671074 226.938805 
L 194.770248 227.485354 
L 198.869421 229.300071 
L 202.968595 227.404868 
L 207.067769 227.489154 
L 211.166942 227.620549 
L 215.266116 230.115299 
L 219.365289 229.977362 
L 223.464463 230.937833 
L 227.563636 229.808505 
L 231.66281 231.073327 
L 235.761983 232.191896 
L 239.861157 231.525847 
L 243.960331 231.516079 
L 248.059504 232.446098 
L 252.158678 232.266664 
L 256.257851 233.654146 
L 260.357025 233.306611 
L 264.456198 233.396661 
L 268.555372 232.707689 
L 272.654545 233.622732 
L 276.753719 233.914275 
L 280.852893 234.356225 
L 284.952066 235.556951 
L 289.05124 235.38375 
L 293.150413 236.396551 
L 297.249587 235.697392 
L 301.34876 235.899991 
L 305.447934 235.989182 
L 309.547107 237.330561 
L 313.646281 237.732767 
L 317.745455 237.498814 
L 321.844628 235.442769 
L 325.943802 236.161863 
L 330.042975 235.527655 
L 334.142149 235.52484 
L 338.241322 237.436973 
L 342.340496 236.954867 
L 346.439669 236.816399 
L 350.538843 238.172186 
L 354.638017 237.845591 
L 358.73719 237.866617 
L 362.836364 237.485836 
L 366.935537 238.693846 
L 371.034711 237.553109 
L 375.133884 238.642162 
L 379.233058 237.259449 
L 383.332231 238.265208 
L 387.431405 238.972917 
L 391.530579 238.399387 
L 395.629752 239.801004 
L 399.728926 237.747787 
L 403.828099 239.011947 
L 407.927273 239.72156 
L 412.026446 239.078083 
L 416.12562 239.538177 
L 420.224793 239.852681 
L 424.323967 240.244387 
L 428.42314 238.471093 
L 432.522314 240.422566 
L 436.621488 239.804254 
L 440.720661 237.423589 
L 444.819835 238.867591 
L 448.919008 240.350492 
L 453.018182 238.958075 
L 457.117355 240.621593 
L 461.216529 239.836412 
L 465.315702 239.971489 
L 469.414876 240.043542 
L 473.51405 241.476352 
L 477.613223 240.546017 
L 481.712397 240.072514 
L 485.81157 241.12954 
L 489.910744 240.918631 
L 494.009917 242.116364 
L 498.109091 239.485408 
" style="fill:none;stroke:#348abd;stroke-linecap:square;stroke-width:1.5;"/>
   </g>
   <g id="line2d_31">
    <path clip-path="url(#p88f0b520e2)" d="M 92.290909 167.24405 
L 96.390083 186.871272 
L 100.489256 193.759636 
L 104.58843 200.089555 
L 108.687603 203.172328 
L 112.786777 205.437072 
L 116.88595 209.056192 
L 120.985124 212.508829 
L 125.084298 213.562949 
L 129.183471 214.957137 
L 133.282645 216.776362 
L 137.381818 218.956043 
L 141.480992 219.234151 
L 145.580165 221.234105 
L 149.679339 222.077177 
L 153.778512 221.233539 
L 157.877686 224.76991 
L 161.97686 223.155394 
L 166.076033 225.377813 
L 170.175207 226.668199 
L 174.27438 227.426613 
L 178.373554 227.644161 
L 182.472727 229.657242 
L 186.571901 227.492994 
L 190.671074 227.965115 
L 194.770248 229.284618 
L 198.869421 230.667864 
L 202.968595 229.726209 
L 207.067769 229.43681 
L 211.166942 231.710218 
L 215.266116 230.135117 
L 219.365289 232.116387 
L 223.464463 232.661818 
L 227.563636 230.928303 
L 231.66281 232.738122 
L 235.761983 233.369782 
L 239.861157 234.641223 
L 243.960331 234.31263 
L 248.059504 234.09996 
L 252.158678 234.649593 
L 256.257851 233.82358 
L 260.357025 235.985443 
L 264.456198 235.178419 
L 268.555372 236.226287 
L 272.654545 234.557854 
L 276.753719 235.183724 
L 280.852893 236.69319 
L 284.952066 235.712722 
L 289.05124 236.92473 
L 293.150413 237.789689 
L 297.249587 235.862783 
L 301.34876 236.165373 
L 305.447934 236.778707 
L 309.547107 235.963535 
L 313.646281 235.179175 
L 317.745455 237.382324 
L 321.844628 237.130299 
L 325.943802 234.097734 
L 330.042975 235.368715 
L 334.142149 237.066937 
L 338.241322 234.994377 
L 342.340496 236.571432 
L 346.439669 238.950676 
L 350.538843 236.641474 
L 354.638017 238.881467 
L 358.73719 236.962695 
L 362.836364 237.662577 
L 366.935537 237.350391 
L 371.034711 238.243809 
L 375.133884 238.583794 
L 379.233058 238.978784 
L 383.332231 238.676448 
L 387.431405 238.313347 
L 391.530579 238.300283 
L 395.629752 237.336732 
L 399.728926 240.204169 
L 403.828099 237.855317 
L 407.927273 239.919059 
L 412.026446 238.135392 
L 416.12562 239.675459 
L 420.224793 237.169033 
L 424.323967 239.74329 
L 428.42314 238.499574 
L 432.522314 238.219004 
L 436.621488 238.944965 
L 440.720661 240.78122 
L 444.819835 238.441921 
L 448.919008 239.342258 
L 453.018182 240.954474 
L 457.117355 238.870098 
L 461.216529 239.181022 
L 465.315702 240.626089 
L 469.414876 240.724028 
L 473.51405 240.794194 
L 477.613223 238.838001 
L 481.712397 238.972121 
L 485.81157 241.175093 
L 489.910744 240.948314 
L 494.009917 240.269467 
L 498.109091 239.127731 
" style="fill:none;stroke:#988ed5;stroke-linecap:square;stroke-width:1.5;"/>
   </g>
   <g id="line2d_32">
    <path clip-path="url(#p88f0b520e2)" d="M 92.290909 139.247338 
L 96.390083 162.600167 
L 100.489256 174.318417 
L 104.58843 179.54526 
L 108.687603 182.769176 
L 112.786777 184.287175 
L 116.88595 186.460844 
L 120.985124 186.837166 
L 125.084298 188.409353 
L 129.183471 187.821392 
L 133.282645 188.802802 
L 137.381818 187.860912 
L 141.480992 188.755144 
L 145.580165 189.149716 
L 149.679339 188.583767 
L 153.778512 188.197853 
L 157.877686 189.51542 
L 161.97686 187.881564 
L 166.076033 188.259124 
L 170.175207 186.793238 
L 174.27438 187.593066 
L 178.373554 187.342919 
L 182.472727 185.121368 
L 186.571901 185.68165 
L 190.671074 184.657325 
L 194.770248 185.542945 
L 198.869421 184.65714 
L 202.968595 184.49267 
L 207.067769 182.635034 
L 211.166942 183.102473 
L 215.266116 182.133171 
L 219.365289 180.331434 
L 223.464463 181.997877 
L 227.563636 181.060513 
L 231.66281 180.869476 
L 235.761983 179.134553 
L 239.861157 179.345438 
L 243.960331 178.07426 
L 248.059504 178.045909 
L 252.158678 178.174761 
L 256.257851 176.885209 
L 260.357025 175.726781 
L 264.456198 175.664097 
L 268.555372 174.672064 
L 272.654545 174.578649 
L 276.753719 173.12065 
L 280.852893 172.703155 
L 284.952066 172.405857 
L 289.05124 171.919791 
L 293.150413 170.087744 
L 297.249587 169.063635 
L 301.34876 169.630093 
L 305.447934 168.481672 
L 309.547107 168.78552 
L 313.646281 168.08962 
L 317.745455 166.37063 
L 321.844628 166.885711 
L 325.943802 165.321303 
L 330.042975 164.860709 
L 334.142149 164.303438 
L 338.241322 162.568287 
L 342.340496 164.467734 
L 346.439669 161.731138 
L 350.538843 161.415593 
L 354.638017 160.911066 
L 358.73719 159.184047 
L 362.836364 159.48241 
L 366.935537 159.591074 
L 371.034711 158.18425 
L 375.133884 158.906903 
L 379.233058 157.016612 
L 383.332231 155.940519 
L 387.431405 155.948919 
L 391.530579 154.660521 
L 395.629752 152.667235 
L 399.728926 152.497047 
L 403.828099 152.082432 
L 407.927273 152.170674 
L 412.026446 150.234443 
L 416.12562 151.305321 
L 420.224793 149.562611 
L 424.323967 148.680108 
L 428.42314 149.081601 
L 432.522314 146.832572 
L 436.621488 147.732481 
L 440.720661 146.713999 
L 444.819835 143.093892 
L 448.919008 143.265238 
L 453.018182 143.103083 
L 457.117355 142.471607 
L 461.216529 141.789706 
L 465.315702 141.171024 
L 469.414876 141.871759 
L 473.51405 139.965241 
L 477.613223 139.843058 
L 481.712397 138.476265 
L 485.81157 135.961964 
L 489.910744 136.85388 
L 494.009917 135.835933 
L 498.109091 135.969708 
" style="fill:none;stroke:#777777;stroke-dasharray:5.55,2.4;stroke-dashoffset:0;stroke-width:1.5;"/>
   </g>
   <g id="line2d_33">
    <path clip-path="url(#p88f0b520e2)" d="M 92.290909 156.268381 
L 96.390083 174.701342 
L 100.489256 183.050263 
L 104.58843 187.263727 
L 108.687603 190.225536 
L 112.786777 190.126887 
L 116.88595 193.007107 
L 120.985124 194.306405 
L 125.084298 192.546972 
L 129.183471 193.126761 
L 133.282645 191.793311 
L 137.381818 193.814902 
L 141.480992 192.399418 
L 145.580165 191.085394 
L 149.679339 191.3646 
L 153.778512 190.355422 
L 157.877686 189.257582 
L 161.97686 190.107277 
L 166.076033 187.809193 
L 170.175207 187.341697 
L 174.27438 186.021383 
L 178.373554 185.391586 
L 182.472727 183.751159 
L 186.571901 182.11484 
L 190.671074 180.928595 
L 194.770248 181.56372 
L 198.869421 180.131992 
L 202.968595 176.782866 
L 207.067769 174.926245 
L 211.166942 174.792006 
L 215.266116 175.556981 
L 219.365289 172.293957 
L 223.464463 172.907268 
L 227.563636 169.595308 
L 231.66281 168.171094 
L 235.761983 167.3554 
L 239.861157 165.924606 
L 243.960331 163.392875 
L 248.059504 163.639216 
L 252.158678 161.49631 
L 256.257851 160.79333 
L 260.357025 157.686292 
L 264.456198 158.014681 
L 268.555372 155.783493 
L 272.654545 154.496388 
L 276.753719 153.469987 
L 280.852893 150.854228 
L 284.952066 149.497414 
L 289.05124 147.604912 
L 293.150413 146.906117 
L 297.249587 144.722158 
L 301.34876 142.906366 
L 305.447934 141.166064 
L 309.547107 140.99066 
L 313.646281 138.978459 
L 317.745455 137.106247 
L 321.844628 133.680364 
L 325.943802 134.815507 
L 330.042975 129.727269 
L 334.142149 128.14804 
L 338.241322 131.711508 
L 342.340496 128.688399 
L 346.439669 124.745928 
L 350.538843 125.532377 
L 354.638017 123.707697 
L 358.73719 122.113011 
L 362.836364 118.493992 
L 366.935537 120.66335 
L 371.034711 120.163057 
L 375.133884 117.806393 
L 379.233058 109.932416 
L 383.332231 113.107043 
L 387.431405 112.16448 
L 391.530579 105.7201 
L 395.629752 107.68817 
L 399.728926 106.363627 
L 403.828099 106.080094 
L 407.927273 102.613536 
L 412.026446 100.831093 
L 416.12562 101.569198 
L 420.224793 100.621453 
L 424.323967 100.684787 
L 428.42314 95.409849 
L 432.522314 96.550702 
L 436.621488 93.479401 
L 440.720661 85.892946 
L 444.819835 88.786435 
L 448.919008 91.563688 
L 453.018182 87.148296 
L 457.117355 85.772868 
L 461.216529 85.119443 
L 465.315702 85.128133 
L 469.414876 81.99816 
L 473.51405 80.579789 
L 477.613223 80.827914 
L 481.712397 76.724437 
L 485.81157 81.325615 
L 489.910744 78.171454 
L 494.009917 73.086395 
L 498.109091 67.593838 
" style="fill:none;stroke:#fbc15e;stroke-dasharray:5.55,2.4;stroke-dashoffset:0;stroke-width:1.5;"/>
   </g>
   <g id="line2d_34">
    <path clip-path="url(#p88f0b520e2)" d="M 92.290909 163.288861 
L 96.390083 181.576494 
L 100.489256 185.996584 
L 104.58843 190.669223 
L 108.687603 191.20179 
L 112.786777 191.764045 
L 116.88595 193.377908 
L 120.985124 195.270398 
L 125.084298 193.621299 
L 129.183471 191.789054 
L 133.282645 193.329306 
L 137.381818 192.576821 
L 141.480992 191.821156 
L 145.580165 191.508766 
L 149.679339 189.066155 
L 153.778512 186.779631 
L 157.877686 187.860868 
L 161.97686 183.210756 
L 166.076033 183.539516 
L 170.175207 184.665574 
L 174.27438 182.037115 
L 178.373554 180.704703 
L 182.472727 179.740533 
L 186.571901 176.855165 
L 190.671074 175.817506 
L 194.770248 173.465175 
L 198.869421 172.458704 
L 202.968595 170.913798 
L 207.067769 165.624142 
L 211.166942 166.377906 
L 215.266116 161.213041 
L 219.365289 162.494337 
L 223.464463 161.931896 
L 227.563636 156.309732 
L 231.66281 158.402656 
L 235.761983 156.570037 
L 239.861157 155.507021 
L 243.960331 152.833775 
L 248.059504 150.4359 
L 252.158678 150.410532 
L 256.257851 144.609736 
L 260.357025 148.819431 
L 264.456198 143.378546 
L 268.555372 140.546976 
L 272.654545 136.72364 
L 276.753719 138.058292 
L 280.852893 135.28086 
L 284.952066 133.823226 
L 289.05124 135.201914 
L 293.150413 132.245107 
L 297.249587 126.602489 
L 301.34876 123.356049 
L 305.447934 126.088529 
L 309.547107 125.457211 
L 313.646281 116.002003 
L 317.745455 120.747006 
L 321.844628 115.428474 
L 325.943802 109.443127 
L 330.042975 113.976441 
L 334.142149 108.888397 
L 338.241322 106.852237 
L 342.340496 110.5641 
L 346.439669 108.208098 
L 350.538843 104.645129 
L 354.638017 102.346822 
L 358.73719 100.3861 
L 362.836364 101.777335 
L 366.935537 98.645985 
L 371.034711 93.240252 
L 375.133884 95.307435 
L 379.233058 97.575671 
L 383.332231 95.739211 
L 387.431405 92.37787 
L 391.530579 84.701754 
L 395.629752 88.486521 
L 399.728926 84.398062 
L 403.828099 79.024357 
L 407.927273 82.277521 
L 412.026446 76.602933 
L 416.12562 76.311254 
L 420.224793 77.495583 
L 424.323967 75.843401 
L 428.42314 71.060618 
L 432.522314 68.767917 
L 436.621488 64.278853 
L 440.720661 69.359795 
L 444.819835 61.523891 
L 448.919008 69.520693 
L 453.018182 62.504728 
L 457.117355 65.465584 
L 461.216529 60.739089 
L 465.315702 58.186506 
L 469.414876 55.837548 
L 473.51405 57.092793 
L 477.613223 57.791771 
L 481.712397 45.80085 
L 485.81157 52.400814 
L 489.910744 52.070962 
L 494.009917 49.422134 
L 498.109091 44.443636 
" style="fill:none;stroke:#8eba42;stroke-dasharray:5.55,2.4;stroke-dashoffset:0;stroke-width:1.5;"/>
   </g>
   <g id="patch_3">
    <path d="M 72 252 
L 72 34.56 
" style="fill:none;stroke:#ffffff;stroke-linecap:square;stroke-linejoin:miter;"/>
   </g>
   <g id="patch_4">
    <path d="M 518.4 252 
L 518.4 34.56 
" style="fill:none;stroke:#ffffff;stroke-linecap:square;stroke-linejoin:miter;"/>
   </g>
   <g id="patch_5">
    <path d="M 72 252 
L 518.4 252 
" style="fill:none;stroke:#ffffff;stroke-linecap:square;stroke-linejoin:miter;"/>
   </g>
   <g id="patch_6">
    <path d="M 72 34.56 
L 518.4 34.56 
" style="fill:none;stroke:#ffffff;stroke-linecap:square;stroke-linejoin:miter;"/>
   </g>
   <g id="legend_1">
    <g id="patch_7">
     <path d="M 79 130.62875 
L 178.225 130.62875 
Q 180.225 130.62875 180.225 128.62875 
L 180.225 41.56 
Q 180.225 39.56 178.225 39.56 
L 79 39.56 
Q 77 39.56 77 41.56 
L 77 128.62875 
Q 77 130.62875 79 130.62875 
z
" style="fill:#e5e5e5;opacity:0.8;stroke:#cccccc;stroke-linejoin:miter;stroke-width:0.5;"/>
    </g>
    <g id="line2d_35">
     <path d="M 81 47.658437 
L 101 47.658437 
" style="fill:none;stroke:#e24a33;stroke-linecap:square;stroke-width:1.5;"/>
    </g>
    <g id="line2d_36"/>
    <g id="text_17">
     <!-- depth1(train) -->
     <g transform="translate(109 51.158437)scale(0.1 -0.1)">
      <defs>
       <path d="M 2906 2969 
L 2906 4863 
L 3481 4863 
L 3481 0 
L 2906 0 
L 2906 525 
Q 2725 213 2448 61 
Q 2172 -91 1784 -91 
Q 1150 -91 751 415 
Q 353 922 353 1747 
Q 353 2572 751 3078 
Q 1150 3584 1784 3584 
Q 2172 3584 2448 3432 
Q 2725 3281 2906 2969 
z
M 947 1747 
Q 947 1113 1208 752 
Q 1469 391 1925 391 
Q 2381 391 2643 752 
Q 2906 1113 2906 1747 
Q 2906 2381 2643 2742 
Q 2381 3103 1925 3103 
Q 1469 3103 1208 2742 
Q 947 2381 947 1747 
z
" id="DejaVuSans-64" transform="scale(0.015625)"/>
       <path d="M 1172 4494 
L 1172 3500 
L 2356 3500 
L 2356 3053 
L 1172 3053 
L 1172 1153 
Q 1172 725 1289 603 
Q 1406 481 1766 481 
L 2356 481 
L 2356 0 
L 1766 0 
Q 1100 0 847 248 
Q 594 497 594 1153 
L 594 3053 
L 172 3053 
L 172 3500 
L 594 3500 
L 594 4494 
L 1172 4494 
z
" id="DejaVuSans-74" transform="scale(0.015625)"/>
       <path d="M 1984 4856 
Q 1566 4138 1362 3434 
Q 1159 2731 1159 2009 
Q 1159 1288 1364 580 
Q 1569 -128 1984 -844 
L 1484 -844 
Q 1016 -109 783 600 
Q 550 1309 550 2009 
Q 550 2706 781 3412 
Q 1013 4119 1484 4856 
L 1984 4856 
z
" id="DejaVuSans-28" transform="scale(0.015625)"/>
       <path d="M 2194 1759 
Q 1497 1759 1228 1600 
Q 959 1441 959 1056 
Q 959 750 1161 570 
Q 1363 391 1709 391 
Q 2188 391 2477 730 
Q 2766 1069 2766 1631 
L 2766 1759 
L 2194 1759 
z
M 3341 1997 
L 3341 0 
L 2766 0 
L 2766 531 
Q 2569 213 2275 61 
Q 1981 -91 1556 -91 
Q 1019 -91 701 211 
Q 384 513 384 1019 
Q 384 1609 779 1909 
Q 1175 2209 1959 2209 
L 2766 2209 
L 2766 2266 
Q 2766 2663 2505 2880 
Q 2244 3097 1772 3097 
Q 1472 3097 1187 3025 
Q 903 2953 641 2809 
L 641 3341 
Q 956 3463 1253 3523 
Q 1550 3584 1831 3584 
Q 2591 3584 2966 3190 
Q 3341 2797 3341 1997 
z
" id="DejaVuSans-61" transform="scale(0.015625)"/>
       <path d="M 603 3500 
L 1178 3500 
L 1178 0 
L 603 0 
L 603 3500 
z
M 603 4863 
L 1178 4863 
L 1178 4134 
L 603 4134 
L 603 4863 
z
" id="DejaVuSans-69" transform="scale(0.015625)"/>
       <path d="M 513 4856 
L 1013 4856 
Q 1481 4119 1714 3412 
Q 1947 2706 1947 2009 
Q 1947 1309 1714 600 
Q 1481 -109 1013 -844 
L 513 -844 
Q 928 -128 1133 580 
Q 1338 1288 1338 2009 
Q 1338 2731 1133 3434 
Q 928 4138 513 4856 
z
" id="DejaVuSans-29" transform="scale(0.015625)"/>
      </defs>
      <use xlink:href="#DejaVuSans-64"/>
      <use x="63.476562" xlink:href="#DejaVuSans-65"/>
      <use x="125" xlink:href="#DejaVuSans-70"/>
      <use x="188.476562" xlink:href="#DejaVuSans-74"/>
      <use x="227.685547" xlink:href="#DejaVuSans-68"/>
      <use x="291.064453" xlink:href="#DejaVuSans-31"/>
      <use x="354.6875" xlink:href="#DejaVuSans-28"/>
      <use x="393.701172" xlink:href="#DejaVuSans-74"/>
      <use x="432.910156" xlink:href="#DejaVuSans-72"/>
      <use x="474.023438" xlink:href="#DejaVuSans-61"/>
      <use x="535.302734" xlink:href="#DejaVuSans-69"/>
      <use x="563.085938" xlink:href="#DejaVuSans-6e"/>
      <use x="626.464844" xlink:href="#DejaVuSans-29"/>
     </g>
    </g>
    <g id="line2d_37">
     <path d="M 81 62.336562 
L 101 62.336562 
" style="fill:none;stroke:#348abd;stroke-linecap:square;stroke-width:1.5;"/>
    </g>
    <g id="line2d_38"/>
    <g id="text_18">
     <!-- depth2(train) -->
     <g transform="translate(109 65.836562)scale(0.1 -0.1)">
      <use xlink:href="#DejaVuSans-64"/>
      <use x="63.476562" xlink:href="#DejaVuSans-65"/>
      <use x="125" xlink:href="#DejaVuSans-70"/>
      <use x="188.476562" xlink:href="#DejaVuSans-74"/>
      <use x="227.685547" xlink:href="#DejaVuSans-68"/>
      <use x="291.064453" xlink:href="#DejaVuSans-32"/>
      <use x="354.6875" xlink:href="#DejaVuSans-28"/>
      <use x="393.701172" xlink:href="#DejaVuSans-74"/>
      <use x="432.910156" xlink:href="#DejaVuSans-72"/>
      <use x="474.023438" xlink:href="#DejaVuSans-61"/>
      <use x="535.302734" xlink:href="#DejaVuSans-69"/>
      <use x="563.085938" xlink:href="#DejaVuSans-6e"/>
      <use x="626.464844" xlink:href="#DejaVuSans-29"/>
     </g>
    </g>
    <g id="line2d_39">
     <path d="M 81 77.014687 
L 101 77.014687 
" style="fill:none;stroke:#988ed5;stroke-linecap:square;stroke-width:1.5;"/>
    </g>
    <g id="line2d_40"/>
    <g id="text_19">
     <!-- depth3(train) -->
     <g transform="translate(109 80.514687)scale(0.1 -0.1)">
      <defs>
       <path d="M 2597 2516 
Q 3050 2419 3304 2112 
Q 3559 1806 3559 1356 
Q 3559 666 3084 287 
Q 2609 -91 1734 -91 
Q 1441 -91 1130 -33 
Q 819 25 488 141 
L 488 750 
Q 750 597 1062 519 
Q 1375 441 1716 441 
Q 2309 441 2620 675 
Q 2931 909 2931 1356 
Q 2931 1769 2642 2001 
Q 2353 2234 1838 2234 
L 1294 2234 
L 1294 2753 
L 1863 2753 
Q 2328 2753 2575 2939 
Q 2822 3125 2822 3475 
Q 2822 3834 2567 4026 
Q 2313 4219 1838 4219 
Q 1578 4219 1281 4162 
Q 984 4106 628 3988 
L 628 4550 
Q 988 4650 1302 4700 
Q 1616 4750 1894 4750 
Q 2613 4750 3031 4423 
Q 3450 4097 3450 3541 
Q 3450 3153 3228 2886 
Q 3006 2619 2597 2516 
z
" id="DejaVuSans-33" transform="scale(0.015625)"/>
      </defs>
      <use xlink:href="#DejaVuSans-64"/>
      <use x="63.476562" xlink:href="#DejaVuSans-65"/>
      <use x="125" xlink:href="#DejaVuSans-70"/>
      <use x="188.476562" xlink:href="#DejaVuSans-74"/>
      <use x="227.685547" xlink:href="#DejaVuSans-68"/>
      <use x="291.064453" xlink:href="#DejaVuSans-33"/>
      <use x="354.6875" xlink:href="#DejaVuSans-28"/>
      <use x="393.701172" xlink:href="#DejaVuSans-74"/>
      <use x="432.910156" xlink:href="#DejaVuSans-72"/>
      <use x="474.023438" xlink:href="#DejaVuSans-61"/>
      <use x="535.302734" xlink:href="#DejaVuSans-69"/>
      <use x="563.085938" xlink:href="#DejaVuSans-6e"/>
      <use x="626.464844" xlink:href="#DejaVuSans-29"/>
     </g>
    </g>
    <g id="line2d_41">
     <path d="M 81 91.692813 
L 101 91.692813 
" style="fill:none;stroke:#777777;stroke-dasharray:5.55,2.4;stroke-dashoffset:0;stroke-width:1.5;"/>
    </g>
    <g id="line2d_42"/>
    <g id="text_20">
     <!-- depth1(valid) -->
     <g transform="translate(109 95.192813)scale(0.1 -0.1)">
      <defs>
       <path d="M 191 3500 
L 800 3500 
L 1894 563 
L 2988 3500 
L 3597 3500 
L 2284 0 
L 1503 0 
L 191 3500 
z
" id="DejaVuSans-76" transform="scale(0.015625)"/>
       <path d="M 603 4863 
L 1178 4863 
L 1178 0 
L 603 0 
L 603 4863 
z
" id="DejaVuSans-6c" transform="scale(0.015625)"/>
      </defs>
      <use xlink:href="#DejaVuSans-64"/>
      <use x="63.476562" xlink:href="#DejaVuSans-65"/>
      <use x="125" xlink:href="#DejaVuSans-70"/>
      <use x="188.476562" xlink:href="#DejaVuSans-74"/>
      <use x="227.685547" xlink:href="#DejaVuSans-68"/>
      <use x="291.064453" xlink:href="#DejaVuSans-31"/>
      <use x="354.6875" xlink:href="#DejaVuSans-28"/>
      <use x="393.701172" xlink:href="#DejaVuSans-76"/>
      <use x="452.880859" xlink:href="#DejaVuSans-61"/>
      <use x="514.160156" xlink:href="#DejaVuSans-6c"/>
      <use x="541.943359" xlink:href="#DejaVuSans-69"/>
      <use x="569.726562" xlink:href="#DejaVuSans-64"/>
      <use x="633.203125" xlink:href="#DejaVuSans-29"/>
     </g>
    </g>
    <g id="line2d_43">
     <path d="M 81 106.370937 
L 101 106.370937 
" style="fill:none;stroke:#fbc15e;stroke-dasharray:5.55,2.4;stroke-dashoffset:0;stroke-width:1.5;"/>
    </g>
    <g id="line2d_44"/>
    <g id="text_21">
     <!-- depth2(valid) -->
     <g transform="translate(109 109.870937)scale(0.1 -0.1)">
      <use xlink:href="#DejaVuSans-64"/>
      <use x="63.476562" xlink:href="#DejaVuSans-65"/>
      <use x="125" xlink:href="#DejaVuSans-70"/>
      <use x="188.476562" xlink:href="#DejaVuSans-74"/>
      <use x="227.685547" xlink:href="#DejaVuSans-68"/>
      <use x="291.064453" xlink:href="#DejaVuSans-32"/>
      <use x="354.6875" xlink:href="#DejaVuSans-28"/>
      <use x="393.701172" xlink:href="#DejaVuSans-76"/>
      <use x="452.880859" xlink:href="#DejaVuSans-61"/>
      <use x="514.160156" xlink:href="#DejaVuSans-6c"/>
      <use x="541.943359" xlink:href="#DejaVuSans-69"/>
      <use x="569.726562" xlink:href="#DejaVuSans-64"/>
      <use x="633.203125" xlink:href="#DejaVuSans-29"/>
     </g>
    </g>
    <g id="line2d_45">
     <path d="M 81 121.049062 
L 101 121.049062 
" style="fill:none;stroke:#8eba42;stroke-dasharray:5.55,2.4;stroke-dashoffset:0;stroke-width:1.5;"/>
    </g>
    <g id="line2d_46"/>
    <g id="text_22">
     <!-- depth3(valid) -->
     <g transform="translate(109 124.549062)scale(0.1 -0.1)">
      <use xlink:href="#DejaVuSans-64"/>
      <use x="63.476562" xlink:href="#DejaVuSans-65"/>
      <use x="125" xlink:href="#DejaVuSans-70"/>
      <use x="188.476562" xlink:href="#DejaVuSans-74"/>
      <use x="227.685547" xlink:href="#DejaVuSans-68"/>
      <use x="291.064453" xlink:href="#DejaVuSans-33"/>
      <use x="354.6875" xlink:href="#DejaVuSans-28"/>
      <use x="393.701172" xlink:href="#DejaVuSans-76"/>
      <use x="452.880859" xlink:href="#DejaVuSans-61"/>
      <use x="514.160156" xlink:href="#DejaVuSans-6c"/>
      <use x="541.943359" xlink:href="#DejaVuSans-69"/>
      <use x="569.726562" xlink:href="#DejaVuSans-64"/>
      <use x="633.203125" xlink:href="#DejaVuSans-29"/>
     </g>
    </g>
   </g>
  </g>
 </g>
 <defs>
  <clipPath id="p88f0b520e2">
   <rect height="217.44" width="446.4" x="72" y="34.56"/>
  </clipPath>
 </defs>
</svg>
