<?xml version="1.0" encoding="utf-8" standalone="no"?>
<!DOCTYPE svg PUBLIC "-//W3C//DTD SVG 1.1//EN"
  "http://www.w3.org/Graphics/SVG/1.1/DTD/svg11.dtd">
<svg height="288pt" version="1.1" viewBox="0 0 576 288" width="576pt" xmlns="http://www.w3.org/2000/svg" xmlns:xlink="http://www.w3.org/1999/xlink">
 <metadata>
  <rdf:RDF xmlns:cc="http://creativecommons.org/ns#" xmlns:dc="http://purl.org/dc/elements/1.1/" xmlns:rdf="http://www.w3.org/1999/02/22-rdf-syntax-ns#">
   <cc:Work>
    <dc:type rdf:resource="http://purl.org/dc/dcmitype/StillImage"/>
    <dc:date>2021-11-11T20:13:45.919547</dc:date>
    <dc:format>image/svg+xml</dc:format>
    <dc:creator>
     <cc:Agent>
      <dc:title>Matplotlib v3.4.2, https://matplotlib.org/</dc:title>
     </cc:Agent>
    </dc:creator>
   </cc:Work>
  </rdf:RDF>
 </metadata>
 <defs>
  <style type="text/css">*{stroke-linecap:butt;stroke-linejoin:round;}</style>
 </defs>
 <g id="figure_1">
  <g id="patch_1">
   <path d="M 0 288 
L 576 288 
L 576 0 
L 0 0 
z
" style="fill:#ffffff;"/>
  </g>
  <g id="axes_1">
   <g id="patch_2">
    <path d="M 72 252 
L 518.4 252 
L 518.4 34.56 
L 72 34.56 
z
" style="fill:#e5e5e5;"/>
   </g>
   <g id="matplotlib.axis_1">
    <g id="xtick_1">
     <g id="line2d_1">
      <path clip-path="url(#p4e66c49a28)" d="M 88.191736 252 
L 88.191736 34.56 
" style="fill:none;stroke:#ffffff;stroke-linecap:square;stroke-width:0.8;"/>
     </g>
     <g id="line2d_2">
      <defs>
       <path d="M 0 0 
L 0 3.5 
" id="mdae4b651f3" style="stroke:#555555;stroke-width:0.8;"/>
      </defs>
      <g>
       <use style="fill:#555555;stroke:#555555;stroke-width:0.8;" x="88.191736" xlink:href="#mdae4b651f3" y="252"/>
      </g>
     </g>
     <g id="text_1">
      <!-- 0 -->
      <g style="fill:#555555;" transform="translate(85.010486 266.598437)scale(0.1 -0.1)">
       <defs>
        <path d="M 2034 4250 
Q 1547 4250 1301 3770 
Q 1056 3291 1056 2328 
Q 1056 1369 1301 889 
Q 1547 409 2034 409 
Q 2525 409 2770 889 
Q 3016 1369 3016 2328 
Q 3016 3291 2770 3770 
Q 2525 4250 2034 4250 
z
M 2034 4750 
Q 2819 4750 3233 4129 
Q 3647 3509 3647 2328 
Q 3647 1150 3233 529 
Q 2819 -91 2034 -91 
Q 1250 -91 836 529 
Q 422 1150 422 2328 
Q 422 3509 836 4129 
Q 1250 4750 2034 4750 
z
" id="DejaVuSans-30" transform="scale(0.015625)"/>
       </defs>
       <use xlink:href="#DejaVuSans-30"/>
      </g>
     </g>
    </g>
    <g id="xtick_2">
     <g id="line2d_3">
      <path clip-path="url(#p4e66c49a28)" d="M 170.175207 252 
L 170.175207 34.56 
" style="fill:none;stroke:#ffffff;stroke-linecap:square;stroke-width:0.8;"/>
     </g>
     <g id="line2d_4">
      <g>
       <use style="fill:#555555;stroke:#555555;stroke-width:0.8;" x="170.175207" xlink:href="#mdae4b651f3" y="252"/>
      </g>
     </g>
     <g id="text_2">
      <!-- 20 -->
      <g style="fill:#555555;" transform="translate(163.812707 266.598437)scale(0.1 -0.1)">
       <defs>
        <path d="M 1228 531 
L 3431 531 
L 3431 0 
L 469 0 
L 469 531 
Q 828 903 1448 1529 
Q 2069 2156 2228 2338 
Q 2531 2678 2651 2914 
Q 2772 3150 2772 3378 
Q 2772 3750 2511 3984 
Q 2250 4219 1831 4219 
Q 1534 4219 1204 4116 
Q 875 4013 500 3803 
L 500 4441 
Q 881 4594 1212 4672 
Q 1544 4750 1819 4750 
Q 2544 4750 2975 4387 
Q 3406 4025 3406 3419 
Q 3406 3131 3298 2873 
Q 3191 2616 2906 2266 
Q 2828 2175 2409 1742 
Q 1991 1309 1228 531 
z
" id="DejaVuSans-32" transform="scale(0.015625)"/>
       </defs>
       <use xlink:href="#DejaVuSans-32"/>
       <use x="63.623047" xlink:href="#DejaVuSans-30"/>
      </g>
     </g>
    </g>
    <g id="xtick_3">
     <g id="line2d_5">
      <path clip-path="url(#p4e66c49a28)" d="M 252.158678 252 
L 252.158678 34.56 
" style="fill:none;stroke:#ffffff;stroke-linecap:square;stroke-width:0.8;"/>
     </g>
     <g id="line2d_6">
      <g>
       <use style="fill:#555555;stroke:#555555;stroke-width:0.8;" x="252.158678" xlink:href="#mdae4b651f3" y="252"/>
      </g>
     </g>
     <g id="text_3">
      <!-- 40 -->
      <g style="fill:#555555;" transform="translate(245.796178 266.598437)scale(0.1 -0.1)">
       <defs>
        <path d="M 2419 4116 
L 825 1625 
L 2419 1625 
L 2419 4116 
z
M 2253 4666 
L 3047 4666 
L 3047 1625 
L 3713 1625 
L 3713 1100 
L 3047 1100 
L 3047 0 
L 2419 0 
L 2419 1100 
L 313 1100 
L 313 1709 
L 2253 4666 
z
" id="DejaVuSans-34" transform="scale(0.015625)"/>
       </defs>
       <use xlink:href="#DejaVuSans-34"/>
       <use x="63.623047" xlink:href="#DejaVuSans-30"/>
      </g>
     </g>
    </g>
    <g id="xtick_4">
     <g id="line2d_7">
      <path clip-path="url(#p4e66c49a28)" d="M 334.142149 252 
L 334.142149 34.56 
" style="fill:none;stroke:#ffffff;stroke-linecap:square;stroke-width:0.8;"/>
     </g>
     <g id="line2d_8">
      <g>
       <use style="fill:#555555;stroke:#555555;stroke-width:0.8;" x="334.142149" xlink:href="#mdae4b651f3" y="252"/>
      </g>
     </g>
     <g id="text_4">
      <!-- 60 -->
      <g style="fill:#555555;" transform="translate(327.779649 266.598437)scale(0.1 -0.1)">
       <defs>
        <path d="M 2113 2584 
Q 1688 2584 1439 2293 
Q 1191 2003 1191 1497 
Q 1191 994 1439 701 
Q 1688 409 2113 409 
Q 2538 409 2786 701 
Q 3034 994 3034 1497 
Q 3034 2003 2786 2293 
Q 2538 2584 2113 2584 
z
M 3366 4563 
L 3366 3988 
Q 3128 4100 2886 4159 
Q 2644 4219 2406 4219 
Q 1781 4219 1451 3797 
Q 1122 3375 1075 2522 
Q 1259 2794 1537 2939 
Q 1816 3084 2150 3084 
Q 2853 3084 3261 2657 
Q 3669 2231 3669 1497 
Q 3669 778 3244 343 
Q 2819 -91 2113 -91 
Q 1303 -91 875 529 
Q 447 1150 447 2328 
Q 447 3434 972 4092 
Q 1497 4750 2381 4750 
Q 2619 4750 2861 4703 
Q 3103 4656 3366 4563 
z
" id="DejaVuSans-36" transform="scale(0.015625)"/>
       </defs>
       <use xlink:href="#DejaVuSans-36"/>
       <use x="63.623047" xlink:href="#DejaVuSans-30"/>
      </g>
     </g>
    </g>
    <g id="xtick_5">
     <g id="line2d_9">
      <path clip-path="url(#p4e66c49a28)" d="M 416.12562 252 
L 416.12562 34.56 
" style="fill:none;stroke:#ffffff;stroke-linecap:square;stroke-width:0.8;"/>
     </g>
     <g id="line2d_10">
      <g>
       <use style="fill:#555555;stroke:#555555;stroke-width:0.8;" x="416.12562" xlink:href="#mdae4b651f3" y="252"/>
      </g>
     </g>
     <g id="text_5">
      <!-- 80 -->
      <g style="fill:#555555;" transform="translate(409.76312 266.598437)scale(0.1 -0.1)">
       <defs>
        <path d="M 2034 2216 
Q 1584 2216 1326 1975 
Q 1069 1734 1069 1313 
Q 1069 891 1326 650 
Q 1584 409 2034 409 
Q 2484 409 2743 651 
Q 3003 894 3003 1313 
Q 3003 1734 2745 1975 
Q 2488 2216 2034 2216 
z
M 1403 2484 
Q 997 2584 770 2862 
Q 544 3141 544 3541 
Q 544 4100 942 4425 
Q 1341 4750 2034 4750 
Q 2731 4750 3128 4425 
Q 3525 4100 3525 3541 
Q 3525 3141 3298 2862 
Q 3072 2584 2669 2484 
Q 3125 2378 3379 2068 
Q 3634 1759 3634 1313 
Q 3634 634 3220 271 
Q 2806 -91 2034 -91 
Q 1263 -91 848 271 
Q 434 634 434 1313 
Q 434 1759 690 2068 
Q 947 2378 1403 2484 
z
M 1172 3481 
Q 1172 3119 1398 2916 
Q 1625 2713 2034 2713 
Q 2441 2713 2670 2916 
Q 2900 3119 2900 3481 
Q 2900 3844 2670 4047 
Q 2441 4250 2034 4250 
Q 1625 4250 1398 4047 
Q 1172 3844 1172 3481 
z
" id="DejaVuSans-38" transform="scale(0.015625)"/>
       </defs>
       <use xlink:href="#DejaVuSans-38"/>
       <use x="63.623047" xlink:href="#DejaVuSans-30"/>
      </g>
     </g>
    </g>
    <g id="xtick_6">
     <g id="line2d_11">
      <path clip-path="url(#p4e66c49a28)" d="M 498.109091 252 
L 498.109091 34.56 
" style="fill:none;stroke:#ffffff;stroke-linecap:square;stroke-width:0.8;"/>
     </g>
     <g id="line2d_12">
      <g>
       <use style="fill:#555555;stroke:#555555;stroke-width:0.8;" x="498.109091" xlink:href="#mdae4b651f3" y="252"/>
      </g>
     </g>
     <g id="text_6">
      <!-- 100 -->
      <g style="fill:#555555;" transform="translate(488.565341 266.598437)scale(0.1 -0.1)">
       <defs>
        <path d="M 794 531 
L 1825 531 
L 1825 4091 
L 703 3866 
L 703 4441 
L 1819 4666 
L 2450 4666 
L 2450 531 
L 3481 531 
L 3481 0 
L 794 0 
L 794 531 
z
" id="DejaVuSans-31" transform="scale(0.015625)"/>
       </defs>
       <use xlink:href="#DejaVuSans-31"/>
       <use x="63.623047" xlink:href="#DejaVuSans-30"/>
       <use x="127.246094" xlink:href="#DejaVuSans-30"/>
      </g>
     </g>
    </g>
    <g id="text_7">
     <!-- Epoch number -->
     <g style="fill:#555555;" transform="translate(251.503125 281.79625)scale(0.12 -0.12)">
      <defs>
       <path d="M 628 4666 
L 3578 4666 
L 3578 4134 
L 1259 4134 
L 1259 2753 
L 3481 2753 
L 3481 2222 
L 1259 2222 
L 1259 531 
L 3634 531 
L 3634 0 
L 628 0 
L 628 4666 
z
" id="DejaVuSans-45" transform="scale(0.015625)"/>
       <path d="M 1159 525 
L 1159 -1331 
L 581 -1331 
L 581 3500 
L 1159 3500 
L 1159 2969 
Q 1341 3281 1617 3432 
Q 1894 3584 2278 3584 
Q 2916 3584 3314 3078 
Q 3713 2572 3713 1747 
Q 3713 922 3314 415 
Q 2916 -91 2278 -91 
Q 1894 -91 1617 61 
Q 1341 213 1159 525 
z
M 3116 1747 
Q 3116 2381 2855 2742 
Q 2594 3103 2138 3103 
Q 1681 3103 1420 2742 
Q 1159 2381 1159 1747 
Q 1159 1113 1420 752 
Q 1681 391 2138 391 
Q 2594 391 2855 752 
Q 3116 1113 3116 1747 
z
" id="DejaVuSans-70" transform="scale(0.015625)"/>
       <path d="M 1959 3097 
Q 1497 3097 1228 2736 
Q 959 2375 959 1747 
Q 959 1119 1226 758 
Q 1494 397 1959 397 
Q 2419 397 2687 759 
Q 2956 1122 2956 1747 
Q 2956 2369 2687 2733 
Q 2419 3097 1959 3097 
z
M 1959 3584 
Q 2709 3584 3137 3096 
Q 3566 2609 3566 1747 
Q 3566 888 3137 398 
Q 2709 -91 1959 -91 
Q 1206 -91 779 398 
Q 353 888 353 1747 
Q 353 2609 779 3096 
Q 1206 3584 1959 3584 
z
" id="DejaVuSans-6f" transform="scale(0.015625)"/>
       <path d="M 3122 3366 
L 3122 2828 
Q 2878 2963 2633 3030 
Q 2388 3097 2138 3097 
Q 1578 3097 1268 2742 
Q 959 2388 959 1747 
Q 959 1106 1268 751 
Q 1578 397 2138 397 
Q 2388 397 2633 464 
Q 2878 531 3122 666 
L 3122 134 
Q 2881 22 2623 -34 
Q 2366 -91 2075 -91 
Q 1284 -91 818 406 
Q 353 903 353 1747 
Q 353 2603 823 3093 
Q 1294 3584 2113 3584 
Q 2378 3584 2631 3529 
Q 2884 3475 3122 3366 
z
" id="DejaVuSans-63" transform="scale(0.015625)"/>
       <path d="M 3513 2113 
L 3513 0 
L 2938 0 
L 2938 2094 
Q 2938 2591 2744 2837 
Q 2550 3084 2163 3084 
Q 1697 3084 1428 2787 
Q 1159 2491 1159 1978 
L 1159 0 
L 581 0 
L 581 4863 
L 1159 4863 
L 1159 2956 
Q 1366 3272 1645 3428 
Q 1925 3584 2291 3584 
Q 2894 3584 3203 3211 
Q 3513 2838 3513 2113 
z
" id="DejaVuSans-68" transform="scale(0.015625)"/>
       <path id="DejaVuSans-20" transform="scale(0.015625)"/>
       <path d="M 3513 2113 
L 3513 0 
L 2938 0 
L 2938 2094 
Q 2938 2591 2744 2837 
Q 2550 3084 2163 3084 
Q 1697 3084 1428 2787 
Q 1159 2491 1159 1978 
L 1159 0 
L 581 0 
L 581 3500 
L 1159 3500 
L 1159 2956 
Q 1366 3272 1645 3428 
Q 1925 3584 2291 3584 
Q 2894 3584 3203 3211 
Q 3513 2838 3513 2113 
z
" id="DejaVuSans-6e" transform="scale(0.015625)"/>
       <path d="M 544 1381 
L 544 3500 
L 1119 3500 
L 1119 1403 
Q 1119 906 1312 657 
Q 1506 409 1894 409 
Q 2359 409 2629 706 
Q 2900 1003 2900 1516 
L 2900 3500 
L 3475 3500 
L 3475 0 
L 2900 0 
L 2900 538 
Q 2691 219 2414 64 
Q 2138 -91 1772 -91 
Q 1169 -91 856 284 
Q 544 659 544 1381 
z
M 1991 3584 
L 1991 3584 
z
" id="DejaVuSans-75" transform="scale(0.015625)"/>
       <path d="M 3328 2828 
Q 3544 3216 3844 3400 
Q 4144 3584 4550 3584 
Q 5097 3584 5394 3201 
Q 5691 2819 5691 2113 
L 5691 0 
L 5113 0 
L 5113 2094 
Q 5113 2597 4934 2840 
Q 4756 3084 4391 3084 
Q 3944 3084 3684 2787 
Q 3425 2491 3425 1978 
L 3425 0 
L 2847 0 
L 2847 2094 
Q 2847 2600 2669 2842 
Q 2491 3084 2119 3084 
Q 1678 3084 1418 2786 
Q 1159 2488 1159 1978 
L 1159 0 
L 581 0 
L 581 3500 
L 1159 3500 
L 1159 2956 
Q 1356 3278 1631 3431 
Q 1906 3584 2284 3584 
Q 2666 3584 2933 3390 
Q 3200 3197 3328 2828 
z
" id="DejaVuSans-6d" transform="scale(0.015625)"/>
       <path d="M 3116 1747 
Q 3116 2381 2855 2742 
Q 2594 3103 2138 3103 
Q 1681 3103 1420 2742 
Q 1159 2381 1159 1747 
Q 1159 1113 1420 752 
Q 1681 391 2138 391 
Q 2594 391 2855 752 
Q 3116 1113 3116 1747 
z
M 1159 2969 
Q 1341 3281 1617 3432 
Q 1894 3584 2278 3584 
Q 2916 3584 3314 3078 
Q 3713 2572 3713 1747 
Q 3713 922 3314 415 
Q 2916 -91 2278 -91 
Q 1894 -91 1617 61 
Q 1341 213 1159 525 
L 1159 0 
L 581 0 
L 581 4863 
L 1159 4863 
L 1159 2969 
z
" id="DejaVuSans-62" transform="scale(0.015625)"/>
       <path d="M 3597 1894 
L 3597 1613 
L 953 1613 
Q 991 1019 1311 708 
Q 1631 397 2203 397 
Q 2534 397 2845 478 
Q 3156 559 3463 722 
L 3463 178 
Q 3153 47 2828 -22 
Q 2503 -91 2169 -91 
Q 1331 -91 842 396 
Q 353 884 353 1716 
Q 353 2575 817 3079 
Q 1281 3584 2069 3584 
Q 2775 3584 3186 3129 
Q 3597 2675 3597 1894 
z
M 3022 2063 
Q 3016 2534 2758 2815 
Q 2500 3097 2075 3097 
Q 1594 3097 1305 2825 
Q 1016 2553 972 2059 
L 3022 2063 
z
" id="DejaVuSans-65" transform="scale(0.015625)"/>
       <path d="M 2631 2963 
Q 2534 3019 2420 3045 
Q 2306 3072 2169 3072 
Q 1681 3072 1420 2755 
Q 1159 2438 1159 1844 
L 1159 0 
L 581 0 
L 581 3500 
L 1159 3500 
L 1159 2956 
Q 1341 3275 1631 3429 
Q 1922 3584 2338 3584 
Q 2397 3584 2469 3576 
Q 2541 3569 2628 3553 
L 2631 2963 
z
" id="DejaVuSans-72" transform="scale(0.015625)"/>
      </defs>
      <use xlink:href="#DejaVuSans-45"/>
      <use x="63.183594" xlink:href="#DejaVuSans-70"/>
      <use x="126.660156" xlink:href="#DejaVuSans-6f"/>
      <use x="187.841797" xlink:href="#DejaVuSans-63"/>
      <use x="242.822266" xlink:href="#DejaVuSans-68"/>
      <use x="306.201172" xlink:href="#DejaVuSans-20"/>
      <use x="337.988281" xlink:href="#DejaVuSans-6e"/>
      <use x="401.367188" xlink:href="#DejaVuSans-75"/>
      <use x="464.746094" xlink:href="#DejaVuSans-6d"/>
      <use x="562.158203" xlink:href="#DejaVuSans-62"/>
      <use x="625.634766" xlink:href="#DejaVuSans-65"/>
      <use x="687.158203" xlink:href="#DejaVuSans-72"/>
     </g>
    </g>
   </g>
   <g id="matplotlib.axis_2">
    <g id="ytick_1">
     <g id="line2d_13">
      <path clip-path="url(#p4e66c49a28)" d="M 72 245.384369 
L 518.4 245.384369 
" style="fill:none;stroke:#ffffff;stroke-linecap:square;stroke-width:0.8;"/>
     </g>
     <g id="line2d_14">
      <defs>
       <path d="M 0 0 
L -3.5 0 
" id="m7246bab30e" style="stroke:#555555;stroke-width:0.8;"/>
      </defs>
      <g>
       <use style="fill:#555555;stroke:#555555;stroke-width:0.8;" x="72" xlink:href="#m7246bab30e" y="245.384369"/>
      </g>
     </g>
     <g id="text_8">
      <!-- 0.65 -->
      <g style="fill:#555555;" transform="translate(42.734375 249.183587)scale(0.1 -0.1)">
       <defs>
        <path d="M 684 794 
L 1344 794 
L 1344 0 
L 684 0 
L 684 794 
z
" id="DejaVuSans-2e" transform="scale(0.015625)"/>
        <path d="M 691 4666 
L 3169 4666 
L 3169 4134 
L 1269 4134 
L 1269 2991 
Q 1406 3038 1543 3061 
Q 1681 3084 1819 3084 
Q 2600 3084 3056 2656 
Q 3513 2228 3513 1497 
Q 3513 744 3044 326 
Q 2575 -91 1722 -91 
Q 1428 -91 1123 -41 
Q 819 9 494 109 
L 494 744 
Q 775 591 1075 516 
Q 1375 441 1709 441 
Q 2250 441 2565 725 
Q 2881 1009 2881 1497 
Q 2881 1984 2565 2268 
Q 2250 2553 1709 2553 
Q 1456 2553 1204 2497 
Q 953 2441 691 2322 
L 691 4666 
z
" id="DejaVuSans-35" transform="scale(0.015625)"/>
       </defs>
       <use xlink:href="#DejaVuSans-30"/>
       <use x="63.623047" xlink:href="#DejaVuSans-2e"/>
       <use x="95.410156" xlink:href="#DejaVuSans-36"/>
       <use x="159.033203" xlink:href="#DejaVuSans-35"/>
      </g>
     </g>
    </g>
    <g id="ytick_2">
     <g id="line2d_15">
      <path clip-path="url(#p4e66c49a28)" d="M 72 210.961384 
L 518.4 210.961384 
" style="fill:none;stroke:#ffffff;stroke-linecap:square;stroke-width:0.8;"/>
     </g>
     <g id="line2d_16">
      <g>
       <use style="fill:#555555;stroke:#555555;stroke-width:0.8;" x="72" xlink:href="#m7246bab30e" y="210.961384"/>
      </g>
     </g>
     <g id="text_9">
      <!-- 0.70 -->
      <g style="fill:#555555;" transform="translate(42.734375 214.760602)scale(0.1 -0.1)">
       <defs>
        <path d="M 525 4666 
L 3525 4666 
L 3525 4397 
L 1831 0 
L 1172 0 
L 2766 4134 
L 525 4134 
L 525 4666 
z
" id="DejaVuSans-37" transform="scale(0.015625)"/>
       </defs>
       <use xlink:href="#DejaVuSans-30"/>
       <use x="63.623047" xlink:href="#DejaVuSans-2e"/>
       <use x="95.410156" xlink:href="#DejaVuSans-37"/>
       <use x="159.033203" xlink:href="#DejaVuSans-30"/>
      </g>
     </g>
    </g>
    <g id="ytick_3">
     <g id="line2d_17">
      <path clip-path="url(#p4e66c49a28)" d="M 72 176.538399 
L 518.4 176.538399 
" style="fill:none;stroke:#ffffff;stroke-linecap:square;stroke-width:0.8;"/>
     </g>
     <g id="line2d_18">
      <g>
       <use style="fill:#555555;stroke:#555555;stroke-width:0.8;" x="72" xlink:href="#m7246bab30e" y="176.538399"/>
      </g>
     </g>
     <g id="text_10">
      <!-- 0.75 -->
      <g style="fill:#555555;" transform="translate(42.734375 180.337617)scale(0.1 -0.1)">
       <use xlink:href="#DejaVuSans-30"/>
       <use x="63.623047" xlink:href="#DejaVuSans-2e"/>
       <use x="95.410156" xlink:href="#DejaVuSans-37"/>
       <use x="159.033203" xlink:href="#DejaVuSans-35"/>
      </g>
     </g>
    </g>
    <g id="ytick_4">
     <g id="line2d_19">
      <path clip-path="url(#p4e66c49a28)" d="M 72 142.115414 
L 518.4 142.115414 
" style="fill:none;stroke:#ffffff;stroke-linecap:square;stroke-width:0.8;"/>
     </g>
     <g id="line2d_20">
      <g>
       <use style="fill:#555555;stroke:#555555;stroke-width:0.8;" x="72" xlink:href="#m7246bab30e" y="142.115414"/>
      </g>
     </g>
     <g id="text_11">
      <!-- 0.80 -->
      <g style="fill:#555555;" transform="translate(42.734375 145.914633)scale(0.1 -0.1)">
       <use xlink:href="#DejaVuSans-30"/>
       <use x="63.623047" xlink:href="#DejaVuSans-2e"/>
       <use x="95.410156" xlink:href="#DejaVuSans-38"/>
       <use x="159.033203" xlink:href="#DejaVuSans-30"/>
      </g>
     </g>
    </g>
    <g id="ytick_5">
     <g id="line2d_21">
      <path clip-path="url(#p4e66c49a28)" d="M 72 107.692429 
L 518.4 107.692429 
" style="fill:none;stroke:#ffffff;stroke-linecap:square;stroke-width:0.8;"/>
     </g>
     <g id="line2d_22">
      <g>
       <use style="fill:#555555;stroke:#555555;stroke-width:0.8;" x="72" xlink:href="#m7246bab30e" y="107.692429"/>
      </g>
     </g>
     <g id="text_12">
      <!-- 0.85 -->
      <g style="fill:#555555;" transform="translate(42.734375 111.491648)scale(0.1 -0.1)">
       <use xlink:href="#DejaVuSans-30"/>
       <use x="63.623047" xlink:href="#DejaVuSans-2e"/>
       <use x="95.410156" xlink:href="#DejaVuSans-38"/>
       <use x="159.033203" xlink:href="#DejaVuSans-35"/>
      </g>
     </g>
    </g>
    <g id="ytick_6">
     <g id="line2d_23">
      <path clip-path="url(#p4e66c49a28)" d="M 72 73.269444 
L 518.4 73.269444 
" style="fill:none;stroke:#ffffff;stroke-linecap:square;stroke-width:0.8;"/>
     </g>
     <g id="line2d_24">
      <g>
       <use style="fill:#555555;stroke:#555555;stroke-width:0.8;" x="72" xlink:href="#m7246bab30e" y="73.269444"/>
      </g>
     </g>
     <g id="text_13">
      <!-- 0.90 -->
      <g style="fill:#555555;" transform="translate(42.734375 77.068663)scale(0.1 -0.1)">
       <defs>
        <path d="M 703 97 
L 703 672 
Q 941 559 1184 500 
Q 1428 441 1663 441 
Q 2288 441 2617 861 
Q 2947 1281 2994 2138 
Q 2813 1869 2534 1725 
Q 2256 1581 1919 1581 
Q 1219 1581 811 2004 
Q 403 2428 403 3163 
Q 403 3881 828 4315 
Q 1253 4750 1959 4750 
Q 2769 4750 3195 4129 
Q 3622 3509 3622 2328 
Q 3622 1225 3098 567 
Q 2575 -91 1691 -91 
Q 1453 -91 1209 -44 
Q 966 3 703 97 
z
M 1959 2075 
Q 2384 2075 2632 2365 
Q 2881 2656 2881 3163 
Q 2881 3666 2632 3958 
Q 2384 4250 1959 4250 
Q 1534 4250 1286 3958 
Q 1038 3666 1038 3163 
Q 1038 2656 1286 2365 
Q 1534 2075 1959 2075 
z
" id="DejaVuSans-39" transform="scale(0.015625)"/>
       </defs>
       <use xlink:href="#DejaVuSans-30"/>
       <use x="63.623047" xlink:href="#DejaVuSans-2e"/>
       <use x="95.410156" xlink:href="#DejaVuSans-39"/>
       <use x="159.033203" xlink:href="#DejaVuSans-30"/>
      </g>
     </g>
    </g>
    <g id="ytick_7">
     <g id="line2d_25">
      <path clip-path="url(#p4e66c49a28)" d="M 72 38.846459 
L 518.4 38.846459 
" style="fill:none;stroke:#ffffff;stroke-linecap:square;stroke-width:0.8;"/>
     </g>
     <g id="line2d_26">
      <g>
       <use style="fill:#555555;stroke:#555555;stroke-width:0.8;" x="72" xlink:href="#m7246bab30e" y="38.846459"/>
      </g>
     </g>
     <g id="text_14">
      <!-- 0.95 -->
      <g style="fill:#555555;" transform="translate(42.734375 42.645678)scale(0.1 -0.1)">
       <use xlink:href="#DejaVuSans-30"/>
       <use x="63.623047" xlink:href="#DejaVuSans-2e"/>
       <use x="95.410156" xlink:href="#DejaVuSans-39"/>
       <use x="159.033203" xlink:href="#DejaVuSans-35"/>
      </g>
     </g>
    </g>
    <g id="text_15">
     <!-- Accuracy -->
     <g style="fill:#555555;" transform="translate(36.23875 170.67375)rotate(-90)scale(0.12 -0.12)">
      <defs>
       <path d="M 2188 4044 
L 1331 1722 
L 3047 1722 
L 2188 4044 
z
M 1831 4666 
L 2547 4666 
L 4325 0 
L 3669 0 
L 3244 1197 
L 1141 1197 
L 716 0 
L 50 0 
L 1831 4666 
z
" id="DejaVuSans-41" transform="scale(0.015625)"/>
       <path d="M 2194 1759 
Q 1497 1759 1228 1600 
Q 959 1441 959 1056 
Q 959 750 1161 570 
Q 1363 391 1709 391 
Q 2188 391 2477 730 
Q 2766 1069 2766 1631 
L 2766 1759 
L 2194 1759 
z
M 3341 1997 
L 3341 0 
L 2766 0 
L 2766 531 
Q 2569 213 2275 61 
Q 1981 -91 1556 -91 
Q 1019 -91 701 211 
Q 384 513 384 1019 
Q 384 1609 779 1909 
Q 1175 2209 1959 2209 
L 2766 2209 
L 2766 2266 
Q 2766 2663 2505 2880 
Q 2244 3097 1772 3097 
Q 1472 3097 1187 3025 
Q 903 2953 641 2809 
L 641 3341 
Q 956 3463 1253 3523 
Q 1550 3584 1831 3584 
Q 2591 3584 2966 3190 
Q 3341 2797 3341 1997 
z
" id="DejaVuSans-61" transform="scale(0.015625)"/>
       <path d="M 2059 -325 
Q 1816 -950 1584 -1140 
Q 1353 -1331 966 -1331 
L 506 -1331 
L 506 -850 
L 844 -850 
Q 1081 -850 1212 -737 
Q 1344 -625 1503 -206 
L 1606 56 
L 191 3500 
L 800 3500 
L 1894 763 
L 2988 3500 
L 3597 3500 
L 2059 -325 
z
" id="DejaVuSans-79" transform="scale(0.015625)"/>
      </defs>
      <use xlink:href="#DejaVuSans-41"/>
      <use x="66.658203" xlink:href="#DejaVuSans-63"/>
      <use x="121.638672" xlink:href="#DejaVuSans-63"/>
      <use x="176.619141" xlink:href="#DejaVuSans-75"/>
      <use x="239.998047" xlink:href="#DejaVuSans-72"/>
      <use x="281.111328" xlink:href="#DejaVuSans-61"/>
      <use x="342.390625" xlink:href="#DejaVuSans-63"/>
      <use x="397.371094" xlink:href="#DejaVuSans-79"/>
     </g>
    </g>
   </g>
   <g id="line2d_27">
    <path clip-path="url(#p4e66c49a28)" d="M 92.290909 240.985111 
L 96.390083 222.307199 
L 100.489256 206.761779 
L 104.58843 196.200808 
L 108.687603 188.806751 
L 112.786777 184.338647 
L 116.88595 176.965244 
L 120.985124 174.782826 
L 125.084298 172.15291 
L 129.183471 168.841419 
L 133.282645 166.459349 
L 137.381818 161.640131 
L 141.480992 162.521359 
L 145.580165 159.554098 
L 149.679339 159.554098 
L 153.778512 154.962072 
L 157.877686 153.37173 
L 161.97686 154.693572 
L 166.076033 152.60754 
L 170.175207 151.822696 
L 174.27438 149.000011 
L 178.373554 147.808975 
L 182.472727 147.533592 
L 186.571901 146.149788 
L 190.671074 145.406251 
L 194.770248 144.380446 
L 198.869421 146.163557 
L 202.968595 144.924329 
L 207.067769 143.643794 
L 211.166942 142.597336 
L 215.266116 142.824527 
L 219.365289 140.401149 
L 223.464463 139.78842 
L 227.563636 141.454492 
L 231.66281 142.335721 
L 235.761983 140.311649 
L 239.861157 139.815958 
L 243.960331 139.802189 
L 248.059504 139.051768 
L 252.158678 139.423536 
L 256.257851 137.936463 
L 260.357025 139.568113 
L 264.456198 140.938148 
L 268.555372 137.406349 
L 272.654545 137.124081 
L 276.753719 138.218732 
L 280.852893 137.358157 
L 284.952066 134.907241 
L 289.05124 136.091391 
L 293.150413 136.46316 
L 297.249587 134.74201 
L 301.34876 135.299663 
L 305.447934 134.370242 
L 309.547107 134.246319 
L 313.646281 132.490747 
L 317.745455 133.654244 
L 321.844628 132.635324 
L 325.943802 133.785051 
L 330.042975 133.110361 
L 334.142149 132.394363 
L 338.241322 134.452857 
L 342.340496 131.795403 
L 346.439669 133.440822 
L 350.538843 131.85048 
L 354.638017 132.952015 
L 358.73719 132.050133 
L 362.836364 130.026061 
L 366.935537 130.56306 
L 371.034711 131.086289 
L 375.133884 132.745477 
L 379.233058 132.573362 
L 383.332231 130.246369 
L 387.431405 130.404714 
L 391.530579 131.086289 
L 395.629752 133.03463 
L 399.728926 129.206794 
L 403.828099 129.626755 
L 407.927273 129.626755 
L 412.026446 129.213679 
L 416.12562 129.606101 
L 420.224793 128.841911 
L 424.323967 131.41675 
L 428.42314 129.069102 
L 432.522314 127.83676 
L 436.621488 129.826408 
L 440.720661 128.828142 
L 444.819835 127.926259 
L 448.919008 128.236066 
L 453.018182 128.284258 
L 457.117355 130.831559 
L 461.216529 127.974452 
L 465.315702 128.00199 
L 469.414876 127.602683 
L 473.51405 129.791985 
L 477.613223 127.485645 
L 481.712397 128.470143 
L 485.81157 127.740375 
L 489.910744 128.669796 
L 494.009917 128.125913 
L 498.109091 128.311797 
" style="fill:none;stroke:#e24a33;stroke-linecap:square;stroke-width:1.5;"/>
   </g>
   <g id="line2d_28">
    <path clip-path="url(#p4e66c49a28)" d="M 92.290909 209.797887 
L 96.390083 183.677726 
L 100.489256 164.4697 
L 104.58843 155.774454 
L 108.687603 147.802091 
L 112.786777 138.618039 
L 116.88595 136.380544 
L 120.985124 135.024279 
L 125.084298 132.463209 
L 129.183471 125.681881 
L 133.282645 122.900504 
L 137.381818 123.767963 
L 141.480992 120.862663 
L 145.580165 119.664743 
L 149.679339 117.916055 
L 153.778512 116.360136 
L 157.877686 115.458254 
L 161.97686 111.905802 
L 166.076033 114.563257 
L 170.175207 113.427298 
L 174.27438 111.830072 
L 178.373554 107.947159 
L 182.472727 109.372271 
L 186.571901 109.200156 
L 190.671074 107.189853 
L 194.770248 106.948892 
L 198.869421 105.902434 
L 202.968595 104.608129 
L 207.067769 103.086633 
L 211.166942 105.95751 
L 215.266116 103.169249 
L 219.365289 108.146812 
L 223.464463 101.2691 
L 227.563636 101.702829 
L 231.66281 102.914519 
L 235.761983 101.110754 
L 239.861157 100.41541 
L 243.960331 100.029872 
L 248.059504 99.114221 
L 252.158678 100.773409 
L 256.257851 98.095301 
L 260.357025 100.112488 
L 264.456198 98.997183 
L 268.555372 98.859491 
L 272.654545 98.501492 
L 276.753719 97.516995 
L 280.852893 97.200303 
L 284.952066 95.788961 
L 289.05124 95.307039 
L 293.150413 94.09535 
L 297.249587 93.833735 
L 301.34876 95.582423 
L 305.447934 93.930119 
L 309.547107 93.33116 
L 313.646281 94.453349 
L 317.745455 93.33116 
L 321.844628 92.739084 
L 325.943802 93.606543 
L 330.042975 94.446464 
L 334.142149 91.548049 
L 338.241322 91.02482 
L 342.340496 92.394854 
L 346.439669 92.704661 
L 350.538843 90.377667 
L 354.638017 91.465434 
L 358.73719 93.420659 
L 362.836364 92.869892 
L 366.935537 89.978361 
L 371.034711 89.57217 
L 375.133884 90.405206 
L 379.233058 92.222739 
L 383.332231 90.308821 
L 387.431405 89.8269 
L 391.530579 89.028286 
L 395.629752 89.386285 
L 399.728926 89.696092 
L 403.828099 90.983512 
L 407.927273 89.503324 
L 412.026446 87.403522 
L 416.12562 86.453447 
L 420.224793 88.456865 
L 424.323967 91.079896 
L 428.42314 86.501639 
L 432.522314 87.672021 
L 436.621488 86.914715 
L 440.720661 88.594557 
L 444.819835 85.069643 
L 448.919008 84.326107 
L 453.018182 86.081679 
L 457.117355 86.969792 
L 461.216529 85.689257 
L 465.315702 87.727098 
L 469.414876 87.871674 
L 473.51405 86.515409 
L 477.613223 86.363947 
L 481.712397 84.539529 
L 485.81157 85.221104 
L 489.910744 87.114368 
L 494.009917 87.403522 
L 498.109091 85.985295 
" style="fill:none;stroke:#348abd;stroke-linecap:square;stroke-width:1.5;"/>
   </g>
   <g id="line2d_29">
    <path clip-path="url(#p4e66c49a28)" d="M 92.290909 185.612298 
L 96.390083 148.958703 
L 100.489256 134.335819 
L 104.58843 125.427151 
L 108.687603 115.864445 
L 112.786777 111.465188 
L 116.88595 109.826654 
L 120.985124 105.923087 
L 125.084298 98.79753 
L 129.183471 98.611645 
L 133.282645 92.7322 
L 137.381818 92.918084 
L 141.480992 93.689159 
L 145.580165 91.506741 
L 149.679339 89.455131 
L 153.778512 87.50679 
L 157.877686 88.925017 
L 161.97686 83.520609 
L 166.076033 81.338192 
L 170.175207 81.723729 
L 174.27438 79.665235 
L 178.373554 78.728929 
L 182.472727 78.260777 
L 186.571901 78.04047 
L 190.671074 77.551663 
L 194.770248 76.890742 
L 198.869421 74.488018 
L 202.968595 73.255675 
L 207.067769 73.806443 
L 211.166942 73.586135 
L 215.266116 72.642946 
L 219.365289 71.651564 
L 223.464463 70.164491 
L 227.563636 69.15934 
L 231.66281 70.164491 
L 235.761983 71.314218 
L 239.861157 69.345224 
L 243.960331 69.290147 
L 248.059504 69.062955 
L 252.158678 66.171424 
L 256.257851 63.610354 
L 260.357025 67.334921 
L 264.456198 64.939082 
L 268.555372 65.737695 
L 272.654545 64.897774 
L 276.753719 62.722241 
L 280.852893 65.896041 
L 284.952066 62.853049 
L 289.05124 60.202479 
L 293.150413 59.651711 
L 297.249587 60.154287 
L 301.34876 60.526055 
L 305.447934 61.600052 
L 309.547107 63.899507 
L 313.646281 59.190443 
L 317.745455 57.393563 
L 321.844628 59.279943 
L 325.943802 57.545024 
L 330.042975 56.457258 
L 334.142149 59.534673 
L 338.241322 56.16122 
L 342.340496 56.753296 
L 346.439669 56.484796 
L 350.538843 60.18871 
L 354.638017 53.847996 
L 358.73719 60.26444 
L 362.836364 53.861765 
L 366.935537 55.982221 
L 371.034711 53.097575 
L 375.133884 55.803221 
L 379.233058 54.419417 
L 383.332231 50.798119 
L 387.431405 54.915108 
L 391.530579 51.989155 
L 395.629752 51.059734 
L 399.728926 52.505499 
L 403.828099 51.851463 
L 407.927273 53.228382 
L 412.026446 51.576079 
L 416.12562 49.937545 
L 420.224793 50.199159 
L 424.323967 50.508966 
L 428.42314 53.641458 
L 432.522314 49.758545 
L 436.621488 49.187124 
L 440.720661 48.65701 
L 444.819835 51.927193 
L 448.919008 48.622587 
L 453.018182 50.343736 
L 457.117355 51.025311 
L 461.216529 48.367857 
L 465.315702 50.047698 
L 469.414876 46.818822 
L 473.51405 48.870432 
L 477.613223 49.4212 
L 481.712397 52.725807 
L 485.81157 45.077019 
L 489.910744 44.443636 
L 494.009917 48.443587 
L 498.109091 46.35067 
" style="fill:none;stroke:#988ed5;stroke-linecap:square;stroke-width:1.5;"/>
   </g>
   <g id="line2d_30">
    <path clip-path="url(#p4e66c49a28)" d="M 92.290909 242.116364 
L 96.390083 226.909248 
L 100.489256 208.60842 
L 104.58843 199.980887 
L 108.687603 192.355542 
L 112.786777 188.47751 
L 116.88595 182.551528 
L 120.985124 182.246514 
L 125.084298 177.932747 
L 129.183471 175.14405 
L 133.282645 176.364105 
L 137.381818 171.571031 
L 141.480992 171.222444 
L 145.580165 170.830283 
L 149.679339 169.697375 
L 153.778512 164.947875 
L 157.877686 165.557902 
L 161.97686 167.344412 
L 166.076033 163.945686 
L 170.175207 164.294274 
L 174.27438 160.372668 
L 178.373554 158.978319 
L 182.472727 159.63192 
L 186.571901 157.888984 
L 190.671074 159.5012 
L 194.770248 158.586158 
L 198.869421 160.764828 
L 202.968595 159.544773 
L 207.067769 158.499012 
L 211.166942 155.318154 
L 215.266116 157.671117 
L 219.365289 154.185245 
L 223.464463 153.09591 
L 227.563636 155.841034 
L 231.66281 156.233195 
L 235.761983 154.577406 
L 239.861157 155.666741 
L 243.960331 154.054525 
L 248.059504 155.666741 
L 252.158678 155.100287 
L 256.257851 152.660176 
L 260.357025 153.749511 
L 264.456198 157.017516 
L 268.555372 153.139484 
L 272.654545 152.006575 
L 276.753719 153.22663 
L 280.852893 153.749511 
L 284.952066 151.091534 
L 289.05124 153.270204 
L 293.150413 153.575218 
L 297.249587 151.265827 
L 301.34876 152.006575 
L 305.447934 153.836658 
L 309.547107 152.311589 
L 313.646281 150.39436 
L 317.745455 153.400924 
L 321.844628 152.050149 
L 325.943802 153.880231 
L 330.042975 152.790896 
L 334.142149 150.437933 
L 338.241322 153.836658 
L 342.340496 151.875855 
L 346.439669 152.616603 
L 350.538843 153.008763 
L 354.638017 152.573029 
L 358.73719 151.178681 
L 362.836364 150.089346 
L 366.935537 150.437933 
L 371.034711 151.788708 
L 375.133884 153.575218 
L 379.233058 153.357351 
L 383.332231 152.529456 
L 387.431405 151.265827 
L 391.530579 149.566465 
L 395.629752 154.577406 
L 399.728926 151.570841 
L 403.828099 152.616603 
L 407.927273 151.701561 
L 412.026446 150.78652 
L 416.12562 151.222254 
L 420.224793 152.180869 
L 424.323967 153.531644 
L 428.42314 152.573029 
L 432.522314 151.527268 
L 436.621488 151.875855 
L 440.720661 152.311589 
L 444.819835 152.355162 
L 448.919008 151.527268 
L 453.018182 154.098098 
L 457.117355 155.448874 
L 461.216529 153.618791 
L 465.315702 154.359539 
L 469.414876 152.70375 
L 473.51405 155.448874 
L 477.613223 153.270204 
L 481.712397 153.967378 
L 485.81157 152.660176 
L 489.910744 155.01314 
L 494.009917 153.749511 
L 498.109091 152.180869 
" style="fill:none;stroke:#777777;stroke-dasharray:5.55,2.4;stroke-dashoffset:0;stroke-width:1.5;"/>
   </g>
   <g id="line2d_31">
    <path clip-path="url(#p4e66c49a28)" d="M 92.290909 211.745705 
L 96.390083 192.137675 
L 100.489256 168.172306 
L 104.58843 162.682058 
L 108.687603 157.845411 
L 112.786777 149.522892 
L 116.88595 149.740759 
L 120.985124 146.516327 
L 125.084298 146.03702 
L 129.183471 141.54896 
L 133.282645 140.285331 
L 137.381818 139.239569 
L 141.480992 138.455248 
L 145.580165 136.058711 
L 149.679339 138.847409 
L 153.778512 137.58378 
L 157.877686 135.317964 
L 161.97686 133.357161 
L 166.076033 135.884418 
L 170.175207 135.579404 
L 174.27438 136.930179 
L 178.373554 131.832092 
L 182.472727 132.790706 
L 186.571901 133.313587 
L 190.671074 132.137105 
L 194.770248 133.139294 
L 198.869421 133.313587 
L 202.968595 131.352784 
L 207.067769 130.78633 
L 211.166942 136.843033 
L 215.266116 133.270014 
L 219.365289 136.276578 
L 223.464463 130.960624 
L 227.563636 130.481316 
L 231.66281 132.354972 
L 235.761983 131.657798 
L 239.861157 132.747133 
L 243.960331 131.570651 
L 248.059504 131.657798 
L 252.158678 132.311399 
L 256.257851 131.570651 
L 260.357025 132.616413 
L 264.456198 134.315775 
L 268.555372 133.008573 
L 272.654545 134.533642 
L 276.753719 131.832092 
L 280.852893 132.83428 
L 284.952066 132.572839 
L 289.05124 133.531454 
L 293.150413 131.309211 
L 297.249587 131.875665 
L 301.34876 133.139294 
L 305.447934 132.485693 
L 309.547107 130.089156 
L 313.646281 130.52489 
L 317.745455 131.832092 
L 321.844628 131.396358 
L 325.943802 133.662174 
L 330.042975 132.180679 
L 334.142149 133.182867 
L 338.241322 133.400734 
L 342.340496 133.967188 
L 346.439669 132.572839 
L 350.538843 131.832092 
L 354.638017 133.487881 
L 358.73719 133.052147 
L 362.836364 134.620789 
L 366.935537 132.921427 
L 371.034711 133.662174 
L 375.133884 134.402922 
L 379.233058 136.058711 
L 383.332231 133.618601 
L 387.431405 135.187243 
L 391.530579 132.267826 
L 395.629752 133.531454 
L 399.728926 136.015138 
L 403.828099 136.538019 
L 407.927273 137.365913 
L 412.026446 134.795083 
L 416.12562 133.400734 
L 420.224793 134.795083 
L 424.323967 138.542395 
L 428.42314 133.139294 
L 432.522314 136.363725 
L 436.621488 135.230817 
L 440.720661 136.058711 
L 444.819835 134.359349 
L 448.919008 134.315775 
L 453.018182 134.751509 
L 457.117355 136.538019 
L 461.216529 135.971565 
L 465.315702 137.017326 
L 469.414876 137.714501 
L 473.51405 137.496634 
L 477.613223 138.280955 
L 481.712397 134.795083 
L 485.81157 135.579404 
L 489.910744 137.19162 
L 494.009917 139.544583 
L 498.109091 137.670927 
" style="fill:none;stroke:#fbc15e;stroke-dasharray:5.55,2.4;stroke-dashoffset:0;stroke-width:1.5;"/>
   </g>
   <g id="line2d_32">
    <path clip-path="url(#p4e66c49a28)" d="M 92.290909 189.915432 
L 96.390083 158.586158 
L 100.489256 144.991258 
L 104.58843 136.930179 
L 108.687603 130.960624 
L 112.786777 128.956247 
L 116.88595 127.954059 
L 120.985124 128.956247 
L 125.084298 121.592343 
L 129.183471 125.034642 
L 133.282645 121.069462 
L 137.381818 124.163174 
L 141.480992 125.644669 
L 145.580165 124.424614 
L 149.679339 122.028077 
L 153.778512 123.030265 
L 157.877686 124.991068 
L 161.97686 121.592343 
L 166.076033 119.718687 
L 170.175207 121.54877 
L 174.27438 122.420238 
L 178.373554 120.938742 
L 182.472727 122.943118 
L 186.571901 121.766637 
L 190.671074 125.034642 
L 194.770248 124.25032 
L 198.869421 123.945307 
L 202.968595 124.206747 
L 207.067769 125.252509 
L 211.166942 125.470375 
L 215.266116 125.426802 
L 219.365289 127.431178 
L 223.464463 125.993256 
L 227.563636 127.561899 
L 231.66281 127.082591 
L 235.761983 130.307023 
L 239.861157 126.821151 
L 243.960331 129.566275 
L 248.059504 128.781954 
L 252.158678 127.474752 
L 256.257851 126.385417 
L 260.357025 129.871289 
L 264.456198 130.612037 
L 268.555372 130.002009 
L 272.654545 130.612037 
L 276.753719 130.002009 
L 280.852893 131.527078 
L 284.952066 133.575028 
L 289.05124 132.137105 
L 293.150413 132.049959 
L 297.249587 132.747133 
L 301.34876 130.699183 
L 305.447934 132.442119 
L 309.547107 135.317964 
L 313.646281 131.962812 
L 317.745455 133.008573 
L 321.844628 133.052147 
L 325.943802 135.100097 
L 330.042975 133.967188 
L 334.142149 133.923615 
L 338.241322 130.829904 
L 342.340496 135.797271 
L 346.439669 133.967188 
L 350.538843 136.102285 
L 354.638017 133.967188 
L 358.73719 136.973753 
L 362.836364 134.359349 
L 366.935537 134.446496 
L 371.034711 135.622977 
L 375.133884 138.411675 
L 379.233058 137.148046 
L 383.332231 132.70356 
L 387.431405 137.017326 
L 391.530579 136.581592 
L 395.629752 135.622977 
L 399.728926 135.622977 
L 403.828099 134.446496 
L 407.927273 138.019514 
L 412.026446 134.054335 
L 416.12562 136.886606 
L 420.224793 136.581592 
L 424.323967 136.843033 
L 428.42314 140.328904 
L 432.522314 137.58378 
L 436.621488 135.056523 
L 440.720661 139.021702 
L 444.819835 139.806024 
L 448.919008 136.407299 
L 453.018182 141.374666 
L 457.117355 138.585968 
L 461.216529 141.8104 
L 465.315702 139.76245 
L 469.414876 137.45306 
L 473.51405 140.372478 
L 477.613223 140.111037 
L 481.712397 144.686244 
L 485.81157 140.241758 
L 489.910744 137.365913 
L 494.009917 141.156799 
L 498.109091 140.808212 
" style="fill:none;stroke:#8eba42;stroke-dasharray:5.55,2.4;stroke-dashoffset:0;stroke-width:1.5;"/>
   </g>
   <g id="patch_3">
    <path d="M 72 252 
L 72 34.56 
" style="fill:none;stroke:#ffffff;stroke-linecap:square;stroke-linejoin:miter;"/>
   </g>
   <g id="patch_4">
    <path d="M 518.4 252 
L 518.4 34.56 
" style="fill:none;stroke:#ffffff;stroke-linecap:square;stroke-linejoin:miter;"/>
   </g>
   <g id="patch_5">
    <path d="M 72 252 
L 518.4 252 
" style="fill:none;stroke:#ffffff;stroke-linecap:square;stroke-linejoin:miter;"/>
   </g>
   <g id="patch_6">
    <path d="M 72 34.56 
L 518.4 34.56 
" style="fill:none;stroke:#ffffff;stroke-linecap:square;stroke-linejoin:miter;"/>
   </g>
   <g id="legend_1">
    <g id="patch_7">
     <path d="M 400.995312 247 
L 511.4 247 
Q 513.4 247 513.4 245 
L 513.4 157.93125 
Q 513.4 155.93125 511.4 155.93125 
L 400.995312 155.93125 
Q 398.995312 155.93125 398.995312 157.93125 
L 398.995312 245 
Q 398.995312 247 400.995312 247 
z
" style="fill:#e5e5e5;opacity:0.8;stroke:#cccccc;stroke-linejoin:miter;stroke-width:0.5;"/>
    </g>
    <g id="line2d_33">
     <path d="M 402.995312 164.029688 
L 422.995312 164.029688 
" style="fill:none;stroke:#e24a33;stroke-linecap:square;stroke-width:1.5;"/>
    </g>
    <g id="line2d_34"/>
    <g id="text_16">
     <!-- width32(train) -->
     <g transform="translate(430.995312 167.529688)scale(0.1 -0.1)">
      <defs>
       <path d="M 269 3500 
L 844 3500 
L 1563 769 
L 2278 3500 
L 2956 3500 
L 3675 769 
L 4391 3500 
L 4966 3500 
L 4050 0 
L 3372 0 
L 2619 2869 
L 1863 0 
L 1184 0 
L 269 3500 
z
" id="DejaVuSans-77" transform="scale(0.015625)"/>
       <path d="M 603 3500 
L 1178 3500 
L 1178 0 
L 603 0 
L 603 3500 
z
M 603 4863 
L 1178 4863 
L 1178 4134 
L 603 4134 
L 603 4863 
z
" id="DejaVuSans-69" transform="scale(0.015625)"/>
       <path d="M 2906 2969 
L 2906 4863 
L 3481 4863 
L 3481 0 
L 2906 0 
L 2906 525 
Q 2725 213 2448 61 
Q 2172 -91 1784 -91 
Q 1150 -91 751 415 
Q 353 922 353 1747 
Q 353 2572 751 3078 
Q 1150 3584 1784 3584 
Q 2172 3584 2448 3432 
Q 2725 3281 2906 2969 
z
M 947 1747 
Q 947 1113 1208 752 
Q 1469 391 1925 391 
Q 2381 391 2643 752 
Q 2906 1113 2906 1747 
Q 2906 2381 2643 2742 
Q 2381 3103 1925 3103 
Q 1469 3103 1208 2742 
Q 947 2381 947 1747 
z
" id="DejaVuSans-64" transform="scale(0.015625)"/>
       <path d="M 1172 4494 
L 1172 3500 
L 2356 3500 
L 2356 3053 
L 1172 3053 
L 1172 1153 
Q 1172 725 1289 603 
Q 1406 481 1766 481 
L 2356 481 
L 2356 0 
L 1766 0 
Q 1100 0 847 248 
Q 594 497 594 1153 
L 594 3053 
L 172 3053 
L 172 3500 
L 594 3500 
L 594 4494 
L 1172 4494 
z
" id="DejaVuSans-74" transform="scale(0.015625)"/>
       <path d="M 2597 2516 
Q 3050 2419 3304 2112 
Q 3559 1806 3559 1356 
Q 3559 666 3084 287 
Q 2609 -91 1734 -91 
Q 1441 -91 1130 -33 
Q 819 25 488 141 
L 488 750 
Q 750 597 1062 519 
Q 1375 441 1716 441 
Q 2309 441 2620 675 
Q 2931 909 2931 1356 
Q 2931 1769 2642 2001 
Q 2353 2234 1838 2234 
L 1294 2234 
L 1294 2753 
L 1863 2753 
Q 2328 2753 2575 2939 
Q 2822 3125 2822 3475 
Q 2822 3834 2567 4026 
Q 2313 4219 1838 4219 
Q 1578 4219 1281 4162 
Q 984 4106 628 3988 
L 628 4550 
Q 988 4650 1302 4700 
Q 1616 4750 1894 4750 
Q 2613 4750 3031 4423 
Q 3450 4097 3450 3541 
Q 3450 3153 3228 2886 
Q 3006 2619 2597 2516 
z
" id="DejaVuSans-33" transform="scale(0.015625)"/>
       <path d="M 1984 4856 
Q 1566 4138 1362 3434 
Q 1159 2731 1159 2009 
Q 1159 1288 1364 580 
Q 1569 -128 1984 -844 
L 1484 -844 
Q 1016 -109 783 600 
Q 550 1309 550 2009 
Q 550 2706 781 3412 
Q 1013 4119 1484 4856 
L 1984 4856 
z
" id="DejaVuSans-28" transform="scale(0.015625)"/>
       <path d="M 513 4856 
L 1013 4856 
Q 1481 4119 1714 3412 
Q 1947 2706 1947 2009 
Q 1947 1309 1714 600 
Q 1481 -109 1013 -844 
L 513 -844 
Q 928 -128 1133 580 
Q 1338 1288 1338 2009 
Q 1338 2731 1133 3434 
Q 928 4138 513 4856 
z
" id="DejaVuSans-29" transform="scale(0.015625)"/>
      </defs>
      <use xlink:href="#DejaVuSans-77"/>
      <use x="81.787109" xlink:href="#DejaVuSans-69"/>
      <use x="109.570312" xlink:href="#DejaVuSans-64"/>
      <use x="173.046875" xlink:href="#DejaVuSans-74"/>
      <use x="212.255859" xlink:href="#DejaVuSans-68"/>
      <use x="275.634766" xlink:href="#DejaVuSans-33"/>
      <use x="339.257812" xlink:href="#DejaVuSans-32"/>
      <use x="402.880859" xlink:href="#DejaVuSans-28"/>
      <use x="441.894531" xlink:href="#DejaVuSans-74"/>
      <use x="481.103516" xlink:href="#DejaVuSans-72"/>
      <use x="522.216797" xlink:href="#DejaVuSans-61"/>
      <use x="583.496094" xlink:href="#DejaVuSans-69"/>
      <use x="611.279297" xlink:href="#DejaVuSans-6e"/>
      <use x="674.658203" xlink:href="#DejaVuSans-29"/>
     </g>
    </g>
    <g id="line2d_35">
     <path d="M 402.995312 178.707813 
L 422.995312 178.707813 
" style="fill:none;stroke:#348abd;stroke-linecap:square;stroke-width:1.5;"/>
    </g>
    <g id="line2d_36"/>
    <g id="text_17">
     <!-- width64(train) -->
     <g transform="translate(430.995312 182.207813)scale(0.1 -0.1)">
      <use xlink:href="#DejaVuSans-77"/>
      <use x="81.787109" xlink:href="#DejaVuSans-69"/>
      <use x="109.570312" xlink:href="#DejaVuSans-64"/>
      <use x="173.046875" xlink:href="#DejaVuSans-74"/>
      <use x="212.255859" xlink:href="#DejaVuSans-68"/>
      <use x="275.634766" xlink:href="#DejaVuSans-36"/>
      <use x="339.257812" xlink:href="#DejaVuSans-34"/>
      <use x="402.880859" xlink:href="#DejaVuSans-28"/>
      <use x="441.894531" xlink:href="#DejaVuSans-74"/>
      <use x="481.103516" xlink:href="#DejaVuSans-72"/>
      <use x="522.216797" xlink:href="#DejaVuSans-61"/>
      <use x="583.496094" xlink:href="#DejaVuSans-69"/>
      <use x="611.279297" xlink:href="#DejaVuSans-6e"/>
      <use x="674.658203" xlink:href="#DejaVuSans-29"/>
     </g>
    </g>
    <g id="line2d_37">
     <path d="M 402.995312 193.385938 
L 422.995312 193.385938 
" style="fill:none;stroke:#988ed5;stroke-linecap:square;stroke-width:1.5;"/>
    </g>
    <g id="line2d_38"/>
    <g id="text_18">
     <!-- width128(train) -->
     <g transform="translate(430.995312 196.885938)scale(0.1 -0.1)">
      <use xlink:href="#DejaVuSans-77"/>
      <use x="81.787109" xlink:href="#DejaVuSans-69"/>
      <use x="109.570312" xlink:href="#DejaVuSans-64"/>
      <use x="173.046875" xlink:href="#DejaVuSans-74"/>
      <use x="212.255859" xlink:href="#DejaVuSans-68"/>
      <use x="275.634766" xlink:href="#DejaVuSans-31"/>
      <use x="339.257812" xlink:href="#DejaVuSans-32"/>
      <use x="402.880859" xlink:href="#DejaVuSans-38"/>
      <use x="466.503906" xlink:href="#DejaVuSans-28"/>
      <use x="505.517578" xlink:href="#DejaVuSans-74"/>
      <use x="544.726562" xlink:href="#DejaVuSans-72"/>
      <use x="585.839844" xlink:href="#DejaVuSans-61"/>
      <use x="647.119141" xlink:href="#DejaVuSans-69"/>
      <use x="674.902344" xlink:href="#DejaVuSans-6e"/>
      <use x="738.28125" xlink:href="#DejaVuSans-29"/>
     </g>
    </g>
    <g id="line2d_39">
     <path d="M 402.995312 208.064063 
L 422.995312 208.064063 
" style="fill:none;stroke:#777777;stroke-dasharray:5.55,2.4;stroke-dashoffset:0;stroke-width:1.5;"/>
    </g>
    <g id="line2d_40"/>
    <g id="text_19">
     <!-- width32(valid) -->
     <g transform="translate(430.995312 211.564063)scale(0.1 -0.1)">
      <defs>
       <path d="M 191 3500 
L 800 3500 
L 1894 563 
L 2988 3500 
L 3597 3500 
L 2284 0 
L 1503 0 
L 191 3500 
z
" id="DejaVuSans-76" transform="scale(0.015625)"/>
       <path d="M 603 4863 
L 1178 4863 
L 1178 0 
L 603 0 
L 603 4863 
z
" id="DejaVuSans-6c" transform="scale(0.015625)"/>
      </defs>
      <use xlink:href="#DejaVuSans-77"/>
      <use x="81.787109" xlink:href="#DejaVuSans-69"/>
      <use x="109.570312" xlink:href="#DejaVuSans-64"/>
      <use x="173.046875" xlink:href="#DejaVuSans-74"/>
      <use x="212.255859" xlink:href="#DejaVuSans-68"/>
      <use x="275.634766" xlink:href="#DejaVuSans-33"/>
      <use x="339.257812" xlink:href="#DejaVuSans-32"/>
      <use x="402.880859" xlink:href="#DejaVuSans-28"/>
      <use x="441.894531" xlink:href="#DejaVuSans-76"/>
      <use x="501.074219" xlink:href="#DejaVuSans-61"/>
      <use x="562.353516" xlink:href="#DejaVuSans-6c"/>
      <use x="590.136719" xlink:href="#DejaVuSans-69"/>
      <use x="617.919922" xlink:href="#DejaVuSans-64"/>
      <use x="681.396484" xlink:href="#DejaVuSans-29"/>
     </g>
    </g>
    <g id="line2d_41">
     <path d="M 402.995312 222.742188 
L 422.995312 222.742188 
" style="fill:none;stroke:#fbc15e;stroke-dasharray:5.55,2.4;stroke-dashoffset:0;stroke-width:1.5;"/>
    </g>
    <g id="line2d_42"/>
    <g id="text_20">
     <!-- width64(valid) -->
     <g transform="translate(430.995312 226.242188)scale(0.1 -0.1)">
      <use xlink:href="#DejaVuSans-77"/>
      <use x="81.787109" xlink:href="#DejaVuSans-69"/>
      <use x="109.570312" xlink:href="#DejaVuSans-64"/>
      <use x="173.046875" xlink:href="#DejaVuSans-74"/>
      <use x="212.255859" xlink:href="#DejaVuSans-68"/>
      <use x="275.634766" xlink:href="#DejaVuSans-36"/>
      <use x="339.257812" xlink:href="#DejaVuSans-34"/>
      <use x="402.880859" xlink:href="#DejaVuSans-28"/>
      <use x="441.894531" xlink:href="#DejaVuSans-76"/>
      <use x="501.074219" xlink:href="#DejaVuSans-61"/>
      <use x="562.353516" xlink:href="#DejaVuSans-6c"/>
      <use x="590.136719" xlink:href="#DejaVuSans-69"/>
      <use x="617.919922" xlink:href="#DejaVuSans-64"/>
      <use x="681.396484" xlink:href="#DejaVuSans-29"/>
     </g>
    </g>
    <g id="line2d_43">
     <path d="M 402.995312 237.420313 
L 422.995312 237.420313 
" style="fill:none;stroke:#8eba42;stroke-dasharray:5.55,2.4;stroke-dashoffset:0;stroke-width:1.5;"/>
    </g>
    <g id="line2d_44"/>
    <g id="text_21">
     <!-- width128(valid) -->
     <g transform="translate(430.995312 240.920313)scale(0.1 -0.1)">
      <use xlink:href="#DejaVuSans-77"/>
      <use x="81.787109" xlink:href="#DejaVuSans-69"/>
      <use x="109.570312" xlink:href="#DejaVuSans-64"/>
      <use x="173.046875" xlink:href="#DejaVuSans-74"/>
      <use x="212.255859" xlink:href="#DejaVuSans-68"/>
      <use x="275.634766" xlink:href="#DejaVuSans-31"/>
      <use x="339.257812" xlink:href="#DejaVuSans-32"/>
      <use x="402.880859" xlink:href="#DejaVuSans-38"/>
      <use x="466.503906" xlink:href="#DejaVuSans-28"/>
      <use x="505.517578" xlink:href="#DejaVuSans-76"/>
      <use x="564.697266" xlink:href="#DejaVuSans-61"/>
      <use x="625.976562" xlink:href="#DejaVuSans-6c"/>
      <use x="653.759766" xlink:href="#DejaVuSans-69"/>
      <use x="681.542969" xlink:href="#DejaVuSans-64"/>
      <use x="745.019531" xlink:href="#DejaVuSans-29"/>
     </g>
    </g>
   </g>
  </g>
 </g>
 <defs>
  <clipPath id="p4e66c49a28">
   <rect height="217.44" width="446.4" x="72" y="34.56"/>
  </clipPath>
 </defs>
</svg>
