<?xml version="1.0" encoding="utf-8" standalone="no"?>
<!DOCTYPE svg PUBLIC "-//W3C//DTD SVG 1.1//EN"
  "http://www.w3.org/Graphics/SVG/1.1/DTD/svg11.dtd">
<svg height="288pt" version="1.1" viewBox="0 0 576 288" width="576pt" xmlns="http://www.w3.org/2000/svg" xmlns:xlink="http://www.w3.org/1999/xlink">
 <metadata>
  <rdf:RDF xmlns:cc="http://creativecommons.org/ns#" xmlns:dc="http://purl.org/dc/elements/1.1/" xmlns:rdf="http://www.w3.org/1999/02/22-rdf-syntax-ns#">
   <cc:Work>
    <dc:type rdf:resource="http://purl.org/dc/dcmitype/StillImage"/>
    <dc:date>2021-11-11T20:13:45.840005</dc:date>
    <dc:format>image/svg+xml</dc:format>
    <dc:creator>
     <cc:Agent>
      <dc:title>Matplotlib v3.4.2, https://matplotlib.org/</dc:title>
     </cc:Agent>
    </dc:creator>
   </cc:Work>
  </rdf:RDF>
 </metadata>
 <defs>
  <style type="text/css">*{stroke-linecap:butt;stroke-linejoin:round;}</style>
 </defs>
 <g id="figure_1">
  <g id="patch_1">
   <path d="M 0 288 
L 576 288 
L 576 0 
L 0 0 
z
" style="fill:#ffffff;"/>
  </g>
  <g id="axes_1">
   <g id="patch_2">
    <path d="M 72 252 
L 518.4 252 
L 518.4 34.56 
L 72 34.56 
z
" style="fill:#e5e5e5;"/>
   </g>
   <g id="matplotlib.axis_1">
    <g id="xtick_1">
     <g id="line2d_1">
      <path clip-path="url(#p120ff7fc4e)" d="M 88.191736 252 
L 88.191736 34.56 
" style="fill:none;stroke:#ffffff;stroke-linecap:square;stroke-width:0.8;"/>
     </g>
     <g id="line2d_2">
      <defs>
       <path d="M 0 0 
L 0 3.5 
" id="m907b1f01e4" style="stroke:#555555;stroke-width:0.8;"/>
      </defs>
      <g>
       <use style="fill:#555555;stroke:#555555;stroke-width:0.8;" x="88.191736" xlink:href="#m907b1f01e4" y="252"/>
      </g>
     </g>
     <g id="text_1">
      <!-- 0 -->
      <g style="fill:#555555;" transform="translate(85.010486 266.598437)scale(0.1 -0.1)">
       <defs>
        <path d="M 2034 4250 
Q 1547 4250 1301 3770 
Q 1056 3291 1056 2328 
Q 1056 1369 1301 889 
Q 1547 409 2034 409 
Q 2525 409 2770 889 
Q 3016 1369 3016 2328 
Q 3016 3291 2770 3770 
Q 2525 4250 2034 4250 
z
M 2034 4750 
Q 2819 4750 3233 4129 
Q 3647 3509 3647 2328 
Q 3647 1150 3233 529 
Q 2819 -91 2034 -91 
Q 1250 -91 836 529 
Q 422 1150 422 2328 
Q 422 3509 836 4129 
Q 1250 4750 2034 4750 
z
" id="DejaVuSans-30" transform="scale(0.015625)"/>
       </defs>
       <use xlink:href="#DejaVuSans-30"/>
      </g>
     </g>
    </g>
    <g id="xtick_2">
     <g id="line2d_3">
      <path clip-path="url(#p120ff7fc4e)" d="M 170.175207 252 
L 170.175207 34.56 
" style="fill:none;stroke:#ffffff;stroke-linecap:square;stroke-width:0.8;"/>
     </g>
     <g id="line2d_4">
      <g>
       <use style="fill:#555555;stroke:#555555;stroke-width:0.8;" x="170.175207" xlink:href="#m907b1f01e4" y="252"/>
      </g>
     </g>
     <g id="text_2">
      <!-- 20 -->
      <g style="fill:#555555;" transform="translate(163.812707 266.598437)scale(0.1 -0.1)">
       <defs>
        <path d="M 1228 531 
L 3431 531 
L 3431 0 
L 469 0 
L 469 531 
Q 828 903 1448 1529 
Q 2069 2156 2228 2338 
Q 2531 2678 2651 2914 
Q 2772 3150 2772 3378 
Q 2772 3750 2511 3984 
Q 2250 4219 1831 4219 
Q 1534 4219 1204 4116 
Q 875 4013 500 3803 
L 500 4441 
Q 881 4594 1212 4672 
Q 1544 4750 1819 4750 
Q 2544 4750 2975 4387 
Q 3406 4025 3406 3419 
Q 3406 3131 3298 2873 
Q 3191 2616 2906 2266 
Q 2828 2175 2409 1742 
Q 1991 1309 1228 531 
z
" id="DejaVuSans-32" transform="scale(0.015625)"/>
       </defs>
       <use xlink:href="#DejaVuSans-32"/>
       <use x="63.623047" xlink:href="#DejaVuSans-30"/>
      </g>
     </g>
    </g>
    <g id="xtick_3">
     <g id="line2d_5">
      <path clip-path="url(#p120ff7fc4e)" d="M 252.158678 252 
L 252.158678 34.56 
" style="fill:none;stroke:#ffffff;stroke-linecap:square;stroke-width:0.8;"/>
     </g>
     <g id="line2d_6">
      <g>
       <use style="fill:#555555;stroke:#555555;stroke-width:0.8;" x="252.158678" xlink:href="#m907b1f01e4" y="252"/>
      </g>
     </g>
     <g id="text_3">
      <!-- 40 -->
      <g style="fill:#555555;" transform="translate(245.796178 266.598437)scale(0.1 -0.1)">
       <defs>
        <path d="M 2419 4116 
L 825 1625 
L 2419 1625 
L 2419 4116 
z
M 2253 4666 
L 3047 4666 
L 3047 1625 
L 3713 1625 
L 3713 1100 
L 3047 1100 
L 3047 0 
L 2419 0 
L 2419 1100 
L 313 1100 
L 313 1709 
L 2253 4666 
z
" id="DejaVuSans-34" transform="scale(0.015625)"/>
       </defs>
       <use xlink:href="#DejaVuSans-34"/>
       <use x="63.623047" xlink:href="#DejaVuSans-30"/>
      </g>
     </g>
    </g>
    <g id="xtick_4">
     <g id="line2d_7">
      <path clip-path="url(#p120ff7fc4e)" d="M 334.142149 252 
L 334.142149 34.56 
" style="fill:none;stroke:#ffffff;stroke-linecap:square;stroke-width:0.8;"/>
     </g>
     <g id="line2d_8">
      <g>
       <use style="fill:#555555;stroke:#555555;stroke-width:0.8;" x="334.142149" xlink:href="#m907b1f01e4" y="252"/>
      </g>
     </g>
     <g id="text_4">
      <!-- 60 -->
      <g style="fill:#555555;" transform="translate(327.779649 266.598437)scale(0.1 -0.1)">
       <defs>
        <path d="M 2113 2584 
Q 1688 2584 1439 2293 
Q 1191 2003 1191 1497 
Q 1191 994 1439 701 
Q 1688 409 2113 409 
Q 2538 409 2786 701 
Q 3034 994 3034 1497 
Q 3034 2003 2786 2293 
Q 2538 2584 2113 2584 
z
M 3366 4563 
L 3366 3988 
Q 3128 4100 2886 4159 
Q 2644 4219 2406 4219 
Q 1781 4219 1451 3797 
Q 1122 3375 1075 2522 
Q 1259 2794 1537 2939 
Q 1816 3084 2150 3084 
Q 2853 3084 3261 2657 
Q 3669 2231 3669 1497 
Q 3669 778 3244 343 
Q 2819 -91 2113 -91 
Q 1303 -91 875 529 
Q 447 1150 447 2328 
Q 447 3434 972 4092 
Q 1497 4750 2381 4750 
Q 2619 4750 2861 4703 
Q 3103 4656 3366 4563 
z
" id="DejaVuSans-36" transform="scale(0.015625)"/>
       </defs>
       <use xlink:href="#DejaVuSans-36"/>
       <use x="63.623047" xlink:href="#DejaVuSans-30"/>
      </g>
     </g>
    </g>
    <g id="xtick_5">
     <g id="line2d_9">
      <path clip-path="url(#p120ff7fc4e)" d="M 416.12562 252 
L 416.12562 34.56 
" style="fill:none;stroke:#ffffff;stroke-linecap:square;stroke-width:0.8;"/>
     </g>
     <g id="line2d_10">
      <g>
       <use style="fill:#555555;stroke:#555555;stroke-width:0.8;" x="416.12562" xlink:href="#m907b1f01e4" y="252"/>
      </g>
     </g>
     <g id="text_5">
      <!-- 80 -->
      <g style="fill:#555555;" transform="translate(409.76312 266.598437)scale(0.1 -0.1)">
       <defs>
        <path d="M 2034 2216 
Q 1584 2216 1326 1975 
Q 1069 1734 1069 1313 
Q 1069 891 1326 650 
Q 1584 409 2034 409 
Q 2484 409 2743 651 
Q 3003 894 3003 1313 
Q 3003 1734 2745 1975 
Q 2488 2216 2034 2216 
z
M 1403 2484 
Q 997 2584 770 2862 
Q 544 3141 544 3541 
Q 544 4100 942 4425 
Q 1341 4750 2034 4750 
Q 2731 4750 3128 4425 
Q 3525 4100 3525 3541 
Q 3525 3141 3298 2862 
Q 3072 2584 2669 2484 
Q 3125 2378 3379 2068 
Q 3634 1759 3634 1313 
Q 3634 634 3220 271 
Q 2806 -91 2034 -91 
Q 1263 -91 848 271 
Q 434 634 434 1313 
Q 434 1759 690 2068 
Q 947 2378 1403 2484 
z
M 1172 3481 
Q 1172 3119 1398 2916 
Q 1625 2713 2034 2713 
Q 2441 2713 2670 2916 
Q 2900 3119 2900 3481 
Q 2900 3844 2670 4047 
Q 2441 4250 2034 4250 
Q 1625 4250 1398 4047 
Q 1172 3844 1172 3481 
z
" id="DejaVuSans-38" transform="scale(0.015625)"/>
       </defs>
       <use xlink:href="#DejaVuSans-38"/>
       <use x="63.623047" xlink:href="#DejaVuSans-30"/>
      </g>
     </g>
    </g>
    <g id="xtick_6">
     <g id="line2d_11">
      <path clip-path="url(#p120ff7fc4e)" d="M 498.109091 252 
L 498.109091 34.56 
" style="fill:none;stroke:#ffffff;stroke-linecap:square;stroke-width:0.8;"/>
     </g>
     <g id="line2d_12">
      <g>
       <use style="fill:#555555;stroke:#555555;stroke-width:0.8;" x="498.109091" xlink:href="#m907b1f01e4" y="252"/>
      </g>
     </g>
     <g id="text_6">
      <!-- 100 -->
      <g style="fill:#555555;" transform="translate(488.565341 266.598437)scale(0.1 -0.1)">
       <defs>
        <path d="M 794 531 
L 1825 531 
L 1825 4091 
L 703 3866 
L 703 4441 
L 1819 4666 
L 2450 4666 
L 2450 531 
L 3481 531 
L 3481 0 
L 794 0 
L 794 531 
z
" id="DejaVuSans-31" transform="scale(0.015625)"/>
       </defs>
       <use xlink:href="#DejaVuSans-31"/>
       <use x="63.623047" xlink:href="#DejaVuSans-30"/>
       <use x="127.246094" xlink:href="#DejaVuSans-30"/>
      </g>
     </g>
    </g>
    <g id="text_7">
     <!-- Epoch number -->
     <g style="fill:#555555;" transform="translate(251.503125 281.79625)scale(0.12 -0.12)">
      <defs>
       <path d="M 628 4666 
L 3578 4666 
L 3578 4134 
L 1259 4134 
L 1259 2753 
L 3481 2753 
L 3481 2222 
L 1259 2222 
L 1259 531 
L 3634 531 
L 3634 0 
L 628 0 
L 628 4666 
z
" id="DejaVuSans-45" transform="scale(0.015625)"/>
       <path d="M 1159 525 
L 1159 -1331 
L 581 -1331 
L 581 3500 
L 1159 3500 
L 1159 2969 
Q 1341 3281 1617 3432 
Q 1894 3584 2278 3584 
Q 2916 3584 3314 3078 
Q 3713 2572 3713 1747 
Q 3713 922 3314 415 
Q 2916 -91 2278 -91 
Q 1894 -91 1617 61 
Q 1341 213 1159 525 
z
M 3116 1747 
Q 3116 2381 2855 2742 
Q 2594 3103 2138 3103 
Q 1681 3103 1420 2742 
Q 1159 2381 1159 1747 
Q 1159 1113 1420 752 
Q 1681 391 2138 391 
Q 2594 391 2855 752 
Q 3116 1113 3116 1747 
z
" id="DejaVuSans-70" transform="scale(0.015625)"/>
       <path d="M 1959 3097 
Q 1497 3097 1228 2736 
Q 959 2375 959 1747 
Q 959 1119 1226 758 
Q 1494 397 1959 397 
Q 2419 397 2687 759 
Q 2956 1122 2956 1747 
Q 2956 2369 2687 2733 
Q 2419 3097 1959 3097 
z
M 1959 3584 
Q 2709 3584 3137 3096 
Q 3566 2609 3566 1747 
Q 3566 888 3137 398 
Q 2709 -91 1959 -91 
Q 1206 -91 779 398 
Q 353 888 353 1747 
Q 353 2609 779 3096 
Q 1206 3584 1959 3584 
z
" id="DejaVuSans-6f" transform="scale(0.015625)"/>
       <path d="M 3122 3366 
L 3122 2828 
Q 2878 2963 2633 3030 
Q 2388 3097 2138 3097 
Q 1578 3097 1268 2742 
Q 959 2388 959 1747 
Q 959 1106 1268 751 
Q 1578 397 2138 397 
Q 2388 397 2633 464 
Q 2878 531 3122 666 
L 3122 134 
Q 2881 22 2623 -34 
Q 2366 -91 2075 -91 
Q 1284 -91 818 406 
Q 353 903 353 1747 
Q 353 2603 823 3093 
Q 1294 3584 2113 3584 
Q 2378 3584 2631 3529 
Q 2884 3475 3122 3366 
z
" id="DejaVuSans-63" transform="scale(0.015625)"/>
       <path d="M 3513 2113 
L 3513 0 
L 2938 0 
L 2938 2094 
Q 2938 2591 2744 2837 
Q 2550 3084 2163 3084 
Q 1697 3084 1428 2787 
Q 1159 2491 1159 1978 
L 1159 0 
L 581 0 
L 581 4863 
L 1159 4863 
L 1159 2956 
Q 1366 3272 1645 3428 
Q 1925 3584 2291 3584 
Q 2894 3584 3203 3211 
Q 3513 2838 3513 2113 
z
" id="DejaVuSans-68" transform="scale(0.015625)"/>
       <path id="DejaVuSans-20" transform="scale(0.015625)"/>
       <path d="M 3513 2113 
L 3513 0 
L 2938 0 
L 2938 2094 
Q 2938 2591 2744 2837 
Q 2550 3084 2163 3084 
Q 1697 3084 1428 2787 
Q 1159 2491 1159 1978 
L 1159 0 
L 581 0 
L 581 3500 
L 1159 3500 
L 1159 2956 
Q 1366 3272 1645 3428 
Q 1925 3584 2291 3584 
Q 2894 3584 3203 3211 
Q 3513 2838 3513 2113 
z
" id="DejaVuSans-6e" transform="scale(0.015625)"/>
       <path d="M 544 1381 
L 544 3500 
L 1119 3500 
L 1119 1403 
Q 1119 906 1312 657 
Q 1506 409 1894 409 
Q 2359 409 2629 706 
Q 2900 1003 2900 1516 
L 2900 3500 
L 3475 3500 
L 3475 0 
L 2900 0 
L 2900 538 
Q 2691 219 2414 64 
Q 2138 -91 1772 -91 
Q 1169 -91 856 284 
Q 544 659 544 1381 
z
M 1991 3584 
L 1991 3584 
z
" id="DejaVuSans-75" transform="scale(0.015625)"/>
       <path d="M 3328 2828 
Q 3544 3216 3844 3400 
Q 4144 3584 4550 3584 
Q 5097 3584 5394 3201 
Q 5691 2819 5691 2113 
L 5691 0 
L 5113 0 
L 5113 2094 
Q 5113 2597 4934 2840 
Q 4756 3084 4391 3084 
Q 3944 3084 3684 2787 
Q 3425 2491 3425 1978 
L 3425 0 
L 2847 0 
L 2847 2094 
Q 2847 2600 2669 2842 
Q 2491 3084 2119 3084 
Q 1678 3084 1418 2786 
Q 1159 2488 1159 1978 
L 1159 0 
L 581 0 
L 581 3500 
L 1159 3500 
L 1159 2956 
Q 1356 3278 1631 3431 
Q 1906 3584 2284 3584 
Q 2666 3584 2933 3390 
Q 3200 3197 3328 2828 
z
" id="DejaVuSans-6d" transform="scale(0.015625)"/>
       <path d="M 3116 1747 
Q 3116 2381 2855 2742 
Q 2594 3103 2138 3103 
Q 1681 3103 1420 2742 
Q 1159 2381 1159 1747 
Q 1159 1113 1420 752 
Q 1681 391 2138 391 
Q 2594 391 2855 752 
Q 3116 1113 3116 1747 
z
M 1159 2969 
Q 1341 3281 1617 3432 
Q 1894 3584 2278 3584 
Q 2916 3584 3314 3078 
Q 3713 2572 3713 1747 
Q 3713 922 3314 415 
Q 2916 -91 2278 -91 
Q 1894 -91 1617 61 
Q 1341 213 1159 525 
L 1159 0 
L 581 0 
L 581 4863 
L 1159 4863 
L 1159 2969 
z
" id="DejaVuSans-62" transform="scale(0.015625)"/>
       <path d="M 3597 1894 
L 3597 1613 
L 953 1613 
Q 991 1019 1311 708 
Q 1631 397 2203 397 
Q 2534 397 2845 478 
Q 3156 559 3463 722 
L 3463 178 
Q 3153 47 2828 -22 
Q 2503 -91 2169 -91 
Q 1331 -91 842 396 
Q 353 884 353 1716 
Q 353 2575 817 3079 
Q 1281 3584 2069 3584 
Q 2775 3584 3186 3129 
Q 3597 2675 3597 1894 
z
M 3022 2063 
Q 3016 2534 2758 2815 
Q 2500 3097 2075 3097 
Q 1594 3097 1305 2825 
Q 1016 2553 972 2059 
L 3022 2063 
z
" id="DejaVuSans-65" transform="scale(0.015625)"/>
       <path d="M 2631 2963 
Q 2534 3019 2420 3045 
Q 2306 3072 2169 3072 
Q 1681 3072 1420 2755 
Q 1159 2438 1159 1844 
L 1159 0 
L 581 0 
L 581 3500 
L 1159 3500 
L 1159 2956 
Q 1341 3275 1631 3429 
Q 1922 3584 2338 3584 
Q 2397 3584 2469 3576 
Q 2541 3569 2628 3553 
L 2631 2963 
z
" id="DejaVuSans-72" transform="scale(0.015625)"/>
      </defs>
      <use xlink:href="#DejaVuSans-45"/>
      <use x="63.183594" xlink:href="#DejaVuSans-70"/>
      <use x="126.660156" xlink:href="#DejaVuSans-6f"/>
      <use x="187.841797" xlink:href="#DejaVuSans-63"/>
      <use x="242.822266" xlink:href="#DejaVuSans-68"/>
      <use x="306.201172" xlink:href="#DejaVuSans-20"/>
      <use x="337.988281" xlink:href="#DejaVuSans-6e"/>
      <use x="401.367188" xlink:href="#DejaVuSans-75"/>
      <use x="464.746094" xlink:href="#DejaVuSans-6d"/>
      <use x="562.158203" xlink:href="#DejaVuSans-62"/>
      <use x="625.634766" xlink:href="#DejaVuSans-65"/>
      <use x="687.158203" xlink:href="#DejaVuSans-72"/>
     </g>
    </g>
   </g>
   <g id="matplotlib.axis_2">
    <g id="ytick_1">
     <g id="line2d_13">
      <path clip-path="url(#p120ff7fc4e)" d="M 72 233.67926 
L 518.4 233.67926 
" style="fill:none;stroke:#ffffff;stroke-linecap:square;stroke-width:0.8;"/>
     </g>
     <g id="line2d_14">
      <defs>
       <path d="M 0 0 
L -3.5 0 
" id="m747f2ae186" style="stroke:#555555;stroke-width:0.8;"/>
      </defs>
      <g>
       <use style="fill:#555555;stroke:#555555;stroke-width:0.8;" x="72" xlink:href="#m747f2ae186" y="233.67926"/>
      </g>
     </g>
     <g id="text_8">
      <!-- 0.2 -->
      <g style="fill:#555555;" transform="translate(49.096875 237.478478)scale(0.1 -0.1)">
       <defs>
        <path d="M 684 794 
L 1344 794 
L 1344 0 
L 684 0 
L 684 794 
z
" id="DejaVuSans-2e" transform="scale(0.015625)"/>
       </defs>
       <use xlink:href="#DejaVuSans-30"/>
       <use x="63.623047" xlink:href="#DejaVuSans-2e"/>
       <use x="95.410156" xlink:href="#DejaVuSans-32"/>
      </g>
     </g>
    </g>
    <g id="ytick_2">
     <g id="line2d_15">
      <path clip-path="url(#p120ff7fc4e)" d="M 72 197.088045 
L 518.4 197.088045 
" style="fill:none;stroke:#ffffff;stroke-linecap:square;stroke-width:0.8;"/>
     </g>
     <g id="line2d_16">
      <g>
       <use style="fill:#555555;stroke:#555555;stroke-width:0.8;" x="72" xlink:href="#m747f2ae186" y="197.088045"/>
      </g>
     </g>
     <g id="text_9">
      <!-- 0.4 -->
      <g style="fill:#555555;" transform="translate(49.096875 200.887264)scale(0.1 -0.1)">
       <use xlink:href="#DejaVuSans-30"/>
       <use x="63.623047" xlink:href="#DejaVuSans-2e"/>
       <use x="95.410156" xlink:href="#DejaVuSans-34"/>
      </g>
     </g>
    </g>
    <g id="ytick_3">
     <g id="line2d_17">
      <path clip-path="url(#p120ff7fc4e)" d="M 72 160.496831 
L 518.4 160.496831 
" style="fill:none;stroke:#ffffff;stroke-linecap:square;stroke-width:0.8;"/>
     </g>
     <g id="line2d_18">
      <g>
       <use style="fill:#555555;stroke:#555555;stroke-width:0.8;" x="72" xlink:href="#m747f2ae186" y="160.496831"/>
      </g>
     </g>
     <g id="text_10">
      <!-- 0.6 -->
      <g style="fill:#555555;" transform="translate(49.096875 164.296049)scale(0.1 -0.1)">
       <use xlink:href="#DejaVuSans-30"/>
       <use x="63.623047" xlink:href="#DejaVuSans-2e"/>
       <use x="95.410156" xlink:href="#DejaVuSans-36"/>
      </g>
     </g>
    </g>
    <g id="ytick_4">
     <g id="line2d_19">
      <path clip-path="url(#p120ff7fc4e)" d="M 72 123.905616 
L 518.4 123.905616 
" style="fill:none;stroke:#ffffff;stroke-linecap:square;stroke-width:0.8;"/>
     </g>
     <g id="line2d_20">
      <g>
       <use style="fill:#555555;stroke:#555555;stroke-width:0.8;" x="72" xlink:href="#m747f2ae186" y="123.905616"/>
      </g>
     </g>
     <g id="text_11">
      <!-- 0.8 -->
      <g style="fill:#555555;" transform="translate(49.096875 127.704835)scale(0.1 -0.1)">
       <use xlink:href="#DejaVuSans-30"/>
       <use x="63.623047" xlink:href="#DejaVuSans-2e"/>
       <use x="95.410156" xlink:href="#DejaVuSans-38"/>
      </g>
     </g>
    </g>
    <g id="ytick_5">
     <g id="line2d_21">
      <path clip-path="url(#p120ff7fc4e)" d="M 72 87.314401 
L 518.4 87.314401 
" style="fill:none;stroke:#ffffff;stroke-linecap:square;stroke-width:0.8;"/>
     </g>
     <g id="line2d_22">
      <g>
       <use style="fill:#555555;stroke:#555555;stroke-width:0.8;" x="72" xlink:href="#m747f2ae186" y="87.314401"/>
      </g>
     </g>
     <g id="text_12">
      <!-- 1.0 -->
      <g style="fill:#555555;" transform="translate(49.096875 91.11362)scale(0.1 -0.1)">
       <use xlink:href="#DejaVuSans-31"/>
       <use x="63.623047" xlink:href="#DejaVuSans-2e"/>
       <use x="95.410156" xlink:href="#DejaVuSans-30"/>
      </g>
     </g>
    </g>
    <g id="ytick_6">
     <g id="line2d_23">
      <path clip-path="url(#p120ff7fc4e)" d="M 72 50.723187 
L 518.4 50.723187 
" style="fill:none;stroke:#ffffff;stroke-linecap:square;stroke-width:0.8;"/>
     </g>
     <g id="line2d_24">
      <g>
       <use style="fill:#555555;stroke:#555555;stroke-width:0.8;" x="72" xlink:href="#m747f2ae186" y="50.723187"/>
      </g>
     </g>
     <g id="text_13">
      <!-- 1.2 -->
      <g style="fill:#555555;" transform="translate(49.096875 54.522406)scale(0.1 -0.1)">
       <use xlink:href="#DejaVuSans-31"/>
       <use x="63.623047" xlink:href="#DejaVuSans-2e"/>
       <use x="95.410156" xlink:href="#DejaVuSans-32"/>
      </g>
     </g>
    </g>
    <g id="text_14">
     <!-- Error -->
     <g style="fill:#555555;" transform="translate(42.60125 157.902187)rotate(-90)scale(0.12 -0.12)">
      <use xlink:href="#DejaVuSans-45"/>
      <use x="63.183594" xlink:href="#DejaVuSans-72"/>
      <use x="102.546875" xlink:href="#DejaVuSans-72"/>
      <use x="141.410156" xlink:href="#DejaVuSans-6f"/>
      <use x="202.591797" xlink:href="#DejaVuSans-72"/>
     </g>
    </g>
   </g>
   <g id="line2d_25">
    <path clip-path="url(#p120ff7fc4e)" d="M 92.290909 45.284915 
L 96.390083 65.977506 
L 100.489256 80.328116 
L 104.58843 92.040639 
L 108.687603 99.450034 
L 112.786777 105.33377 
L 116.88595 112.321098 
L 120.985124 116.04246 
L 125.084298 119.531829 
L 129.183471 123.410694 
L 133.282645 126.256373 
L 137.381818 130.146501 
L 141.480992 131.959447 
L 145.580165 134.655485 
L 149.679339 134.318134 
L 153.778512 138.928761 
L 157.877686 140.183828 
L 161.97686 140.307818 
L 166.076033 142.420705 
L 170.175207 142.347296 
L 174.27438 145.231069 
L 178.373554 146.097522 
L 182.472727 147.332539 
L 186.571901 148.135393 
L 190.671074 148.519714 
L 194.770248 150.036571 
L 198.869421 149.294739 
L 202.968595 149.667943 
L 207.067769 151.061134 
L 211.166942 151.868831 
L 215.266116 152.039998 
L 219.365289 153.068406 
L 223.464463 154.234627 
L 227.563636 153.457608 
L 231.66281 153.771237 
L 235.761983 154.628471 
L 239.861157 155.251384 
L 243.960331 155.325683 
L 248.059504 156.121427 
L 252.158678 155.706819 
L 256.257851 156.801298 
L 260.357025 156.403381 
L 264.456198 155.330542 
L 268.555372 157.908621 
L 272.654545 158.0139 
L 276.753719 157.626458 
L 280.852893 158.046011 
L 284.952066 159.060973 
L 289.05124 159.042038 
L 293.150413 159.0948 
L 297.249587 160.345747 
L 301.34876 160.224916 
L 305.447934 160.774369 
L 309.547107 160.38843 
L 313.646281 161.959317 
L 317.745455 161.516826 
L 321.844628 161.621833 
L 325.943802 161.579649 
L 330.042975 161.632259 
L 334.142149 162.498807 
L 338.241322 161.295242 
L 342.340496 163.190372 
L 346.439669 161.716565 
L 350.538843 162.617381 
L 354.638017 162.133959 
L 358.73719 163.205503 
L 362.836364 164.082906 
L 366.935537 164.025812 
L 371.034711 163.639887 
L 375.133884 163.000662 
L 379.233058 163.248076 
L 383.332231 164.384933 
L 387.431405 164.567128 
L 391.530579 164.076073 
L 395.629752 163.649175 
L 399.728926 164.974255 
L 403.828099 164.686396 
L 407.927273 165.048234 
L 412.026446 165.075003 
L 416.12562 165.738059 
L 420.224793 165.065043 
L 424.323967 163.992724 
L 428.42314 165.473432 
L 432.522314 166.145141 
L 436.621488 164.660344 
L 440.720661 165.749191 
L 444.819835 165.740211 
L 448.919008 165.720025 
L 453.018182 166.292458 
L 457.117355 164.475114 
L 461.216529 166.759831 
L 465.315702 166.813821 
L 469.414876 167.228827 
L 473.51405 165.236352 
L 477.613223 167.100876 
L 481.712397 166.514279 
L 485.81157 167.171088 
L 489.910744 166.00634 
L 494.009917 167.182799 
L 498.109091 166.9895 
" style="fill:none;stroke:#e24a33;stroke-linecap:square;stroke-width:1.5;"/>
   </g>
   <g id="line2d_26">
    <path clip-path="url(#p120ff7fc4e)" d="M 92.290909 76.499808 
L 96.390083 106.878319 
L 100.489256 125.987538 
L 104.58843 135.436087 
L 108.687603 144.550067 
L 112.786777 152.073246 
L 116.88595 156.403053 
L 120.985124 159.152701 
L 125.084298 162.64374 
L 129.183471 167.787046 
L 133.282645 170.007382 
L 137.381818 170.673556 
L 141.480992 173.014431 
L 145.580165 175.07365 
L 149.679339 176.451952 
L 153.778512 178.847049 
L 157.877686 179.429333 
L 161.97686 182.100182 
L 166.076033 180.89 
L 170.175207 181.663869 
L 174.27438 183.789722 
L 178.373554 186.015215 
L 182.472727 185.173751 
L 186.571901 186.088343 
L 190.671074 186.949392 
L 194.770248 187.093214 
L 198.869421 188.657613 
L 202.968595 189.425084 
L 207.067769 190.38085 
L 211.166942 189.872766 
L 215.266116 190.785121 
L 219.365289 188.253464 
L 223.464463 193.308891 
L 227.563636 193.155832 
L 231.66281 192.633976 
L 235.761983 193.366404 
L 239.861157 193.512625 
L 243.960331 194.291326 
L 248.059504 195.288638 
L 252.158678 194.68563 
L 256.257851 195.829051 
L 260.357025 195.175778 
L 264.456198 196.581658 
L 268.555372 196.066546 
L 272.654545 196.464363 
L 276.753719 196.715198 
L 280.852893 197.403726 
L 284.952066 198.746501 
L 289.05124 199.093363 
L 293.150413 199.649186 
L 297.249587 199.425649 
L 301.34876 199.8644 
L 305.447934 200.714241 
L 309.547107 200.512517 
L 313.646281 200.052131 
L 317.745455 200.555893 
L 321.844628 201.000584 
L 325.943802 201.412801 
L 330.042975 200.880291 
L 334.142149 202.286202 
L 338.241322 202.874221 
L 342.340496 202.633046 
L 346.439669 202.325901 
L 350.538843 203.331077 
L 354.638017 203.136176 
L 358.73719 201.498677 
L 362.836364 202.600147 
L 366.935537 203.843009 
L 371.034711 204.164239 
L 375.133884 204.087195 
L 379.233058 202.471337 
L 383.332231 204.093412 
L 387.431405 204.771416 
L 391.530579 204.701079 
L 395.629752 204.651888 
L 399.728926 205.230146 
L 403.828099 203.442007 
L 407.927273 204.984685 
L 412.026446 206.077117 
L 416.12562 206.9311 
L 420.224793 205.810738 
L 424.323967 204.28281 
L 428.42314 207.079564 
L 432.522314 206.151305 
L 436.621488 206.563647 
L 440.720661 206.29169 
L 444.819835 208.053101 
L 448.919008 208.632645 
L 453.018182 207.830763 
L 457.117355 207.300895 
L 461.216529 208.255122 
L 465.315702 206.939939 
L 469.414876 206.867549 
L 473.51405 207.164126 
L 477.613223 207.574188 
L 481.712397 209.20424 
L 485.81157 208.702777 
L 489.910744 207.492353 
L 494.009917 207.829673 
L 498.109091 208.591378 
" style="fill:none;stroke:#348abd;stroke-linecap:square;stroke-width:1.5;"/>
   </g>
   <g id="line2d_27">
    <path clip-path="url(#p120ff7fc4e)" d="M 92.290909 104.526664 
L 96.390083 142.275159 
L 100.489256 159.582112 
L 104.58843 168.906397 
L 108.687603 178.070661 
L 112.786777 182.214948 
L 116.88595 185.46936 
L 120.985124 189.609083 
L 125.084298 194.285055 
L 129.183471 195.688072 
L 133.282645 199.469642 
L 137.381818 200.495595 
L 141.480992 200.622349 
L 145.580165 202.120529 
L 149.679339 204.244583 
L 153.778512 205.973686 
L 157.877686 205.099075 
L 161.97686 209.454309 
L 166.076033 210.869809 
L 170.175207 211.540608 
L 174.27438 212.723746 
L 178.373554 213.567708 
L 182.472727 213.935667 
L 186.571901 214.872587 
L 190.671074 215.314803 
L 194.770248 216.328046 
L 198.869421 217.376232 
L 202.968595 218.796652 
L 207.067769 218.926776 
L 211.166942 218.509374 
L 215.266116 220.063654 
L 219.365289 220.516479 
L 223.464463 221.662262 
L 227.563636 222.39774 
L 231.66281 221.915808 
L 235.761983 221.374928 
L 239.861157 222.797483 
L 243.960331 223.074544 
L 248.059504 223.4549 
L 252.158678 224.792239 
L 256.257851 226.24473 
L 260.357025 225.053947 
L 264.456198 226.149928 
L 268.555372 225.970254 
L 272.654545 226.591725 
L 276.753719 227.408427 
L 280.852893 225.666028 
L 284.952066 227.917732 
L 289.05124 229.37165 
L 293.150413 229.875999 
L 297.249587 229.728642 
L 301.34876 230.03002 
L 305.447934 229.364101 
L 309.547107 228.397644 
L 313.646281 231.136928 
L 317.745455 231.997263 
L 321.844628 231.191704 
L 325.943802 232.156946 
L 330.042975 232.938436 
L 334.142149 230.870789 
L 338.241322 232.981257 
L 342.340496 233.098769 
L 346.439669 233.238971 
L 350.538843 231.389875 
L 354.638017 234.593974 
L 358.73719 231.467378 
L 362.836364 234.876955 
L 366.935537 234.016591 
L 371.034711 235.605601 
L 375.133884 234.639378 
L 379.233058 234.987778 
L 383.332231 236.985254 
L 387.431405 234.394599 
L 391.530579 236.496987 
L 395.629752 237.17863 
L 399.728926 236.570993 
L 403.828099 236.897466 
L 407.927273 236.138082 
L 412.026446 237.025038 
L 416.12562 238.328517 
L 420.224793 238.146434 
L 424.323967 237.907096 
L 428.42314 236.260626 
L 432.522314 238.656299 
L 436.621488 238.73674 
L 440.720661 239.106235 
L 444.819835 237.098692 
L 448.919008 239.458309 
L 453.018182 238.928894 
L 457.117355 238.369005 
L 461.216529 239.60149 
L 465.315702 238.949971 
L 469.414876 240.282535 
L 473.51405 239.777082 
L 477.613223 239.522526 
L 481.712397 238.186972 
L 485.81157 241.613263 
L 489.910744 242.116364 
L 494.009917 239.742998 
L 498.109091 241.230087 
" style="fill:none;stroke:#988ed5;stroke-linecap:square;stroke-width:1.5;"/>
   </g>
   <g id="line2d_28">
    <path clip-path="url(#p120ff7fc4e)" d="M 92.290909 44.443636 
L 96.390083 63.565864 
L 100.489256 76.920306 
L 104.58843 87.770682 
L 108.687603 94.156191 
L 112.786777 100.007357 
L 116.88595 105.701612 
L 120.985124 109.286315 
L 125.084298 111.698406 
L 129.183471 115.434077 
L 133.282645 117.26782 
L 137.381818 121.190796 
L 141.480992 122.766835 
L 145.580165 123.990318 
L 149.679339 123.945354 
L 153.778512 127.801998 
L 157.877686 129.036683 
L 161.97686 128.654325 
L 166.076033 129.747483 
L 170.175207 130.074848 
L 174.27438 132.102757 
L 178.373554 132.657867 
L 182.472727 134.210583 
L 186.571901 134.863262 
L 190.671074 134.083373 
L 194.770248 135.425733 
L 198.869421 134.927273 
L 202.968595 135.24286 
L 207.067769 135.347369 
L 211.166942 136.625826 
L 215.266116 136.100323 
L 219.365289 137.351083 
L 223.464463 138.4089 
L 227.563636 137.584847 
L 231.66281 137.491094 
L 235.761983 138.199463 
L 239.861157 138.587179 
L 243.960331 137.85137 
L 248.059504 138.569693 
L 252.158678 138.253244 
L 256.257851 138.998697 
L 260.357025 137.955747 
L 264.456198 137.278178 
L 268.555372 139.843952 
L 272.654545 139.085714 
L 276.753719 138.044618 
L 280.852893 138.043395 
L 284.952066 139.883591 
L 289.05124 138.693225 
L 293.150413 138.688074 
L 297.249587 139.916169 
L 301.34876 139.983109 
L 305.447934 140.140122 
L 309.547107 139.339142 
L 313.646281 141.068473 
L 317.745455 139.773534 
L 321.844628 139.851566 
L 325.943802 139.66053 
L 330.042975 139.46553 
L 334.142149 140.168137 
L 338.241322 138.976184 
L 342.340496 140.734111 
L 346.439669 138.537714 
L 350.538843 139.816498 
L 354.638017 139.635446 
L 358.73719 140.784849 
L 362.836364 140.635593 
L 366.935537 140.243539 
L 371.034711 140.020521 
L 375.133884 138.908965 
L 379.233058 139.001596 
L 383.332231 139.706836 
L 387.431405 140.272292 
L 391.530579 139.553457 
L 395.629752 138.821854 
L 399.728926 140.135196 
L 403.828099 139.002577 
L 407.927273 139.836761 
L 412.026446 139.618978 
L 416.12562 140.782208 
L 420.224793 139.025166 
L 424.323967 138.749662 
L 428.42314 139.019955 
L 432.522314 139.949168 
L 436.621488 138.591335 
L 440.720661 139.080437 
L 444.819835 138.955566 
L 448.919008 138.963441 
L 453.018182 139.155978 
L 457.117355 136.889256 
L 461.216529 139.448732 
L 465.315702 139.717627 
L 469.414876 139.391961 
L 473.51405 137.620323 
L 477.613223 139.304126 
L 481.712397 138.418685 
L 485.81157 139.212491 
L 489.910744 137.797883 
L 494.009917 138.800009 
L 498.109091 139.062582 
" style="fill:none;stroke:#777777;stroke-dasharray:5.55,2.4;stroke-dashoffset:0;stroke-width:1.5;"/>
   </g>
   <g id="line2d_29">
    <path clip-path="url(#p120ff7fc4e)" d="M 92.290909 74.250227 
L 96.390083 102.195704 
L 100.489256 119.970846 
L 104.58843 128.207775 
L 108.687603 135.915795 
L 112.786777 141.820382 
L 116.88595 145.018658 
L 120.985124 146.279336 
L 125.084298 149.38731 
L 129.183471 152.996265 
L 133.282645 155.012432 
L 137.381818 154.657146 
L 141.480992 156.970418 
L 145.580165 157.662446 
L 149.679339 157.27028 
L 153.778512 159.731516 
L 157.877686 158.78263 
L 161.97686 161.200754 
L 166.076033 158.99508 
L 170.175207 159.550455 
L 174.27438 160.188492 
L 178.373554 162.512609 
L 182.472727 161.033391 
L 186.571901 161.238688 
L 190.671074 161.569452 
L 194.770248 161.115769 
L 198.869421 161.983741 
L 202.968595 162.050316 
L 207.067769 161.803272 
L 211.166942 160.913753 
L 215.266116 160.875822 
L 219.365289 158.62904 
L 223.464463 162.334388 
L 227.563636 161.547083 
L 231.66281 160.608647 
L 235.761983 160.936883 
L 239.861157 160.007659 
L 243.960331 160.221863 
L 248.059504 160.632716 
L 252.158678 159.846171 
L 256.257851 160.064263 
L 260.357025 159.258945 
L 264.456198 160.561746 
L 268.555372 159.793218 
L 272.654545 158.763689 
L 276.753719 158.92115 
L 280.852893 159.161916 
L 284.952066 159.477636 
L 289.05124 158.720218 
L 293.150413 160.111463 
L 297.249587 159.661668 
L 301.34876 159.025281 
L 305.447934 159.587559 
L 309.547107 158.897467 
L 313.646281 157.814248 
L 317.745455 158.085748 
L 321.844628 158.319181 
L 325.943802 157.058284 
L 330.042975 157.043647 
L 334.142149 158.033741 
L 338.241322 157.444962 
L 342.340496 156.657674 
L 346.439669 156.622317 
L 350.538843 157.269866 
L 354.638017 156.86075 
L 358.73719 154.725521 
L 362.836364 155.013347 
L 366.935537 155.449654 
L 371.034711 155.19635 
L 375.133884 155.209788 
L 379.233058 153.255228 
L 383.332231 154.555627 
L 387.431405 153.926538 
L 391.530579 153.073142 
L 395.629752 153.282771 
L 399.728926 153.08388 
L 403.828099 151.659601 
L 407.927273 151.766624 
L 412.026446 152.533565 
L 416.12562 153.340167 
L 420.224793 151.776021 
L 424.323967 149.425814 
L 428.42314 152.795858 
L 432.522314 150.735193 
L 436.621488 150.980055 
L 440.720661 150.52418 
L 444.819835 151.41895 
L 448.919008 151.157243 
L 453.018182 151.415713 
L 457.117355 149.356493 
L 461.216529 149.791818 
L 465.315702 148.010201 
L 469.414876 147.74945 
L 473.51405 147.933188 
L 477.613223 147.958972 
L 481.712397 149.159695 
L 485.81157 148.180211 
L 489.910744 147.120545 
L 494.009917 145.969629 
L 498.109091 146.09716 
" style="fill:none;stroke:#fbc15e;stroke-dasharray:5.55,2.4;stroke-dashoffset:0;stroke-width:1.5;"/>
   </g>
   <g id="line2d_30">
    <path clip-path="url(#p120ff7fc4e)" d="M 92.290909 101.545266 
L 96.390083 135.381434 
L 100.489256 149.97882 
L 104.58843 157.292165 
L 108.687603 164.026712 
L 112.786777 166.272562 
L 116.88595 167.724499 
L 120.985124 169.450568 
L 125.084298 172.033253 
L 129.183471 171.347585 
L 133.282645 173.27814 
L 137.381818 171.76125 
L 141.480992 170.420267 
L 145.580165 170.038761 
L 149.679339 171.147241 
L 153.778512 171.313795 
L 157.877686 168.399685 
L 161.97686 171.819135 
L 166.076033 170.980336 
L 170.175207 170.152731 
L 174.27438 169.890227 
L 178.373554 169.940114 
L 182.472727 167.308777 
L 186.571901 166.984723 
L 190.671074 167.197821 
L 194.770248 164.360502 
L 198.869421 165.352307 
L 202.968595 164.760809 
L 207.067769 163.662213 
L 211.166942 161.455292 
L 215.266116 161.902075 
L 219.365289 159.407702 
L 223.464463 160.482286 
L 227.563636 159.820122 
L 231.66281 158.643661 
L 235.761983 155.480809 
L 239.861157 156.458852 
L 243.960331 154.60409 
L 248.059504 154.354353 
L 252.158678 153.937937 
L 256.257851 154.647289 
L 260.357025 151.244893 
L 264.456198 150.617539 
L 268.555372 148.731741 
L 272.654545 148.687422 
L 276.753719 147.687048 
L 280.852893 145.346213 
L 284.952066 144.969601 
L 289.05124 144.954185 
L 293.150413 144.855326 
L 297.249587 142.524834 
L 301.34876 141.882584 
L 305.447934 138.898745 
L 309.547107 137.128103 
L 313.646281 140.497907 
L 317.745455 139.001471 
L 321.844628 136.440118 
L 325.943802 135.839986 
L 330.042975 135.25575 
L 334.142149 132.325836 
L 338.241322 133.156635 
L 342.340496 131.097485 
L 346.439669 129.937422 
L 350.538843 127.177166 
L 354.638017 131.034062 
L 358.73719 125.733845 
L 362.836364 126.532115 
L 366.935537 125.882443 
L 371.034711 123.703598 
L 375.133884 122.39552 
L 379.233058 121.062686 
L 383.332231 122.937173 
L 387.431405 117.608161 
L 391.530579 121.118044 
L 395.629752 118.789487 
L 399.728926 117.378853 
L 403.828099 116.043018 
L 407.927273 113.574263 
L 412.026446 113.972519 
L 416.12562 112.005671 
L 420.224793 112.908932 
L 424.323967 111.658806 
L 428.42314 105.724575 
L 432.522314 107.953802 
L 436.621488 106.370097 
L 440.720661 105.71031 
L 444.819835 103.254936 
L 448.919008 103.129208 
L 453.018182 101.090219 
L 457.117355 100.540009 
L 461.216529 97.240516 
L 465.315702 99.686735 
L 469.414876 98.83419 
L 473.51405 96.075738 
L 477.613223 94.659122 
L 481.712397 89.456592 
L 485.81157 94.087963 
L 489.910744 93.852773 
L 494.009917 89.692278 
L 498.109091 87.514852 
" style="fill:none;stroke:#8eba42;stroke-dasharray:5.55,2.4;stroke-dashoffset:0;stroke-width:1.5;"/>
   </g>
   <g id="patch_3">
    <path d="M 72 252 
L 72 34.56 
" style="fill:none;stroke:#ffffff;stroke-linecap:square;stroke-linejoin:miter;"/>
   </g>
   <g id="patch_4">
    <path d="M 518.4 252 
L 518.4 34.56 
" style="fill:none;stroke:#ffffff;stroke-linecap:square;stroke-linejoin:miter;"/>
   </g>
   <g id="patch_5">
    <path d="M 72 252 
L 518.4 252 
" style="fill:none;stroke:#ffffff;stroke-linecap:square;stroke-linejoin:miter;"/>
   </g>
   <g id="patch_6">
    <path d="M 72 34.56 
L 518.4 34.56 
" style="fill:none;stroke:#ffffff;stroke-linecap:square;stroke-linejoin:miter;"/>
   </g>
   <g id="legend_1">
    <g id="patch_7">
     <path d="M 239.997656 130.62875 
L 350.402344 130.62875 
Q 352.402344 130.62875 352.402344 128.62875 
L 352.402344 41.56 
Q 352.402344 39.56 350.402344 39.56 
L 239.997656 39.56 
Q 237.997656 39.56 237.997656 41.56 
L 237.997656 128.62875 
Q 237.997656 130.62875 239.997656 130.62875 
z
" style="fill:#e5e5e5;opacity:0.8;stroke:#cccccc;stroke-linejoin:miter;stroke-width:0.5;"/>
    </g>
    <g id="line2d_31">
     <path d="M 241.997656 47.658437 
L 261.997656 47.658437 
" style="fill:none;stroke:#e24a33;stroke-linecap:square;stroke-width:1.5;"/>
    </g>
    <g id="line2d_32"/>
    <g id="text_15">
     <!-- width32(train) -->
     <g transform="translate(269.997656 51.158437)scale(0.1 -0.1)">
      <defs>
       <path d="M 269 3500 
L 844 3500 
L 1563 769 
L 2278 3500 
L 2956 3500 
L 3675 769 
L 4391 3500 
L 4966 3500 
L 4050 0 
L 3372 0 
L 2619 2869 
L 1863 0 
L 1184 0 
L 269 3500 
z
" id="DejaVuSans-77" transform="scale(0.015625)"/>
       <path d="M 603 3500 
L 1178 3500 
L 1178 0 
L 603 0 
L 603 3500 
z
M 603 4863 
L 1178 4863 
L 1178 4134 
L 603 4134 
L 603 4863 
z
" id="DejaVuSans-69" transform="scale(0.015625)"/>
       <path d="M 2906 2969 
L 2906 4863 
L 3481 4863 
L 3481 0 
L 2906 0 
L 2906 525 
Q 2725 213 2448 61 
Q 2172 -91 1784 -91 
Q 1150 -91 751 415 
Q 353 922 353 1747 
Q 353 2572 751 3078 
Q 1150 3584 1784 3584 
Q 2172 3584 2448 3432 
Q 2725 3281 2906 2969 
z
M 947 1747 
Q 947 1113 1208 752 
Q 1469 391 1925 391 
Q 2381 391 2643 752 
Q 2906 1113 2906 1747 
Q 2906 2381 2643 2742 
Q 2381 3103 1925 3103 
Q 1469 3103 1208 2742 
Q 947 2381 947 1747 
z
" id="DejaVuSans-64" transform="scale(0.015625)"/>
       <path d="M 1172 4494 
L 1172 3500 
L 2356 3500 
L 2356 3053 
L 1172 3053 
L 1172 1153 
Q 1172 725 1289 603 
Q 1406 481 1766 481 
L 2356 481 
L 2356 0 
L 1766 0 
Q 1100 0 847 248 
Q 594 497 594 1153 
L 594 3053 
L 172 3053 
L 172 3500 
L 594 3500 
L 594 4494 
L 1172 4494 
z
" id="DejaVuSans-74" transform="scale(0.015625)"/>
       <path d="M 2597 2516 
Q 3050 2419 3304 2112 
Q 3559 1806 3559 1356 
Q 3559 666 3084 287 
Q 2609 -91 1734 -91 
Q 1441 -91 1130 -33 
Q 819 25 488 141 
L 488 750 
Q 750 597 1062 519 
Q 1375 441 1716 441 
Q 2309 441 2620 675 
Q 2931 909 2931 1356 
Q 2931 1769 2642 2001 
Q 2353 2234 1838 2234 
L 1294 2234 
L 1294 2753 
L 1863 2753 
Q 2328 2753 2575 2939 
Q 2822 3125 2822 3475 
Q 2822 3834 2567 4026 
Q 2313 4219 1838 4219 
Q 1578 4219 1281 4162 
Q 984 4106 628 3988 
L 628 4550 
Q 988 4650 1302 4700 
Q 1616 4750 1894 4750 
Q 2613 4750 3031 4423 
Q 3450 4097 3450 3541 
Q 3450 3153 3228 2886 
Q 3006 2619 2597 2516 
z
" id="DejaVuSans-33" transform="scale(0.015625)"/>
       <path d="M 1984 4856 
Q 1566 4138 1362 3434 
Q 1159 2731 1159 2009 
Q 1159 1288 1364 580 
Q 1569 -128 1984 -844 
L 1484 -844 
Q 1016 -109 783 600 
Q 550 1309 550 2009 
Q 550 2706 781 3412 
Q 1013 4119 1484 4856 
L 1984 4856 
z
" id="DejaVuSans-28" transform="scale(0.015625)"/>
       <path d="M 2194 1759 
Q 1497 1759 1228 1600 
Q 959 1441 959 1056 
Q 959 750 1161 570 
Q 1363 391 1709 391 
Q 2188 391 2477 730 
Q 2766 1069 2766 1631 
L 2766 1759 
L 2194 1759 
z
M 3341 1997 
L 3341 0 
L 2766 0 
L 2766 531 
Q 2569 213 2275 61 
Q 1981 -91 1556 -91 
Q 1019 -91 701 211 
Q 384 513 384 1019 
Q 384 1609 779 1909 
Q 1175 2209 1959 2209 
L 2766 2209 
L 2766 2266 
Q 2766 2663 2505 2880 
Q 2244 3097 1772 3097 
Q 1472 3097 1187 3025 
Q 903 2953 641 2809 
L 641 3341 
Q 956 3463 1253 3523 
Q 1550 3584 1831 3584 
Q 2591 3584 2966 3190 
Q 3341 2797 3341 1997 
z
" id="DejaVuSans-61" transform="scale(0.015625)"/>
       <path d="M 513 4856 
L 1013 4856 
Q 1481 4119 1714 3412 
Q 1947 2706 1947 2009 
Q 1947 1309 1714 600 
Q 1481 -109 1013 -844 
L 513 -844 
Q 928 -128 1133 580 
Q 1338 1288 1338 2009 
Q 1338 2731 1133 3434 
Q 928 4138 513 4856 
z
" id="DejaVuSans-29" transform="scale(0.015625)"/>
      </defs>
      <use xlink:href="#DejaVuSans-77"/>
      <use x="81.787109" xlink:href="#DejaVuSans-69"/>
      <use x="109.570312" xlink:href="#DejaVuSans-64"/>
      <use x="173.046875" xlink:href="#DejaVuSans-74"/>
      <use x="212.255859" xlink:href="#DejaVuSans-68"/>
      <use x="275.634766" xlink:href="#DejaVuSans-33"/>
      <use x="339.257812" xlink:href="#DejaVuSans-32"/>
      <use x="402.880859" xlink:href="#DejaVuSans-28"/>
      <use x="441.894531" xlink:href="#DejaVuSans-74"/>
      <use x="481.103516" xlink:href="#DejaVuSans-72"/>
      <use x="522.216797" xlink:href="#DejaVuSans-61"/>
      <use x="583.496094" xlink:href="#DejaVuSans-69"/>
      <use x="611.279297" xlink:href="#DejaVuSans-6e"/>
      <use x="674.658203" xlink:href="#DejaVuSans-29"/>
     </g>
    </g>
    <g id="line2d_33">
     <path d="M 241.997656 62.336562 
L 261.997656 62.336562 
" style="fill:none;stroke:#348abd;stroke-linecap:square;stroke-width:1.5;"/>
    </g>
    <g id="line2d_34"/>
    <g id="text_16">
     <!-- width64(train) -->
     <g transform="translate(269.997656 65.836562)scale(0.1 -0.1)">
      <use xlink:href="#DejaVuSans-77"/>
      <use x="81.787109" xlink:href="#DejaVuSans-69"/>
      <use x="109.570312" xlink:href="#DejaVuSans-64"/>
      <use x="173.046875" xlink:href="#DejaVuSans-74"/>
      <use x="212.255859" xlink:href="#DejaVuSans-68"/>
      <use x="275.634766" xlink:href="#DejaVuSans-36"/>
      <use x="339.257812" xlink:href="#DejaVuSans-34"/>
      <use x="402.880859" xlink:href="#DejaVuSans-28"/>
      <use x="441.894531" xlink:href="#DejaVuSans-74"/>
      <use x="481.103516" xlink:href="#DejaVuSans-72"/>
      <use x="522.216797" xlink:href="#DejaVuSans-61"/>
      <use x="583.496094" xlink:href="#DejaVuSans-69"/>
      <use x="611.279297" xlink:href="#DejaVuSans-6e"/>
      <use x="674.658203" xlink:href="#DejaVuSans-29"/>
     </g>
    </g>
    <g id="line2d_35">
     <path d="M 241.997656 77.014687 
L 261.997656 77.014687 
" style="fill:none;stroke:#988ed5;stroke-linecap:square;stroke-width:1.5;"/>
    </g>
    <g id="line2d_36"/>
    <g id="text_17">
     <!-- width128(train) -->
     <g transform="translate(269.997656 80.514687)scale(0.1 -0.1)">
      <use xlink:href="#DejaVuSans-77"/>
      <use x="81.787109" xlink:href="#DejaVuSans-69"/>
      <use x="109.570312" xlink:href="#DejaVuSans-64"/>
      <use x="173.046875" xlink:href="#DejaVuSans-74"/>
      <use x="212.255859" xlink:href="#DejaVuSans-68"/>
      <use x="275.634766" xlink:href="#DejaVuSans-31"/>
      <use x="339.257812" xlink:href="#DejaVuSans-32"/>
      <use x="402.880859" xlink:href="#DejaVuSans-38"/>
      <use x="466.503906" xlink:href="#DejaVuSans-28"/>
      <use x="505.517578" xlink:href="#DejaVuSans-74"/>
      <use x="544.726562" xlink:href="#DejaVuSans-72"/>
      <use x="585.839844" xlink:href="#DejaVuSans-61"/>
      <use x="647.119141" xlink:href="#DejaVuSans-69"/>
      <use x="674.902344" xlink:href="#DejaVuSans-6e"/>
      <use x="738.28125" xlink:href="#DejaVuSans-29"/>
     </g>
    </g>
    <g id="line2d_37">
     <path d="M 241.997656 91.692813 
L 261.997656 91.692813 
" style="fill:none;stroke:#777777;stroke-dasharray:5.55,2.4;stroke-dashoffset:0;stroke-width:1.5;"/>
    </g>
    <g id="line2d_38"/>
    <g id="text_18">
     <!-- width32(valid) -->
     <g transform="translate(269.997656 95.192813)scale(0.1 -0.1)">
      <defs>
       <path d="M 191 3500 
L 800 3500 
L 1894 563 
L 2988 3500 
L 3597 3500 
L 2284 0 
L 1503 0 
L 191 3500 
z
" id="DejaVuSans-76" transform="scale(0.015625)"/>
       <path d="M 603 4863 
L 1178 4863 
L 1178 0 
L 603 0 
L 603 4863 
z
" id="DejaVuSans-6c" transform="scale(0.015625)"/>
      </defs>
      <use xlink:href="#DejaVuSans-77"/>
      <use x="81.787109" xlink:href="#DejaVuSans-69"/>
      <use x="109.570312" xlink:href="#DejaVuSans-64"/>
      <use x="173.046875" xlink:href="#DejaVuSans-74"/>
      <use x="212.255859" xlink:href="#DejaVuSans-68"/>
      <use x="275.634766" xlink:href="#DejaVuSans-33"/>
      <use x="339.257812" xlink:href="#DejaVuSans-32"/>
      <use x="402.880859" xlink:href="#DejaVuSans-28"/>
      <use x="441.894531" xlink:href="#DejaVuSans-76"/>
      <use x="501.074219" xlink:href="#DejaVuSans-61"/>
      <use x="562.353516" xlink:href="#DejaVuSans-6c"/>
      <use x="590.136719" xlink:href="#DejaVuSans-69"/>
      <use x="617.919922" xlink:href="#DejaVuSans-64"/>
      <use x="681.396484" xlink:href="#DejaVuSans-29"/>
     </g>
    </g>
    <g id="line2d_39">
     <path d="M 241.997656 106.370937 
L 261.997656 106.370937 
" style="fill:none;stroke:#fbc15e;stroke-dasharray:5.55,2.4;stroke-dashoffset:0;stroke-width:1.5;"/>
    </g>
    <g id="line2d_40"/>
    <g id="text_19">
     <!-- width64(valid) -->
     <g transform="translate(269.997656 109.870937)scale(0.1 -0.1)">
      <use xlink:href="#DejaVuSans-77"/>
      <use x="81.787109" xlink:href="#DejaVuSans-69"/>
      <use x="109.570312" xlink:href="#DejaVuSans-64"/>
      <use x="173.046875" xlink:href="#DejaVuSans-74"/>
      <use x="212.255859" xlink:href="#DejaVuSans-68"/>
      <use x="275.634766" xlink:href="#DejaVuSans-36"/>
      <use x="339.257812" xlink:href="#DejaVuSans-34"/>
      <use x="402.880859" xlink:href="#DejaVuSans-28"/>
      <use x="441.894531" xlink:href="#DejaVuSans-76"/>
      <use x="501.074219" xlink:href="#DejaVuSans-61"/>
      <use x="562.353516" xlink:href="#DejaVuSans-6c"/>
      <use x="590.136719" xlink:href="#DejaVuSans-69"/>
      <use x="617.919922" xlink:href="#DejaVuSans-64"/>
      <use x="681.396484" xlink:href="#DejaVuSans-29"/>
     </g>
    </g>
    <g id="line2d_41">
     <path d="M 241.997656 121.049062 
L 261.997656 121.049062 
" style="fill:none;stroke:#8eba42;stroke-dasharray:5.55,2.4;stroke-dashoffset:0;stroke-width:1.5;"/>
    </g>
    <g id="line2d_42"/>
    <g id="text_20">
     <!-- width128(valid) -->
     <g transform="translate(269.997656 124.549062)scale(0.1 -0.1)">
      <use xlink:href="#DejaVuSans-77"/>
      <use x="81.787109" xlink:href="#DejaVuSans-69"/>
      <use x="109.570312" xlink:href="#DejaVuSans-64"/>
      <use x="173.046875" xlink:href="#DejaVuSans-74"/>
      <use x="212.255859" xlink:href="#DejaVuSans-68"/>
      <use x="275.634766" xlink:href="#DejaVuSans-31"/>
      <use x="339.257812" xlink:href="#DejaVuSans-32"/>
      <use x="402.880859" xlink:href="#DejaVuSans-38"/>
      <use x="466.503906" xlink:href="#DejaVuSans-28"/>
      <use x="505.517578" xlink:href="#DejaVuSans-76"/>
      <use x="564.697266" xlink:href="#DejaVuSans-61"/>
      <use x="625.976562" xlink:href="#DejaVuSans-6c"/>
      <use x="653.759766" xlink:href="#DejaVuSans-69"/>
      <use x="681.542969" xlink:href="#DejaVuSans-64"/>
      <use x="745.019531" xlink:href="#DejaVuSans-29"/>
     </g>
    </g>
   </g>
  </g>
 </g>
 <defs>
  <clipPath id="p120ff7fc4e">
   <rect height="217.44" width="446.4" x="72" y="34.56"/>
  </clipPath>
 </defs>
</svg>
