<?xml version="1.0" encoding="utf-8" standalone="no"?>
<!DOCTYPE svg PUBLIC "-//W3C//DTD SVG 1.1//EN"
  "http://www.w3.org/Graphics/SVG/1.1/DTD/svg11.dtd">
<svg height="288pt" version="1.1" viewBox="0 0 576 288" width="576pt" xmlns="http://www.w3.org/2000/svg" xmlns:xlink="http://www.w3.org/1999/xlink">
 <metadata>
  <rdf:RDF xmlns:cc="http://creativecommons.org/ns#" xmlns:dc="http://purl.org/dc/elements/1.1/" xmlns:rdf="http://www.w3.org/1999/02/22-rdf-syntax-ns#">
   <cc:Work>
    <dc:type rdf:resource="http://purl.org/dc/dcmitype/StillImage"/>
    <dc:date>2021-11-07T21:51:10.776495</dc:date>
    <dc:format>image/svg+xml</dc:format>
    <dc:creator>
     <cc:Agent>
      <dc:title>Matplotlib v3.4.2, https://matplotlib.org/</dc:title>
     </cc:Agent>
    </dc:creator>
   </cc:Work>
  </rdf:RDF>
 </metadata>
 <defs>
  <style type="text/css">*{stroke-linecap:butt;stroke-linejoin:round;}</style>
 </defs>
 <g id="figure_1">
  <g id="patch_1">
   <path d="M 0 288 
L 576 288 
L 576 0 
L 0 0 
z
" style="fill:#ffffff;"/>
  </g>
  <g id="axes_1">
   <g id="patch_2">
    <path d="M 72 252 
L 518.4 252 
L 518.4 34.56 
L 72 34.56 
z
" style="fill:#e5e5e5;"/>
   </g>
   <g id="matplotlib.axis_1">
    <g id="xtick_1">
     <g id="line2d_1">
      <path clip-path="url(#p63bfeb7e4a)" d="M 88.191736 252 
L 88.191736 34.56 
" style="fill:none;stroke:#ffffff;stroke-linecap:square;stroke-width:0.8;"/>
     </g>
     <g id="line2d_2">
      <defs>
       <path d="M 0 0 
L 0 3.5 
" id="mc801cdea26" style="stroke:#555555;stroke-width:0.8;"/>
      </defs>
      <g>
       <use style="fill:#555555;stroke:#555555;stroke-width:0.8;" x="88.191736" xlink:href="#mc801cdea26" y="252"/>
      </g>
     </g>
     <g id="text_1">
      <!-- 0 -->
      <g style="fill:#555555;" transform="translate(85.010486 266.598437)scale(0.1 -0.1)">
       <defs>
        <path d="M 2034 4250 
Q 1547 4250 1301 3770 
Q 1056 3291 1056 2328 
Q 1056 1369 1301 889 
Q 1547 409 2034 409 
Q 2525 409 2770 889 
Q 3016 1369 3016 2328 
Q 3016 3291 2770 3770 
Q 2525 4250 2034 4250 
z
M 2034 4750 
Q 2819 4750 3233 4129 
Q 3647 3509 3647 2328 
Q 3647 1150 3233 529 
Q 2819 -91 2034 -91 
Q 1250 -91 836 529 
Q 422 1150 422 2328 
Q 422 3509 836 4129 
Q 1250 4750 2034 4750 
z
" id="DejaVuSans-30" transform="scale(0.015625)"/>
       </defs>
       <use xlink:href="#DejaVuSans-30"/>
      </g>
     </g>
    </g>
    <g id="xtick_2">
     <g id="line2d_3">
      <path clip-path="url(#p63bfeb7e4a)" d="M 170.175207 252 
L 170.175207 34.56 
" style="fill:none;stroke:#ffffff;stroke-linecap:square;stroke-width:0.8;"/>
     </g>
     <g id="line2d_4">
      <g>
       <use style="fill:#555555;stroke:#555555;stroke-width:0.8;" x="170.175207" xlink:href="#mc801cdea26" y="252"/>
      </g>
     </g>
     <g id="text_2">
      <!-- 20 -->
      <g style="fill:#555555;" transform="translate(163.812707 266.598437)scale(0.1 -0.1)">
       <defs>
        <path d="M 1228 531 
L 3431 531 
L 3431 0 
L 469 0 
L 469 531 
Q 828 903 1448 1529 
Q 2069 2156 2228 2338 
Q 2531 2678 2651 2914 
Q 2772 3150 2772 3378 
Q 2772 3750 2511 3984 
Q 2250 4219 1831 4219 
Q 1534 4219 1204 4116 
Q 875 4013 500 3803 
L 500 4441 
Q 881 4594 1212 4672 
Q 1544 4750 1819 4750 
Q 2544 4750 2975 4387 
Q 3406 4025 3406 3419 
Q 3406 3131 3298 2873 
Q 3191 2616 2906 2266 
Q 2828 2175 2409 1742 
Q 1991 1309 1228 531 
z
" id="DejaVuSans-32" transform="scale(0.015625)"/>
       </defs>
       <use xlink:href="#DejaVuSans-32"/>
       <use x="63.623047" xlink:href="#DejaVuSans-30"/>
      </g>
     </g>
    </g>
    <g id="xtick_3">
     <g id="line2d_5">
      <path clip-path="url(#p63bfeb7e4a)" d="M 252.158678 252 
L 252.158678 34.56 
" style="fill:none;stroke:#ffffff;stroke-linecap:square;stroke-width:0.8;"/>
     </g>
     <g id="line2d_6">
      <g>
       <use style="fill:#555555;stroke:#555555;stroke-width:0.8;" x="252.158678" xlink:href="#mc801cdea26" y="252"/>
      </g>
     </g>
     <g id="text_3">
      <!-- 40 -->
      <g style="fill:#555555;" transform="translate(245.796178 266.598437)scale(0.1 -0.1)">
       <defs>
        <path d="M 2419 4116 
L 825 1625 
L 2419 1625 
L 2419 4116 
z
M 2253 4666 
L 3047 4666 
L 3047 1625 
L 3713 1625 
L 3713 1100 
L 3047 1100 
L 3047 0 
L 2419 0 
L 2419 1100 
L 313 1100 
L 313 1709 
L 2253 4666 
z
" id="DejaVuSans-34" transform="scale(0.015625)"/>
       </defs>
       <use xlink:href="#DejaVuSans-34"/>
       <use x="63.623047" xlink:href="#DejaVuSans-30"/>
      </g>
     </g>
    </g>
    <g id="xtick_4">
     <g id="line2d_7">
      <path clip-path="url(#p63bfeb7e4a)" d="M 334.142149 252 
L 334.142149 34.56 
" style="fill:none;stroke:#ffffff;stroke-linecap:square;stroke-width:0.8;"/>
     </g>
     <g id="line2d_8">
      <g>
       <use style="fill:#555555;stroke:#555555;stroke-width:0.8;" x="334.142149" xlink:href="#mc801cdea26" y="252"/>
      </g>
     </g>
     <g id="text_4">
      <!-- 60 -->
      <g style="fill:#555555;" transform="translate(327.779649 266.598437)scale(0.1 -0.1)">
       <defs>
        <path d="M 2113 2584 
Q 1688 2584 1439 2293 
Q 1191 2003 1191 1497 
Q 1191 994 1439 701 
Q 1688 409 2113 409 
Q 2538 409 2786 701 
Q 3034 994 3034 1497 
Q 3034 2003 2786 2293 
Q 2538 2584 2113 2584 
z
M 3366 4563 
L 3366 3988 
Q 3128 4100 2886 4159 
Q 2644 4219 2406 4219 
Q 1781 4219 1451 3797 
Q 1122 3375 1075 2522 
Q 1259 2794 1537 2939 
Q 1816 3084 2150 3084 
Q 2853 3084 3261 2657 
Q 3669 2231 3669 1497 
Q 3669 778 3244 343 
Q 2819 -91 2113 -91 
Q 1303 -91 875 529 
Q 447 1150 447 2328 
Q 447 3434 972 4092 
Q 1497 4750 2381 4750 
Q 2619 4750 2861 4703 
Q 3103 4656 3366 4563 
z
" id="DejaVuSans-36" transform="scale(0.015625)"/>
       </defs>
       <use xlink:href="#DejaVuSans-36"/>
       <use x="63.623047" xlink:href="#DejaVuSans-30"/>
      </g>
     </g>
    </g>
    <g id="xtick_5">
     <g id="line2d_9">
      <path clip-path="url(#p63bfeb7e4a)" d="M 416.12562 252 
L 416.12562 34.56 
" style="fill:none;stroke:#ffffff;stroke-linecap:square;stroke-width:0.8;"/>
     </g>
     <g id="line2d_10">
      <g>
       <use style="fill:#555555;stroke:#555555;stroke-width:0.8;" x="416.12562" xlink:href="#mc801cdea26" y="252"/>
      </g>
     </g>
     <g id="text_5">
      <!-- 80 -->
      <g style="fill:#555555;" transform="translate(409.76312 266.598437)scale(0.1 -0.1)">
       <defs>
        <path d="M 2034 2216 
Q 1584 2216 1326 1975 
Q 1069 1734 1069 1313 
Q 1069 891 1326 650 
Q 1584 409 2034 409 
Q 2484 409 2743 651 
Q 3003 894 3003 1313 
Q 3003 1734 2745 1975 
Q 2488 2216 2034 2216 
z
M 1403 2484 
Q 997 2584 770 2862 
Q 544 3141 544 3541 
Q 544 4100 942 4425 
Q 1341 4750 2034 4750 
Q 2731 4750 3128 4425 
Q 3525 4100 3525 3541 
Q 3525 3141 3298 2862 
Q 3072 2584 2669 2484 
Q 3125 2378 3379 2068 
Q 3634 1759 3634 1313 
Q 3634 634 3220 271 
Q 2806 -91 2034 -91 
Q 1263 -91 848 271 
Q 434 634 434 1313 
Q 434 1759 690 2068 
Q 947 2378 1403 2484 
z
M 1172 3481 
Q 1172 3119 1398 2916 
Q 1625 2713 2034 2713 
Q 2441 2713 2670 2916 
Q 2900 3119 2900 3481 
Q 2900 3844 2670 4047 
Q 2441 4250 2034 4250 
Q 1625 4250 1398 4047 
Q 1172 3844 1172 3481 
z
" id="DejaVuSans-38" transform="scale(0.015625)"/>
       </defs>
       <use xlink:href="#DejaVuSans-38"/>
       <use x="63.623047" xlink:href="#DejaVuSans-30"/>
      </g>
     </g>
    </g>
    <g id="xtick_6">
     <g id="line2d_11">
      <path clip-path="url(#p63bfeb7e4a)" d="M 498.109091 252 
L 498.109091 34.56 
" style="fill:none;stroke:#ffffff;stroke-linecap:square;stroke-width:0.8;"/>
     </g>
     <g id="line2d_12">
      <g>
       <use style="fill:#555555;stroke:#555555;stroke-width:0.8;" x="498.109091" xlink:href="#mc801cdea26" y="252"/>
      </g>
     </g>
     <g id="text_6">
      <!-- 100 -->
      <g style="fill:#555555;" transform="translate(488.565341 266.598437)scale(0.1 -0.1)">
       <defs>
        <path d="M 794 531 
L 1825 531 
L 1825 4091 
L 703 3866 
L 703 4441 
L 1819 4666 
L 2450 4666 
L 2450 531 
L 3481 531 
L 3481 0 
L 794 0 
L 794 531 
z
" id="DejaVuSans-31" transform="scale(0.015625)"/>
       </defs>
       <use xlink:href="#DejaVuSans-31"/>
       <use x="63.623047" xlink:href="#DejaVuSans-30"/>
       <use x="127.246094" xlink:href="#DejaVuSans-30"/>
      </g>
     </g>
    </g>
    <g id="text_7">
     <!-- Epoch number -->
     <g style="fill:#555555;" transform="translate(251.503125 281.79625)scale(0.12 -0.12)">
      <defs>
       <path d="M 628 4666 
L 3578 4666 
L 3578 4134 
L 1259 4134 
L 1259 2753 
L 3481 2753 
L 3481 2222 
L 1259 2222 
L 1259 531 
L 3634 531 
L 3634 0 
L 628 0 
L 628 4666 
z
" id="DejaVuSans-45" transform="scale(0.015625)"/>
       <path d="M 1159 525 
L 1159 -1331 
L 581 -1331 
L 581 3500 
L 1159 3500 
L 1159 2969 
Q 1341 3281 1617 3432 
Q 1894 3584 2278 3584 
Q 2916 3584 3314 3078 
Q 3713 2572 3713 1747 
Q 3713 922 3314 415 
Q 2916 -91 2278 -91 
Q 1894 -91 1617 61 
Q 1341 213 1159 525 
z
M 3116 1747 
Q 3116 2381 2855 2742 
Q 2594 3103 2138 3103 
Q 1681 3103 1420 2742 
Q 1159 2381 1159 1747 
Q 1159 1113 1420 752 
Q 1681 391 2138 391 
Q 2594 391 2855 752 
Q 3116 1113 3116 1747 
z
" id="DejaVuSans-70" transform="scale(0.015625)"/>
       <path d="M 1959 3097 
Q 1497 3097 1228 2736 
Q 959 2375 959 1747 
Q 959 1119 1226 758 
Q 1494 397 1959 397 
Q 2419 397 2687 759 
Q 2956 1122 2956 1747 
Q 2956 2369 2687 2733 
Q 2419 3097 1959 3097 
z
M 1959 3584 
Q 2709 3584 3137 3096 
Q 3566 2609 3566 1747 
Q 3566 888 3137 398 
Q 2709 -91 1959 -91 
Q 1206 -91 779 398 
Q 353 888 353 1747 
Q 353 2609 779 3096 
Q 1206 3584 1959 3584 
z
" id="DejaVuSans-6f" transform="scale(0.015625)"/>
       <path d="M 3122 3366 
L 3122 2828 
Q 2878 2963 2633 3030 
Q 2388 3097 2138 3097 
Q 1578 3097 1268 2742 
Q 959 2388 959 1747 
Q 959 1106 1268 751 
Q 1578 397 2138 397 
Q 2388 397 2633 464 
Q 2878 531 3122 666 
L 3122 134 
Q 2881 22 2623 -34 
Q 2366 -91 2075 -91 
Q 1284 -91 818 406 
Q 353 903 353 1747 
Q 353 2603 823 3093 
Q 1294 3584 2113 3584 
Q 2378 3584 2631 3529 
Q 2884 3475 3122 3366 
z
" id="DejaVuSans-63" transform="scale(0.015625)"/>
       <path d="M 3513 2113 
L 3513 0 
L 2938 0 
L 2938 2094 
Q 2938 2591 2744 2837 
Q 2550 3084 2163 3084 
Q 1697 3084 1428 2787 
Q 1159 2491 1159 1978 
L 1159 0 
L 581 0 
L 581 4863 
L 1159 4863 
L 1159 2956 
Q 1366 3272 1645 3428 
Q 1925 3584 2291 3584 
Q 2894 3584 3203 3211 
Q 3513 2838 3513 2113 
z
" id="DejaVuSans-68" transform="scale(0.015625)"/>
       <path id="DejaVuSans-20" transform="scale(0.015625)"/>
       <path d="M 3513 2113 
L 3513 0 
L 2938 0 
L 2938 2094 
Q 2938 2591 2744 2837 
Q 2550 3084 2163 3084 
Q 1697 3084 1428 2787 
Q 1159 2491 1159 1978 
L 1159 0 
L 581 0 
L 581 3500 
L 1159 3500 
L 1159 2956 
Q 1366 3272 1645 3428 
Q 1925 3584 2291 3584 
Q 2894 3584 3203 3211 
Q 3513 2838 3513 2113 
z
" id="DejaVuSans-6e" transform="scale(0.015625)"/>
       <path d="M 544 1381 
L 544 3500 
L 1119 3500 
L 1119 1403 
Q 1119 906 1312 657 
Q 1506 409 1894 409 
Q 2359 409 2629 706 
Q 2900 1003 2900 1516 
L 2900 3500 
L 3475 3500 
L 3475 0 
L 2900 0 
L 2900 538 
Q 2691 219 2414 64 
Q 2138 -91 1772 -91 
Q 1169 -91 856 284 
Q 544 659 544 1381 
z
M 1991 3584 
L 1991 3584 
z
" id="DejaVuSans-75" transform="scale(0.015625)"/>
       <path d="M 3328 2828 
Q 3544 3216 3844 3400 
Q 4144 3584 4550 3584 
Q 5097 3584 5394 3201 
Q 5691 2819 5691 2113 
L 5691 0 
L 5113 0 
L 5113 2094 
Q 5113 2597 4934 2840 
Q 4756 3084 4391 3084 
Q 3944 3084 3684 2787 
Q 3425 2491 3425 1978 
L 3425 0 
L 2847 0 
L 2847 2094 
Q 2847 2600 2669 2842 
Q 2491 3084 2119 3084 
Q 1678 3084 1418 2786 
Q 1159 2488 1159 1978 
L 1159 0 
L 581 0 
L 581 3500 
L 1159 3500 
L 1159 2956 
Q 1356 3278 1631 3431 
Q 1906 3584 2284 3584 
Q 2666 3584 2933 3390 
Q 3200 3197 3328 2828 
z
" id="DejaVuSans-6d" transform="scale(0.015625)"/>
       <path d="M 3116 1747 
Q 3116 2381 2855 2742 
Q 2594 3103 2138 3103 
Q 1681 3103 1420 2742 
Q 1159 2381 1159 1747 
Q 1159 1113 1420 752 
Q 1681 391 2138 391 
Q 2594 391 2855 752 
Q 3116 1113 3116 1747 
z
M 1159 2969 
Q 1341 3281 1617 3432 
Q 1894 3584 2278 3584 
Q 2916 3584 3314 3078 
Q 3713 2572 3713 1747 
Q 3713 922 3314 415 
Q 2916 -91 2278 -91 
Q 1894 -91 1617 61 
Q 1341 213 1159 525 
L 1159 0 
L 581 0 
L 581 4863 
L 1159 4863 
L 1159 2969 
z
" id="DejaVuSans-62" transform="scale(0.015625)"/>
       <path d="M 3597 1894 
L 3597 1613 
L 953 1613 
Q 991 1019 1311 708 
Q 1631 397 2203 397 
Q 2534 397 2845 478 
Q 3156 559 3463 722 
L 3463 178 
Q 3153 47 2828 -22 
Q 2503 -91 2169 -91 
Q 1331 -91 842 396 
Q 353 884 353 1716 
Q 353 2575 817 3079 
Q 1281 3584 2069 3584 
Q 2775 3584 3186 3129 
Q 3597 2675 3597 1894 
z
M 3022 2063 
Q 3016 2534 2758 2815 
Q 2500 3097 2075 3097 
Q 1594 3097 1305 2825 
Q 1016 2553 972 2059 
L 3022 2063 
z
" id="DejaVuSans-65" transform="scale(0.015625)"/>
       <path d="M 2631 2963 
Q 2534 3019 2420 3045 
Q 2306 3072 2169 3072 
Q 1681 3072 1420 2755 
Q 1159 2438 1159 1844 
L 1159 0 
L 581 0 
L 581 3500 
L 1159 3500 
L 1159 2956 
Q 1341 3275 1631 3429 
Q 1922 3584 2338 3584 
Q 2397 3584 2469 3576 
Q 2541 3569 2628 3553 
L 2631 2963 
z
" id="DejaVuSans-72" transform="scale(0.015625)"/>
      </defs>
      <use xlink:href="#DejaVuSans-45"/>
      <use x="63.183594" xlink:href="#DejaVuSans-70"/>
      <use x="126.660156" xlink:href="#DejaVuSans-6f"/>
      <use x="187.841797" xlink:href="#DejaVuSans-63"/>
      <use x="242.822266" xlink:href="#DejaVuSans-68"/>
      <use x="306.201172" xlink:href="#DejaVuSans-20"/>
      <use x="337.988281" xlink:href="#DejaVuSans-6e"/>
      <use x="401.367188" xlink:href="#DejaVuSans-75"/>
      <use x="464.746094" xlink:href="#DejaVuSans-6d"/>
      <use x="562.158203" xlink:href="#DejaVuSans-62"/>
      <use x="625.634766" xlink:href="#DejaVuSans-65"/>
      <use x="687.158203" xlink:href="#DejaVuSans-72"/>
     </g>
    </g>
   </g>
   <g id="matplotlib.axis_2">
    <g id="ytick_1">
     <g id="line2d_13">
      <path clip-path="url(#p63bfeb7e4a)" d="M 72 226.156533 
L 518.4 226.156533 
" style="fill:none;stroke:#ffffff;stroke-linecap:square;stroke-width:0.8;"/>
     </g>
     <g id="line2d_14">
      <defs>
       <path d="M 0 0 
L -3.5 0 
" id="m128e32bd38" style="stroke:#555555;stroke-width:0.8;"/>
      </defs>
      <g>
       <use style="fill:#555555;stroke:#555555;stroke-width:0.8;" x="72" xlink:href="#m128e32bd38" y="226.156533"/>
      </g>
     </g>
     <g id="text_8">
      <!-- 0.75 -->
      <g style="fill:#555555;" transform="translate(42.734375 229.955752)scale(0.1 -0.1)">
       <defs>
        <path d="M 684 794 
L 1344 794 
L 1344 0 
L 684 0 
L 684 794 
z
" id="DejaVuSans-2e" transform="scale(0.015625)"/>
        <path d="M 525 4666 
L 3525 4666 
L 3525 4397 
L 1831 0 
L 1172 0 
L 2766 4134 
L 525 4134 
L 525 4666 
z
" id="DejaVuSans-37" transform="scale(0.015625)"/>
        <path d="M 691 4666 
L 3169 4666 
L 3169 4134 
L 1269 4134 
L 1269 2991 
Q 1406 3038 1543 3061 
Q 1681 3084 1819 3084 
Q 2600 3084 3056 2656 
Q 3513 2228 3513 1497 
Q 3513 744 3044 326 
Q 2575 -91 1722 -91 
Q 1428 -91 1123 -41 
Q 819 9 494 109 
L 494 744 
Q 775 591 1075 516 
Q 1375 441 1709 441 
Q 2250 441 2565 725 
Q 2881 1009 2881 1497 
Q 2881 1984 2565 2268 
Q 2250 2553 1709 2553 
Q 1456 2553 1204 2497 
Q 953 2441 691 2322 
L 691 4666 
z
" id="DejaVuSans-35" transform="scale(0.015625)"/>
       </defs>
       <use xlink:href="#DejaVuSans-30"/>
       <use x="63.623047" xlink:href="#DejaVuSans-2e"/>
       <use x="95.410156" xlink:href="#DejaVuSans-37"/>
       <use x="159.033203" xlink:href="#DejaVuSans-35"/>
      </g>
     </g>
    </g>
    <g id="ytick_2">
     <g id="line2d_15">
      <path clip-path="url(#p63bfeb7e4a)" d="M 72 183.416648 
L 518.4 183.416648 
" style="fill:none;stroke:#ffffff;stroke-linecap:square;stroke-width:0.8;"/>
     </g>
     <g id="line2d_16">
      <g>
       <use style="fill:#555555;stroke:#555555;stroke-width:0.8;" x="72" xlink:href="#m128e32bd38" y="183.416648"/>
      </g>
     </g>
     <g id="text_9">
      <!-- 0.80 -->
      <g style="fill:#555555;" transform="translate(42.734375 187.215866)scale(0.1 -0.1)">
       <use xlink:href="#DejaVuSans-30"/>
       <use x="63.623047" xlink:href="#DejaVuSans-2e"/>
       <use x="95.410156" xlink:href="#DejaVuSans-38"/>
       <use x="159.033203" xlink:href="#DejaVuSans-30"/>
      </g>
     </g>
    </g>
    <g id="ytick_3">
     <g id="line2d_17">
      <path clip-path="url(#p63bfeb7e4a)" d="M 72 140.676762 
L 518.4 140.676762 
" style="fill:none;stroke:#ffffff;stroke-linecap:square;stroke-width:0.8;"/>
     </g>
     <g id="line2d_18">
      <g>
       <use style="fill:#555555;stroke:#555555;stroke-width:0.8;" x="72" xlink:href="#m128e32bd38" y="140.676762"/>
      </g>
     </g>
     <g id="text_10">
      <!-- 0.85 -->
      <g style="fill:#555555;" transform="translate(42.734375 144.475981)scale(0.1 -0.1)">
       <use xlink:href="#DejaVuSans-30"/>
       <use x="63.623047" xlink:href="#DejaVuSans-2e"/>
       <use x="95.410156" xlink:href="#DejaVuSans-38"/>
       <use x="159.033203" xlink:href="#DejaVuSans-35"/>
      </g>
     </g>
    </g>
    <g id="ytick_4">
     <g id="line2d_19">
      <path clip-path="url(#p63bfeb7e4a)" d="M 72 97.936877 
L 518.4 97.936877 
" style="fill:none;stroke:#ffffff;stroke-linecap:square;stroke-width:0.8;"/>
     </g>
     <g id="line2d_20">
      <g>
       <use style="fill:#555555;stroke:#555555;stroke-width:0.8;" x="72" xlink:href="#m128e32bd38" y="97.936877"/>
      </g>
     </g>
     <g id="text_11">
      <!-- 0.90 -->
      <g style="fill:#555555;" transform="translate(42.734375 101.736096)scale(0.1 -0.1)">
       <defs>
        <path d="M 703 97 
L 703 672 
Q 941 559 1184 500 
Q 1428 441 1663 441 
Q 2288 441 2617 861 
Q 2947 1281 2994 2138 
Q 2813 1869 2534 1725 
Q 2256 1581 1919 1581 
Q 1219 1581 811 2004 
Q 403 2428 403 3163 
Q 403 3881 828 4315 
Q 1253 4750 1959 4750 
Q 2769 4750 3195 4129 
Q 3622 3509 3622 2328 
Q 3622 1225 3098 567 
Q 2575 -91 1691 -91 
Q 1453 -91 1209 -44 
Q 966 3 703 97 
z
M 1959 2075 
Q 2384 2075 2632 2365 
Q 2881 2656 2881 3163 
Q 2881 3666 2632 3958 
Q 2384 4250 1959 4250 
Q 1534 4250 1286 3958 
Q 1038 3666 1038 3163 
Q 1038 2656 1286 2365 
Q 1534 2075 1959 2075 
z
" id="DejaVuSans-39" transform="scale(0.015625)"/>
       </defs>
       <use xlink:href="#DejaVuSans-30"/>
       <use x="63.623047" xlink:href="#DejaVuSans-2e"/>
       <use x="95.410156" xlink:href="#DejaVuSans-39"/>
       <use x="159.033203" xlink:href="#DejaVuSans-30"/>
      </g>
     </g>
    </g>
    <g id="ytick_5">
     <g id="line2d_21">
      <path clip-path="url(#p63bfeb7e4a)" d="M 72 55.196992 
L 518.4 55.196992 
" style="fill:none;stroke:#ffffff;stroke-linecap:square;stroke-width:0.8;"/>
     </g>
     <g id="line2d_22">
      <g>
       <use style="fill:#555555;stroke:#555555;stroke-width:0.8;" x="72" xlink:href="#m128e32bd38" y="55.196992"/>
      </g>
     </g>
     <g id="text_12">
      <!-- 0.95 -->
      <g style="fill:#555555;" transform="translate(42.734375 58.99621)scale(0.1 -0.1)">
       <use xlink:href="#DejaVuSans-30"/>
       <use x="63.623047" xlink:href="#DejaVuSans-2e"/>
       <use x="95.410156" xlink:href="#DejaVuSans-39"/>
       <use x="159.033203" xlink:href="#DejaVuSans-35"/>
      </g>
     </g>
    </g>
    <g id="text_13">
     <!-- Accuracy -->
     <g style="fill:#555555;" transform="translate(36.23875 170.67375)rotate(-90)scale(0.12 -0.12)">
      <defs>
       <path d="M 2188 4044 
L 1331 1722 
L 3047 1722 
L 2188 4044 
z
M 1831 4666 
L 2547 4666 
L 4325 0 
L 3669 0 
L 3244 1197 
L 1141 1197 
L 716 0 
L 50 0 
L 1831 4666 
z
" id="DejaVuSans-41" transform="scale(0.015625)"/>
       <path d="M 2194 1759 
Q 1497 1759 1228 1600 
Q 959 1441 959 1056 
Q 959 750 1161 570 
Q 1363 391 1709 391 
Q 2188 391 2477 730 
Q 2766 1069 2766 1631 
L 2766 1759 
L 2194 1759 
z
M 3341 1997 
L 3341 0 
L 2766 0 
L 2766 531 
Q 2569 213 2275 61 
Q 1981 -91 1556 -91 
Q 1019 -91 701 211 
Q 384 513 384 1019 
Q 384 1609 779 1909 
Q 1175 2209 1959 2209 
L 2766 2209 
L 2766 2266 
Q 2766 2663 2505 2880 
Q 2244 3097 1772 3097 
Q 1472 3097 1187 3025 
Q 903 2953 641 2809 
L 641 3341 
Q 956 3463 1253 3523 
Q 1550 3584 1831 3584 
Q 2591 3584 2966 3190 
Q 3341 2797 3341 1997 
z
" id="DejaVuSans-61" transform="scale(0.015625)"/>
       <path d="M 2059 -325 
Q 1816 -950 1584 -1140 
Q 1353 -1331 966 -1331 
L 506 -1331 
L 506 -850 
L 844 -850 
Q 1081 -850 1212 -737 
Q 1344 -625 1503 -206 
L 1606 56 
L 191 3500 
L 800 3500 
L 1894 763 
L 2988 3500 
L 3597 3500 
L 2059 -325 
z
" id="DejaVuSans-79" transform="scale(0.015625)"/>
      </defs>
      <use xlink:href="#DejaVuSans-41"/>
      <use x="66.658203" xlink:href="#DejaVuSans-63"/>
      <use x="121.638672" xlink:href="#DejaVuSans-63"/>
      <use x="176.619141" xlink:href="#DejaVuSans-75"/>
      <use x="239.998047" xlink:href="#DejaVuSans-72"/>
      <use x="281.111328" xlink:href="#DejaVuSans-61"/>
      <use x="342.390625" xlink:href="#DejaVuSans-63"/>
      <use x="397.371094" xlink:href="#DejaVuSans-79"/>
     </g>
    </g>
   </g>
   <g id="line2d_23">
    <path clip-path="url(#p63bfeb7e4a)" d="M 92.290909 235.149005 
L 96.390083 190.785004 
L 100.489256 172.740224 
L 104.58843 163.593889 
L 108.687603 149.874386 
L 112.786777 145.275574 
L 116.88595 136.855817 
L 120.985124 135.906991 
L 125.084298 129.735352 
L 129.183471 133.069063 
L 133.282645 126.709368 
L 137.381818 122.127652 
L 141.480992 124.213358 
L 145.580165 120.674496 
L 149.679339 121.623321 
L 153.778512 115.408942 
L 157.877686 115.494422 
L 161.97686 111.417037 
L 166.076033 107.690119 
L 170.175207 107.843982 
L 174.27438 110.126292 
L 178.373554 109.493742 
L 182.472727 104.356408 
L 186.571901 103.62983 
L 190.671074 100.133707 
L 194.770248 101.338972 
L 198.869421 100.37305 
L 202.968595 100.261927 
L 207.067769 101.022697 
L 211.166942 99.347293 
L 215.266116 100.766257 
L 219.365289 96.175994 
L 223.464463 96.227281 
L 227.563636 95.825527 
L 231.66281 92.397788 
L 235.761983 95.919554 
L 239.861157 92.038773 
L 243.960331 91.013015 
L 248.059504 95.791335 
L 252.158678 90.901892 
L 256.257851 90.970276 
L 260.357025 87.901552 
L 264.456198 87.431413 
L 268.555372 89.21794 
L 272.654545 90.06419 
L 276.753719 85.593598 
L 280.852893 83.34548 
L 284.952066 83.584823 
L 289.05124 88.021223 
L 293.150413 86.140669 
L 297.249587 85.277323 
L 301.34876 83.319836 
L 305.447934 84.345593 
L 309.547107 82.49923 
L 313.646281 84.943952 
L 317.745455 81.370897 
L 321.844628 81.456377 
L 325.943802 79.934837 
L 330.042975 82.03764 
L 334.142149 77.746555 
L 338.241322 79.003108 
L 342.340496 81.832488 
L 346.439669 80.251112 
L 350.538843 84.849924 
L 354.638017 76.156631 
L 358.73719 77.105457 
L 362.836364 74.250432 
L 366.935537 72.327138 
L 371.034711 74.763311 
L 375.133884 74.455584 
L 379.233058 73.831582 
L 383.332231 73.75465 
L 387.431405 74.814599 
L 391.530579 73.327251 
L 395.629752 75.036846 
L 399.728926 73.703362 
L 403.828099 73.951253 
L 407.927273 76.831922 
L 412.026446 68.215561 
L 416.12562 73.617882 
L 420.224793 70.224335 
L 424.323967 70.814146 
L 428.42314 66.625637 
L 432.522314 69.566141 
L 436.621488 66.847884 
L 440.720661 67.907833 
L 444.819835 66.659829 
L 448.919008 71.634751 
L 453.018182 67.651394 
L 457.117355 64.719438 
L 461.216529 66.676925 
L 465.315702 68.036053 
L 469.414876 64.488643 
L 473.51405 70.925269 
L 477.613223 65.762291 
L 481.712397 66.06147 
L 485.81157 67.480435 
L 489.910744 63.06113 
L 494.009917 69.01907 
L 498.109091 65.018617 
" style="fill:none;stroke:#e24a33;stroke-linecap:square;stroke-width:1.5;"/>
   </g>
   <g id="line2d_24">
    <path clip-path="url(#p63bfeb7e4a)" d="M 92.290909 211.693356 
L 96.390083 176.783417 
L 100.489256 158.807022 
L 104.58843 144.420776 
L 108.687603 139.172318 
L 112.786777 131.709934 
L 116.88595 124.692045 
L 120.985124 122.084912 
L 125.084298 117.169825 
L 129.183471 114.810584 
L 133.282645 113.374523 
L 137.381818 107.502063 
L 141.480992 106.202771 
L 145.580165 102.390373 
L 149.679339 101.441547 
L 153.778512 99.398581 
L 157.877686 97.979617 
L 161.97686 94.030451 
L 166.076033 89.961614 
L 170.175207 93.013242 
L 174.27438 88.388787 
L 178.373554 87.918648 
L 182.472727 87.209166 
L 186.571901 84.661869 
L 190.671074 81.858132 
L 194.770248 83.097589 
L 198.869421 79.097135 
L 202.968595 83.892551 
L 207.067769 79.242451 
L 211.166942 75.566821 
L 215.266116 75.267642 
L 219.365289 74.857339 
L 223.464463 75.814712 
L 227.563636 78.259434 
L 231.66281 71.951027 
L 235.761983 73.66917 
L 239.861157 72.284398 
L 243.960331 74.549612 
L 248.059504 69.044714 
L 252.158678 73.275963 
L 256.257851 67.856546 
L 260.357025 76.395975 
L 264.456198 66.27517 
L 268.555372 65.548592 
L 272.654545 67.548818 
L 276.753719 64.608314 
L 280.852893 66.813692 
L 284.952066 60.548025 
L 289.05124 66.557253 
L 293.150413 63.582557 
L 297.249587 65.078453 
L 301.34876 60.368518 
L 305.447934 65.240865 
L 309.547107 61.180575 
L 313.646281 59.829995 
L 317.745455 62.402936 
L 321.844628 59.992407 
L 325.943802 55.829542 
L 330.042975 57.658809 
L 334.142149 58.436675 
L 338.241322 54.478961 
L 342.340496 62.351648 
L 346.439669 61.62507 
L 350.538843 55.897926 
L 354.638017 58.334099 
L 358.73719 53.34208 
L 362.836364 57.034807 
L 366.935537 54.308002 
L 371.034711 57.034807 
L 375.133884 55.940666 
L 379.233058 51.931664 
L 383.332231 55.03458 
L 387.431405 50.837523 
L 391.530579 54.162686 
L 395.629752 53.025805 
L 399.728926 50.5127 
L 403.828099 53.820767 
L 407.927273 54.658469 
L 412.026446 53.51304 
L 416.12562 49.375819 
L 420.224793 53.581424 
L 424.323967 49.127928 
L 428.42314 48.811653 
L 432.522314 49.452751 
L 436.621488 49.239052 
L 440.720661 50.581084 
L 444.819835 47.751703 
L 448.919008 47.110605 
L 453.018182 48.332966 
L 457.117355 49.435655 
L 461.216529 51.846185 
L 465.315702 47.187537 
L 469.414876 46.948194 
L 473.51405 46.315643 
L 477.613223 46.281451 
L 481.712397 49.606615 
L 485.81157 46.802878 
L 489.910744 47.050769 
L 494.009917 44.443636 
L 498.109091 45.44375 
" style="fill:none;stroke:#348abd;stroke-linecap:square;stroke-width:1.5;"/>
   </g>
   <g id="line2d_25">
    <path clip-path="url(#p63bfeb7e4a)" d="M 92.290909 199.08509 
L 96.390083 169.363773 
L 100.489256 148.104954 
L 104.58843 143.531787 
L 108.687603 135.565072 
L 112.786777 128.521539 
L 116.88595 123.597904 
L 120.985124 121.46091 
L 125.084298 112.605206 
L 129.183471 106.878061 
L 133.282645 109.023603 
L 137.381818 104.715423 
L 141.480992 103.082759 
L 145.580165 101.603959 
L 149.679339 98.13348 
L 153.778512 97.996713 
L 157.877686 96.141802 
L 161.97686 90.756576 
L 166.076033 90.594165 
L 170.175207 91.560086 
L 174.27438 88.140895 
L 178.373554 86.038093 
L 182.472727 83.926742 
L 186.571901 81.23413 
L 190.671074 82.54197 
L 194.770248 81.533309 
L 198.869421 75.498437 
L 202.968595 75.95148 
L 207.067769 76.301947 
L 211.166942 72.669057 
L 215.266116 76.130987 
L 219.365289 73.823034 
L 223.464463 73.805938 
L 227.563636 73.010976 
L 231.66281 77.3448 
L 235.761983 69.506305 
L 239.861157 70.03628 
L 243.960331 71.062037 
L 248.059504 67.206899 
L 252.158678 64.454451 
L 256.257851 68.523288 
L 260.357025 67.531722 
L 264.456198 64.172367 
L 268.555372 64.257847 
L 272.654545 64.198011 
L 276.753719 68.472 
L 280.852893 62.539704 
L 284.952066 66.181142 
L 289.05124 65.864867 
L 293.150413 64.975877 
L 297.249587 63.90738 
L 301.34876 60.334326 
L 305.447934 60.983972 
L 309.547107 58.017824 
L 313.646281 58.16314 
L 317.745455 60.548025 
L 321.844628 60.633505 
L 325.943802 64.71089 
L 330.042975 59.838543 
L 334.142149 57.915248 
L 338.241322 60.018051 
L 342.340496 57.556233 
L 346.439669 56.291133 
L 350.538843 57.9067 
L 354.638017 54.196878 
L 358.73719 56.940779 
L 362.836364 56.274037 
L 366.935537 57.351082 
L 371.034711 58.770046 
L 375.133884 53.581424 
L 379.233058 52.273583 
L 383.332231 59.111965 
L 387.431405 50.871715 
L 391.530579 53.504492 
L 395.629752 49.410011 
L 399.728926 57.556233 
L 403.828099 56.778367 
L 407.927273 50.880263 
L 412.026446 51.820541 
L 416.12562 54.299454 
L 420.224793 52.92323 
L 424.323967 50.444316 
L 428.42314 56.51338 
L 432.522314 49.247599 
L 436.621488 48.974064 
L 440.720661 55.829542 
L 444.819835 48.281678 
L 448.919008 48.914228 
L 453.018182 54.119946 
L 457.117355 49.358723 
L 461.216529 49.196312 
L 465.315702 50.803331 
L 469.414876 50.709304 
L 473.51405 50.55544 
L 477.613223 48.760365 
L 481.712397 51.965856 
L 485.81157 48.085075 
L 489.910744 45.700189 
L 494.009917 50.341741 
L 498.109091 48.597953 
" style="fill:none;stroke:#988ed5;stroke-linecap:square;stroke-width:1.5;"/>
   </g>
   <g id="line2d_26">
    <path clip-path="url(#p63bfeb7e4a)" d="M 92.290909 242.116364 
L 96.390083 202.730748 
L 100.489256 186.716816 
L 104.58843 181.360805 
L 108.687603 167.348615 
L 112.786777 163.020525 
L 116.88595 160.153166 
L 120.985124 163.886143 
L 125.084298 158.638334 
L 129.183471 158.584233 
L 133.282645 158.584233 
L 137.381818 155.55457 
L 141.480992 160.36957 
L 145.580165 156.744795 
L 149.679339 160.044963 
L 153.778512 158.205525 
L 157.877686 155.716874 
L 161.97686 154.797155 
L 166.076033 153.065919 
L 170.175207 156.149683 
L 174.27438 158.151424 
L 178.373554 157.880919 
L 182.472727 155.879177 
L 186.571901 158.476031 
L 190.671074 157.015301 
L 194.770248 158.367829 
L 198.869421 156.798896 
L 202.968595 161.884402 
L 207.067769 161.451593 
L 211.166942 158.584233 
L 215.266116 162.154907 
L 219.365289 160.315469 
L 223.464463 160.640076 
L 227.563636 160.099065 
L 231.66281 159.828559 
L 235.761983 163.399233 
L 239.861157 161.559795 
L 243.960331 162.641817 
L 248.059504 165.022267 
L 252.158678 158.313728 
L 256.257851 162.587716 
L 260.357025 162.371312 
L 264.456198 162.858222 
L 268.555372 164.968165 
L 272.654545 168.214233 
L 276.753719 164.102548 
L 280.852893 163.886143 
L 284.952066 163.182828 
L 289.05124 166.915806 
L 293.150413 168.647042 
L 297.249587 167.456817 
L 301.34876 167.348615 
L 305.447934 169.458558 
L 309.547107 168.538839 
L 313.646281 166.428896 
L 317.745455 166.537098 
L 321.844628 169.404457 
L 325.943802 169.133952 
L 330.042975 169.02575 
L 334.142149 165.887885 
L 338.241322 170.270075 
L 342.340496 171.784907 
L 346.439669 168.917547 
L 350.538843 173.732547 
L 354.638017 169.296255 
L 358.73719 169.674963 
L 362.836364 169.99957 
L 366.935537 167.943727 
L 371.034711 169.404457 
L 375.133884 171.189794 
L 379.233058 173.732547 
L 383.332231 172.109513 
L 387.431405 170.378278 
L 391.530579 170.97339 
L 395.629752 174.111255 
L 399.728926 171.406199 
L 403.828099 174.327659 
L 407.927273 176.058895 
L 412.026446 172.109513 
L 416.12562 174.111255 
L 420.224793 172.92103 
L 424.323967 175.30148 
L 428.42314 173.732547 
L 432.522314 171.893109 
L 436.621488 170.97339 
L 440.720661 176.329401 
L 444.819835 175.680187 
L 448.919008 176.112996 
L 453.018182 171.94721 
L 457.117355 175.139176 
L 461.216529 172.055412 
L 465.315702 175.193277 
L 469.414876 174.219457 
L 473.51405 181.57721 
L 477.613223 174.219457 
L 481.712397 175.463783 
L 485.81157 177.465524 
L 489.910744 178.277041 
L 494.009917 176.383502 
L 498.109091 179.034457 
" style="fill:none;stroke:#777777;stroke-dasharray:5.55,2.4;stroke-dashoffset:0;stroke-width:1.5;"/>
   </g>
   <g id="line2d_27">
    <path clip-path="url(#p63bfeb7e4a)" d="M 92.290909 219.069286 
L 96.390083 187.961142 
L 100.489256 175.30148 
L 104.58843 163.507435 
L 108.687603 161.8303 
L 112.786777 157.285806 
L 116.88595 154.472548 
L 120.985124 151.875694 
L 125.084298 149.873953 
L 129.183471 155.879177 
L 133.282645 151.767492 
L 137.381818 148.683728 
L 141.480992 150.414964 
L 145.580165 149.170638 
L 149.679339 153.985638 
L 153.778512 150.68547 
L 157.877686 151.226481 
L 161.97686 151.442885 
L 166.076033 150.19856 
L 170.175207 153.931537 
L 174.27438 148.142717 
L 178.373554 151.605189 
L 182.472727 153.174121 
L 186.571901 155.608672 
L 190.671074 151.821593 
L 194.770248 153.282323 
L 198.869421 153.390526 
L 202.968595 156.528391 
L 207.067769 153.390526 
L 211.166942 154.039739 
L 215.266116 153.444627 
L 219.365289 156.149683 
L 223.464463 159.449851 
L 227.563636 159.287548 
L 231.66281 155.121762 
L 235.761983 159.233447 
L 239.861157 156.528391 
L 243.960331 160.802379 
L 248.059504 156.852997 
L 252.158678 164.048446 
L 256.257851 161.884402 
L 260.357025 165.617379 
L 264.456198 159.666256 
L 268.555372 158.638334 
L 272.654545 162.533615 
L 276.753719 162.209008 
L 280.852893 160.207267 
L 284.952066 160.044963 
L 289.05124 164.048446 
L 293.150413 161.559795 
L 297.249587 164.859963 
L 301.34876 160.748278 
L 305.447934 163.507435 
L 309.547107 163.020525 
L 313.646281 163.128727 
L 317.745455 164.751761 
L 321.844628 164.427154 
L 325.943802 161.613896 
L 330.042975 164.859963 
L 334.142149 160.477772 
L 338.241322 163.23693 
L 342.340496 167.727323 
L 346.439669 165.563278 
L 350.538843 163.832042 
L 354.638017 163.994345 
L 358.73719 163.453334 
L 362.836364 164.643559 
L 366.935537 164.102548 
L 371.034711 165.509177 
L 375.133884 167.673222 
L 379.233058 163.020525 
L 383.332231 165.67148 
L 387.431405 160.802379 
L 391.530579 168.755244 
L 395.629752 165.400974 
L 399.728926 167.889626 
L 403.828099 165.076368 
L 407.927273 169.99957 
L 412.026446 165.833783 
L 416.12562 163.399233 
L 420.224793 165.833783 
L 424.323967 166.482997 
L 428.42314 163.940244 
L 432.522314 165.941986 
L 436.621488 166.915806 
L 440.720661 168.971648 
L 444.819835 167.673222 
L 448.919008 165.779682 
L 453.018182 168.538839 
L 457.117355 164.751761 
L 461.216529 163.832042 
L 465.315702 169.133952 
L 469.414876 167.186311 
L 473.51405 167.024008 
L 477.613223 164.69766 
L 481.712397 168.809345 
L 485.81157 167.781424 
L 489.910744 167.565019 
L 494.009917 165.941986 
L 498.109091 170.756985 
" style="fill:none;stroke:#fbc15e;stroke-dasharray:5.55,2.4;stroke-dashoffset:0;stroke-width:1.5;"/>
   </g>
   <g id="line2d_28">
    <path clip-path="url(#p63bfeb7e4a)" d="M 92.290909 209.006478 
L 96.390083 178.655749 
L 100.489256 163.886143 
L 104.58843 161.8303 
L 108.687603 157.93502 
L 112.786777 154.851256 
L 116.88595 152.416705 
L 120.985124 152.741312 
L 125.084298 149.008335 
L 129.183471 145.599964 
L 133.282645 147.439402 
L 137.381818 146.249178 
L 141.480992 147.385301 
L 145.580165 149.711649 
L 149.679339 150.414964 
L 153.778512 152.957717 
L 157.877686 153.065919 
L 161.97686 153.931537 
L 166.076033 153.715132 
L 170.175207 155.608672 
L 174.27438 152.254402 
L 178.373554 153.011818 
L 182.472727 151.334683 
L 186.571901 151.983897 
L 190.671074 152.795413 
L 194.770248 155.229964 
L 198.869421 152.1462 
L 202.968595 151.875694 
L 207.067769 154.256144 
L 211.166942 153.498728 
L 215.266116 153.282323 
L 219.365289 156.366087 
L 223.464463 157.44811 
L 227.563636 158.692435 
L 231.66281 160.694177 
L 235.761983 156.744795 
L 239.861157 159.449851 
L 243.960331 161.505694 
L 248.059504 157.394009 
L 252.158678 158.638334 
L 256.257851 157.502211 
L 260.357025 158.962941 
L 264.456198 159.666256 
L 268.555372 162.479514 
L 272.654545 159.88266 
L 276.753719 161.126986 
L 280.852893 158.638334 
L 284.952066 162.263109 
L 289.05124 160.315469 
L 293.150413 163.669739 
L 297.249587 163.615637 
L 301.34876 160.964683 
L 305.447934 164.535357 
L 309.547107 165.400974 
L 313.646281 162.912323 
L 317.745455 164.048446 
L 321.844628 161.451593 
L 325.943802 162.371312 
L 330.042975 164.102548 
L 334.142149 159.88266 
L 338.241322 167.565019 
L 342.340496 162.966424 
L 346.439669 162.912323 
L 350.538843 166.753502 
L 354.638017 162.263109 
L 358.73719 164.427154 
L 362.836364 163.994345 
L 366.935537 164.102548 
L 371.034711 170.48648 
L 375.133884 166.266592 
L 379.233058 160.531874 
L 383.332231 167.943727 
L 387.431405 160.640076 
L 391.530579 164.102548 
L 395.629752 160.477772 
L 399.728926 167.078109 
L 403.828099 166.537098 
L 407.927273 162.641817 
L 412.026446 165.292772 
L 416.12562 163.128727 
L 420.224793 163.886143 
L 424.323967 162.695918 
L 428.42314 165.779682 
L 432.522314 164.643559 
L 436.621488 165.346873 
L 440.720661 164.69766 
L 444.819835 165.996087 
L 448.919008 162.641817 
L 453.018182 165.346873 
L 457.117355 166.320693 
L 461.216529 162.317211 
L 465.315702 163.777941 
L 469.414876 164.318952 
L 473.51405 167.13221 
L 477.613223 165.67148 
L 481.712397 165.292772 
L 485.81157 163.940244 
L 489.910744 165.18457 
L 494.009917 167.024008 
L 498.109091 166.482997 
" style="fill:none;stroke:#8eba42;stroke-dasharray:5.55,2.4;stroke-dashoffset:0;stroke-width:1.5;"/>
   </g>
   <g id="patch_3">
    <path d="M 72 252 
L 72 34.56 
" style="fill:none;stroke:#ffffff;stroke-linecap:square;stroke-linejoin:miter;"/>
   </g>
   <g id="patch_4">
    <path d="M 518.4 252 
L 518.4 34.56 
" style="fill:none;stroke:#ffffff;stroke-linecap:square;stroke-linejoin:miter;"/>
   </g>
   <g id="patch_5">
    <path d="M 72 252 
L 518.4 252 
" style="fill:none;stroke:#ffffff;stroke-linecap:square;stroke-linejoin:miter;"/>
   </g>
   <g id="patch_6">
    <path d="M 72 34.56 
L 518.4 34.56 
" style="fill:none;stroke:#ffffff;stroke-linecap:square;stroke-linejoin:miter;"/>
   </g>
   <g id="legend_1">
    <g id="patch_7">
     <path d="M 79 247 
L 178.225 247 
Q 180.225 247 180.225 245 
L 180.225 157.93125 
Q 180.225 155.93125 178.225 155.93125 
L 79 155.93125 
Q 77 155.93125 77 157.93125 
L 77 245 
Q 77 247 79 247 
z
" style="fill:#e5e5e5;opacity:0.8;stroke:#cccccc;stroke-linejoin:miter;stroke-width:0.5;"/>
    </g>
    <g id="line2d_29">
     <path d="M 81 164.029688 
L 101 164.029688 
" style="fill:none;stroke:#e24a33;stroke-linecap:square;stroke-width:1.5;"/>
    </g>
    <g id="line2d_30"/>
    <g id="text_14">
     <!-- depth1(train) -->
     <g transform="translate(109 167.529688)scale(0.1 -0.1)">
      <defs>
       <path d="M 2906 2969 
L 2906 4863 
L 3481 4863 
L 3481 0 
L 2906 0 
L 2906 525 
Q 2725 213 2448 61 
Q 2172 -91 1784 -91 
Q 1150 -91 751 415 
Q 353 922 353 1747 
Q 353 2572 751 3078 
Q 1150 3584 1784 3584 
Q 2172 3584 2448 3432 
Q 2725 3281 2906 2969 
z
M 947 1747 
Q 947 1113 1208 752 
Q 1469 391 1925 391 
Q 2381 391 2643 752 
Q 2906 1113 2906 1747 
Q 2906 2381 2643 2742 
Q 2381 3103 1925 3103 
Q 1469 3103 1208 2742 
Q 947 2381 947 1747 
z
" id="DejaVuSans-64" transform="scale(0.015625)"/>
       <path d="M 1172 4494 
L 1172 3500 
L 2356 3500 
L 2356 3053 
L 1172 3053 
L 1172 1153 
Q 1172 725 1289 603 
Q 1406 481 1766 481 
L 2356 481 
L 2356 0 
L 1766 0 
Q 1100 0 847 248 
Q 594 497 594 1153 
L 594 3053 
L 172 3053 
L 172 3500 
L 594 3500 
L 594 4494 
L 1172 4494 
z
" id="DejaVuSans-74" transform="scale(0.015625)"/>
       <path d="M 1984 4856 
Q 1566 4138 1362 3434 
Q 1159 2731 1159 2009 
Q 1159 1288 1364 580 
Q 1569 -128 1984 -844 
L 1484 -844 
Q 1016 -109 783 600 
Q 550 1309 550 2009 
Q 550 2706 781 3412 
Q 1013 4119 1484 4856 
L 1984 4856 
z
" id="DejaVuSans-28" transform="scale(0.015625)"/>
       <path d="M 603 3500 
L 1178 3500 
L 1178 0 
L 603 0 
L 603 3500 
z
M 603 4863 
L 1178 4863 
L 1178 4134 
L 603 4134 
L 603 4863 
z
" id="DejaVuSans-69" transform="scale(0.015625)"/>
       <path d="M 513 4856 
L 1013 4856 
Q 1481 4119 1714 3412 
Q 1947 2706 1947 2009 
Q 1947 1309 1714 600 
Q 1481 -109 1013 -844 
L 513 -844 
Q 928 -128 1133 580 
Q 1338 1288 1338 2009 
Q 1338 2731 1133 3434 
Q 928 4138 513 4856 
z
" id="DejaVuSans-29" transform="scale(0.015625)"/>
      </defs>
      <use xlink:href="#DejaVuSans-64"/>
      <use x="63.476562" xlink:href="#DejaVuSans-65"/>
      <use x="125" xlink:href="#DejaVuSans-70"/>
      <use x="188.476562" xlink:href="#DejaVuSans-74"/>
      <use x="227.685547" xlink:href="#DejaVuSans-68"/>
      <use x="291.064453" xlink:href="#DejaVuSans-31"/>
      <use x="354.6875" xlink:href="#DejaVuSans-28"/>
      <use x="393.701172" xlink:href="#DejaVuSans-74"/>
      <use x="432.910156" xlink:href="#DejaVuSans-72"/>
      <use x="474.023438" xlink:href="#DejaVuSans-61"/>
      <use x="535.302734" xlink:href="#DejaVuSans-69"/>
      <use x="563.085938" xlink:href="#DejaVuSans-6e"/>
      <use x="626.464844" xlink:href="#DejaVuSans-29"/>
     </g>
    </g>
    <g id="line2d_31">
     <path d="M 81 178.707813 
L 101 178.707813 
" style="fill:none;stroke:#348abd;stroke-linecap:square;stroke-width:1.5;"/>
    </g>
    <g id="line2d_32"/>
    <g id="text_15">
     <!-- depth2(train) -->
     <g transform="translate(109 182.207813)scale(0.1 -0.1)">
      <use xlink:href="#DejaVuSans-64"/>
      <use x="63.476562" xlink:href="#DejaVuSans-65"/>
      <use x="125" xlink:href="#DejaVuSans-70"/>
      <use x="188.476562" xlink:href="#DejaVuSans-74"/>
      <use x="227.685547" xlink:href="#DejaVuSans-68"/>
      <use x="291.064453" xlink:href="#DejaVuSans-32"/>
      <use x="354.6875" xlink:href="#DejaVuSans-28"/>
      <use x="393.701172" xlink:href="#DejaVuSans-74"/>
      <use x="432.910156" xlink:href="#DejaVuSans-72"/>
      <use x="474.023438" xlink:href="#DejaVuSans-61"/>
      <use x="535.302734" xlink:href="#DejaVuSans-69"/>
      <use x="563.085938" xlink:href="#DejaVuSans-6e"/>
      <use x="626.464844" xlink:href="#DejaVuSans-29"/>
     </g>
    </g>
    <g id="line2d_33">
     <path d="M 81 193.385938 
L 101 193.385938 
" style="fill:none;stroke:#988ed5;stroke-linecap:square;stroke-width:1.5;"/>
    </g>
    <g id="line2d_34"/>
    <g id="text_16">
     <!-- depth3(train) -->
     <g transform="translate(109 196.885938)scale(0.1 -0.1)">
      <defs>
       <path d="M 2597 2516 
Q 3050 2419 3304 2112 
Q 3559 1806 3559 1356 
Q 3559 666 3084 287 
Q 2609 -91 1734 -91 
Q 1441 -91 1130 -33 
Q 819 25 488 141 
L 488 750 
Q 750 597 1062 519 
Q 1375 441 1716 441 
Q 2309 441 2620 675 
Q 2931 909 2931 1356 
Q 2931 1769 2642 2001 
Q 2353 2234 1838 2234 
L 1294 2234 
L 1294 2753 
L 1863 2753 
Q 2328 2753 2575 2939 
Q 2822 3125 2822 3475 
Q 2822 3834 2567 4026 
Q 2313 4219 1838 4219 
Q 1578 4219 1281 4162 
Q 984 4106 628 3988 
L 628 4550 
Q 988 4650 1302 4700 
Q 1616 4750 1894 4750 
Q 2613 4750 3031 4423 
Q 3450 4097 3450 3541 
Q 3450 3153 3228 2886 
Q 3006 2619 2597 2516 
z
" id="DejaVuSans-33" transform="scale(0.015625)"/>
      </defs>
      <use xlink:href="#DejaVuSans-64"/>
      <use x="63.476562" xlink:href="#DejaVuSans-65"/>
      <use x="125" xlink:href="#DejaVuSans-70"/>
      <use x="188.476562" xlink:href="#DejaVuSans-74"/>
      <use x="227.685547" xlink:href="#DejaVuSans-68"/>
      <use x="291.064453" xlink:href="#DejaVuSans-33"/>
      <use x="354.6875" xlink:href="#DejaVuSans-28"/>
      <use x="393.701172" xlink:href="#DejaVuSans-74"/>
      <use x="432.910156" xlink:href="#DejaVuSans-72"/>
      <use x="474.023438" xlink:href="#DejaVuSans-61"/>
      <use x="535.302734" xlink:href="#DejaVuSans-69"/>
      <use x="563.085938" xlink:href="#DejaVuSans-6e"/>
      <use x="626.464844" xlink:href="#DejaVuSans-29"/>
     </g>
    </g>
    <g id="line2d_35">
     <path d="M 81 208.064063 
L 101 208.064063 
" style="fill:none;stroke:#777777;stroke-dasharray:5.55,2.4;stroke-dashoffset:0;stroke-width:1.5;"/>
    </g>
    <g id="line2d_36"/>
    <g id="text_17">
     <!-- depth1(valid) -->
     <g transform="translate(109 211.564063)scale(0.1 -0.1)">
      <defs>
       <path d="M 191 3500 
L 800 3500 
L 1894 563 
L 2988 3500 
L 3597 3500 
L 2284 0 
L 1503 0 
L 191 3500 
z
" id="DejaVuSans-76" transform="scale(0.015625)"/>
       <path d="M 603 4863 
L 1178 4863 
L 1178 0 
L 603 0 
L 603 4863 
z
" id="DejaVuSans-6c" transform="scale(0.015625)"/>
      </defs>
      <use xlink:href="#DejaVuSans-64"/>
      <use x="63.476562" xlink:href="#DejaVuSans-65"/>
      <use x="125" xlink:href="#DejaVuSans-70"/>
      <use x="188.476562" xlink:href="#DejaVuSans-74"/>
      <use x="227.685547" xlink:href="#DejaVuSans-68"/>
      <use x="291.064453" xlink:href="#DejaVuSans-31"/>
      <use x="354.6875" xlink:href="#DejaVuSans-28"/>
      <use x="393.701172" xlink:href="#DejaVuSans-76"/>
      <use x="452.880859" xlink:href="#DejaVuSans-61"/>
      <use x="514.160156" xlink:href="#DejaVuSans-6c"/>
      <use x="541.943359" xlink:href="#DejaVuSans-69"/>
      <use x="569.726562" xlink:href="#DejaVuSans-64"/>
      <use x="633.203125" xlink:href="#DejaVuSans-29"/>
     </g>
    </g>
    <g id="line2d_37">
     <path d="M 81 222.742188 
L 101 222.742188 
" style="fill:none;stroke:#fbc15e;stroke-dasharray:5.55,2.4;stroke-dashoffset:0;stroke-width:1.5;"/>
    </g>
    <g id="line2d_38"/>
    <g id="text_18">
     <!-- depth2(valid) -->
     <g transform="translate(109 226.242188)scale(0.1 -0.1)">
      <use xlink:href="#DejaVuSans-64"/>
      <use x="63.476562" xlink:href="#DejaVuSans-65"/>
      <use x="125" xlink:href="#DejaVuSans-70"/>
      <use x="188.476562" xlink:href="#DejaVuSans-74"/>
      <use x="227.685547" xlink:href="#DejaVuSans-68"/>
      <use x="291.064453" xlink:href="#DejaVuSans-32"/>
      <use x="354.6875" xlink:href="#DejaVuSans-28"/>
      <use x="393.701172" xlink:href="#DejaVuSans-76"/>
      <use x="452.880859" xlink:href="#DejaVuSans-61"/>
      <use x="514.160156" xlink:href="#DejaVuSans-6c"/>
      <use x="541.943359" xlink:href="#DejaVuSans-69"/>
      <use x="569.726562" xlink:href="#DejaVuSans-64"/>
      <use x="633.203125" xlink:href="#DejaVuSans-29"/>
     </g>
    </g>
    <g id="line2d_39">
     <path d="M 81 237.420313 
L 101 237.420313 
" style="fill:none;stroke:#8eba42;stroke-dasharray:5.55,2.4;stroke-dashoffset:0;stroke-width:1.5;"/>
    </g>
    <g id="line2d_40"/>
    <g id="text_19">
     <!-- depth3(valid) -->
     <g transform="translate(109 240.920313)scale(0.1 -0.1)">
      <use xlink:href="#DejaVuSans-64"/>
      <use x="63.476562" xlink:href="#DejaVuSans-65"/>
      <use x="125" xlink:href="#DejaVuSans-70"/>
      <use x="188.476562" xlink:href="#DejaVuSans-74"/>
      <use x="227.685547" xlink:href="#DejaVuSans-68"/>
      <use x="291.064453" xlink:href="#DejaVuSans-33"/>
      <use x="354.6875" xlink:href="#DejaVuSans-28"/>
      <use x="393.701172" xlink:href="#DejaVuSans-76"/>
      <use x="452.880859" xlink:href="#DejaVuSans-61"/>
      <use x="514.160156" xlink:href="#DejaVuSans-6c"/>
      <use x="541.943359" xlink:href="#DejaVuSans-69"/>
      <use x="569.726562" xlink:href="#DejaVuSans-64"/>
      <use x="633.203125" xlink:href="#DejaVuSans-29"/>
     </g>
    </g>
   </g>
  </g>
 </g>
 <defs>
  <clipPath id="p63bfeb7e4a">
   <rect height="217.44" width="446.4" x="72" y="34.56"/>
  </clipPath>
 </defs>
</svg>
