<?xml version="1.0" encoding="utf-8" standalone="no"?>
<!DOCTYPE svg PUBLIC "-//W3C//DTD SVG 1.1//EN"
  "http://www.w3.org/Graphics/SVG/1.1/DTD/svg11.dtd">
<svg height="288pt" version="1.1" viewBox="0 0 576 288" width="576pt" xmlns="http://www.w3.org/2000/svg" xmlns:xlink="http://www.w3.org/1999/xlink">
 <metadata>
  <rdf:RDF xmlns:cc="http://creativecommons.org/ns#" xmlns:dc="http://purl.org/dc/elements/1.1/" xmlns:rdf="http://www.w3.org/1999/02/22-rdf-syntax-ns#">
   <cc:Work>
    <dc:type rdf:resource="http://purl.org/dc/dcmitype/StillImage"/>
    <dc:date>2021-11-07T21:51:10.705043</dc:date>
    <dc:format>image/svg+xml</dc:format>
    <dc:creator>
     <cc:Agent>
      <dc:title>Matplotlib v3.4.2, https://matplotlib.org/</dc:title>
     </cc:Agent>
    </dc:creator>
   </cc:Work>
  </rdf:RDF>
 </metadata>
 <defs>
  <style type="text/css">*{stroke-linecap:butt;stroke-linejoin:round;}</style>
 </defs>
 <g id="figure_1">
  <g id="patch_1">
   <path d="M 0 288 
L 576 288 
L 576 0 
L 0 0 
z
" style="fill:#ffffff;"/>
  </g>
  <g id="axes_1">
   <g id="patch_2">
    <path d="M 72 252 
L 518.4 252 
L 518.4 34.56 
L 72 34.56 
z
" style="fill:#e5e5e5;"/>
   </g>
   <g id="matplotlib.axis_1">
    <g id="xtick_1">
     <g id="line2d_1">
      <path clip-path="url(#p0b55c6d24f)" d="M 88.191736 252 
L 88.191736 34.56 
" style="fill:none;stroke:#ffffff;stroke-linecap:square;stroke-width:0.8;"/>
     </g>
     <g id="line2d_2">
      <defs>
       <path d="M 0 0 
L 0 3.5 
" id="m8341a8a209" style="stroke:#555555;stroke-width:0.8;"/>
      </defs>
      <g>
       <use style="fill:#555555;stroke:#555555;stroke-width:0.8;" x="88.191736" xlink:href="#m8341a8a209" y="252"/>
      </g>
     </g>
     <g id="text_1">
      <!-- 0 -->
      <g style="fill:#555555;" transform="translate(85.010486 266.598437)scale(0.1 -0.1)">
       <defs>
        <path d="M 2034 4250 
Q 1547 4250 1301 3770 
Q 1056 3291 1056 2328 
Q 1056 1369 1301 889 
Q 1547 409 2034 409 
Q 2525 409 2770 889 
Q 3016 1369 3016 2328 
Q 3016 3291 2770 3770 
Q 2525 4250 2034 4250 
z
M 2034 4750 
Q 2819 4750 3233 4129 
Q 3647 3509 3647 2328 
Q 3647 1150 3233 529 
Q 2819 -91 2034 -91 
Q 1250 -91 836 529 
Q 422 1150 422 2328 
Q 422 3509 836 4129 
Q 1250 4750 2034 4750 
z
" id="DejaVuSans-30" transform="scale(0.015625)"/>
       </defs>
       <use xlink:href="#DejaVuSans-30"/>
      </g>
     </g>
    </g>
    <g id="xtick_2">
     <g id="line2d_3">
      <path clip-path="url(#p0b55c6d24f)" d="M 170.175207 252 
L 170.175207 34.56 
" style="fill:none;stroke:#ffffff;stroke-linecap:square;stroke-width:0.8;"/>
     </g>
     <g id="line2d_4">
      <g>
       <use style="fill:#555555;stroke:#555555;stroke-width:0.8;" x="170.175207" xlink:href="#m8341a8a209" y="252"/>
      </g>
     </g>
     <g id="text_2">
      <!-- 20 -->
      <g style="fill:#555555;" transform="translate(163.812707 266.598437)scale(0.1 -0.1)">
       <defs>
        <path d="M 1228 531 
L 3431 531 
L 3431 0 
L 469 0 
L 469 531 
Q 828 903 1448 1529 
Q 2069 2156 2228 2338 
Q 2531 2678 2651 2914 
Q 2772 3150 2772 3378 
Q 2772 3750 2511 3984 
Q 2250 4219 1831 4219 
Q 1534 4219 1204 4116 
Q 875 4013 500 3803 
L 500 4441 
Q 881 4594 1212 4672 
Q 1544 4750 1819 4750 
Q 2544 4750 2975 4387 
Q 3406 4025 3406 3419 
Q 3406 3131 3298 2873 
Q 3191 2616 2906 2266 
Q 2828 2175 2409 1742 
Q 1991 1309 1228 531 
z
" id="DejaVuSans-32" transform="scale(0.015625)"/>
       </defs>
       <use xlink:href="#DejaVuSans-32"/>
       <use x="63.623047" xlink:href="#DejaVuSans-30"/>
      </g>
     </g>
    </g>
    <g id="xtick_3">
     <g id="line2d_5">
      <path clip-path="url(#p0b55c6d24f)" d="M 252.158678 252 
L 252.158678 34.56 
" style="fill:none;stroke:#ffffff;stroke-linecap:square;stroke-width:0.8;"/>
     </g>
     <g id="line2d_6">
      <g>
       <use style="fill:#555555;stroke:#555555;stroke-width:0.8;" x="252.158678" xlink:href="#m8341a8a209" y="252"/>
      </g>
     </g>
     <g id="text_3">
      <!-- 40 -->
      <g style="fill:#555555;" transform="translate(245.796178 266.598437)scale(0.1 -0.1)">
       <defs>
        <path d="M 2419 4116 
L 825 1625 
L 2419 1625 
L 2419 4116 
z
M 2253 4666 
L 3047 4666 
L 3047 1625 
L 3713 1625 
L 3713 1100 
L 3047 1100 
L 3047 0 
L 2419 0 
L 2419 1100 
L 313 1100 
L 313 1709 
L 2253 4666 
z
" id="DejaVuSans-34" transform="scale(0.015625)"/>
       </defs>
       <use xlink:href="#DejaVuSans-34"/>
       <use x="63.623047" xlink:href="#DejaVuSans-30"/>
      </g>
     </g>
    </g>
    <g id="xtick_4">
     <g id="line2d_7">
      <path clip-path="url(#p0b55c6d24f)" d="M 334.142149 252 
L 334.142149 34.56 
" style="fill:none;stroke:#ffffff;stroke-linecap:square;stroke-width:0.8;"/>
     </g>
     <g id="line2d_8">
      <g>
       <use style="fill:#555555;stroke:#555555;stroke-width:0.8;" x="334.142149" xlink:href="#m8341a8a209" y="252"/>
      </g>
     </g>
     <g id="text_4">
      <!-- 60 -->
      <g style="fill:#555555;" transform="translate(327.779649 266.598437)scale(0.1 -0.1)">
       <defs>
        <path d="M 2113 2584 
Q 1688 2584 1439 2293 
Q 1191 2003 1191 1497 
Q 1191 994 1439 701 
Q 1688 409 2113 409 
Q 2538 409 2786 701 
Q 3034 994 3034 1497 
Q 3034 2003 2786 2293 
Q 2538 2584 2113 2584 
z
M 3366 4563 
L 3366 3988 
Q 3128 4100 2886 4159 
Q 2644 4219 2406 4219 
Q 1781 4219 1451 3797 
Q 1122 3375 1075 2522 
Q 1259 2794 1537 2939 
Q 1816 3084 2150 3084 
Q 2853 3084 3261 2657 
Q 3669 2231 3669 1497 
Q 3669 778 3244 343 
Q 2819 -91 2113 -91 
Q 1303 -91 875 529 
Q 447 1150 447 2328 
Q 447 3434 972 4092 
Q 1497 4750 2381 4750 
Q 2619 4750 2861 4703 
Q 3103 4656 3366 4563 
z
" id="DejaVuSans-36" transform="scale(0.015625)"/>
       </defs>
       <use xlink:href="#DejaVuSans-36"/>
       <use x="63.623047" xlink:href="#DejaVuSans-30"/>
      </g>
     </g>
    </g>
    <g id="xtick_5">
     <g id="line2d_9">
      <path clip-path="url(#p0b55c6d24f)" d="M 416.12562 252 
L 416.12562 34.56 
" style="fill:none;stroke:#ffffff;stroke-linecap:square;stroke-width:0.8;"/>
     </g>
     <g id="line2d_10">
      <g>
       <use style="fill:#555555;stroke:#555555;stroke-width:0.8;" x="416.12562" xlink:href="#m8341a8a209" y="252"/>
      </g>
     </g>
     <g id="text_5">
      <!-- 80 -->
      <g style="fill:#555555;" transform="translate(409.76312 266.598437)scale(0.1 -0.1)">
       <defs>
        <path d="M 2034 2216 
Q 1584 2216 1326 1975 
Q 1069 1734 1069 1313 
Q 1069 891 1326 650 
Q 1584 409 2034 409 
Q 2484 409 2743 651 
Q 3003 894 3003 1313 
Q 3003 1734 2745 1975 
Q 2488 2216 2034 2216 
z
M 1403 2484 
Q 997 2584 770 2862 
Q 544 3141 544 3541 
Q 544 4100 942 4425 
Q 1341 4750 2034 4750 
Q 2731 4750 3128 4425 
Q 3525 4100 3525 3541 
Q 3525 3141 3298 2862 
Q 3072 2584 2669 2484 
Q 3125 2378 3379 2068 
Q 3634 1759 3634 1313 
Q 3634 634 3220 271 
Q 2806 -91 2034 -91 
Q 1263 -91 848 271 
Q 434 634 434 1313 
Q 434 1759 690 2068 
Q 947 2378 1403 2484 
z
M 1172 3481 
Q 1172 3119 1398 2916 
Q 1625 2713 2034 2713 
Q 2441 2713 2670 2916 
Q 2900 3119 2900 3481 
Q 2900 3844 2670 4047 
Q 2441 4250 2034 4250 
Q 1625 4250 1398 4047 
Q 1172 3844 1172 3481 
z
" id="DejaVuSans-38" transform="scale(0.015625)"/>
       </defs>
       <use xlink:href="#DejaVuSans-38"/>
       <use x="63.623047" xlink:href="#DejaVuSans-30"/>
      </g>
     </g>
    </g>
    <g id="xtick_6">
     <g id="line2d_11">
      <path clip-path="url(#p0b55c6d24f)" d="M 498.109091 252 
L 498.109091 34.56 
" style="fill:none;stroke:#ffffff;stroke-linecap:square;stroke-width:0.8;"/>
     </g>
     <g id="line2d_12">
      <g>
       <use style="fill:#555555;stroke:#555555;stroke-width:0.8;" x="498.109091" xlink:href="#m8341a8a209" y="252"/>
      </g>
     </g>
     <g id="text_6">
      <!-- 100 -->
      <g style="fill:#555555;" transform="translate(488.565341 266.598437)scale(0.1 -0.1)">
       <defs>
        <path d="M 794 531 
L 1825 531 
L 1825 4091 
L 703 3866 
L 703 4441 
L 1819 4666 
L 2450 4666 
L 2450 531 
L 3481 531 
L 3481 0 
L 794 0 
L 794 531 
z
" id="DejaVuSans-31" transform="scale(0.015625)"/>
       </defs>
       <use xlink:href="#DejaVuSans-31"/>
       <use x="63.623047" xlink:href="#DejaVuSans-30"/>
       <use x="127.246094" xlink:href="#DejaVuSans-30"/>
      </g>
     </g>
    </g>
    <g id="text_7">
     <!-- Epoch number -->
     <g style="fill:#555555;" transform="translate(251.503125 281.79625)scale(0.12 -0.12)">
      <defs>
       <path d="M 628 4666 
L 3578 4666 
L 3578 4134 
L 1259 4134 
L 1259 2753 
L 3481 2753 
L 3481 2222 
L 1259 2222 
L 1259 531 
L 3634 531 
L 3634 0 
L 628 0 
L 628 4666 
z
" id="DejaVuSans-45" transform="scale(0.015625)"/>
       <path d="M 1159 525 
L 1159 -1331 
L 581 -1331 
L 581 3500 
L 1159 3500 
L 1159 2969 
Q 1341 3281 1617 3432 
Q 1894 3584 2278 3584 
Q 2916 3584 3314 3078 
Q 3713 2572 3713 1747 
Q 3713 922 3314 415 
Q 2916 -91 2278 -91 
Q 1894 -91 1617 61 
Q 1341 213 1159 525 
z
M 3116 1747 
Q 3116 2381 2855 2742 
Q 2594 3103 2138 3103 
Q 1681 3103 1420 2742 
Q 1159 2381 1159 1747 
Q 1159 1113 1420 752 
Q 1681 391 2138 391 
Q 2594 391 2855 752 
Q 3116 1113 3116 1747 
z
" id="DejaVuSans-70" transform="scale(0.015625)"/>
       <path d="M 1959 3097 
Q 1497 3097 1228 2736 
Q 959 2375 959 1747 
Q 959 1119 1226 758 
Q 1494 397 1959 397 
Q 2419 397 2687 759 
Q 2956 1122 2956 1747 
Q 2956 2369 2687 2733 
Q 2419 3097 1959 3097 
z
M 1959 3584 
Q 2709 3584 3137 3096 
Q 3566 2609 3566 1747 
Q 3566 888 3137 398 
Q 2709 -91 1959 -91 
Q 1206 -91 779 398 
Q 353 888 353 1747 
Q 353 2609 779 3096 
Q 1206 3584 1959 3584 
z
" id="DejaVuSans-6f" transform="scale(0.015625)"/>
       <path d="M 3122 3366 
L 3122 2828 
Q 2878 2963 2633 3030 
Q 2388 3097 2138 3097 
Q 1578 3097 1268 2742 
Q 959 2388 959 1747 
Q 959 1106 1268 751 
Q 1578 397 2138 397 
Q 2388 397 2633 464 
Q 2878 531 3122 666 
L 3122 134 
Q 2881 22 2623 -34 
Q 2366 -91 2075 -91 
Q 1284 -91 818 406 
Q 353 903 353 1747 
Q 353 2603 823 3093 
Q 1294 3584 2113 3584 
Q 2378 3584 2631 3529 
Q 2884 3475 3122 3366 
z
" id="DejaVuSans-63" transform="scale(0.015625)"/>
       <path d="M 3513 2113 
L 3513 0 
L 2938 0 
L 2938 2094 
Q 2938 2591 2744 2837 
Q 2550 3084 2163 3084 
Q 1697 3084 1428 2787 
Q 1159 2491 1159 1978 
L 1159 0 
L 581 0 
L 581 4863 
L 1159 4863 
L 1159 2956 
Q 1366 3272 1645 3428 
Q 1925 3584 2291 3584 
Q 2894 3584 3203 3211 
Q 3513 2838 3513 2113 
z
" id="DejaVuSans-68" transform="scale(0.015625)"/>
       <path id="DejaVuSans-20" transform="scale(0.015625)"/>
       <path d="M 3513 2113 
L 3513 0 
L 2938 0 
L 2938 2094 
Q 2938 2591 2744 2837 
Q 2550 3084 2163 3084 
Q 1697 3084 1428 2787 
Q 1159 2491 1159 1978 
L 1159 0 
L 581 0 
L 581 3500 
L 1159 3500 
L 1159 2956 
Q 1366 3272 1645 3428 
Q 1925 3584 2291 3584 
Q 2894 3584 3203 3211 
Q 3513 2838 3513 2113 
z
" id="DejaVuSans-6e" transform="scale(0.015625)"/>
       <path d="M 544 1381 
L 544 3500 
L 1119 3500 
L 1119 1403 
Q 1119 906 1312 657 
Q 1506 409 1894 409 
Q 2359 409 2629 706 
Q 2900 1003 2900 1516 
L 2900 3500 
L 3475 3500 
L 3475 0 
L 2900 0 
L 2900 538 
Q 2691 219 2414 64 
Q 2138 -91 1772 -91 
Q 1169 -91 856 284 
Q 544 659 544 1381 
z
M 1991 3584 
L 1991 3584 
z
" id="DejaVuSans-75" transform="scale(0.015625)"/>
       <path d="M 3328 2828 
Q 3544 3216 3844 3400 
Q 4144 3584 4550 3584 
Q 5097 3584 5394 3201 
Q 5691 2819 5691 2113 
L 5691 0 
L 5113 0 
L 5113 2094 
Q 5113 2597 4934 2840 
Q 4756 3084 4391 3084 
Q 3944 3084 3684 2787 
Q 3425 2491 3425 1978 
L 3425 0 
L 2847 0 
L 2847 2094 
Q 2847 2600 2669 2842 
Q 2491 3084 2119 3084 
Q 1678 3084 1418 2786 
Q 1159 2488 1159 1978 
L 1159 0 
L 581 0 
L 581 3500 
L 1159 3500 
L 1159 2956 
Q 1356 3278 1631 3431 
Q 1906 3584 2284 3584 
Q 2666 3584 2933 3390 
Q 3200 3197 3328 2828 
z
" id="DejaVuSans-6d" transform="scale(0.015625)"/>
       <path d="M 3116 1747 
Q 3116 2381 2855 2742 
Q 2594 3103 2138 3103 
Q 1681 3103 1420 2742 
Q 1159 2381 1159 1747 
Q 1159 1113 1420 752 
Q 1681 391 2138 391 
Q 2594 391 2855 752 
Q 3116 1113 3116 1747 
z
M 1159 2969 
Q 1341 3281 1617 3432 
Q 1894 3584 2278 3584 
Q 2916 3584 3314 3078 
Q 3713 2572 3713 1747 
Q 3713 922 3314 415 
Q 2916 -91 2278 -91 
Q 1894 -91 1617 61 
Q 1341 213 1159 525 
L 1159 0 
L 581 0 
L 581 4863 
L 1159 4863 
L 1159 2969 
z
" id="DejaVuSans-62" transform="scale(0.015625)"/>
       <path d="M 3597 1894 
L 3597 1613 
L 953 1613 
Q 991 1019 1311 708 
Q 1631 397 2203 397 
Q 2534 397 2845 478 
Q 3156 559 3463 722 
L 3463 178 
Q 3153 47 2828 -22 
Q 2503 -91 2169 -91 
Q 1331 -91 842 396 
Q 353 884 353 1716 
Q 353 2575 817 3079 
Q 1281 3584 2069 3584 
Q 2775 3584 3186 3129 
Q 3597 2675 3597 1894 
z
M 3022 2063 
Q 3016 2534 2758 2815 
Q 2500 3097 2075 3097 
Q 1594 3097 1305 2825 
Q 1016 2553 972 2059 
L 3022 2063 
z
" id="DejaVuSans-65" transform="scale(0.015625)"/>
       <path d="M 2631 2963 
Q 2534 3019 2420 3045 
Q 2306 3072 2169 3072 
Q 1681 3072 1420 2755 
Q 1159 2438 1159 1844 
L 1159 0 
L 581 0 
L 581 3500 
L 1159 3500 
L 1159 2956 
Q 1341 3275 1631 3429 
Q 1922 3584 2338 3584 
Q 2397 3584 2469 3576 
Q 2541 3569 2628 3553 
L 2631 2963 
z
" id="DejaVuSans-72" transform="scale(0.015625)"/>
      </defs>
      <use xlink:href="#DejaVuSans-45"/>
      <use x="63.183594" xlink:href="#DejaVuSans-70"/>
      <use x="126.660156" xlink:href="#DejaVuSans-6f"/>
      <use x="187.841797" xlink:href="#DejaVuSans-63"/>
      <use x="242.822266" xlink:href="#DejaVuSans-68"/>
      <use x="306.201172" xlink:href="#DejaVuSans-20"/>
      <use x="337.988281" xlink:href="#DejaVuSans-6e"/>
      <use x="401.367188" xlink:href="#DejaVuSans-75"/>
      <use x="464.746094" xlink:href="#DejaVuSans-6d"/>
      <use x="562.158203" xlink:href="#DejaVuSans-62"/>
      <use x="625.634766" xlink:href="#DejaVuSans-65"/>
      <use x="687.158203" xlink:href="#DejaVuSans-72"/>
     </g>
    </g>
   </g>
   <g id="matplotlib.axis_2">
    <g id="ytick_1">
     <g id="line2d_13">
      <path clip-path="url(#p0b55c6d24f)" d="M 72 228.756468 
L 518.4 228.756468 
" style="fill:none;stroke:#ffffff;stroke-linecap:square;stroke-width:0.8;"/>
     </g>
     <g id="line2d_14">
      <defs>
       <path d="M 0 0 
L -3.5 0 
" id="m7784aa7c71" style="stroke:#555555;stroke-width:0.8;"/>
      </defs>
      <g>
       <use style="fill:#555555;stroke:#555555;stroke-width:0.8;" x="72" xlink:href="#m7784aa7c71" y="228.756468"/>
      </g>
     </g>
     <g id="text_8">
      <!-- 0.2 -->
      <g style="fill:#555555;" transform="translate(49.096875 232.555686)scale(0.1 -0.1)">
       <defs>
        <path d="M 684 794 
L 1344 794 
L 1344 0 
L 684 0 
L 684 794 
z
" id="DejaVuSans-2e" transform="scale(0.015625)"/>
       </defs>
       <use xlink:href="#DejaVuSans-30"/>
       <use x="63.623047" xlink:href="#DejaVuSans-2e"/>
       <use x="95.410156" xlink:href="#DejaVuSans-32"/>
      </g>
     </g>
    </g>
    <g id="ytick_2">
     <g id="line2d_15">
      <path clip-path="url(#p0b55c6d24f)" d="M 72 204.116047 
L 518.4 204.116047 
" style="fill:none;stroke:#ffffff;stroke-linecap:square;stroke-width:0.8;"/>
     </g>
     <g id="line2d_16">
      <g>
       <use style="fill:#555555;stroke:#555555;stroke-width:0.8;" x="72" xlink:href="#m7784aa7c71" y="204.116047"/>
      </g>
     </g>
     <g id="text_9">
      <!-- 0.4 -->
      <g style="fill:#555555;" transform="translate(49.096875 207.915266)scale(0.1 -0.1)">
       <use xlink:href="#DejaVuSans-30"/>
       <use x="63.623047" xlink:href="#DejaVuSans-2e"/>
       <use x="95.410156" xlink:href="#DejaVuSans-34"/>
      </g>
     </g>
    </g>
    <g id="ytick_3">
     <g id="line2d_17">
      <path clip-path="url(#p0b55c6d24f)" d="M 72 179.475627 
L 518.4 179.475627 
" style="fill:none;stroke:#ffffff;stroke-linecap:square;stroke-width:0.8;"/>
     </g>
     <g id="line2d_18">
      <g>
       <use style="fill:#555555;stroke:#555555;stroke-width:0.8;" x="72" xlink:href="#m7784aa7c71" y="179.475627"/>
      </g>
     </g>
     <g id="text_10">
      <!-- 0.6 -->
      <g style="fill:#555555;" transform="translate(49.096875 183.274846)scale(0.1 -0.1)">
       <use xlink:href="#DejaVuSans-30"/>
       <use x="63.623047" xlink:href="#DejaVuSans-2e"/>
       <use x="95.410156" xlink:href="#DejaVuSans-36"/>
      </g>
     </g>
    </g>
    <g id="ytick_4">
     <g id="line2d_19">
      <path clip-path="url(#p0b55c6d24f)" d="M 72 154.835207 
L 518.4 154.835207 
" style="fill:none;stroke:#ffffff;stroke-linecap:square;stroke-width:0.8;"/>
     </g>
     <g id="line2d_20">
      <g>
       <use style="fill:#555555;stroke:#555555;stroke-width:0.8;" x="72" xlink:href="#m7784aa7c71" y="154.835207"/>
      </g>
     </g>
     <g id="text_11">
      <!-- 0.8 -->
      <g style="fill:#555555;" transform="translate(49.096875 158.634426)scale(0.1 -0.1)">
       <use xlink:href="#DejaVuSans-30"/>
       <use x="63.623047" xlink:href="#DejaVuSans-2e"/>
       <use x="95.410156" xlink:href="#DejaVuSans-38"/>
      </g>
     </g>
    </g>
    <g id="ytick_5">
     <g id="line2d_21">
      <path clip-path="url(#p0b55c6d24f)" d="M 72 130.194787 
L 518.4 130.194787 
" style="fill:none;stroke:#ffffff;stroke-linecap:square;stroke-width:0.8;"/>
     </g>
     <g id="line2d_22">
      <g>
       <use style="fill:#555555;stroke:#555555;stroke-width:0.8;" x="72" xlink:href="#m7784aa7c71" y="130.194787"/>
      </g>
     </g>
     <g id="text_12">
      <!-- 1.0 -->
      <g style="fill:#555555;" transform="translate(49.096875 133.994005)scale(0.1 -0.1)">
       <use xlink:href="#DejaVuSans-31"/>
       <use x="63.623047" xlink:href="#DejaVuSans-2e"/>
       <use x="95.410156" xlink:href="#DejaVuSans-30"/>
      </g>
     </g>
    </g>
    <g id="ytick_6">
     <g id="line2d_23">
      <path clip-path="url(#p0b55c6d24f)" d="M 72 105.554366 
L 518.4 105.554366 
" style="fill:none;stroke:#ffffff;stroke-linecap:square;stroke-width:0.8;"/>
     </g>
     <g id="line2d_24">
      <g>
       <use style="fill:#555555;stroke:#555555;stroke-width:0.8;" x="72" xlink:href="#m7784aa7c71" y="105.554366"/>
      </g>
     </g>
     <g id="text_13">
      <!-- 1.2 -->
      <g style="fill:#555555;" transform="translate(49.096875 109.353585)scale(0.1 -0.1)">
       <use xlink:href="#DejaVuSans-31"/>
       <use x="63.623047" xlink:href="#DejaVuSans-2e"/>
       <use x="95.410156" xlink:href="#DejaVuSans-32"/>
      </g>
     </g>
    </g>
    <g id="ytick_7">
     <g id="line2d_25">
      <path clip-path="url(#p0b55c6d24f)" d="M 72 80.913946 
L 518.4 80.913946 
" style="fill:none;stroke:#ffffff;stroke-linecap:square;stroke-width:0.8;"/>
     </g>
     <g id="line2d_26">
      <g>
       <use style="fill:#555555;stroke:#555555;stroke-width:0.8;" x="72" xlink:href="#m7784aa7c71" y="80.913946"/>
      </g>
     </g>
     <g id="text_14">
      <!-- 1.4 -->
      <g style="fill:#555555;" transform="translate(49.096875 84.713165)scale(0.1 -0.1)">
       <use xlink:href="#DejaVuSans-31"/>
       <use x="63.623047" xlink:href="#DejaVuSans-2e"/>
       <use x="95.410156" xlink:href="#DejaVuSans-34"/>
      </g>
     </g>
    </g>
    <g id="ytick_8">
     <g id="line2d_27">
      <path clip-path="url(#p0b55c6d24f)" d="M 72 56.273526 
L 518.4 56.273526 
" style="fill:none;stroke:#ffffff;stroke-linecap:square;stroke-width:0.8;"/>
     </g>
     <g id="line2d_28">
      <g>
       <use style="fill:#555555;stroke:#555555;stroke-width:0.8;" x="72" xlink:href="#m7784aa7c71" y="56.273526"/>
      </g>
     </g>
     <g id="text_15">
      <!-- 1.6 -->
      <g style="fill:#555555;" transform="translate(49.096875 60.072745)scale(0.1 -0.1)">
       <use xlink:href="#DejaVuSans-31"/>
       <use x="63.623047" xlink:href="#DejaVuSans-2e"/>
       <use x="95.410156" xlink:href="#DejaVuSans-36"/>
      </g>
     </g>
    </g>
    <g id="text_16">
     <!-- Error -->
     <g style="fill:#555555;" transform="translate(42.60125 157.902187)rotate(-90)scale(0.12 -0.12)">
      <use xlink:href="#DejaVuSans-45"/>
      <use x="63.183594" xlink:href="#DejaVuSans-72"/>
      <use x="102.546875" xlink:href="#DejaVuSans-72"/>
      <use x="141.410156" xlink:href="#DejaVuSans-6f"/>
      <use x="202.591797" xlink:href="#DejaVuSans-72"/>
     </g>
    </g>
   </g>
   <g id="line2d_29">
    <path clip-path="url(#p0b55c6d24f)" d="M 92.290909 142.991828 
L 96.390083 167.415349 
L 100.489256 178.76675 
L 104.58843 184.77518 
L 108.687603 191.285475 
L 112.786777 193.845833 
L 116.88595 197.757656 
L 120.985124 199.681952 
L 125.084298 202.629509 
L 129.183471 202.301763 
L 133.282645 205.033196 
L 137.381818 206.628845 
L 141.480992 205.978965 
L 145.580165 208.233345 
L 149.679339 208.294286 
L 153.778512 210.627257 
L 157.877686 210.996913 
L 161.97686 212.518447 
L 166.076033 213.763953 
L 170.175207 214.211879 
L 174.27438 213.557732 
L 178.373554 213.622546 
L 182.472727 215.966678 
L 186.571901 216.241429 
L 190.671074 217.779243 
L 194.770248 217.441067 
L 198.869421 217.841283 
L 202.968595 218.306482 
L 207.067769 218.339818 
L 211.166942 218.653903 
L 215.266116 218.280829 
L 219.365289 219.957907 
L 223.464463 220.120916 
L 227.563636 220.136667 
L 231.66281 221.275081 
L 235.761983 220.644205 
L 239.861157 221.864548 
L 243.960331 222.413307 
L 248.059504 221.27576 
L 252.158678 222.62756 
L 256.257851 222.767159 
L 260.357025 223.902427 
L 264.456198 223.983895 
L 268.555372 223.642834 
L 272.654545 223.05358 
L 276.753719 224.67872 
L 280.852893 225.464777 
L 284.952066 225.559186 
L 289.05124 224.419505 
L 293.150413 225.078651 
L 297.249587 225.490401 
L 301.34876 225.964291 
L 305.447934 225.645295 
L 309.547107 226.369369 
L 313.646281 225.44486 
L 317.745455 226.907739 
L 321.844628 226.958052 
L 325.943802 227.192243 
L 330.042975 226.884689 
L 334.142149 228.182379 
L 338.241322 227.651951 
L 342.340496 227.589263 
L 346.439669 227.397653 
L 350.538843 226.898554 
L 354.638017 228.939329 
L 358.73719 228.776092 
L 362.836364 229.460889 
L 366.935537 230.136778 
L 371.034711 229.623717 
L 375.133884 229.627046 
L 379.233058 229.922717 
L 383.332231 229.834705 
L 387.431405 229.736956 
L 391.530579 230.291221 
L 395.629752 229.751614 
L 399.728926 230.181389 
L 403.828099 230.278543 
L 407.927273 229.326172 
L 412.026446 231.913999 
L 416.12562 230.53206 
L 420.224793 231.734267 
L 424.323967 231.47677 
L 428.42314 232.652633 
L 432.522314 231.736374 
L 436.621488 232.568478 
L 440.720661 232.384806 
L 444.819835 232.579209 
L 448.919008 231.499332 
L 453.018182 232.387648 
L 457.117355 233.501102 
L 461.216529 232.875147 
L 465.315702 232.74799 
L 469.414876 233.666404 
L 473.51405 231.898432 
L 477.613223 233.222792 
L 481.712397 233.334156 
L 485.81157 233.03956 
L 489.910744 234.154656 
L 494.009917 232.219801 
L 498.109091 233.746318 
" style="fill:none;stroke:#e24a33;stroke-linecap:square;stroke-width:1.5;"/>
   </g>
   <g id="line2d_30">
    <path clip-path="url(#p0b55c6d24f)" d="M 92.290909 159.280341 
L 96.390083 178.467145 
L 100.489256 189.299275 
L 104.58843 196.002916 
L 108.687603 199.096944 
L 112.786777 202.927364 
L 116.88595 206.835971 
L 120.985124 208.278876 
L 125.084298 211.131674 
L 129.183471 212.487251 
L 133.282645 213.284636 
L 137.381818 215.746779 
L 141.480992 217.050341 
L 145.580165 218.241999 
L 149.679339 219.112212 
L 153.778512 219.865144 
L 157.877686 220.966816 
L 161.97686 222.434692 
L 166.076033 223.972383 
L 170.175207 223.317751 
L 174.27438 224.843325 
L 178.373554 225.259423 
L 182.472727 225.734052 
L 186.571901 226.759633 
L 190.671074 227.625852 
L 194.770248 227.472068 
L 198.869421 228.793351 
L 202.968595 227.696915 
L 207.067769 229.08988 
L 211.166942 230.44896 
L 215.266116 230.894661 
L 219.365289 230.822783 
L 223.464463 230.88692 
L 227.563636 230.636249 
L 231.66281 231.910772 
L 235.761983 231.505252 
L 239.861157 232.307375 
L 243.960331 231.276672 
L 248.059504 233.325055 
L 252.158678 231.617091 
L 256.257851 233.749462 
L 260.357025 231.400858 
L 264.456198 234.092962 
L 268.555372 234.146037 
L 272.654545 234.374341 
L 276.753719 234.909806 
L 280.852893 234.403993 
L 284.952066 236.299925 
L 289.05124 234.556133 
L 293.150413 235.219148 
L 297.249587 234.82725 
L 301.34876 236.419909 
L 305.447934 234.874447 
L 309.547107 236.333563 
L 313.646281 236.604278 
L 317.745455 235.544959 
L 321.844628 236.578727 
L 325.943802 237.999911 
L 330.042975 237.513407 
L 334.142149 236.819777 
L 338.241322 238.789396 
L 342.340496 235.655723 
L 346.439669 235.738442 
L 350.538843 237.987957 
L 354.638017 237.313931 
L 358.73719 239.011036 
L 362.836364 237.941896 
L 366.935537 238.767437 
L 371.034711 237.789206 
L 375.133884 238.020604 
L 379.233058 239.54963 
L 383.332231 238.439059 
L 387.431405 240.11537 
L 391.530579 238.660156 
L 395.629752 239.231338 
L 399.728926 240.073947 
L 403.828099 238.551871 
L 407.927273 238.250955 
L 412.026446 238.814199 
L 416.12562 240.373645 
L 420.224793 238.674093 
L 424.323967 240.265011 
L 428.42314 240.591295 
L 432.522314 240.107094 
L 436.621488 240.353648 
L 440.720661 239.987502 
L 444.819835 240.680524 
L 448.919008 241.018489 
L 453.018182 240.728466 
L 457.117355 240.303826 
L 461.216529 239.18872 
L 465.315702 240.855488 
L 469.414876 241.096605 
L 473.51405 241.194561 
L 477.613223 241.299821 
L 481.712397 239.904573 
L 485.81157 241.333623 
L 489.910744 241.14029 
L 494.009917 242.116364 
L 498.109091 241.054661 
" style="fill:none;stroke:#348abd;stroke-linecap:square;stroke-width:1.5;"/>
   </g>
   <g id="line2d_31">
    <path clip-path="url(#p0b55c6d24f)" d="M 92.290909 167.699198 
L 96.390083 184.531631 
L 100.489256 194.686206 
L 104.58843 199.448219 
L 108.687603 202.099257 
L 112.786777 206.105052 
L 116.88595 208.619068 
L 120.985124 210.663112 
L 125.084298 213.743451 
L 129.183471 216.173981 
L 133.282645 215.942472 
L 137.381818 218.069421 
L 141.480992 219.279256 
L 145.580165 219.437377 
L 149.679339 221.423354 
L 153.778512 221.478679 
L 157.877686 222.656189 
L 161.97686 224.536394 
L 166.076033 224.853087 
L 170.175207 224.856089 
L 174.27438 226.024928 
L 178.373554 227.189641 
L 182.472727 227.745743 
L 186.571901 228.933824 
L 190.671074 228.138216 
L 194.770248 228.901032 
L 198.869421 231.027483 
L 202.968595 230.931623 
L 207.067769 230.763547 
L 211.166942 232.281403 
L 215.266116 230.754043 
L 219.365289 231.603591 
L 223.464463 231.914375 
L 227.563636 232.104477 
L 231.66281 230.635665 
L 235.761983 233.546344 
L 239.861157 233.265531 
L 243.960331 233.263732 
L 248.059504 234.338402 
L 252.158678 235.075592 
L 256.257851 233.433712 
L 260.357025 234.057627 
L 264.456198 235.165116 
L 268.555372 235.242796 
L 272.654545 235.131431 
L 276.753719 233.330898 
L 280.852893 235.899657 
L 284.952066 233.68429 
L 289.05124 233.918969 
L 293.150413 234.282503 
L 297.249587 234.827085 
L 301.34876 236.55898 
L 305.447934 236.134864 
L 309.547107 237.519973 
L 313.646281 237.316733 
L 317.745455 236.301659 
L 321.844628 236.122057 
L 325.943802 233.984231 
L 330.042975 236.163475 
L 334.142149 237.109001 
L 338.241322 236.274819 
L 342.340496 236.931205 
L 346.439669 237.566104 
L 350.538843 236.847087 
L 354.638017 238.550985 
L 358.73719 237.640229 
L 362.836364 237.543298 
L 366.935537 237.552923 
L 371.034711 236.386316 
L 375.133884 238.954478 
L 379.233058 238.834469 
L 383.332231 236.194936 
L 387.431405 239.900007 
L 391.530579 238.226419 
L 395.629752 240.249758 
L 399.728926 237.17412 
L 403.828099 237.004238 
L 407.927273 239.774919 
L 412.026446 239.379664 
L 416.12562 237.757662 
L 420.224793 238.398843 
L 424.323967 239.749391 
L 428.42314 236.666733 
L 432.522314 239.989231 
L 436.621488 240.382812 
L 440.720661 237.188685 
L 444.819835 240.107625 
L 448.919008 240.171002 
L 453.018182 238.197332 
L 457.117355 239.328452 
L 461.216529 239.430335 
L 465.315702 238.894374 
L 469.414876 238.920769 
L 473.51405 239.225705 
L 477.613223 239.701103 
L 481.712397 238.732001 
L 485.81157 239.990531 
L 489.910744 241.320348 
L 494.009917 238.659537 
L 498.109091 239.820506 
" style="fill:none;stroke:#988ed5;stroke-linecap:square;stroke-width:1.5;"/>
   </g>
   <g id="line2d_32">
    <path clip-path="url(#p0b55c6d24f)" d="M 92.290909 140.463303 
L 96.390083 162.798782 
L 100.489256 172.283434 
L 104.58843 177.218542 
L 108.687603 181.792773 
L 112.786777 183.167078 
L 116.88595 186.135528 
L 120.985124 185.953375 
L 125.084298 187.936335 
L 129.183471 187.165063 
L 133.282645 188.220342 
L 137.381818 188.368384 
L 141.480992 186.707758 
L 145.580165 187.567238 
L 149.679339 186.569924 
L 153.778512 187.909466 
L 157.877686 187.865835 
L 161.97686 187.657941 
L 166.076033 187.769809 
L 170.175207 186.985947 
L 174.27438 185.100813 
L 178.373554 184.08559 
L 182.472727 185.908547 
L 186.571901 184.576867 
L 190.671074 185.880405 
L 194.770248 184.006517 
L 198.869421 183.642901 
L 202.968595 182.906699 
L 207.067769 182.980386 
L 211.166942 182.009989 
L 215.266116 180.368937 
L 219.365289 180.611657 
L 223.464463 180.810886 
L 227.563636 179.309708 
L 231.66281 179.124164 
L 235.761983 178.55299 
L 239.861157 178.460421 
L 243.960331 177.802541 
L 248.059504 176.372335 
L 252.158678 177.476279 
L 256.257851 176.014678 
L 260.357025 176.305886 
L 264.456198 174.414997 
L 268.555372 173.784244 
L 272.654545 171.895889 
L 276.753719 172.307455 
L 280.852893 172.442654 
L 284.952066 172.165528 
L 289.05124 168.924302 
L 293.150413 169.755931 
L 297.249587 168.421442 
L 301.34876 168.11991 
L 305.447934 166.764768 
L 309.547107 168.505592 
L 313.646281 165.362185 
L 317.745455 166.906578 
L 321.844628 164.993309 
L 325.943802 164.899875 
L 330.042975 163.150698 
L 334.142149 164.379084 
L 338.241322 163.101163 
L 342.340496 161.186426 
L 346.439669 161.029022 
L 350.538843 159.002821 
L 354.638017 159.836732 
L 358.73719 159.958954 
L 362.836364 159.744467 
L 366.935537 158.9172 
L 371.034711 158.480769 
L 375.133884 157.154716 
L 379.233058 155.653805 
L 383.332231 155.284127 
L 387.431405 154.282837 
L 391.530579 155.57482 
L 395.629752 152.806973 
L 399.728926 152.409668 
L 403.828099 151.254165 
L 407.927273 149.535398 
L 412.026446 151.506342 
L 416.12562 148.51584 
L 420.224793 149.961445 
L 424.323967 148.554009 
L 428.42314 148.923872 
L 432.522314 147.498458 
L 436.621488 147.014648 
L 440.720661 145.509649 
L 444.819835 145.428015 
L 448.919008 143.574549 
L 453.018182 143.57043 
L 457.117355 143.403602 
L 461.216529 143.546029 
L 465.315702 141.443005 
L 469.414876 141.102956 
L 473.51405 137.240589 
L 477.613223 139.032995 
L 481.712397 138.649523 
L 485.81157 136.991256 
L 489.910744 136.845069 
L 494.009917 134.096311 
L 498.109091 134.854333 
" style="fill:none;stroke:#777777;stroke-dasharray:5.55,2.4;stroke-dashoffset:0;stroke-width:1.5;"/>
   </g>
   <g id="line2d_33">
    <path clip-path="url(#p0b55c6d24f)" d="M 92.290909 156.357141 
L 96.390083 172.775749 
L 100.489256 181.194778 
L 104.58843 186.40716 
L 108.687603 187.440212 
L 112.786777 190.10865 
L 116.88595 191.634209 
L 120.985124 191.222399 
L 125.084298 192.273116 
L 129.183471 191.526333 
L 133.282645 190.895912 
L 137.381818 192.203866 
L 141.480992 191.281782 
L 145.580165 189.873172 
L 149.679339 189.382395 
L 153.778512 188.217869 
L 157.877686 188.116699 
L 161.97686 187.815774 
L 166.076033 187.529692 
L 170.175207 184.00246 
L 174.27438 185.761975 
L 178.373554 183.023249 
L 182.472727 182.61702 
L 186.571901 179.994348 
L 190.671074 179.983798 
L 194.770248 176.519168 
L 198.869421 178.085006 
L 202.968595 174.681064 
L 207.067769 174.321216 
L 211.166942 173.489667 
L 215.266116 172.579591 
L 219.365289 170.4265 
L 223.464463 168.727416 
L 227.563636 165.898566 
L 231.66281 166.259145 
L 235.761983 164.064502 
L 239.861157 165.01869 
L 243.960331 158.873861 
L 248.059504 161.171369 
L 252.158678 154.635884 
L 256.257851 155.149077 
L 260.357025 151.696609 
L 264.456198 153.888228 
L 268.555372 150.145319 
L 272.654545 150.601292 
L 276.753719 147.675839 
L 280.852893 145.841267 
L 284.952066 147.523819 
L 289.05124 144.837055 
L 293.150413 144.403935 
L 297.249587 139.986059 
L 301.34876 137.36666 
L 305.447934 137.117266 
L 309.547107 135.263864 
L 313.646281 138.354631 
L 317.745455 132.453913 
L 321.844628 130.188101 
L 325.943802 130.155826 
L 330.042975 127.815306 
L 334.142149 126.92066 
L 338.241322 128.706342 
L 342.340496 124.643543 
L 346.439669 120.632487 
L 350.538843 118.355488 
L 354.638017 117.950305 
L 358.73719 118.132446 
L 362.836364 117.633509 
L 366.935537 113.567685 
L 371.034711 112.282929 
L 375.133884 109.817552 
L 379.233058 110.300267 
L 383.332231 105.391304 
L 387.431405 106.138553 
L 391.530579 102.61935 
L 395.629752 101.588436 
L 399.728926 100.667534 
L 403.828099 96.39835 
L 407.927273 95.517003 
L 412.026446 94.941227 
L 416.12562 93.506509 
L 420.224793 90.416494 
L 424.323967 91.786711 
L 428.42314 88.856942 
L 432.522314 90.511773 
L 436.621488 87.912121 
L 440.720661 78.744553 
L 444.819835 78.762398 
L 448.919008 79.630539 
L 453.018182 77.442643 
L 457.117355 80.183577 
L 461.216529 79.361819 
L 465.315702 74.658235 
L 469.414876 72.854798 
L 473.51405 68.676457 
L 477.613223 72.405821 
L 481.712397 62.434937 
L 485.81157 68.40229 
L 489.910744 65.471294 
L 494.009917 65.617466 
L 498.109091 61.227162 
" style="fill:none;stroke:#fbc15e;stroke-dasharray:5.55,2.4;stroke-dashoffset:0;stroke-width:1.5;"/>
   </g>
   <g id="line2d_34">
    <path clip-path="url(#p0b55c6d24f)" d="M 92.290909 164.428915 
L 96.390083 178.835696 
L 100.489256 186.022141 
L 104.58843 189.624931 
L 108.687603 189.819345 
L 112.786777 191.875546 
L 116.88595 191.542902 
L 120.985124 191.423165 
L 125.084298 192.841547 
L 129.183471 192.91107 
L 133.282645 191.540221 
L 137.381818 190.95764 
L 141.480992 190.288052 
L 145.580165 188.664758 
L 149.679339 188.419673 
L 153.778512 186.929585 
L 157.877686 184.113008 
L 161.97686 185.768697 
L 166.076033 182.953494 
L 170.175207 180.421388 
L 174.27438 179.485758 
L 178.373554 178.417114 
L 182.472727 179.070879 
L 186.571901 176.277919 
L 190.671074 175.003793 
L 194.770248 173.113494 
L 198.869421 172.469847 
L 202.968595 169.855511 
L 207.067769 166.13636 
L 211.166942 167.335624 
L 215.266116 161.930815 
L 219.365289 163.307909 
L 223.464463 157.49416 
L 227.563636 158.667031 
L 231.66281 150.766565 
L 235.761983 154.941375 
L 239.861157 152.308533 
L 243.960331 151.65168 
L 248.059504 149.436535 
L 252.158678 147.975897 
L 256.257851 145.858661 
L 260.357025 143.32216 
L 264.456198 144.798143 
L 268.555372 139.467167 
L 272.654545 138.500226 
L 276.753719 133.351957 
L 280.852893 134.520184 
L 284.952066 130.037518 
L 289.05124 134.802689 
L 293.150413 128.483388 
L 297.249587 123.043688 
L 301.34876 124.819224 
L 305.447934 123.156365 
L 309.547107 124.304824 
L 313.646281 117.754948 
L 317.745455 114.188532 
L 321.844628 113.874508 
L 325.943802 112.736032 
L 330.042975 113.074921 
L 334.142149 116.676603 
L 338.241322 108.415759 
L 342.340496 109.440075 
L 346.439669 106.853419 
L 350.538843 100.852226 
L 354.638017 106.371761 
L 358.73719 100.144095 
L 362.836364 99.218485 
L 366.935537 95.795169 
L 371.034711 93.367889 
L 375.133884 99.630493 
L 379.233058 96.863621 
L 383.332231 86.466461 
L 387.431405 94.877522 
L 391.530579 84.392899 
L 395.629752 94.547843 
L 399.728926 82.812235 
L 403.828099 82.710784 
L 407.927273 82.985177 
L 412.026446 79.224841 
L 416.12562 72.498443 
L 420.224793 76.374174 
L 424.323967 75.016369 
L 428.42314 65.632975 
L 432.522314 70.780089 
L 436.621488 69.952455 
L 440.720661 63.132757 
L 444.819835 64.949502 
L 448.919008 68.344923 
L 453.018182 66.376324 
L 457.117355 62.563248 
L 461.216529 58.051498 
L 465.315702 57.703549 
L 469.414876 58.987099 
L 473.51405 54.533356 
L 477.613223 58.028383 
L 481.712397 52.539808 
L 485.81157 49.983732 
L 489.910744 52.172669 
L 494.009917 44.443636 
L 498.109091 47.327729 
" style="fill:none;stroke:#8eba42;stroke-dasharray:5.55,2.4;stroke-dashoffset:0;stroke-width:1.5;"/>
   </g>
   <g id="patch_3">
    <path d="M 72 252 
L 72 34.56 
" style="fill:none;stroke:#ffffff;stroke-linecap:square;stroke-linejoin:miter;"/>
   </g>
   <g id="patch_4">
    <path d="M 518.4 252 
L 518.4 34.56 
" style="fill:none;stroke:#ffffff;stroke-linecap:square;stroke-linejoin:miter;"/>
   </g>
   <g id="patch_5">
    <path d="M 72 252 
L 518.4 252 
" style="fill:none;stroke:#ffffff;stroke-linecap:square;stroke-linejoin:miter;"/>
   </g>
   <g id="patch_6">
    <path d="M 72 34.56 
L 518.4 34.56 
" style="fill:none;stroke:#ffffff;stroke-linecap:square;stroke-linejoin:miter;"/>
   </g>
   <g id="legend_1">
    <g id="patch_7">
     <path d="M 79 130.62875 
L 178.225 130.62875 
Q 180.225 130.62875 180.225 128.62875 
L 180.225 41.56 
Q 180.225 39.56 178.225 39.56 
L 79 39.56 
Q 77 39.56 77 41.56 
L 77 128.62875 
Q 77 130.62875 79 130.62875 
z
" style="fill:#e5e5e5;opacity:0.8;stroke:#cccccc;stroke-linejoin:miter;stroke-width:0.5;"/>
    </g>
    <g id="line2d_35">
     <path d="M 81 47.658437 
L 101 47.658437 
" style="fill:none;stroke:#e24a33;stroke-linecap:square;stroke-width:1.5;"/>
    </g>
    <g id="line2d_36"/>
    <g id="text_17">
     <!-- depth1(train) -->
     <g transform="translate(109 51.158437)scale(0.1 -0.1)">
      <defs>
       <path d="M 2906 2969 
L 2906 4863 
L 3481 4863 
L 3481 0 
L 2906 0 
L 2906 525 
Q 2725 213 2448 61 
Q 2172 -91 1784 -91 
Q 1150 -91 751 415 
Q 353 922 353 1747 
Q 353 2572 751 3078 
Q 1150 3584 1784 3584 
Q 2172 3584 2448 3432 
Q 2725 3281 2906 2969 
z
M 947 1747 
Q 947 1113 1208 752 
Q 1469 391 1925 391 
Q 2381 391 2643 752 
Q 2906 1113 2906 1747 
Q 2906 2381 2643 2742 
Q 2381 3103 1925 3103 
Q 1469 3103 1208 2742 
Q 947 2381 947 1747 
z
" id="DejaVuSans-64" transform="scale(0.015625)"/>
       <path d="M 1172 4494 
L 1172 3500 
L 2356 3500 
L 2356 3053 
L 1172 3053 
L 1172 1153 
Q 1172 725 1289 603 
Q 1406 481 1766 481 
L 2356 481 
L 2356 0 
L 1766 0 
Q 1100 0 847 248 
Q 594 497 594 1153 
L 594 3053 
L 172 3053 
L 172 3500 
L 594 3500 
L 594 4494 
L 1172 4494 
z
" id="DejaVuSans-74" transform="scale(0.015625)"/>
       <path d="M 1984 4856 
Q 1566 4138 1362 3434 
Q 1159 2731 1159 2009 
Q 1159 1288 1364 580 
Q 1569 -128 1984 -844 
L 1484 -844 
Q 1016 -109 783 600 
Q 550 1309 550 2009 
Q 550 2706 781 3412 
Q 1013 4119 1484 4856 
L 1984 4856 
z
" id="DejaVuSans-28" transform="scale(0.015625)"/>
       <path d="M 2194 1759 
Q 1497 1759 1228 1600 
Q 959 1441 959 1056 
Q 959 750 1161 570 
Q 1363 391 1709 391 
Q 2188 391 2477 730 
Q 2766 1069 2766 1631 
L 2766 1759 
L 2194 1759 
z
M 3341 1997 
L 3341 0 
L 2766 0 
L 2766 531 
Q 2569 213 2275 61 
Q 1981 -91 1556 -91 
Q 1019 -91 701 211 
Q 384 513 384 1019 
Q 384 1609 779 1909 
Q 1175 2209 1959 2209 
L 2766 2209 
L 2766 2266 
Q 2766 2663 2505 2880 
Q 2244 3097 1772 3097 
Q 1472 3097 1187 3025 
Q 903 2953 641 2809 
L 641 3341 
Q 956 3463 1253 3523 
Q 1550 3584 1831 3584 
Q 2591 3584 2966 3190 
Q 3341 2797 3341 1997 
z
" id="DejaVuSans-61" transform="scale(0.015625)"/>
       <path d="M 603 3500 
L 1178 3500 
L 1178 0 
L 603 0 
L 603 3500 
z
M 603 4863 
L 1178 4863 
L 1178 4134 
L 603 4134 
L 603 4863 
z
" id="DejaVuSans-69" transform="scale(0.015625)"/>
       <path d="M 513 4856 
L 1013 4856 
Q 1481 4119 1714 3412 
Q 1947 2706 1947 2009 
Q 1947 1309 1714 600 
Q 1481 -109 1013 -844 
L 513 -844 
Q 928 -128 1133 580 
Q 1338 1288 1338 2009 
Q 1338 2731 1133 3434 
Q 928 4138 513 4856 
z
" id="DejaVuSans-29" transform="scale(0.015625)"/>
      </defs>
      <use xlink:href="#DejaVuSans-64"/>
      <use x="63.476562" xlink:href="#DejaVuSans-65"/>
      <use x="125" xlink:href="#DejaVuSans-70"/>
      <use x="188.476562" xlink:href="#DejaVuSans-74"/>
      <use x="227.685547" xlink:href="#DejaVuSans-68"/>
      <use x="291.064453" xlink:href="#DejaVuSans-31"/>
      <use x="354.6875" xlink:href="#DejaVuSans-28"/>
      <use x="393.701172" xlink:href="#DejaVuSans-74"/>
      <use x="432.910156" xlink:href="#DejaVuSans-72"/>
      <use x="474.023438" xlink:href="#DejaVuSans-61"/>
      <use x="535.302734" xlink:href="#DejaVuSans-69"/>
      <use x="563.085938" xlink:href="#DejaVuSans-6e"/>
      <use x="626.464844" xlink:href="#DejaVuSans-29"/>
     </g>
    </g>
    <g id="line2d_37">
     <path d="M 81 62.336562 
L 101 62.336562 
" style="fill:none;stroke:#348abd;stroke-linecap:square;stroke-width:1.5;"/>
    </g>
    <g id="line2d_38"/>
    <g id="text_18">
     <!-- depth2(train) -->
     <g transform="translate(109 65.836562)scale(0.1 -0.1)">
      <use xlink:href="#DejaVuSans-64"/>
      <use x="63.476562" xlink:href="#DejaVuSans-65"/>
      <use x="125" xlink:href="#DejaVuSans-70"/>
      <use x="188.476562" xlink:href="#DejaVuSans-74"/>
      <use x="227.685547" xlink:href="#DejaVuSans-68"/>
      <use x="291.064453" xlink:href="#DejaVuSans-32"/>
      <use x="354.6875" xlink:href="#DejaVuSans-28"/>
      <use x="393.701172" xlink:href="#DejaVuSans-74"/>
      <use x="432.910156" xlink:href="#DejaVuSans-72"/>
      <use x="474.023438" xlink:href="#DejaVuSans-61"/>
      <use x="535.302734" xlink:href="#DejaVuSans-69"/>
      <use x="563.085938" xlink:href="#DejaVuSans-6e"/>
      <use x="626.464844" xlink:href="#DejaVuSans-29"/>
     </g>
    </g>
    <g id="line2d_39">
     <path d="M 81 77.014687 
L 101 77.014687 
" style="fill:none;stroke:#988ed5;stroke-linecap:square;stroke-width:1.5;"/>
    </g>
    <g id="line2d_40"/>
    <g id="text_19">
     <!-- depth3(train) -->
     <g transform="translate(109 80.514687)scale(0.1 -0.1)">
      <defs>
       <path d="M 2597 2516 
Q 3050 2419 3304 2112 
Q 3559 1806 3559 1356 
Q 3559 666 3084 287 
Q 2609 -91 1734 -91 
Q 1441 -91 1130 -33 
Q 819 25 488 141 
L 488 750 
Q 750 597 1062 519 
Q 1375 441 1716 441 
Q 2309 441 2620 675 
Q 2931 909 2931 1356 
Q 2931 1769 2642 2001 
Q 2353 2234 1838 2234 
L 1294 2234 
L 1294 2753 
L 1863 2753 
Q 2328 2753 2575 2939 
Q 2822 3125 2822 3475 
Q 2822 3834 2567 4026 
Q 2313 4219 1838 4219 
Q 1578 4219 1281 4162 
Q 984 4106 628 3988 
L 628 4550 
Q 988 4650 1302 4700 
Q 1616 4750 1894 4750 
Q 2613 4750 3031 4423 
Q 3450 4097 3450 3541 
Q 3450 3153 3228 2886 
Q 3006 2619 2597 2516 
z
" id="DejaVuSans-33" transform="scale(0.015625)"/>
      </defs>
      <use xlink:href="#DejaVuSans-64"/>
      <use x="63.476562" xlink:href="#DejaVuSans-65"/>
      <use x="125" xlink:href="#DejaVuSans-70"/>
      <use x="188.476562" xlink:href="#DejaVuSans-74"/>
      <use x="227.685547" xlink:href="#DejaVuSans-68"/>
      <use x="291.064453" xlink:href="#DejaVuSans-33"/>
      <use x="354.6875" xlink:href="#DejaVuSans-28"/>
      <use x="393.701172" xlink:href="#DejaVuSans-74"/>
      <use x="432.910156" xlink:href="#DejaVuSans-72"/>
      <use x="474.023438" xlink:href="#DejaVuSans-61"/>
      <use x="535.302734" xlink:href="#DejaVuSans-69"/>
      <use x="563.085938" xlink:href="#DejaVuSans-6e"/>
      <use x="626.464844" xlink:href="#DejaVuSans-29"/>
     </g>
    </g>
    <g id="line2d_41">
     <path d="M 81 91.692813 
L 101 91.692813 
" style="fill:none;stroke:#777777;stroke-dasharray:5.55,2.4;stroke-dashoffset:0;stroke-width:1.5;"/>
    </g>
    <g id="line2d_42"/>
    <g id="text_20">
     <!-- depth1(valid) -->
     <g transform="translate(109 95.192813)scale(0.1 -0.1)">
      <defs>
       <path d="M 191 3500 
L 800 3500 
L 1894 563 
L 2988 3500 
L 3597 3500 
L 2284 0 
L 1503 0 
L 191 3500 
z
" id="DejaVuSans-76" transform="scale(0.015625)"/>
       <path d="M 603 4863 
L 1178 4863 
L 1178 0 
L 603 0 
L 603 4863 
z
" id="DejaVuSans-6c" transform="scale(0.015625)"/>
      </defs>
      <use xlink:href="#DejaVuSans-64"/>
      <use x="63.476562" xlink:href="#DejaVuSans-65"/>
      <use x="125" xlink:href="#DejaVuSans-70"/>
      <use x="188.476562" xlink:href="#DejaVuSans-74"/>
      <use x="227.685547" xlink:href="#DejaVuSans-68"/>
      <use x="291.064453" xlink:href="#DejaVuSans-31"/>
      <use x="354.6875" xlink:href="#DejaVuSans-28"/>
      <use x="393.701172" xlink:href="#DejaVuSans-76"/>
      <use x="452.880859" xlink:href="#DejaVuSans-61"/>
      <use x="514.160156" xlink:href="#DejaVuSans-6c"/>
      <use x="541.943359" xlink:href="#DejaVuSans-69"/>
      <use x="569.726562" xlink:href="#DejaVuSans-64"/>
      <use x="633.203125" xlink:href="#DejaVuSans-29"/>
     </g>
    </g>
    <g id="line2d_43">
     <path d="M 81 106.370937 
L 101 106.370937 
" style="fill:none;stroke:#fbc15e;stroke-dasharray:5.55,2.4;stroke-dashoffset:0;stroke-width:1.5;"/>
    </g>
    <g id="line2d_44"/>
    <g id="text_21">
     <!-- depth2(valid) -->
     <g transform="translate(109 109.870937)scale(0.1 -0.1)">
      <use xlink:href="#DejaVuSans-64"/>
      <use x="63.476562" xlink:href="#DejaVuSans-65"/>
      <use x="125" xlink:href="#DejaVuSans-70"/>
      <use x="188.476562" xlink:href="#DejaVuSans-74"/>
      <use x="227.685547" xlink:href="#DejaVuSans-68"/>
      <use x="291.064453" xlink:href="#DejaVuSans-32"/>
      <use x="354.6875" xlink:href="#DejaVuSans-28"/>
      <use x="393.701172" xlink:href="#DejaVuSans-76"/>
      <use x="452.880859" xlink:href="#DejaVuSans-61"/>
      <use x="514.160156" xlink:href="#DejaVuSans-6c"/>
      <use x="541.943359" xlink:href="#DejaVuSans-69"/>
      <use x="569.726562" xlink:href="#DejaVuSans-64"/>
      <use x="633.203125" xlink:href="#DejaVuSans-29"/>
     </g>
    </g>
    <g id="line2d_45">
     <path d="M 81 121.049062 
L 101 121.049062 
" style="fill:none;stroke:#8eba42;stroke-dasharray:5.55,2.4;stroke-dashoffset:0;stroke-width:1.5;"/>
    </g>
    <g id="line2d_46"/>
    <g id="text_22">
     <!-- depth3(valid) -->
     <g transform="translate(109 124.549062)scale(0.1 -0.1)">
      <use xlink:href="#DejaVuSans-64"/>
      <use x="63.476562" xlink:href="#DejaVuSans-65"/>
      <use x="125" xlink:href="#DejaVuSans-70"/>
      <use x="188.476562" xlink:href="#DejaVuSans-74"/>
      <use x="227.685547" xlink:href="#DejaVuSans-68"/>
      <use x="291.064453" xlink:href="#DejaVuSans-33"/>
      <use x="354.6875" xlink:href="#DejaVuSans-28"/>
      <use x="393.701172" xlink:href="#DejaVuSans-76"/>
      <use x="452.880859" xlink:href="#DejaVuSans-61"/>
      <use x="514.160156" xlink:href="#DejaVuSans-6c"/>
      <use x="541.943359" xlink:href="#DejaVuSans-69"/>
      <use x="569.726562" xlink:href="#DejaVuSans-64"/>
      <use x="633.203125" xlink:href="#DejaVuSans-29"/>
     </g>
    </g>
   </g>
  </g>
 </g>
 <defs>
  <clipPath id="p0b55c6d24f">
   <rect height="217.44" width="446.4" x="72" y="34.56"/>
  </clipPath>
 </defs>
</svg>
