<?xml version="1.0" encoding="utf-8" standalone="no"?>
<!DOCTYPE svg PUBLIC "-//W3C//DTD SVG 1.1//EN"
  "http://www.w3.org/Graphics/SVG/1.1/DTD/svg11.dtd">
<svg height="288pt" version="1.1" viewBox="0 0 576 288" width="576pt" xmlns="http://www.w3.org/2000/svg" xmlns:xlink="http://www.w3.org/1999/xlink">
 <metadata>
  <rdf:RDF xmlns:cc="http://creativecommons.org/ns#" xmlns:dc="http://purl.org/dc/elements/1.1/" xmlns:rdf="http://www.w3.org/1999/02/22-rdf-syntax-ns#">
   <cc:Work>
    <dc:type rdf:resource="http://purl.org/dc/dcmitype/StillImage"/>
    <dc:date>2021-11-07T20:36:31.345568</dc:date>
    <dc:format>image/svg+xml</dc:format>
    <dc:creator>
     <cc:Agent>
      <dc:title>Matplotlib v3.4.2, https://matplotlib.org/</dc:title>
     </cc:Agent>
    </dc:creator>
   </cc:Work>
  </rdf:RDF>
 </metadata>
 <defs>
  <style type="text/css">*{stroke-linecap:butt;stroke-linejoin:round;}</style>
 </defs>
 <g id="figure_1">
  <g id="patch_1">
   <path d="M 0 288 
L 576 288 
L 576 0 
L 0 0 
z
" style="fill:#ffffff;"/>
  </g>
  <g id="axes_1">
   <g id="patch_2">
    <path d="M 72 252 
L 518.4 252 
L 518.4 34.56 
L 72 34.56 
z
" style="fill:#e5e5e5;"/>
   </g>
   <g id="matplotlib.axis_1">
    <g id="xtick_1">
     <g id="line2d_1">
      <path clip-path="url(#p16901d4c13)" d="M 88.191736 252 
L 88.191736 34.56 
" style="fill:none;stroke:#ffffff;stroke-linecap:square;stroke-width:0.8;"/>
     </g>
     <g id="line2d_2">
      <defs>
       <path d="M 0 0 
L 0 3.5 
" id="m037a7f37d8" style="stroke:#555555;stroke-width:0.8;"/>
      </defs>
      <g>
       <use style="fill:#555555;stroke:#555555;stroke-width:0.8;" x="88.191736" xlink:href="#m037a7f37d8" y="252"/>
      </g>
     </g>
     <g id="text_1">
      <!-- 0 -->
      <g style="fill:#555555;" transform="translate(85.010486 266.598437)scale(0.1 -0.1)">
       <defs>
        <path d="M 2034 4250 
Q 1547 4250 1301 3770 
Q 1056 3291 1056 2328 
Q 1056 1369 1301 889 
Q 1547 409 2034 409 
Q 2525 409 2770 889 
Q 3016 1369 3016 2328 
Q 3016 3291 2770 3770 
Q 2525 4250 2034 4250 
z
M 2034 4750 
Q 2819 4750 3233 4129 
Q 3647 3509 3647 2328 
Q 3647 1150 3233 529 
Q 2819 -91 2034 -91 
Q 1250 -91 836 529 
Q 422 1150 422 2328 
Q 422 3509 836 4129 
Q 1250 4750 2034 4750 
z
" id="DejaVuSans-30" transform="scale(0.015625)"/>
       </defs>
       <use xlink:href="#DejaVuSans-30"/>
      </g>
     </g>
    </g>
    <g id="xtick_2">
     <g id="line2d_3">
      <path clip-path="url(#p16901d4c13)" d="M 170.175207 252 
L 170.175207 34.56 
" style="fill:none;stroke:#ffffff;stroke-linecap:square;stroke-width:0.8;"/>
     </g>
     <g id="line2d_4">
      <g>
       <use style="fill:#555555;stroke:#555555;stroke-width:0.8;" x="170.175207" xlink:href="#m037a7f37d8" y="252"/>
      </g>
     </g>
     <g id="text_2">
      <!-- 20 -->
      <g style="fill:#555555;" transform="translate(163.812707 266.598437)scale(0.1 -0.1)">
       <defs>
        <path d="M 1228 531 
L 3431 531 
L 3431 0 
L 469 0 
L 469 531 
Q 828 903 1448 1529 
Q 2069 2156 2228 2338 
Q 2531 2678 2651 2914 
Q 2772 3150 2772 3378 
Q 2772 3750 2511 3984 
Q 2250 4219 1831 4219 
Q 1534 4219 1204 4116 
Q 875 4013 500 3803 
L 500 4441 
Q 881 4594 1212 4672 
Q 1544 4750 1819 4750 
Q 2544 4750 2975 4387 
Q 3406 4025 3406 3419 
Q 3406 3131 3298 2873 
Q 3191 2616 2906 2266 
Q 2828 2175 2409 1742 
Q 1991 1309 1228 531 
z
" id="DejaVuSans-32" transform="scale(0.015625)"/>
       </defs>
       <use xlink:href="#DejaVuSans-32"/>
       <use x="63.623047" xlink:href="#DejaVuSans-30"/>
      </g>
     </g>
    </g>
    <g id="xtick_3">
     <g id="line2d_5">
      <path clip-path="url(#p16901d4c13)" d="M 252.158678 252 
L 252.158678 34.56 
" style="fill:none;stroke:#ffffff;stroke-linecap:square;stroke-width:0.8;"/>
     </g>
     <g id="line2d_6">
      <g>
       <use style="fill:#555555;stroke:#555555;stroke-width:0.8;" x="252.158678" xlink:href="#m037a7f37d8" y="252"/>
      </g>
     </g>
     <g id="text_3">
      <!-- 40 -->
      <g style="fill:#555555;" transform="translate(245.796178 266.598437)scale(0.1 -0.1)">
       <defs>
        <path d="M 2419 4116 
L 825 1625 
L 2419 1625 
L 2419 4116 
z
M 2253 4666 
L 3047 4666 
L 3047 1625 
L 3713 1625 
L 3713 1100 
L 3047 1100 
L 3047 0 
L 2419 0 
L 2419 1100 
L 313 1100 
L 313 1709 
L 2253 4666 
z
" id="DejaVuSans-34" transform="scale(0.015625)"/>
       </defs>
       <use xlink:href="#DejaVuSans-34"/>
       <use x="63.623047" xlink:href="#DejaVuSans-30"/>
      </g>
     </g>
    </g>
    <g id="xtick_4">
     <g id="line2d_7">
      <path clip-path="url(#p16901d4c13)" d="M 334.142149 252 
L 334.142149 34.56 
" style="fill:none;stroke:#ffffff;stroke-linecap:square;stroke-width:0.8;"/>
     </g>
     <g id="line2d_8">
      <g>
       <use style="fill:#555555;stroke:#555555;stroke-width:0.8;" x="334.142149" xlink:href="#m037a7f37d8" y="252"/>
      </g>
     </g>
     <g id="text_4">
      <!-- 60 -->
      <g style="fill:#555555;" transform="translate(327.779649 266.598437)scale(0.1 -0.1)">
       <defs>
        <path d="M 2113 2584 
Q 1688 2584 1439 2293 
Q 1191 2003 1191 1497 
Q 1191 994 1439 701 
Q 1688 409 2113 409 
Q 2538 409 2786 701 
Q 3034 994 3034 1497 
Q 3034 2003 2786 2293 
Q 2538 2584 2113 2584 
z
M 3366 4563 
L 3366 3988 
Q 3128 4100 2886 4159 
Q 2644 4219 2406 4219 
Q 1781 4219 1451 3797 
Q 1122 3375 1075 2522 
Q 1259 2794 1537 2939 
Q 1816 3084 2150 3084 
Q 2853 3084 3261 2657 
Q 3669 2231 3669 1497 
Q 3669 778 3244 343 
Q 2819 -91 2113 -91 
Q 1303 -91 875 529 
Q 447 1150 447 2328 
Q 447 3434 972 4092 
Q 1497 4750 2381 4750 
Q 2619 4750 2861 4703 
Q 3103 4656 3366 4563 
z
" id="DejaVuSans-36" transform="scale(0.015625)"/>
       </defs>
       <use xlink:href="#DejaVuSans-36"/>
       <use x="63.623047" xlink:href="#DejaVuSans-30"/>
      </g>
     </g>
    </g>
    <g id="xtick_5">
     <g id="line2d_9">
      <path clip-path="url(#p16901d4c13)" d="M 416.12562 252 
L 416.12562 34.56 
" style="fill:none;stroke:#ffffff;stroke-linecap:square;stroke-width:0.8;"/>
     </g>
     <g id="line2d_10">
      <g>
       <use style="fill:#555555;stroke:#555555;stroke-width:0.8;" x="416.12562" xlink:href="#m037a7f37d8" y="252"/>
      </g>
     </g>
     <g id="text_5">
      <!-- 80 -->
      <g style="fill:#555555;" transform="translate(409.76312 266.598437)scale(0.1 -0.1)">
       <defs>
        <path d="M 2034 2216 
Q 1584 2216 1326 1975 
Q 1069 1734 1069 1313 
Q 1069 891 1326 650 
Q 1584 409 2034 409 
Q 2484 409 2743 651 
Q 3003 894 3003 1313 
Q 3003 1734 2745 1975 
Q 2488 2216 2034 2216 
z
M 1403 2484 
Q 997 2584 770 2862 
Q 544 3141 544 3541 
Q 544 4100 942 4425 
Q 1341 4750 2034 4750 
Q 2731 4750 3128 4425 
Q 3525 4100 3525 3541 
Q 3525 3141 3298 2862 
Q 3072 2584 2669 2484 
Q 3125 2378 3379 2068 
Q 3634 1759 3634 1313 
Q 3634 634 3220 271 
Q 2806 -91 2034 -91 
Q 1263 -91 848 271 
Q 434 634 434 1313 
Q 434 1759 690 2068 
Q 947 2378 1403 2484 
z
M 1172 3481 
Q 1172 3119 1398 2916 
Q 1625 2713 2034 2713 
Q 2441 2713 2670 2916 
Q 2900 3119 2900 3481 
Q 2900 3844 2670 4047 
Q 2441 4250 2034 4250 
Q 1625 4250 1398 4047 
Q 1172 3844 1172 3481 
z
" id="DejaVuSans-38" transform="scale(0.015625)"/>
       </defs>
       <use xlink:href="#DejaVuSans-38"/>
       <use x="63.623047" xlink:href="#DejaVuSans-30"/>
      </g>
     </g>
    </g>
    <g id="xtick_6">
     <g id="line2d_11">
      <path clip-path="url(#p16901d4c13)" d="M 498.109091 252 
L 498.109091 34.56 
" style="fill:none;stroke:#ffffff;stroke-linecap:square;stroke-width:0.8;"/>
     </g>
     <g id="line2d_12">
      <g>
       <use style="fill:#555555;stroke:#555555;stroke-width:0.8;" x="498.109091" xlink:href="#m037a7f37d8" y="252"/>
      </g>
     </g>
     <g id="text_6">
      <!-- 100 -->
      <g style="fill:#555555;" transform="translate(488.565341 266.598437)scale(0.1 -0.1)">
       <defs>
        <path d="M 794 531 
L 1825 531 
L 1825 4091 
L 703 3866 
L 703 4441 
L 1819 4666 
L 2450 4666 
L 2450 531 
L 3481 531 
L 3481 0 
L 794 0 
L 794 531 
z
" id="DejaVuSans-31" transform="scale(0.015625)"/>
       </defs>
       <use xlink:href="#DejaVuSans-31"/>
       <use x="63.623047" xlink:href="#DejaVuSans-30"/>
       <use x="127.246094" xlink:href="#DejaVuSans-30"/>
      </g>
     </g>
    </g>
    <g id="text_7">
     <!-- Epoch number -->
     <g style="fill:#555555;" transform="translate(251.503125 281.79625)scale(0.12 -0.12)">
      <defs>
       <path d="M 628 4666 
L 3578 4666 
L 3578 4134 
L 1259 4134 
L 1259 2753 
L 3481 2753 
L 3481 2222 
L 1259 2222 
L 1259 531 
L 3634 531 
L 3634 0 
L 628 0 
L 628 4666 
z
" id="DejaVuSans-45" transform="scale(0.015625)"/>
       <path d="M 1159 525 
L 1159 -1331 
L 581 -1331 
L 581 3500 
L 1159 3500 
L 1159 2969 
Q 1341 3281 1617 3432 
Q 1894 3584 2278 3584 
Q 2916 3584 3314 3078 
Q 3713 2572 3713 1747 
Q 3713 922 3314 415 
Q 2916 -91 2278 -91 
Q 1894 -91 1617 61 
Q 1341 213 1159 525 
z
M 3116 1747 
Q 3116 2381 2855 2742 
Q 2594 3103 2138 3103 
Q 1681 3103 1420 2742 
Q 1159 2381 1159 1747 
Q 1159 1113 1420 752 
Q 1681 391 2138 391 
Q 2594 391 2855 752 
Q 3116 1113 3116 1747 
z
" id="DejaVuSans-70" transform="scale(0.015625)"/>
       <path d="M 1959 3097 
Q 1497 3097 1228 2736 
Q 959 2375 959 1747 
Q 959 1119 1226 758 
Q 1494 397 1959 397 
Q 2419 397 2687 759 
Q 2956 1122 2956 1747 
Q 2956 2369 2687 2733 
Q 2419 3097 1959 3097 
z
M 1959 3584 
Q 2709 3584 3137 3096 
Q 3566 2609 3566 1747 
Q 3566 888 3137 398 
Q 2709 -91 1959 -91 
Q 1206 -91 779 398 
Q 353 888 353 1747 
Q 353 2609 779 3096 
Q 1206 3584 1959 3584 
z
" id="DejaVuSans-6f" transform="scale(0.015625)"/>
       <path d="M 3122 3366 
L 3122 2828 
Q 2878 2963 2633 3030 
Q 2388 3097 2138 3097 
Q 1578 3097 1268 2742 
Q 959 2388 959 1747 
Q 959 1106 1268 751 
Q 1578 397 2138 397 
Q 2388 397 2633 464 
Q 2878 531 3122 666 
L 3122 134 
Q 2881 22 2623 -34 
Q 2366 -91 2075 -91 
Q 1284 -91 818 406 
Q 353 903 353 1747 
Q 353 2603 823 3093 
Q 1294 3584 2113 3584 
Q 2378 3584 2631 3529 
Q 2884 3475 3122 3366 
z
" id="DejaVuSans-63" transform="scale(0.015625)"/>
       <path d="M 3513 2113 
L 3513 0 
L 2938 0 
L 2938 2094 
Q 2938 2591 2744 2837 
Q 2550 3084 2163 3084 
Q 1697 3084 1428 2787 
Q 1159 2491 1159 1978 
L 1159 0 
L 581 0 
L 581 4863 
L 1159 4863 
L 1159 2956 
Q 1366 3272 1645 3428 
Q 1925 3584 2291 3584 
Q 2894 3584 3203 3211 
Q 3513 2838 3513 2113 
z
" id="DejaVuSans-68" transform="scale(0.015625)"/>
       <path id="DejaVuSans-20" transform="scale(0.015625)"/>
       <path d="M 3513 2113 
L 3513 0 
L 2938 0 
L 2938 2094 
Q 2938 2591 2744 2837 
Q 2550 3084 2163 3084 
Q 1697 3084 1428 2787 
Q 1159 2491 1159 1978 
L 1159 0 
L 581 0 
L 581 3500 
L 1159 3500 
L 1159 2956 
Q 1366 3272 1645 3428 
Q 1925 3584 2291 3584 
Q 2894 3584 3203 3211 
Q 3513 2838 3513 2113 
z
" id="DejaVuSans-6e" transform="scale(0.015625)"/>
       <path d="M 544 1381 
L 544 3500 
L 1119 3500 
L 1119 1403 
Q 1119 906 1312 657 
Q 1506 409 1894 409 
Q 2359 409 2629 706 
Q 2900 1003 2900 1516 
L 2900 3500 
L 3475 3500 
L 3475 0 
L 2900 0 
L 2900 538 
Q 2691 219 2414 64 
Q 2138 -91 1772 -91 
Q 1169 -91 856 284 
Q 544 659 544 1381 
z
M 1991 3584 
L 1991 3584 
z
" id="DejaVuSans-75" transform="scale(0.015625)"/>
       <path d="M 3328 2828 
Q 3544 3216 3844 3400 
Q 4144 3584 4550 3584 
Q 5097 3584 5394 3201 
Q 5691 2819 5691 2113 
L 5691 0 
L 5113 0 
L 5113 2094 
Q 5113 2597 4934 2840 
Q 4756 3084 4391 3084 
Q 3944 3084 3684 2787 
Q 3425 2491 3425 1978 
L 3425 0 
L 2847 0 
L 2847 2094 
Q 2847 2600 2669 2842 
Q 2491 3084 2119 3084 
Q 1678 3084 1418 2786 
Q 1159 2488 1159 1978 
L 1159 0 
L 581 0 
L 581 3500 
L 1159 3500 
L 1159 2956 
Q 1356 3278 1631 3431 
Q 1906 3584 2284 3584 
Q 2666 3584 2933 3390 
Q 3200 3197 3328 2828 
z
" id="DejaVuSans-6d" transform="scale(0.015625)"/>
       <path d="M 3116 1747 
Q 3116 2381 2855 2742 
Q 2594 3103 2138 3103 
Q 1681 3103 1420 2742 
Q 1159 2381 1159 1747 
Q 1159 1113 1420 752 
Q 1681 391 2138 391 
Q 2594 391 2855 752 
Q 3116 1113 3116 1747 
z
M 1159 2969 
Q 1341 3281 1617 3432 
Q 1894 3584 2278 3584 
Q 2916 3584 3314 3078 
Q 3713 2572 3713 1747 
Q 3713 922 3314 415 
Q 2916 -91 2278 -91 
Q 1894 -91 1617 61 
Q 1341 213 1159 525 
L 1159 0 
L 581 0 
L 581 4863 
L 1159 4863 
L 1159 2969 
z
" id="DejaVuSans-62" transform="scale(0.015625)"/>
       <path d="M 3597 1894 
L 3597 1613 
L 953 1613 
Q 991 1019 1311 708 
Q 1631 397 2203 397 
Q 2534 397 2845 478 
Q 3156 559 3463 722 
L 3463 178 
Q 3153 47 2828 -22 
Q 2503 -91 2169 -91 
Q 1331 -91 842 396 
Q 353 884 353 1716 
Q 353 2575 817 3079 
Q 1281 3584 2069 3584 
Q 2775 3584 3186 3129 
Q 3597 2675 3597 1894 
z
M 3022 2063 
Q 3016 2534 2758 2815 
Q 2500 3097 2075 3097 
Q 1594 3097 1305 2825 
Q 1016 2553 972 2059 
L 3022 2063 
z
" id="DejaVuSans-65" transform="scale(0.015625)"/>
       <path d="M 2631 2963 
Q 2534 3019 2420 3045 
Q 2306 3072 2169 3072 
Q 1681 3072 1420 2755 
Q 1159 2438 1159 1844 
L 1159 0 
L 581 0 
L 581 3500 
L 1159 3500 
L 1159 2956 
Q 1341 3275 1631 3429 
Q 1922 3584 2338 3584 
Q 2397 3584 2469 3576 
Q 2541 3569 2628 3553 
L 2631 2963 
z
" id="DejaVuSans-72" transform="scale(0.015625)"/>
      </defs>
      <use xlink:href="#DejaVuSans-45"/>
      <use x="63.183594" xlink:href="#DejaVuSans-70"/>
      <use x="126.660156" xlink:href="#DejaVuSans-6f"/>
      <use x="187.841797" xlink:href="#DejaVuSans-63"/>
      <use x="242.822266" xlink:href="#DejaVuSans-68"/>
      <use x="306.201172" xlink:href="#DejaVuSans-20"/>
      <use x="337.988281" xlink:href="#DejaVuSans-6e"/>
      <use x="401.367188" xlink:href="#DejaVuSans-75"/>
      <use x="464.746094" xlink:href="#DejaVuSans-6d"/>
      <use x="562.158203" xlink:href="#DejaVuSans-62"/>
      <use x="625.634766" xlink:href="#DejaVuSans-65"/>
      <use x="687.158203" xlink:href="#DejaVuSans-72"/>
     </g>
    </g>
   </g>
   <g id="matplotlib.axis_2">
    <g id="ytick_1">
     <g id="line2d_13">
      <path clip-path="url(#p16901d4c13)" d="M 72 244.370751 
L 518.4 244.370751 
" style="fill:none;stroke:#ffffff;stroke-linecap:square;stroke-width:0.8;"/>
     </g>
     <g id="line2d_14">
      <defs>
       <path d="M 0 0 
L -3.5 0 
" id="md3cf5cb102" style="stroke:#555555;stroke-width:0.8;"/>
      </defs>
      <g>
       <use style="fill:#555555;stroke:#555555;stroke-width:0.8;" x="72" xlink:href="#md3cf5cb102" y="244.370751"/>
      </g>
     </g>
     <g id="text_8">
      <!-- 0.65 -->
      <g style="fill:#555555;" transform="translate(42.734375 248.16997)scale(0.1 -0.1)">
       <defs>
        <path d="M 684 794 
L 1344 794 
L 1344 0 
L 684 0 
L 684 794 
z
" id="DejaVuSans-2e" transform="scale(0.015625)"/>
        <path d="M 691 4666 
L 3169 4666 
L 3169 4134 
L 1269 4134 
L 1269 2991 
Q 1406 3038 1543 3061 
Q 1681 3084 1819 3084 
Q 2600 3084 3056 2656 
Q 3513 2228 3513 1497 
Q 3513 744 3044 326 
Q 2575 -91 1722 -91 
Q 1428 -91 1123 -41 
Q 819 9 494 109 
L 494 744 
Q 775 591 1075 516 
Q 1375 441 1709 441 
Q 2250 441 2565 725 
Q 2881 1009 2881 1497 
Q 2881 1984 2565 2268 
Q 2250 2553 1709 2553 
Q 1456 2553 1204 2497 
Q 953 2441 691 2322 
L 691 4666 
z
" id="DejaVuSans-35" transform="scale(0.015625)"/>
       </defs>
       <use xlink:href="#DejaVuSans-30"/>
       <use x="63.623047" xlink:href="#DejaVuSans-2e"/>
       <use x="95.410156" xlink:href="#DejaVuSans-36"/>
       <use x="159.033203" xlink:href="#DejaVuSans-35"/>
      </g>
     </g>
    </g>
    <g id="ytick_2">
     <g id="line2d_15">
      <path clip-path="url(#p16901d4c13)" d="M 72 210.121408 
L 518.4 210.121408 
" style="fill:none;stroke:#ffffff;stroke-linecap:square;stroke-width:0.8;"/>
     </g>
     <g id="line2d_16">
      <g>
       <use style="fill:#555555;stroke:#555555;stroke-width:0.8;" x="72" xlink:href="#md3cf5cb102" y="210.121408"/>
      </g>
     </g>
     <g id="text_9">
      <!-- 0.70 -->
      <g style="fill:#555555;" transform="translate(42.734375 213.920627)scale(0.1 -0.1)">
       <defs>
        <path d="M 525 4666 
L 3525 4666 
L 3525 4397 
L 1831 0 
L 1172 0 
L 2766 4134 
L 525 4134 
L 525 4666 
z
" id="DejaVuSans-37" transform="scale(0.015625)"/>
       </defs>
       <use xlink:href="#DejaVuSans-30"/>
       <use x="63.623047" xlink:href="#DejaVuSans-2e"/>
       <use x="95.410156" xlink:href="#DejaVuSans-37"/>
       <use x="159.033203" xlink:href="#DejaVuSans-30"/>
      </g>
     </g>
    </g>
    <g id="ytick_3">
     <g id="line2d_17">
      <path clip-path="url(#p16901d4c13)" d="M 72 175.872065 
L 518.4 175.872065 
" style="fill:none;stroke:#ffffff;stroke-linecap:square;stroke-width:0.8;"/>
     </g>
     <g id="line2d_18">
      <g>
       <use style="fill:#555555;stroke:#555555;stroke-width:0.8;" x="72" xlink:href="#md3cf5cb102" y="175.872065"/>
      </g>
     </g>
     <g id="text_10">
      <!-- 0.75 -->
      <g style="fill:#555555;" transform="translate(42.734375 179.671284)scale(0.1 -0.1)">
       <use xlink:href="#DejaVuSans-30"/>
       <use x="63.623047" xlink:href="#DejaVuSans-2e"/>
       <use x="95.410156" xlink:href="#DejaVuSans-37"/>
       <use x="159.033203" xlink:href="#DejaVuSans-35"/>
      </g>
     </g>
    </g>
    <g id="ytick_4">
     <g id="line2d_19">
      <path clip-path="url(#p16901d4c13)" d="M 72 141.622722 
L 518.4 141.622722 
" style="fill:none;stroke:#ffffff;stroke-linecap:square;stroke-width:0.8;"/>
     </g>
     <g id="line2d_20">
      <g>
       <use style="fill:#555555;stroke:#555555;stroke-width:0.8;" x="72" xlink:href="#md3cf5cb102" y="141.622722"/>
      </g>
     </g>
     <g id="text_11">
      <!-- 0.80 -->
      <g style="fill:#555555;" transform="translate(42.734375 145.421941)scale(0.1 -0.1)">
       <use xlink:href="#DejaVuSans-30"/>
       <use x="63.623047" xlink:href="#DejaVuSans-2e"/>
       <use x="95.410156" xlink:href="#DejaVuSans-38"/>
       <use x="159.033203" xlink:href="#DejaVuSans-30"/>
      </g>
     </g>
    </g>
    <g id="ytick_5">
     <g id="line2d_21">
      <path clip-path="url(#p16901d4c13)" d="M 72 107.373379 
L 518.4 107.373379 
" style="fill:none;stroke:#ffffff;stroke-linecap:square;stroke-width:0.8;"/>
     </g>
     <g id="line2d_22">
      <g>
       <use style="fill:#555555;stroke:#555555;stroke-width:0.8;" x="72" xlink:href="#md3cf5cb102" y="107.373379"/>
      </g>
     </g>
     <g id="text_12">
      <!-- 0.85 -->
      <g style="fill:#555555;" transform="translate(42.734375 111.172598)scale(0.1 -0.1)">
       <use xlink:href="#DejaVuSans-30"/>
       <use x="63.623047" xlink:href="#DejaVuSans-2e"/>
       <use x="95.410156" xlink:href="#DejaVuSans-38"/>
       <use x="159.033203" xlink:href="#DejaVuSans-35"/>
      </g>
     </g>
    </g>
    <g id="ytick_6">
     <g id="line2d_23">
      <path clip-path="url(#p16901d4c13)" d="M 72 73.124036 
L 518.4 73.124036 
" style="fill:none;stroke:#ffffff;stroke-linecap:square;stroke-width:0.8;"/>
     </g>
     <g id="line2d_24">
      <g>
       <use style="fill:#555555;stroke:#555555;stroke-width:0.8;" x="72" xlink:href="#md3cf5cb102" y="73.124036"/>
      </g>
     </g>
     <g id="text_13">
      <!-- 0.90 -->
      <g style="fill:#555555;" transform="translate(42.734375 76.923255)scale(0.1 -0.1)">
       <defs>
        <path d="M 703 97 
L 703 672 
Q 941 559 1184 500 
Q 1428 441 1663 441 
Q 2288 441 2617 861 
Q 2947 1281 2994 2138 
Q 2813 1869 2534 1725 
Q 2256 1581 1919 1581 
Q 1219 1581 811 2004 
Q 403 2428 403 3163 
Q 403 3881 828 4315 
Q 1253 4750 1959 4750 
Q 2769 4750 3195 4129 
Q 3622 3509 3622 2328 
Q 3622 1225 3098 567 
Q 2575 -91 1691 -91 
Q 1453 -91 1209 -44 
Q 966 3 703 97 
z
M 1959 2075 
Q 2384 2075 2632 2365 
Q 2881 2656 2881 3163 
Q 2881 3666 2632 3958 
Q 2384 4250 1959 4250 
Q 1534 4250 1286 3958 
Q 1038 3666 1038 3163 
Q 1038 2656 1286 2365 
Q 1534 2075 1959 2075 
z
" id="DejaVuSans-39" transform="scale(0.015625)"/>
       </defs>
       <use xlink:href="#DejaVuSans-30"/>
       <use x="63.623047" xlink:href="#DejaVuSans-2e"/>
       <use x="95.410156" xlink:href="#DejaVuSans-39"/>
       <use x="159.033203" xlink:href="#DejaVuSans-30"/>
      </g>
     </g>
    </g>
    <g id="ytick_7">
     <g id="line2d_25">
      <path clip-path="url(#p16901d4c13)" d="M 72 38.874693 
L 518.4 38.874693 
" style="fill:none;stroke:#ffffff;stroke-linecap:square;stroke-width:0.8;"/>
     </g>
     <g id="line2d_26">
      <g>
       <use style="fill:#555555;stroke:#555555;stroke-width:0.8;" x="72" xlink:href="#md3cf5cb102" y="38.874693"/>
      </g>
     </g>
     <g id="text_14">
      <!-- 0.95 -->
      <g style="fill:#555555;" transform="translate(42.734375 42.673912)scale(0.1 -0.1)">
       <use xlink:href="#DejaVuSans-30"/>
       <use x="63.623047" xlink:href="#DejaVuSans-2e"/>
       <use x="95.410156" xlink:href="#DejaVuSans-39"/>
       <use x="159.033203" xlink:href="#DejaVuSans-35"/>
      </g>
     </g>
    </g>
    <g id="text_15">
     <!-- Accuracy -->
     <g style="fill:#555555;" transform="translate(36.23875 170.67375)rotate(-90)scale(0.12 -0.12)">
      <defs>
       <path d="M 2188 4044 
L 1331 1722 
L 3047 1722 
L 2188 4044 
z
M 1831 4666 
L 2547 4666 
L 4325 0 
L 3669 0 
L 3244 1197 
L 1141 1197 
L 716 0 
L 50 0 
L 1831 4666 
z
" id="DejaVuSans-41" transform="scale(0.015625)"/>
       <path d="M 2194 1759 
Q 1497 1759 1228 1600 
Q 959 1441 959 1056 
Q 959 750 1161 570 
Q 1363 391 1709 391 
Q 2188 391 2477 730 
Q 2766 1069 2766 1631 
L 2766 1759 
L 2194 1759 
z
M 3341 1997 
L 3341 0 
L 2766 0 
L 2766 531 
Q 2569 213 2275 61 
Q 1981 -91 1556 -91 
Q 1019 -91 701 211 
Q 384 513 384 1019 
Q 384 1609 779 1909 
Q 1175 2209 1959 2209 
L 2766 2209 
L 2766 2266 
Q 2766 2663 2505 2880 
Q 2244 3097 1772 3097 
Q 1472 3097 1187 3025 
Q 903 2953 641 2809 
L 641 3341 
Q 956 3463 1253 3523 
Q 1550 3584 1831 3584 
Q 2591 3584 2966 3190 
Q 3341 2797 3341 1997 
z
" id="DejaVuSans-61" transform="scale(0.015625)"/>
       <path d="M 2059 -325 
Q 1816 -950 1584 -1140 
Q 1353 -1331 966 -1331 
L 506 -1331 
L 506 -850 
L 844 -850 
Q 1081 -850 1212 -737 
Q 1344 -625 1503 -206 
L 1606 56 
L 191 3500 
L 800 3500 
L 1894 763 
L 2988 3500 
L 3597 3500 
L 2059 -325 
z
" id="DejaVuSans-79" transform="scale(0.015625)"/>
      </defs>
      <use xlink:href="#DejaVuSans-41"/>
      <use x="66.658203" xlink:href="#DejaVuSans-63"/>
      <use x="121.638672" xlink:href="#DejaVuSans-63"/>
      <use x="176.619141" xlink:href="#DejaVuSans-75"/>
      <use x="239.998047" xlink:href="#DejaVuSans-72"/>
      <use x="281.111328" xlink:href="#DejaVuSans-61"/>
      <use x="342.390625" xlink:href="#DejaVuSans-63"/>
      <use x="397.371094" xlink:href="#DejaVuSans-79"/>
     </g>
    </g>
   </g>
   <g id="line2d_27">
    <path clip-path="url(#p16901d4c13)" d="M 92.290909 240.610173 
L 96.390083 221.766184 
L 100.489256 208.100697 
L 104.58843 196.497019 
L 108.687603 190.119792 
L 112.786777 182.90003 
L 116.88595 177.289988 
L 120.985124 172.330683 
L 125.084298 170.481218 
L 129.183471 167.302879 
L 133.282645 166.638442 
L 137.381818 160.240665 
L 141.480992 159.596777 
L 145.580165 156.891079 
L 149.679339 157.88431 
L 153.778512 152.212619 
L 157.877686 154.603223 
L 161.97686 150.370004 
L 166.076033 148.321893 
L 170.175207 148.041049 
L 174.27438 145.595646 
L 178.373554 143.979077 
L 182.472727 144.588715 
L 186.571901 142.533755 
L 190.671074 144.33527 
L 194.770248 141.636422 
L 198.869421 142.389907 
L 202.968595 140.567842 
L 207.067769 138.773177 
L 211.166942 139.930804 
L 215.266116 137.889544 
L 219.365289 138.314235 
L 223.464463 138.567681 
L 227.563636 138.882775 
L 231.66281 137.53335 
L 235.761983 135.49209 
L 239.861157 136.560669 
L 243.960331 135.848283 
L 248.059504 135.526339 
L 252.158678 135.498939 
L 256.257851 134.903001 
L 260.357025 135.197545 
L 264.456198 133.265882 
L 268.555372 132.567196 
L 272.654545 134.663256 
L 276.753719 132.656244 
L 280.852893 132.074005 
L 284.952066 132.272651 
L 289.05124 132.142504 
L 293.150413 134.149515 
L 297.249587 131.204072 
L 301.34876 130.923227 
L 305.447934 129.471055 
L 309.547107 133.683724 
L 313.646281 131.347919 
L 317.745455 131.902758 
L 321.844628 129.292959 
L 325.943802 130.080693 
L 330.042975 130.354688 
L 334.142149 130.080693 
L 338.241322 128.607972 
L 342.340496 127.854486 
L 346.439669 129.553254 
L 350.538843 129.608052 
L 354.638017 129.950546 
L 358.73719 126.936604 
L 362.836364 129.484755 
L 366.935537 129.73135 
L 371.034711 130.012195 
L 375.133884 128.580572 
L 379.233058 127.039352 
L 383.332231 128.121631 
L 387.431405 127.998333 
L 391.530579 127.710639 
L 395.629752 124.956992 
L 399.728926 127.64214 
L 403.828099 126.964003 
L 407.927273 130.128642 
L 412.026446 127.861336 
L 416.12562 126.922904 
L 420.224793 129.443656 
L 424.323967 126.210518 
L 428.42314 127.087301 
L 432.522314 127.011952 
L 436.621488 125.073439 
L 440.720661 126.381764 
L 444.819835 126.402314 
L 448.919008 126.005022 
L 453.018182 125.991322 
L 457.117355 125.306335 
L 461.216529 125.299485 
L 465.315702 125.093989 
L 469.414876 126.011871 
L 473.51405 124.915893 
L 477.613223 125.683078 
L 481.712397 124.991241 
L 485.81157 124.765195 
L 489.910744 127.080451 
L 494.009917 125.244686 
L 498.109091 124.682997 
" style="fill:none;stroke:#e24a33;stroke-linecap:square;stroke-width:1.5;"/>
   </g>
   <g id="line2d_28">
    <path clip-path="url(#p16901d4c13)" d="M 92.290909 210.505 
L 96.390083 180.591624 
L 100.489256 168.583805 
L 104.58843 156.117044 
L 108.687603 150.301505 
L 112.786777 140.985684 
L 116.88595 135.553738 
L 120.985124 131.169823 
L 125.084298 128.101081 
L 129.183471 127.847636 
L 133.282645 124.778895 
L 137.381818 121.600556 
L 141.480992 121.429309 
L 145.580165 118.216721 
L 149.679339 116.017913 
L 153.778512 116.819348 
L 157.877686 119.730542 
L 161.97686 112.723126 
L 166.076033 110.264024 
L 170.175207 110.387321 
L 174.27438 109.613286 
L 178.373554 110.024278 
L 182.472727 108.298111 
L 186.571901 107.229532 
L 190.671074 108.976248 
L 194.770248 105.044424 
L 198.869421 106.578794 
L 202.968595 104.153941 
L 207.067769 104.578633 
L 211.166942 103.318257 
L 215.266116 102.831916 
L 219.365289 100.886554 
L 223.464463 102.934664 
L 227.563636 101.790736 
L 231.66281 100.482411 
L 235.761983 100.413913 
L 239.861157 100.03717 
L 243.960331 99.228885 
L 248.059504 99.893323 
L 252.158678 101.003001 
L 256.257851 99.831674 
L 260.357025 100.866004 
L 264.456198 99.276834 
L 268.555372 98.99599 
L 272.654545 99.338483 
L 276.753719 94.701122 
L 280.852893 95.632704 
L 284.952066 96.057396 
L 289.05124 97.009528 
L 293.150413 98.578148 
L 297.249587 92.516014 
L 301.34876 99.660427 
L 305.447934 95.132664 
L 309.547107 93.420197 
L 313.646281 98.194555 
L 317.745455 93.461296 
L 321.844628 93.74899 
L 325.943802 92.653011 
L 330.042975 91.406335 
L 334.142149 91.769378 
L 338.241322 92.509164 
L 342.340496 90.62545 
L 346.439669 93.75584 
L 350.538843 91.728279 
L 354.638017 92.468065 
L 358.73719 92.536564 
L 362.836364 92.255719 
L 366.935537 90.995343 
L 371.034711 91.926925 
L 375.133884 91.420035 
L 379.233058 91.043292 
L 383.332231 88.919833 
L 387.431405 90.65285 
L 391.530579 90.680249 
L 395.629752 92.365317 
L 399.728926 88.947233 
L 403.828099 88.680088 
L 407.927273 89.645919 
L 412.026446 90.159659 
L 416.12562 91.789928 
L 420.224793 90.070611 
L 424.323967 90.714499 
L 428.42314 89.221227 
L 432.522314 87.481361 
L 436.621488 88.632139 
L 440.720661 89.652769 
L 444.819835 88.762286 
L 448.919008 86.570328 
L 453.018182 87.871803 
L 457.117355 91.193989 
L 461.216529 87.337513 
L 465.315702 86.323733 
L 469.414876 89.317125 
L 473.51405 86.953921 
L 477.613223 87.673157 
L 481.712397 89.550021 
L 485.81157 86.673076 
L 489.910744 86.645677 
L 494.009917 86.97447 
L 498.109091 84.508518 
" style="fill:none;stroke:#348abd;stroke-linecap:square;stroke-width:1.5;"/>
   </g>
   <g id="line2d_29">
    <path clip-path="url(#p16901d4c13)" d="M 92.290909 185.071438 
L 96.390083 150.527551 
L 100.489256 136.560669 
L 104.58843 123.902112 
L 108.687603 119.086654 
L 112.786777 113.291666 
L 116.88595 107.181583 
L 120.985124 104.037493 
L 125.084298 100.913953 
L 129.183471 96.995828 
L 133.282645 93.947637 
L 137.381818 94.954567 
L 141.480992 92.468065 
L 145.580165 92.769459 
L 149.679339 89.433573 
L 153.778512 88.385543 
L 157.877686 84.289322 
L 161.97686 84.549617 
L 166.076033 82.371359 
L 170.175207 80.713691 
L 174.27438 80.926036 
L 178.373554 81.309629 
L 182.472727 80.350647 
L 186.571901 77.809346 
L 190.671074 78.919025 
L 194.770248 75.685887 
L 198.869421 80.008154 
L 202.968595 77.549051 
L 207.067769 76.165378 
L 211.166942 77.501102 
L 215.266116 72.94594 
L 219.365289 76.706517 
L 223.464463 70.726582 
L 227.563636 69.7813 
L 231.66281 69.747051 
L 235.761983 68.925067 
L 239.861157 69.103163 
L 243.960331 68.75382 
L 248.059504 68.541474 
L 252.158678 68.315428 
L 256.257851 67.376996 
L 260.357025 69.29496 
L 264.456198 66.69201 
L 268.555372 66.287867 
L 272.654545 64.363054 
L 276.753719 64.445253 
L 280.852893 66.541312 
L 284.952066 63.438322 
L 289.05124 66.267318 
L 293.150413 62.705386 
L 297.249587 64.212357 
L 301.34876 61.47926 
L 305.447934 58.883159 
L 309.547107 60.986069 
L 313.646281 59.664044 
L 317.745455 57.889928 
L 321.844628 60.540828 
L 325.943802 61.287463 
L 330.042975 58.574915 
L 334.142149 60.40383 
L 338.241322 60.670975 
L 342.340496 57.862529 
L 346.439669 57.636483 
L 350.538843 57.588534 
L 354.638017 57.937877 
L 358.73719 61.554608 
L 362.836364 55.629472 
L 366.935537 57.424137 
L 371.034711 56.102113 
L 375.133884 54.218399 
L 379.233058 56.430906 
L 383.332231 54.225249 
L 387.431405 54.766388 
L 391.530579 54.841737 
L 395.629752 56.321308 
L 399.728926 50.855113 
L 403.828099 52.293586 
L 407.927273 52.026441 
L 412.026446 54.622541 
L 416.12562 50.163277 
L 420.224793 52.368934 
L 424.323967 51.060609 
L 428.42314 51.814095 
L 432.522314 52.156588 
L 436.621488 51.177057 
L 440.720661 48.889201 
L 444.819835 49.98518 
L 448.919008 49.779684 
L 453.018182 51.464752 
L 457.117355 48.731654 
L 461.216529 51.245556 
L 465.315702 49.683786 
L 469.414876 49.553638 
L 473.51405 49.204295 
L 477.613223 47.711024 
L 481.712397 46.923289 
L 485.81157 45.697162 
L 489.910744 46.108154 
L 494.009917 48.211064 
L 498.109091 44.443636 
" style="fill:none;stroke:#988ed5;stroke-linecap:square;stroke-width:1.5;"/>
   </g>
   <g id="line2d_30">
    <path clip-path="url(#p16901d4c13)" d="M 92.290909 242.116364 
L 96.390083 225.68535 
L 100.489256 211.335309 
L 104.58843 200.887091 
L 108.687603 196.161549 
L 112.786777 187.881012 
L 116.88595 183.979188 
L 120.985124 178.256513 
L 125.084298 176.088833 
L 129.183471 175.004993 
L 133.282645 175.481883 
L 137.381818 168.848782 
L 141.480992 168.892136 
L 145.580165 165.640616 
L 149.679339 166.42098 
L 153.778512 163.472936 
L 157.877686 165.553908 
L 161.97686 161.391963 
L 166.076033 158.010382 
L 170.175207 160.351477 
L 174.27438 158.400565 
L 178.373554 155.669288 
L 182.472727 156.362946 
L 186.571901 153.458254 
L 190.671074 155.582581 
L 194.770248 151.420635 
L 198.869421 152.894658 
L 202.968595 152.461122 
L 207.067769 152.157646 
L 211.166942 152.417768 
L 215.266116 152.547829 
L 219.365289 150.900392 
L 223.464463 152.374414 
L 227.563636 152.981365 
L 231.66281 151.72411 
L 235.761983 150.206735 
L 239.861157 151.767464 
L 243.960331 151.030453 
L 248.059504 152.67789 
L 252.158678 151.11716 
L 256.257851 151.290574 
L 260.357025 151.680757 
L 264.456198 149.122895 
L 268.555372 148.429237 
L 272.654545 151.377282 
L 276.753719 149.209602 
L 280.852893 150.03332 
L 284.952066 151.897525 
L 289.05124 150.076674 
L 293.150413 153.28484 
L 297.249587 149.469723 
L 301.34876 149.469723 
L 305.447934 147.995701 
L 309.547107 153.111426 
L 313.646281 150.163381 
L 317.745455 150.553563 
L 321.844628 149.079541 
L 325.943802 150.553563 
L 330.042975 150.293442 
L 334.142149 150.03332 
L 338.241322 150.293442 
L 342.340496 149.643138 
L 346.439669 151.247221 
L 350.538843 152.070939 
L 354.638017 150.336795 
L 358.73719 149.383016 
L 362.836364 151.984232 
L 366.935537 150.640271 
L 371.034711 151.854171 
L 375.133884 149.556431 
L 379.233058 148.776066 
L 383.332231 150.683624 
L 387.431405 151.810818 
L 391.530579 150.120027 
L 395.629752 147.085275 
L 399.728926 151.767464 
L 403.828099 151.59405 
L 407.927273 155.105691 
L 412.026446 150.726978 
L 416.12562 152.287707 
L 420.224793 153.111426 
L 424.323967 151.160514 
L 428.42314 150.03332 
L 432.522314 151.59405 
L 436.621488 151.073806 
L 440.720661 151.59405 
L 444.819835 151.507342 
L 448.919008 150.987099 
L 453.018182 153.501608 
L 457.117355 151.030453 
L 461.216529 151.160514 
L 465.315702 149.946613 
L 469.414876 149.729845 
L 473.51405 150.640271 
L 477.613223 151.073806 
L 481.712397 152.591182 
L 485.81157 151.72411 
L 489.910744 153.89179 
L 494.009917 153.631669 
L 498.109091 153.068072 
" style="fill:none;stroke:#777777;stroke-dasharray:5.55,2.4;stroke-dashoffset:0;stroke-width:1.5;"/>
   </g>
   <g id="line2d_31">
    <path clip-path="url(#p16901d4c13)" d="M 92.290909 213.372928 
L 96.390083 184.499431 
L 100.489256 172.837313 
L 104.58843 161.868853 
L 108.687603 158.270504 
L 112.786777 152.591182 
L 116.88595 147.648872 
L 120.985124 144.527413 
L 125.084298 143.313512 
L 129.183471 140.885711 
L 133.282645 140.495528 
L 137.381818 138.544616 
L 141.480992 138.284495 
L 145.580165 135.900047 
L 149.679339 133.125417 
L 153.778512 137.547484 
L 157.877686 137.807605 
L 161.97686 134.165903 
L 166.076033 132.041577 
L 170.175207 133.515599 
L 174.27438 132.301698 
L 178.373554 132.041577 
L 182.472727 132.431759 
L 186.571901 131.434626 
L 190.671074 133.558953 
L 194.770248 128.183106 
L 198.869421 132.388405 
L 202.968595 131.868162 
L 207.067769 130.87103 
L 211.166942 128.096399 
L 215.266116 131.564687 
L 219.365289 129.266946 
L 223.464463 131.564687 
L 227.563636 131.434626 
L 231.66281 130.047311 
L 235.761983 129.700482 
L 239.861157 128.659996 
L 243.960331 130.134018 
L 248.059504 129.613775 
L 252.158678 131.911516 
L 256.257851 132.345052 
L 260.357025 133.819074 
L 264.456198 131.47798 
L 268.555372 132.214991 
L 272.654545 131.00109 
L 276.753719 129.006825 
L 280.852893 128.269814 
L 284.952066 129.830543 
L 289.05124 132.691881 
L 293.150413 133.298831 
L 297.249587 128.573289 
L 301.34876 134.165903 
L 305.447934 131.911516 
L 309.547107 131.521334 
L 313.646281 134.339317 
L 317.745455 130.957737 
L 321.844628 131.347919 
L 325.943802 132.345052 
L 330.042975 130.307433 
L 334.142149 129.136886 
L 338.241322 131.261212 
L 342.340496 130.134018 
L 346.439669 131.694748 
L 350.538843 132.128284 
L 354.638017 131.651394 
L 358.73719 132.648527 
L 362.836364 130.350786 
L 366.935537 131.998223 
L 371.034711 131.738101 
L 375.133884 132.301698 
L 379.233058 132.648527 
L 383.332231 132.08493 
L 387.431405 132.995356 
L 391.530579 131.651394 
L 395.629752 132.388405 
L 399.728926 132.431759 
L 403.828099 130.914383 
L 407.927273 132.605173 
L 412.026446 134.556085 
L 416.12562 135.509865 
L 420.224793 133.775721 
L 424.323967 137.460777 
L 428.42314 132.56182 
L 432.522314 132.08493 
L 436.621488 132.041577 
L 440.720661 134.7295 
L 444.819835 134.686146 
L 448.919008 132.128284 
L 453.018182 133.515599 
L 457.117355 137.720898 
L 461.216529 133.862428 
L 465.315702 130.784322 
L 469.414876 135.293097 
L 473.51405 132.56182 
L 477.613223 133.992489 
L 481.712397 136.42029 
L 485.81157 133.732367 
L 489.910744 136.160169 
L 494.009917 134.122549 
L 498.109091 132.735234 
" style="fill:none;stroke:#fbc15e;stroke-dasharray:5.55,2.4;stroke-dashoffset:0;stroke-width:1.5;"/>
   </g>
   <g id="line2d_32">
    <path clip-path="url(#p16901d4c13)" d="M 92.290909 189.224973 
L 96.390083 157.403432 
L 100.489256 144.310645 
L 104.58843 138.11108 
L 108.687603 134.642793 
L 112.786777 128.963471 
L 116.88595 124.584758 
L 120.985124 123.457564 
L 125.084298 122.850614 
L 129.183471 120.986409 
L 133.282645 120.726287 
L 137.381818 122.113603 
L 141.480992 120.596227 
L 145.580165 122.937321 
L 149.679339 120.249398 
L 153.778512 120.986409 
L 157.877686 120.422812 
L 161.97686 120.552873 
L 166.076033 120.63958 
L 170.175207 120.292751 
L 174.27438 120.075983 
L 178.373554 120.422812 
L 182.472727 122.547139 
L 186.571901 120.206044 
L 190.671074 124.454697 
L 194.770248 121.289884 
L 198.869421 125.018294 
L 202.968595 122.893967 
L 207.067769 123.934454 
L 211.166942 123.500918 
L 215.266116 122.547139 
L 219.365289 126.795791 
L 223.464463 123.544271 
L 227.563636 124.237929 
L 231.66281 124.541404 
L 235.761983 122.980675 
L 239.861157 124.107868 
L 243.960331 124.021161 
L 248.059504 124.628111 
L 252.158678 124.801526 
L 256.257851 126.318902 
L 260.357025 127.576156 
L 264.456198 125.018294 
L 268.555372 129.223593 
L 272.654545 124.671465 
L 276.753719 126.188841 
L 280.852893 128.659996 
L 284.952066 128.009692 
L 289.05124 128.096399 
L 293.150413 127.272681 
L 297.249587 128.659996 
L 301.34876 125.625244 
L 305.447934 127.576156 
L 309.547107 130.177372 
L 313.646281 128.70335 
L 317.745455 127.879631 
L 321.844628 129.743836 
L 325.943802 133.038709 
L 330.042975 132.128284 
L 334.142149 130.610908 
L 338.241322 131.651394 
L 342.340496 131.261212 
L 346.439669 130.350786 
L 350.538843 130.654262 
L 354.638017 132.258345 
L 358.73719 136.333583 
L 362.836364 130.350786 
L 366.935537 131.391273 
L 371.034711 133.212124 
L 375.133884 133.255477 
L 379.233058 135.119682 
L 383.332231 132.865295 
L 387.431405 133.732367 
L 391.530579 134.902914 
L 395.629752 133.472245 
L 399.728926 130.740969 
L 403.828099 135.206389 
L 407.927273 135.943401 
L 412.026446 134.079196 
L 416.12562 133.342185 
L 420.224793 134.295964 
L 424.323967 135.683279 
L 428.42314 136.42029 
L 432.522314 134.816207 
L 436.621488 137.764252 
L 440.720661 135.032975 
L 444.819835 136.376937 
L 448.919008 133.689013 
L 453.018182 138.718031 
L 457.117355 138.327848 
L 461.216529 138.284495 
L 465.315702 137.417423 
L 469.414876 135.293097 
L 473.51405 137.244009 
L 477.613223 137.937666 
L 481.712397 138.544616 
L 485.81157 137.807605 
L 489.910744 137.374069 
L 494.009917 136.810473 
L 498.109091 138.197788 
" style="fill:none;stroke:#8eba42;stroke-dasharray:5.55,2.4;stroke-dashoffset:0;stroke-width:1.5;"/>
   </g>
   <g id="patch_3">
    <path d="M 72 252 
L 72 34.56 
" style="fill:none;stroke:#ffffff;stroke-linecap:square;stroke-linejoin:miter;"/>
   </g>
   <g id="patch_4">
    <path d="M 518.4 252 
L 518.4 34.56 
" style="fill:none;stroke:#ffffff;stroke-linecap:square;stroke-linejoin:miter;"/>
   </g>
   <g id="patch_5">
    <path d="M 72 252 
L 518.4 252 
" style="fill:none;stroke:#ffffff;stroke-linecap:square;stroke-linejoin:miter;"/>
   </g>
   <g id="patch_6">
    <path d="M 72 34.56 
L 518.4 34.56 
" style="fill:none;stroke:#ffffff;stroke-linecap:square;stroke-linejoin:miter;"/>
   </g>
   <g id="legend_1">
    <g id="patch_7">
     <path d="M 400.995312 247 
L 511.4 247 
Q 513.4 247 513.4 245 
L 513.4 157.93125 
Q 513.4 155.93125 511.4 155.93125 
L 400.995312 155.93125 
Q 398.995312 155.93125 398.995312 157.93125 
L 398.995312 245 
Q 398.995312 247 400.995312 247 
z
" style="fill:#e5e5e5;opacity:0.8;stroke:#cccccc;stroke-linejoin:miter;stroke-width:0.5;"/>
    </g>
    <g id="line2d_33">
     <path d="M 402.995312 164.029688 
L 422.995312 164.029688 
" style="fill:none;stroke:#e24a33;stroke-linecap:square;stroke-width:1.5;"/>
    </g>
    <g id="line2d_34"/>
    <g id="text_16">
     <!-- width32(train) -->
     <g transform="translate(430.995312 167.529688)scale(0.1 -0.1)">
      <defs>
       <path d="M 269 3500 
L 844 3500 
L 1563 769 
L 2278 3500 
L 2956 3500 
L 3675 769 
L 4391 3500 
L 4966 3500 
L 4050 0 
L 3372 0 
L 2619 2869 
L 1863 0 
L 1184 0 
L 269 3500 
z
" id="DejaVuSans-77" transform="scale(0.015625)"/>
       <path d="M 603 3500 
L 1178 3500 
L 1178 0 
L 603 0 
L 603 3500 
z
M 603 4863 
L 1178 4863 
L 1178 4134 
L 603 4134 
L 603 4863 
z
" id="DejaVuSans-69" transform="scale(0.015625)"/>
       <path d="M 2906 2969 
L 2906 4863 
L 3481 4863 
L 3481 0 
L 2906 0 
L 2906 525 
Q 2725 213 2448 61 
Q 2172 -91 1784 -91 
Q 1150 -91 751 415 
Q 353 922 353 1747 
Q 353 2572 751 3078 
Q 1150 3584 1784 3584 
Q 2172 3584 2448 3432 
Q 2725 3281 2906 2969 
z
M 947 1747 
Q 947 1113 1208 752 
Q 1469 391 1925 391 
Q 2381 391 2643 752 
Q 2906 1113 2906 1747 
Q 2906 2381 2643 2742 
Q 2381 3103 1925 3103 
Q 1469 3103 1208 2742 
Q 947 2381 947 1747 
z
" id="DejaVuSans-64" transform="scale(0.015625)"/>
       <path d="M 1172 4494 
L 1172 3500 
L 2356 3500 
L 2356 3053 
L 1172 3053 
L 1172 1153 
Q 1172 725 1289 603 
Q 1406 481 1766 481 
L 2356 481 
L 2356 0 
L 1766 0 
Q 1100 0 847 248 
Q 594 497 594 1153 
L 594 3053 
L 172 3053 
L 172 3500 
L 594 3500 
L 594 4494 
L 1172 4494 
z
" id="DejaVuSans-74" transform="scale(0.015625)"/>
       <path d="M 2597 2516 
Q 3050 2419 3304 2112 
Q 3559 1806 3559 1356 
Q 3559 666 3084 287 
Q 2609 -91 1734 -91 
Q 1441 -91 1130 -33 
Q 819 25 488 141 
L 488 750 
Q 750 597 1062 519 
Q 1375 441 1716 441 
Q 2309 441 2620 675 
Q 2931 909 2931 1356 
Q 2931 1769 2642 2001 
Q 2353 2234 1838 2234 
L 1294 2234 
L 1294 2753 
L 1863 2753 
Q 2328 2753 2575 2939 
Q 2822 3125 2822 3475 
Q 2822 3834 2567 4026 
Q 2313 4219 1838 4219 
Q 1578 4219 1281 4162 
Q 984 4106 628 3988 
L 628 4550 
Q 988 4650 1302 4700 
Q 1616 4750 1894 4750 
Q 2613 4750 3031 4423 
Q 3450 4097 3450 3541 
Q 3450 3153 3228 2886 
Q 3006 2619 2597 2516 
z
" id="DejaVuSans-33" transform="scale(0.015625)"/>
       <path d="M 1984 4856 
Q 1566 4138 1362 3434 
Q 1159 2731 1159 2009 
Q 1159 1288 1364 580 
Q 1569 -128 1984 -844 
L 1484 -844 
Q 1016 -109 783 600 
Q 550 1309 550 2009 
Q 550 2706 781 3412 
Q 1013 4119 1484 4856 
L 1984 4856 
z
" id="DejaVuSans-28" transform="scale(0.015625)"/>
       <path d="M 513 4856 
L 1013 4856 
Q 1481 4119 1714 3412 
Q 1947 2706 1947 2009 
Q 1947 1309 1714 600 
Q 1481 -109 1013 -844 
L 513 -844 
Q 928 -128 1133 580 
Q 1338 1288 1338 2009 
Q 1338 2731 1133 3434 
Q 928 4138 513 4856 
z
" id="DejaVuSans-29" transform="scale(0.015625)"/>
      </defs>
      <use xlink:href="#DejaVuSans-77"/>
      <use x="81.787109" xlink:href="#DejaVuSans-69"/>
      <use x="109.570312" xlink:href="#DejaVuSans-64"/>
      <use x="173.046875" xlink:href="#DejaVuSans-74"/>
      <use x="212.255859" xlink:href="#DejaVuSans-68"/>
      <use x="275.634766" xlink:href="#DejaVuSans-33"/>
      <use x="339.257812" xlink:href="#DejaVuSans-32"/>
      <use x="402.880859" xlink:href="#DejaVuSans-28"/>
      <use x="441.894531" xlink:href="#DejaVuSans-74"/>
      <use x="481.103516" xlink:href="#DejaVuSans-72"/>
      <use x="522.216797" xlink:href="#DejaVuSans-61"/>
      <use x="583.496094" xlink:href="#DejaVuSans-69"/>
      <use x="611.279297" xlink:href="#DejaVuSans-6e"/>
      <use x="674.658203" xlink:href="#DejaVuSans-29"/>
     </g>
    </g>
    <g id="line2d_35">
     <path d="M 402.995312 178.707813 
L 422.995312 178.707813 
" style="fill:none;stroke:#348abd;stroke-linecap:square;stroke-width:1.5;"/>
    </g>
    <g id="line2d_36"/>
    <g id="text_17">
     <!-- width64(train) -->
     <g transform="translate(430.995312 182.207813)scale(0.1 -0.1)">
      <use xlink:href="#DejaVuSans-77"/>
      <use x="81.787109" xlink:href="#DejaVuSans-69"/>
      <use x="109.570312" xlink:href="#DejaVuSans-64"/>
      <use x="173.046875" xlink:href="#DejaVuSans-74"/>
      <use x="212.255859" xlink:href="#DejaVuSans-68"/>
      <use x="275.634766" xlink:href="#DejaVuSans-36"/>
      <use x="339.257812" xlink:href="#DejaVuSans-34"/>
      <use x="402.880859" xlink:href="#DejaVuSans-28"/>
      <use x="441.894531" xlink:href="#DejaVuSans-74"/>
      <use x="481.103516" xlink:href="#DejaVuSans-72"/>
      <use x="522.216797" xlink:href="#DejaVuSans-61"/>
      <use x="583.496094" xlink:href="#DejaVuSans-69"/>
      <use x="611.279297" xlink:href="#DejaVuSans-6e"/>
      <use x="674.658203" xlink:href="#DejaVuSans-29"/>
     </g>
    </g>
    <g id="line2d_37">
     <path d="M 402.995312 193.385938 
L 422.995312 193.385938 
" style="fill:none;stroke:#988ed5;stroke-linecap:square;stroke-width:1.5;"/>
    </g>
    <g id="line2d_38"/>
    <g id="text_18">
     <!-- width128(train) -->
     <g transform="translate(430.995312 196.885938)scale(0.1 -0.1)">
      <use xlink:href="#DejaVuSans-77"/>
      <use x="81.787109" xlink:href="#DejaVuSans-69"/>
      <use x="109.570312" xlink:href="#DejaVuSans-64"/>
      <use x="173.046875" xlink:href="#DejaVuSans-74"/>
      <use x="212.255859" xlink:href="#DejaVuSans-68"/>
      <use x="275.634766" xlink:href="#DejaVuSans-31"/>
      <use x="339.257812" xlink:href="#DejaVuSans-32"/>
      <use x="402.880859" xlink:href="#DejaVuSans-38"/>
      <use x="466.503906" xlink:href="#DejaVuSans-28"/>
      <use x="505.517578" xlink:href="#DejaVuSans-74"/>
      <use x="544.726562" xlink:href="#DejaVuSans-72"/>
      <use x="585.839844" xlink:href="#DejaVuSans-61"/>
      <use x="647.119141" xlink:href="#DejaVuSans-69"/>
      <use x="674.902344" xlink:href="#DejaVuSans-6e"/>
      <use x="738.28125" xlink:href="#DejaVuSans-29"/>
     </g>
    </g>
    <g id="line2d_39">
     <path d="M 402.995312 208.064063 
L 422.995312 208.064063 
" style="fill:none;stroke:#777777;stroke-dasharray:5.55,2.4;stroke-dashoffset:0;stroke-width:1.5;"/>
    </g>
    <g id="line2d_40"/>
    <g id="text_19">
     <!-- width32(valid) -->
     <g transform="translate(430.995312 211.564063)scale(0.1 -0.1)">
      <defs>
       <path d="M 191 3500 
L 800 3500 
L 1894 563 
L 2988 3500 
L 3597 3500 
L 2284 0 
L 1503 0 
L 191 3500 
z
" id="DejaVuSans-76" transform="scale(0.015625)"/>
       <path d="M 603 4863 
L 1178 4863 
L 1178 0 
L 603 0 
L 603 4863 
z
" id="DejaVuSans-6c" transform="scale(0.015625)"/>
      </defs>
      <use xlink:href="#DejaVuSans-77"/>
      <use x="81.787109" xlink:href="#DejaVuSans-69"/>
      <use x="109.570312" xlink:href="#DejaVuSans-64"/>
      <use x="173.046875" xlink:href="#DejaVuSans-74"/>
      <use x="212.255859" xlink:href="#DejaVuSans-68"/>
      <use x="275.634766" xlink:href="#DejaVuSans-33"/>
      <use x="339.257812" xlink:href="#DejaVuSans-32"/>
      <use x="402.880859" xlink:href="#DejaVuSans-28"/>
      <use x="441.894531" xlink:href="#DejaVuSans-76"/>
      <use x="501.074219" xlink:href="#DejaVuSans-61"/>
      <use x="562.353516" xlink:href="#DejaVuSans-6c"/>
      <use x="590.136719" xlink:href="#DejaVuSans-69"/>
      <use x="617.919922" xlink:href="#DejaVuSans-64"/>
      <use x="681.396484" xlink:href="#DejaVuSans-29"/>
     </g>
    </g>
    <g id="line2d_41">
     <path d="M 402.995312 222.742188 
L 422.995312 222.742188 
" style="fill:none;stroke:#fbc15e;stroke-dasharray:5.55,2.4;stroke-dashoffset:0;stroke-width:1.5;"/>
    </g>
    <g id="line2d_42"/>
    <g id="text_20">
     <!-- width64(valid) -->
     <g transform="translate(430.995312 226.242188)scale(0.1 -0.1)">
      <use xlink:href="#DejaVuSans-77"/>
      <use x="81.787109" xlink:href="#DejaVuSans-69"/>
      <use x="109.570312" xlink:href="#DejaVuSans-64"/>
      <use x="173.046875" xlink:href="#DejaVuSans-74"/>
      <use x="212.255859" xlink:href="#DejaVuSans-68"/>
      <use x="275.634766" xlink:href="#DejaVuSans-36"/>
      <use x="339.257812" xlink:href="#DejaVuSans-34"/>
      <use x="402.880859" xlink:href="#DejaVuSans-28"/>
      <use x="441.894531" xlink:href="#DejaVuSans-76"/>
      <use x="501.074219" xlink:href="#DejaVuSans-61"/>
      <use x="562.353516" xlink:href="#DejaVuSans-6c"/>
      <use x="590.136719" xlink:href="#DejaVuSans-69"/>
      <use x="617.919922" xlink:href="#DejaVuSans-64"/>
      <use x="681.396484" xlink:href="#DejaVuSans-29"/>
     </g>
    </g>
    <g id="line2d_43">
     <path d="M 402.995312 237.420313 
L 422.995312 237.420313 
" style="fill:none;stroke:#8eba42;stroke-dasharray:5.55,2.4;stroke-dashoffset:0;stroke-width:1.5;"/>
    </g>
    <g id="line2d_44"/>
    <g id="text_21">
     <!-- width128(valid) -->
     <g transform="translate(430.995312 240.920313)scale(0.1 -0.1)">
      <use xlink:href="#DejaVuSans-77"/>
      <use x="81.787109" xlink:href="#DejaVuSans-69"/>
      <use x="109.570312" xlink:href="#DejaVuSans-64"/>
      <use x="173.046875" xlink:href="#DejaVuSans-74"/>
      <use x="212.255859" xlink:href="#DejaVuSans-68"/>
      <use x="275.634766" xlink:href="#DejaVuSans-31"/>
      <use x="339.257812" xlink:href="#DejaVuSans-32"/>
      <use x="402.880859" xlink:href="#DejaVuSans-38"/>
      <use x="466.503906" xlink:href="#DejaVuSans-28"/>
      <use x="505.517578" xlink:href="#DejaVuSans-76"/>
      <use x="564.697266" xlink:href="#DejaVuSans-61"/>
      <use x="625.976562" xlink:href="#DejaVuSans-6c"/>
      <use x="653.759766" xlink:href="#DejaVuSans-69"/>
      <use x="681.542969" xlink:href="#DejaVuSans-64"/>
      <use x="745.019531" xlink:href="#DejaVuSans-29"/>
     </g>
    </g>
   </g>
  </g>
 </g>
 <defs>
  <clipPath id="p16901d4c13">
   <rect height="217.44" width="446.4" x="72" y="34.56"/>
  </clipPath>
 </defs>
</svg>
