<?xml version="1.0" encoding="utf-8" standalone="no"?>
<!DOCTYPE svg PUBLIC "-//W3C//DTD SVG 1.1//EN"
  "http://www.w3.org/Graphics/SVG/1.1/DTD/svg11.dtd">
<svg height="288pt" version="1.1" viewBox="0 0 576 288" width="576pt" xmlns="http://www.w3.org/2000/svg" xmlns:xlink="http://www.w3.org/1999/xlink">
 <metadata>
  <rdf:RDF xmlns:cc="http://creativecommons.org/ns#" xmlns:dc="http://purl.org/dc/elements/1.1/" xmlns:rdf="http://www.w3.org/1999/02/22-rdf-syntax-ns#">
   <cc:Work>
    <dc:type rdf:resource="http://purl.org/dc/dcmitype/StillImage"/>
    <dc:date>2021-11-07T20:36:31.251475</dc:date>
    <dc:format>image/svg+xml</dc:format>
    <dc:creator>
     <cc:Agent>
      <dc:title>Matplotlib v3.4.2, https://matplotlib.org/</dc:title>
     </cc:Agent>
    </dc:creator>
   </cc:Work>
  </rdf:RDF>
 </metadata>
 <defs>
  <style type="text/css">*{stroke-linecap:butt;stroke-linejoin:round;}</style>
 </defs>
 <g id="figure_1">
  <g id="patch_1">
   <path d="M 0 288 
L 576 288 
L 576 0 
L 0 0 
z
" style="fill:#ffffff;"/>
  </g>
  <g id="axes_1">
   <g id="patch_2">
    <path d="M 72 252 
L 518.4 252 
L 518.4 34.56 
L 72 34.56 
z
" style="fill:#e5e5e5;"/>
   </g>
   <g id="matplotlib.axis_1">
    <g id="xtick_1">
     <g id="line2d_1">
      <path clip-path="url(#pcb4aa5aae2)" d="M 88.191736 252 
L 88.191736 34.56 
" style="fill:none;stroke:#ffffff;stroke-linecap:square;stroke-width:0.8;"/>
     </g>
     <g id="line2d_2">
      <defs>
       <path d="M 0 0 
L 0 3.5 
" id="m5ad5e0456a" style="stroke:#555555;stroke-width:0.8;"/>
      </defs>
      <g>
       <use style="fill:#555555;stroke:#555555;stroke-width:0.8;" x="88.191736" xlink:href="#m5ad5e0456a" y="252"/>
      </g>
     </g>
     <g id="text_1">
      <!-- 0 -->
      <g style="fill:#555555;" transform="translate(85.010486 266.598437)scale(0.1 -0.1)">
       <defs>
        <path d="M 2034 4250 
Q 1547 4250 1301 3770 
Q 1056 3291 1056 2328 
Q 1056 1369 1301 889 
Q 1547 409 2034 409 
Q 2525 409 2770 889 
Q 3016 1369 3016 2328 
Q 3016 3291 2770 3770 
Q 2525 4250 2034 4250 
z
M 2034 4750 
Q 2819 4750 3233 4129 
Q 3647 3509 3647 2328 
Q 3647 1150 3233 529 
Q 2819 -91 2034 -91 
Q 1250 -91 836 529 
Q 422 1150 422 2328 
Q 422 3509 836 4129 
Q 1250 4750 2034 4750 
z
" id="DejaVuSans-30" transform="scale(0.015625)"/>
       </defs>
       <use xlink:href="#DejaVuSans-30"/>
      </g>
     </g>
    </g>
    <g id="xtick_2">
     <g id="line2d_3">
      <path clip-path="url(#pcb4aa5aae2)" d="M 170.175207 252 
L 170.175207 34.56 
" style="fill:none;stroke:#ffffff;stroke-linecap:square;stroke-width:0.8;"/>
     </g>
     <g id="line2d_4">
      <g>
       <use style="fill:#555555;stroke:#555555;stroke-width:0.8;" x="170.175207" xlink:href="#m5ad5e0456a" y="252"/>
      </g>
     </g>
     <g id="text_2">
      <!-- 20 -->
      <g style="fill:#555555;" transform="translate(163.812707 266.598437)scale(0.1 -0.1)">
       <defs>
        <path d="M 1228 531 
L 3431 531 
L 3431 0 
L 469 0 
L 469 531 
Q 828 903 1448 1529 
Q 2069 2156 2228 2338 
Q 2531 2678 2651 2914 
Q 2772 3150 2772 3378 
Q 2772 3750 2511 3984 
Q 2250 4219 1831 4219 
Q 1534 4219 1204 4116 
Q 875 4013 500 3803 
L 500 4441 
Q 881 4594 1212 4672 
Q 1544 4750 1819 4750 
Q 2544 4750 2975 4387 
Q 3406 4025 3406 3419 
Q 3406 3131 3298 2873 
Q 3191 2616 2906 2266 
Q 2828 2175 2409 1742 
Q 1991 1309 1228 531 
z
" id="DejaVuSans-32" transform="scale(0.015625)"/>
       </defs>
       <use xlink:href="#DejaVuSans-32"/>
       <use x="63.623047" xlink:href="#DejaVuSans-30"/>
      </g>
     </g>
    </g>
    <g id="xtick_3">
     <g id="line2d_5">
      <path clip-path="url(#pcb4aa5aae2)" d="M 252.158678 252 
L 252.158678 34.56 
" style="fill:none;stroke:#ffffff;stroke-linecap:square;stroke-width:0.8;"/>
     </g>
     <g id="line2d_6">
      <g>
       <use style="fill:#555555;stroke:#555555;stroke-width:0.8;" x="252.158678" xlink:href="#m5ad5e0456a" y="252"/>
      </g>
     </g>
     <g id="text_3">
      <!-- 40 -->
      <g style="fill:#555555;" transform="translate(245.796178 266.598437)scale(0.1 -0.1)">
       <defs>
        <path d="M 2419 4116 
L 825 1625 
L 2419 1625 
L 2419 4116 
z
M 2253 4666 
L 3047 4666 
L 3047 1625 
L 3713 1625 
L 3713 1100 
L 3047 1100 
L 3047 0 
L 2419 0 
L 2419 1100 
L 313 1100 
L 313 1709 
L 2253 4666 
z
" id="DejaVuSans-34" transform="scale(0.015625)"/>
       </defs>
       <use xlink:href="#DejaVuSans-34"/>
       <use x="63.623047" xlink:href="#DejaVuSans-30"/>
      </g>
     </g>
    </g>
    <g id="xtick_4">
     <g id="line2d_7">
      <path clip-path="url(#pcb4aa5aae2)" d="M 334.142149 252 
L 334.142149 34.56 
" style="fill:none;stroke:#ffffff;stroke-linecap:square;stroke-width:0.8;"/>
     </g>
     <g id="line2d_8">
      <g>
       <use style="fill:#555555;stroke:#555555;stroke-width:0.8;" x="334.142149" xlink:href="#m5ad5e0456a" y="252"/>
      </g>
     </g>
     <g id="text_4">
      <!-- 60 -->
      <g style="fill:#555555;" transform="translate(327.779649 266.598437)scale(0.1 -0.1)">
       <defs>
        <path d="M 2113 2584 
Q 1688 2584 1439 2293 
Q 1191 2003 1191 1497 
Q 1191 994 1439 701 
Q 1688 409 2113 409 
Q 2538 409 2786 701 
Q 3034 994 3034 1497 
Q 3034 2003 2786 2293 
Q 2538 2584 2113 2584 
z
M 3366 4563 
L 3366 3988 
Q 3128 4100 2886 4159 
Q 2644 4219 2406 4219 
Q 1781 4219 1451 3797 
Q 1122 3375 1075 2522 
Q 1259 2794 1537 2939 
Q 1816 3084 2150 3084 
Q 2853 3084 3261 2657 
Q 3669 2231 3669 1497 
Q 3669 778 3244 343 
Q 2819 -91 2113 -91 
Q 1303 -91 875 529 
Q 447 1150 447 2328 
Q 447 3434 972 4092 
Q 1497 4750 2381 4750 
Q 2619 4750 2861 4703 
Q 3103 4656 3366 4563 
z
" id="DejaVuSans-36" transform="scale(0.015625)"/>
       </defs>
       <use xlink:href="#DejaVuSans-36"/>
       <use x="63.623047" xlink:href="#DejaVuSans-30"/>
      </g>
     </g>
    </g>
    <g id="xtick_5">
     <g id="line2d_9">
      <path clip-path="url(#pcb4aa5aae2)" d="M 416.12562 252 
L 416.12562 34.56 
" style="fill:none;stroke:#ffffff;stroke-linecap:square;stroke-width:0.8;"/>
     </g>
     <g id="line2d_10">
      <g>
       <use style="fill:#555555;stroke:#555555;stroke-width:0.8;" x="416.12562" xlink:href="#m5ad5e0456a" y="252"/>
      </g>
     </g>
     <g id="text_5">
      <!-- 80 -->
      <g style="fill:#555555;" transform="translate(409.76312 266.598437)scale(0.1 -0.1)">
       <defs>
        <path d="M 2034 2216 
Q 1584 2216 1326 1975 
Q 1069 1734 1069 1313 
Q 1069 891 1326 650 
Q 1584 409 2034 409 
Q 2484 409 2743 651 
Q 3003 894 3003 1313 
Q 3003 1734 2745 1975 
Q 2488 2216 2034 2216 
z
M 1403 2484 
Q 997 2584 770 2862 
Q 544 3141 544 3541 
Q 544 4100 942 4425 
Q 1341 4750 2034 4750 
Q 2731 4750 3128 4425 
Q 3525 4100 3525 3541 
Q 3525 3141 3298 2862 
Q 3072 2584 2669 2484 
Q 3125 2378 3379 2068 
Q 3634 1759 3634 1313 
Q 3634 634 3220 271 
Q 2806 -91 2034 -91 
Q 1263 -91 848 271 
Q 434 634 434 1313 
Q 434 1759 690 2068 
Q 947 2378 1403 2484 
z
M 1172 3481 
Q 1172 3119 1398 2916 
Q 1625 2713 2034 2713 
Q 2441 2713 2670 2916 
Q 2900 3119 2900 3481 
Q 2900 3844 2670 4047 
Q 2441 4250 2034 4250 
Q 1625 4250 1398 4047 
Q 1172 3844 1172 3481 
z
" id="DejaVuSans-38" transform="scale(0.015625)"/>
       </defs>
       <use xlink:href="#DejaVuSans-38"/>
       <use x="63.623047" xlink:href="#DejaVuSans-30"/>
      </g>
     </g>
    </g>
    <g id="xtick_6">
     <g id="line2d_11">
      <path clip-path="url(#pcb4aa5aae2)" d="M 498.109091 252 
L 498.109091 34.56 
" style="fill:none;stroke:#ffffff;stroke-linecap:square;stroke-width:0.8;"/>
     </g>
     <g id="line2d_12">
      <g>
       <use style="fill:#555555;stroke:#555555;stroke-width:0.8;" x="498.109091" xlink:href="#m5ad5e0456a" y="252"/>
      </g>
     </g>
     <g id="text_6">
      <!-- 100 -->
      <g style="fill:#555555;" transform="translate(488.565341 266.598437)scale(0.1 -0.1)">
       <defs>
        <path d="M 794 531 
L 1825 531 
L 1825 4091 
L 703 3866 
L 703 4441 
L 1819 4666 
L 2450 4666 
L 2450 531 
L 3481 531 
L 3481 0 
L 794 0 
L 794 531 
z
" id="DejaVuSans-31" transform="scale(0.015625)"/>
       </defs>
       <use xlink:href="#DejaVuSans-31"/>
       <use x="63.623047" xlink:href="#DejaVuSans-30"/>
       <use x="127.246094" xlink:href="#DejaVuSans-30"/>
      </g>
     </g>
    </g>
    <g id="text_7">
     <!-- Epoch number -->
     <g style="fill:#555555;" transform="translate(251.503125 281.79625)scale(0.12 -0.12)">
      <defs>
       <path d="M 628 4666 
L 3578 4666 
L 3578 4134 
L 1259 4134 
L 1259 2753 
L 3481 2753 
L 3481 2222 
L 1259 2222 
L 1259 531 
L 3634 531 
L 3634 0 
L 628 0 
L 628 4666 
z
" id="DejaVuSans-45" transform="scale(0.015625)"/>
       <path d="M 1159 525 
L 1159 -1331 
L 581 -1331 
L 581 3500 
L 1159 3500 
L 1159 2969 
Q 1341 3281 1617 3432 
Q 1894 3584 2278 3584 
Q 2916 3584 3314 3078 
Q 3713 2572 3713 1747 
Q 3713 922 3314 415 
Q 2916 -91 2278 -91 
Q 1894 -91 1617 61 
Q 1341 213 1159 525 
z
M 3116 1747 
Q 3116 2381 2855 2742 
Q 2594 3103 2138 3103 
Q 1681 3103 1420 2742 
Q 1159 2381 1159 1747 
Q 1159 1113 1420 752 
Q 1681 391 2138 391 
Q 2594 391 2855 752 
Q 3116 1113 3116 1747 
z
" id="DejaVuSans-70" transform="scale(0.015625)"/>
       <path d="M 1959 3097 
Q 1497 3097 1228 2736 
Q 959 2375 959 1747 
Q 959 1119 1226 758 
Q 1494 397 1959 397 
Q 2419 397 2687 759 
Q 2956 1122 2956 1747 
Q 2956 2369 2687 2733 
Q 2419 3097 1959 3097 
z
M 1959 3584 
Q 2709 3584 3137 3096 
Q 3566 2609 3566 1747 
Q 3566 888 3137 398 
Q 2709 -91 1959 -91 
Q 1206 -91 779 398 
Q 353 888 353 1747 
Q 353 2609 779 3096 
Q 1206 3584 1959 3584 
z
" id="DejaVuSans-6f" transform="scale(0.015625)"/>
       <path d="M 3122 3366 
L 3122 2828 
Q 2878 2963 2633 3030 
Q 2388 3097 2138 3097 
Q 1578 3097 1268 2742 
Q 959 2388 959 1747 
Q 959 1106 1268 751 
Q 1578 397 2138 397 
Q 2388 397 2633 464 
Q 2878 531 3122 666 
L 3122 134 
Q 2881 22 2623 -34 
Q 2366 -91 2075 -91 
Q 1284 -91 818 406 
Q 353 903 353 1747 
Q 353 2603 823 3093 
Q 1294 3584 2113 3584 
Q 2378 3584 2631 3529 
Q 2884 3475 3122 3366 
z
" id="DejaVuSans-63" transform="scale(0.015625)"/>
       <path d="M 3513 2113 
L 3513 0 
L 2938 0 
L 2938 2094 
Q 2938 2591 2744 2837 
Q 2550 3084 2163 3084 
Q 1697 3084 1428 2787 
Q 1159 2491 1159 1978 
L 1159 0 
L 581 0 
L 581 4863 
L 1159 4863 
L 1159 2956 
Q 1366 3272 1645 3428 
Q 1925 3584 2291 3584 
Q 2894 3584 3203 3211 
Q 3513 2838 3513 2113 
z
" id="DejaVuSans-68" transform="scale(0.015625)"/>
       <path id="DejaVuSans-20" transform="scale(0.015625)"/>
       <path d="M 3513 2113 
L 3513 0 
L 2938 0 
L 2938 2094 
Q 2938 2591 2744 2837 
Q 2550 3084 2163 3084 
Q 1697 3084 1428 2787 
Q 1159 2491 1159 1978 
L 1159 0 
L 581 0 
L 581 3500 
L 1159 3500 
L 1159 2956 
Q 1366 3272 1645 3428 
Q 1925 3584 2291 3584 
Q 2894 3584 3203 3211 
Q 3513 2838 3513 2113 
z
" id="DejaVuSans-6e" transform="scale(0.015625)"/>
       <path d="M 544 1381 
L 544 3500 
L 1119 3500 
L 1119 1403 
Q 1119 906 1312 657 
Q 1506 409 1894 409 
Q 2359 409 2629 706 
Q 2900 1003 2900 1516 
L 2900 3500 
L 3475 3500 
L 3475 0 
L 2900 0 
L 2900 538 
Q 2691 219 2414 64 
Q 2138 -91 1772 -91 
Q 1169 -91 856 284 
Q 544 659 544 1381 
z
M 1991 3584 
L 1991 3584 
z
" id="DejaVuSans-75" transform="scale(0.015625)"/>
       <path d="M 3328 2828 
Q 3544 3216 3844 3400 
Q 4144 3584 4550 3584 
Q 5097 3584 5394 3201 
Q 5691 2819 5691 2113 
L 5691 0 
L 5113 0 
L 5113 2094 
Q 5113 2597 4934 2840 
Q 4756 3084 4391 3084 
Q 3944 3084 3684 2787 
Q 3425 2491 3425 1978 
L 3425 0 
L 2847 0 
L 2847 2094 
Q 2847 2600 2669 2842 
Q 2491 3084 2119 3084 
Q 1678 3084 1418 2786 
Q 1159 2488 1159 1978 
L 1159 0 
L 581 0 
L 581 3500 
L 1159 3500 
L 1159 2956 
Q 1356 3278 1631 3431 
Q 1906 3584 2284 3584 
Q 2666 3584 2933 3390 
Q 3200 3197 3328 2828 
z
" id="DejaVuSans-6d" transform="scale(0.015625)"/>
       <path d="M 3116 1747 
Q 3116 2381 2855 2742 
Q 2594 3103 2138 3103 
Q 1681 3103 1420 2742 
Q 1159 2381 1159 1747 
Q 1159 1113 1420 752 
Q 1681 391 2138 391 
Q 2594 391 2855 752 
Q 3116 1113 3116 1747 
z
M 1159 2969 
Q 1341 3281 1617 3432 
Q 1894 3584 2278 3584 
Q 2916 3584 3314 3078 
Q 3713 2572 3713 1747 
Q 3713 922 3314 415 
Q 2916 -91 2278 -91 
Q 1894 -91 1617 61 
Q 1341 213 1159 525 
L 1159 0 
L 581 0 
L 581 4863 
L 1159 4863 
L 1159 2969 
z
" id="DejaVuSans-62" transform="scale(0.015625)"/>
       <path d="M 3597 1894 
L 3597 1613 
L 953 1613 
Q 991 1019 1311 708 
Q 1631 397 2203 397 
Q 2534 397 2845 478 
Q 3156 559 3463 722 
L 3463 178 
Q 3153 47 2828 -22 
Q 2503 -91 2169 -91 
Q 1331 -91 842 396 
Q 353 884 353 1716 
Q 353 2575 817 3079 
Q 1281 3584 2069 3584 
Q 2775 3584 3186 3129 
Q 3597 2675 3597 1894 
z
M 3022 2063 
Q 3016 2534 2758 2815 
Q 2500 3097 2075 3097 
Q 1594 3097 1305 2825 
Q 1016 2553 972 2059 
L 3022 2063 
z
" id="DejaVuSans-65" transform="scale(0.015625)"/>
       <path d="M 2631 2963 
Q 2534 3019 2420 3045 
Q 2306 3072 2169 3072 
Q 1681 3072 1420 2755 
Q 1159 2438 1159 1844 
L 1159 0 
L 581 0 
L 581 3500 
L 1159 3500 
L 1159 2956 
Q 1341 3275 1631 3429 
Q 1922 3584 2338 3584 
Q 2397 3584 2469 3576 
Q 2541 3569 2628 3553 
L 2631 2963 
z
" id="DejaVuSans-72" transform="scale(0.015625)"/>
      </defs>
      <use xlink:href="#DejaVuSans-45"/>
      <use x="63.183594" xlink:href="#DejaVuSans-70"/>
      <use x="126.660156" xlink:href="#DejaVuSans-6f"/>
      <use x="187.841797" xlink:href="#DejaVuSans-63"/>
      <use x="242.822266" xlink:href="#DejaVuSans-68"/>
      <use x="306.201172" xlink:href="#DejaVuSans-20"/>
      <use x="337.988281" xlink:href="#DejaVuSans-6e"/>
      <use x="401.367188" xlink:href="#DejaVuSans-75"/>
      <use x="464.746094" xlink:href="#DejaVuSans-6d"/>
      <use x="562.158203" xlink:href="#DejaVuSans-62"/>
      <use x="625.634766" xlink:href="#DejaVuSans-65"/>
      <use x="687.158203" xlink:href="#DejaVuSans-72"/>
     </g>
    </g>
   </g>
   <g id="matplotlib.axis_2">
    <g id="ytick_1">
     <g id="line2d_13">
      <path clip-path="url(#pcb4aa5aae2)" d="M 72 233.832481 
L 518.4 233.832481 
" style="fill:none;stroke:#ffffff;stroke-linecap:square;stroke-width:0.8;"/>
     </g>
     <g id="line2d_14">
      <defs>
       <path d="M 0 0 
L -3.5 0 
" id="me7d9ad29b0" style="stroke:#555555;stroke-width:0.8;"/>
      </defs>
      <g>
       <use style="fill:#555555;stroke:#555555;stroke-width:0.8;" x="72" xlink:href="#me7d9ad29b0" y="233.832481"/>
      </g>
     </g>
     <g id="text_8">
      <!-- 0.2 -->
      <g style="fill:#555555;" transform="translate(49.096875 237.6317)scale(0.1 -0.1)">
       <defs>
        <path d="M 684 794 
L 1344 794 
L 1344 0 
L 684 0 
L 684 794 
z
" id="DejaVuSans-2e" transform="scale(0.015625)"/>
       </defs>
       <use xlink:href="#DejaVuSans-30"/>
       <use x="63.623047" xlink:href="#DejaVuSans-2e"/>
       <use x="95.410156" xlink:href="#DejaVuSans-32"/>
      </g>
     </g>
    </g>
    <g id="ytick_2">
     <g id="line2d_15">
      <path clip-path="url(#pcb4aa5aae2)" d="M 72 197.367565 
L 518.4 197.367565 
" style="fill:none;stroke:#ffffff;stroke-linecap:square;stroke-width:0.8;"/>
     </g>
     <g id="line2d_16">
      <g>
       <use style="fill:#555555;stroke:#555555;stroke-width:0.8;" x="72" xlink:href="#me7d9ad29b0" y="197.367565"/>
      </g>
     </g>
     <g id="text_9">
      <!-- 0.4 -->
      <g style="fill:#555555;" transform="translate(49.096875 201.166784)scale(0.1 -0.1)">
       <use xlink:href="#DejaVuSans-30"/>
       <use x="63.623047" xlink:href="#DejaVuSans-2e"/>
       <use x="95.410156" xlink:href="#DejaVuSans-34"/>
      </g>
     </g>
    </g>
    <g id="ytick_3">
     <g id="line2d_17">
      <path clip-path="url(#pcb4aa5aae2)" d="M 72 160.902649 
L 518.4 160.902649 
" style="fill:none;stroke:#ffffff;stroke-linecap:square;stroke-width:0.8;"/>
     </g>
     <g id="line2d_18">
      <g>
       <use style="fill:#555555;stroke:#555555;stroke-width:0.8;" x="72" xlink:href="#me7d9ad29b0" y="160.902649"/>
      </g>
     </g>
     <g id="text_10">
      <!-- 0.6 -->
      <g style="fill:#555555;" transform="translate(49.096875 164.701868)scale(0.1 -0.1)">
       <use xlink:href="#DejaVuSans-30"/>
       <use x="63.623047" xlink:href="#DejaVuSans-2e"/>
       <use x="95.410156" xlink:href="#DejaVuSans-36"/>
      </g>
     </g>
    </g>
    <g id="ytick_4">
     <g id="line2d_19">
      <path clip-path="url(#pcb4aa5aae2)" d="M 72 124.437733 
L 518.4 124.437733 
" style="fill:none;stroke:#ffffff;stroke-linecap:square;stroke-width:0.8;"/>
     </g>
     <g id="line2d_20">
      <g>
       <use style="fill:#555555;stroke:#555555;stroke-width:0.8;" x="72" xlink:href="#me7d9ad29b0" y="124.437733"/>
      </g>
     </g>
     <g id="text_11">
      <!-- 0.8 -->
      <g style="fill:#555555;" transform="translate(49.096875 128.236952)scale(0.1 -0.1)">
       <use xlink:href="#DejaVuSans-30"/>
       <use x="63.623047" xlink:href="#DejaVuSans-2e"/>
       <use x="95.410156" xlink:href="#DejaVuSans-38"/>
      </g>
     </g>
    </g>
    <g id="ytick_5">
     <g id="line2d_21">
      <path clip-path="url(#pcb4aa5aae2)" d="M 72 87.972817 
L 518.4 87.972817 
" style="fill:none;stroke:#ffffff;stroke-linecap:square;stroke-width:0.8;"/>
     </g>
     <g id="line2d_22">
      <g>
       <use style="fill:#555555;stroke:#555555;stroke-width:0.8;" x="72" xlink:href="#me7d9ad29b0" y="87.972817"/>
      </g>
     </g>
     <g id="text_12">
      <!-- 1.0 -->
      <g style="fill:#555555;" transform="translate(49.096875 91.772036)scale(0.1 -0.1)">
       <use xlink:href="#DejaVuSans-31"/>
       <use x="63.623047" xlink:href="#DejaVuSans-2e"/>
       <use x="95.410156" xlink:href="#DejaVuSans-30"/>
      </g>
     </g>
    </g>
    <g id="ytick_6">
     <g id="line2d_23">
      <path clip-path="url(#pcb4aa5aae2)" d="M 72 51.507901 
L 518.4 51.507901 
" style="fill:none;stroke:#ffffff;stroke-linecap:square;stroke-width:0.8;"/>
     </g>
     <g id="line2d_24">
      <g>
       <use style="fill:#555555;stroke:#555555;stroke-width:0.8;" x="72" xlink:href="#me7d9ad29b0" y="51.507901"/>
      </g>
     </g>
     <g id="text_13">
      <!-- 1.2 -->
      <g style="fill:#555555;" transform="translate(49.096875 55.30712)scale(0.1 -0.1)">
       <use xlink:href="#DejaVuSans-31"/>
       <use x="63.623047" xlink:href="#DejaVuSans-2e"/>
       <use x="95.410156" xlink:href="#DejaVuSans-32"/>
      </g>
     </g>
    </g>
    <g id="text_14">
     <!-- Error -->
     <g style="fill:#555555;" transform="translate(42.60125 157.902187)rotate(-90)scale(0.12 -0.12)">
      <use xlink:href="#DejaVuSans-45"/>
      <use x="63.183594" xlink:href="#DejaVuSans-72"/>
      <use x="102.546875" xlink:href="#DejaVuSans-72"/>
      <use x="141.410156" xlink:href="#DejaVuSans-6f"/>
      <use x="202.591797" xlink:href="#DejaVuSans-72"/>
     </g>
    </g>
   </g>
   <g id="line2d_25">
    <path clip-path="url(#pcb4aa5aae2)" d="M 92.290909 45.496913 
L 96.390083 64.452083 
L 100.489256 79.362762 
L 104.58843 90.88522 
L 108.687603 98.441408 
L 112.786777 105.762462 
L 116.88595 111.913338 
L 120.985124 116.535008 
L 125.084298 120.207941 
L 129.183471 124.313408 
L 133.282645 125.655502 
L 137.381818 130.193955 
L 141.480992 132.203761 
L 145.580165 135.694023 
L 149.679339 136.047415 
L 153.778512 139.495854 
L 157.877686 139.395554 
L 161.97686 143.056288 
L 166.076033 145.188365 
L 170.175207 145.49074 
L 174.27438 147.32333 
L 178.373554 148.880977 
L 182.472727 148.652608 
L 186.571901 150.615971 
L 190.671074 149.936713 
L 194.770248 152.211907 
L 198.869421 151.50754 
L 202.968595 153.526026 
L 207.067769 154.889231 
L 211.166942 154.301894 
L 215.266116 155.822222 
L 219.365289 155.029408 
L 223.464463 155.823104 
L 227.563636 155.649181 
L 231.66281 156.950128 
L 235.761983 157.937906 
L 239.861157 157.303196 
L 243.960331 158.125703 
L 248.059504 158.763006 
L 252.158678 158.219319 
L 256.257851 158.709549 
L 260.357025 159.474859 
L 264.456198 160.334417 
L 268.555372 160.838408 
L 272.654545 159.781791 
L 276.753719 160.379993 
L 280.852893 161.764011 
L 284.952066 162.02362 
L 289.05124 162.045262 
L 293.150413 161.091108 
L 297.249587 162.753923 
L 301.34876 162.897118 
L 305.447934 164.359683 
L 309.547107 161.922817 
L 313.646281 163.333465 
L 317.745455 163.256827 
L 321.844628 164.648985 
L 325.943802 164.149461 
L 330.042975 164.514563 
L 334.142149 164.149858 
L 338.241322 165.176673 
L 342.340496 165.836921 
L 346.439669 165.021186 
L 350.538843 165.125448 
L 354.638017 164.799448 
L 358.73719 166.853766 
L 362.836364 165.324961 
L 366.935537 164.831611 
L 371.034711 165.919006 
L 375.133884 166.408098 
L 379.233058 166.876289 
L 383.332231 166.267305 
L 387.431405 166.613983 
L 391.530579 167.109874 
L 395.629752 168.742098 
L 399.728926 167.054657 
L 403.828099 167.666785 
L 407.927273 165.989848 
L 412.026446 167.700601 
L 416.12562 168.403406 
L 420.224793 166.823395 
L 424.323967 168.560792 
L 428.42314 167.983858 
L 432.522314 167.730218 
L 436.621488 169.686207 
L 440.720661 168.664989 
L 444.819835 168.567324 
L 448.919008 169.146466 
L 453.018182 168.966672 
L 457.117355 169.737647 
L 461.216529 169.627357 
L 465.315702 169.818455 
L 469.414876 170.20405 
L 473.51405 170.021928 
L 477.613223 169.758594 
L 481.712397 170.083074 
L 485.81157 170.485483 
L 489.910744 168.950148 
L 494.009917 170.372678 
L 498.109091 170.405597 
" style="fill:none;stroke:#e24a33;stroke-linecap:square;stroke-width:1.5;"/>
   </g>
   <g id="line2d_26">
    <path clip-path="url(#pcb4aa5aae2)" d="M 92.290909 76.120135 
L 96.390083 107.333105 
L 100.489256 122.600851 
L 104.58843 134.61861 
L 108.687603 141.979814 
L 112.786777 149.990708 
L 116.88595 156.288169 
L 120.985124 160.844697 
L 125.084298 163.91189 
L 129.183471 165.531745 
L 133.282645 169.024464 
L 137.381818 171.520709 
L 141.480992 172.317918 
L 145.580165 175.744321 
L 149.679339 177.371696 
L 153.778512 177.804027 
L 157.877686 176.658854 
L 161.97686 180.93925 
L 166.076033 182.602133 
L 170.175207 183.347395 
L 174.27438 184.105214 
L 178.373554 184.66511 
L 182.472727 185.608452 
L 186.571901 186.649888 
L 190.671074 186.061168 
L 194.770248 188.300898 
L 198.869421 188.304305 
L 202.968595 189.641135 
L 207.067769 189.145342 
L 211.166942 190.759773 
L 215.266116 191.580404 
L 219.365289 192.541054 
L 223.464463 191.123082 
L 227.563636 192.188571 
L 231.66281 193.063599 
L 235.761983 193.506181 
L 239.861157 194.469868 
L 243.960331 194.428588 
L 248.059504 194.522288 
L 252.158678 194.203926 
L 256.257851 194.944563 
L 260.357025 194.608683 
L 264.456198 196.103133 
L 268.555372 196.007071 
L 272.654545 195.898393 
L 276.753719 198.605989 
L 280.852893 198.271584 
L 284.952066 198.142191 
L 289.05124 197.866256 
L 293.150413 197.042591 
L 297.249587 200.568451 
L 301.34876 197.698874 
L 305.447934 198.786387 
L 309.547107 200.045281 
L 313.646281 198.064416 
L 317.745455 200.240463 
L 321.844628 200.182123 
L 325.943802 201.223667 
L 330.042975 202.053123 
L 334.142149 201.53881 
L 338.241322 201.528161 
L 342.340496 202.56443 
L 346.439669 200.539867 
L 350.538843 201.952828 
L 354.638017 202.133082 
L 358.73719 201.686241 
L 362.836364 202.609955 
L 366.935537 202.514071 
L 371.034711 202.467774 
L 375.133884 203.18047 
L 379.233058 203.486219 
L 383.332231 204.08293 
L 387.431405 203.837577 
L 391.530579 203.597965 
L 395.629752 202.626166 
L 399.728926 204.502624 
L 403.828099 205.299856 
L 407.927273 204.146473 
L 412.026446 204.18214 
L 416.12562 203.609072 
L 420.224793 204.739327 
L 424.323967 204.875101 
L 428.42314 205.193222 
L 432.522314 206.124753 
L 436.621488 205.606188 
L 440.720661 205.021348 
L 444.819835 205.307142 
L 448.919008 206.837555 
L 453.018182 206.522105 
L 457.117355 205.30413 
L 461.216529 206.270575 
L 465.315702 206.814722 
L 469.414876 205.223046 
L 473.51405 207.229845 
L 477.613223 206.66503 
L 481.712397 204.96187 
L 485.81157 207.507192 
L 489.910744 207.362987 
L 494.009917 207.309179 
L 498.109091 208.304389 
" style="fill:none;stroke:#348abd;stroke-linecap:square;stroke-width:1.5;"/>
   </g>
   <g id="line2d_27">
    <path clip-path="url(#pcb4aa5aae2)" d="M 92.290909 106.545604 
L 96.390083 140.86105 
L 100.489256 155.521972 
L 104.58843 168.617985 
L 108.687603 175.358094 
L 112.786777 181.003659 
L 116.88595 186.319161 
L 120.985124 189.757405 
L 125.084298 192.744082 
L 129.183471 196.269468 
L 133.282645 199.041835 
L 137.381818 200.040163 
L 141.480992 201.879084 
L 145.580165 201.604524 
L 149.679339 204.637063 
L 153.778512 206.145146 
L 157.877686 208.95588 
L 161.97686 208.756216 
L 166.076033 210.172046 
L 170.175207 211.672844 
L 174.27438 211.981978 
L 178.373554 212.121368 
L 182.472727 212.825453 
L 186.571901 215.154028 
L 190.671074 214.609782 
L 194.770248 216.452804 
L 198.869421 214.327279 
L 202.968595 216.464762 
L 207.067769 217.25455 
L 211.166942 216.603686 
L 215.266116 219.489376 
L 219.365289 217.618887 
L 223.464463 220.741694 
L 227.563636 221.917841 
L 231.66281 222.262957 
L 235.761983 222.970177 
L 239.861157 222.781807 
L 243.960331 223.482166 
L 248.059504 223.371562 
L 252.158678 224.048244 
L 256.257851 224.647771 
L 260.357025 223.319736 
L 264.456198 225.50251 
L 268.555372 225.747038 
L 272.654545 226.688933 
L 276.753719 226.616376 
L 280.852893 225.991217 
L 284.952066 227.867011 
L 289.05124 225.478723 
L 293.150413 228.335753 
L 297.249587 227.316682 
L 301.34876 229.068218 
L 305.447934 230.880943 
L 309.547107 229.950057 
L 313.646281 230.696282 
L 317.745455 231.707906 
L 321.844628 230.649139 
L 325.943802 230.628899 
L 330.042975 231.261718 
L 334.142149 230.599736 
L 338.241322 231.101467 
L 342.340496 232.45304 
L 346.439669 232.771084 
L 350.538843 232.56186 
L 354.638017 232.318712 
L 358.73719 230.622094 
L 362.836364 233.949884 
L 366.935537 233.450434 
L 371.034711 233.573907 
L 375.133884 235.044697 
L 379.233058 234.379607 
L 383.332231 235.340613 
L 387.431405 234.65061 
L 391.530579 235.056115 
L 395.629752 234.061113 
L 399.728926 237.031237 
L 403.828099 236.432318 
L 407.927273 237.047946 
L 412.026446 235.236119 
L 416.12562 237.924361 
L 420.224793 236.527215 
L 424.323967 237.786008 
L 428.42314 237.594134 
L 432.522314 237.247391 
L 436.621488 237.946445 
L 440.720661 239.422532 
L 444.819835 238.493372 
L 448.919008 238.424927 
L 453.018182 237.755972 
L 457.117355 239.269552 
L 461.216529 237.637943 
L 465.315702 238.642269 
L 469.414876 238.795997 
L 473.51405 239.210987 
L 477.613223 239.834572 
L 481.712397 240.799441 
L 485.81157 241.323119 
L 489.910744 241.15073 
L 494.009917 240.09419 
L 498.109091 242.116364 
" style="fill:none;stroke:#988ed5;stroke-linecap:square;stroke-width:1.5;"/>
   </g>
   <g id="line2d_28">
    <path clip-path="url(#pcb4aa5aae2)" d="M 92.290909 44.443636 
L 96.390083 61.63293 
L 100.489256 76.130301 
L 104.58843 87.044431 
L 108.687603 93.949084 
L 112.786777 100.756997 
L 116.88595 106.373877 
L 120.985124 110.71065 
L 125.084298 114.300025 
L 129.183471 117.941313 
L 133.282645 118.238321 
L 137.381818 122.233992 
L 141.480992 124.117318 
L 145.580165 127.155814 
L 149.679339 127.020372 
L 153.778512 130.023104 
L 157.877686 129.215915 
L 161.97686 133.256858 
L 166.076033 135.350406 
L 170.175207 134.724454 
L 174.27438 136.436485 
L 178.373554 138.378984 
L 182.472727 138.034013 
L 186.571901 139.181771 
L 190.671074 138.286774 
L 194.770248 140.466862 
L 198.869421 139.376377 
L 202.968595 141.403142 
L 207.067769 142.017002 
L 211.166942 141.525462 
L 215.266116 142.188012 
L 219.365289 141.488436 
L 223.464463 142.595901 
L 227.563636 141.261248 
L 231.66281 142.811697 
L 235.761983 143.449065 
L 239.861157 142.813596 
L 243.960331 143.050544 
L 248.059504 143.434419 
L 252.158678 143.205795 
L 256.257851 143.221525 
L 260.357025 143.790957 
L 264.456198 144.354889 
L 268.555372 144.408567 
L 272.654545 143.579891 
L 276.753719 143.342448 
L 280.852893 144.443099 
L 284.952066 144.924715 
L 289.05124 144.867755 
L 293.150413 143.623595 
L 297.249587 145.37485 
L 301.34876 145.309557 
L 305.447934 146.464623 
L 309.547107 143.165437 
L 313.646281 145.268057 
L 317.745455 144.765486 
L 321.844628 145.569719 
L 325.943802 145.041607 
L 330.042975 145.348282 
L 334.142149 145.096237 
L 338.241322 145.840742 
L 342.340496 146.262805 
L 346.439669 145.363865 
L 350.538843 145.129481 
L 354.638017 144.900411 
L 358.73719 146.658595 
L 362.836364 145.126254 
L 366.935537 143.683235 
L 371.034711 145.139752 
L 375.133884 145.730029 
L 379.233058 146.440072 
L 383.332231 145.216527 
L 387.431405 145.228106 
L 391.530579 145.335357 
L 395.629752 147.029967 
L 399.728926 145.213593 
L 403.828099 146.013811 
L 407.927273 143.726082 
L 412.026446 144.802598 
L 416.12562 145.943604 
L 420.224793 143.891205 
L 424.323967 145.047796 
L 428.42314 144.703821 
L 432.522314 144.309833 
L 436.621488 146.700492 
L 440.720661 145.458627 
L 444.819835 145.126501 
L 448.919008 145.237777 
L 453.018182 145.028572 
L 457.117355 145.722813 
L 461.216529 145.415012 
L 465.315702 145.971663 
L 469.414876 145.738301 
L 473.51405 145.780552 
L 477.613223 144.814544 
L 481.712397 145.472321 
L 485.81157 144.687407 
L 489.910744 143.185527 
L 494.009917 144.429764 
L 498.109091 145.003539 
" style="fill:none;stroke:#777777;stroke-dasharray:5.55,2.4;stroke-dashoffset:0;stroke-width:1.5;"/>
   </g>
   <g id="line2d_29">
    <path clip-path="url(#pcb4aa5aae2)" d="M 92.290909 73.997289 
L 96.390083 103.931739 
L 100.489256 117.023529 
L 104.58843 127.334344 
L 108.687603 133.840184 
L 112.786777 140.485791 
L 116.88595 145.177958 
L 120.985124 148.473598 
L 125.084298 151.135538 
L 129.183471 152.316862 
L 133.282645 154.17046 
L 137.381818 156.391313 
L 141.480992 155.479081 
L 145.580165 158.504931 
L 149.679339 158.965382 
L 153.778512 158.934276 
L 157.877686 157.334 
L 161.97686 160.628195 
L 166.076033 161.557927 
L 170.175207 161.645276 
L 174.27438 161.0038 
L 178.373554 161.403084 
L 182.472727 161.763307 
L 186.571901 162.037379 
L 190.671074 160.843763 
L 194.770248 162.83605 
L 198.869421 161.318442 
L 202.968595 162.37082 
L 207.067769 161.677719 
L 211.166942 163.061616 
L 215.266116 162.591517 
L 219.365289 163.071959 
L 223.464463 160.902161 
L 227.563636 161.382023 
L 231.66281 161.997674 
L 235.761983 161.962261 
L 239.861157 162.294286 
L 243.960331 161.220333 
L 248.059504 161.765267 
L 252.158678 160.267968 
L 256.257851 160.643812 
L 260.357025 160.094977 
L 264.456198 160.30685 
L 268.555372 160.164633 
L 272.654545 159.503616 
L 276.753719 162.141442 
L 280.852893 160.99544 
L 284.952066 160.601601 
L 289.05124 159.716199 
L 293.150413 158.238701 
L 297.249587 161.054815 
L 301.34876 158.262178 
L 305.447934 158.568304 
L 309.547107 159.917407 
L 313.646281 156.911972 
L 317.745455 158.550927 
L 321.844628 158.747156 
L 325.943802 158.927681 
L 330.042975 159.79573 
L 334.142149 159.574488 
L 338.241322 158.429581 
L 342.340496 158.851776 
L 346.439669 156.11991 
L 350.538843 156.998747 
L 354.638017 157.384116 
L 358.73719 156.221287 
L 362.836364 156.739473 
L 366.935537 156.563694 
L 371.034711 155.81266 
L 375.133884 156.293608 
L 379.233058 155.708817 
L 383.332231 155.808563 
L 387.431405 155.620458 
L 391.530579 155.468595 
L 395.629752 153.393198 
L 399.728926 155.210669 
L 403.828099 156.057349 
L 407.927273 153.194754 
L 412.026446 153.544477 
L 416.12562 152.628036 
L 420.224793 153.324522 
L 424.323967 152.426824 
L 428.42314 152.940841 
L 432.522314 154.146504 
L 436.621488 152.518143 
L 440.720661 150.506524 
L 444.819835 152.611309 
L 448.919008 152.493495 
L 453.018182 152.231332 
L 457.117355 150.46068 
L 461.216529 151.964907 
L 465.315702 151.782155 
L 469.414876 148.916015 
L 473.51405 151.178448 
L 477.613223 149.868581 
L 481.712397 147.147385 
L 485.81157 150.323283 
L 489.910744 149.129328 
L 494.009917 149.311599 
L 498.109091 150.073044 
" style="fill:none;stroke:#fbc15e;stroke-dasharray:5.55,2.4;stroke-dashoffset:0;stroke-width:1.5;"/>
   </g>
   <g id="line2d_30">
    <path clip-path="url(#pcb4aa5aae2)" d="M 92.290909 103.44962 
L 96.390083 133.685685 
L 100.489256 146.3181 
L 104.58843 156.454135 
L 108.687603 162.450777 
L 112.786777 165.850187 
L 116.88595 168.663908 
L 120.985124 170.928083 
L 125.084298 171.609397 
L 129.183471 172.998901 
L 133.282645 174.648275 
L 137.381818 173.549147 
L 141.480992 174.029881 
L 145.580165 171.081706 
L 149.679339 172.72736 
L 153.778512 173.165602 
L 157.877686 173.369883 
L 161.97686 172.669981 
L 166.076033 171.021189 
L 170.175207 172.605869 
L 174.27438 170.953528 
L 178.373554 169.421834 
L 182.472727 168.540608 
L 186.571901 169.231739 
L 190.671074 166.80902 
L 194.770248 167.228872 
L 198.869421 164.434477 
L 202.968595 164.979183 
L 207.067769 164.30315 
L 211.166942 162.054313 
L 215.266116 163.472078 
L 219.365289 160.417574 
L 223.464463 162.166624 
L 227.563636 162.689119 
L 231.66281 160.960858 
L 235.761983 159.671549 
L 239.861157 158.100291 
L 243.960331 158.459893 
L 248.059504 156.328698 
L 252.158678 154.956667 
L 256.257851 154.508482 
L 260.357025 152.691772 
L 264.456198 153.21552 
L 268.555372 151.680191 
L 272.654545 152.034271 
L 276.753719 150.383801 
L 280.852893 148.70183 
L 284.952066 148.746209 
L 289.05124 144.389113 
L 293.150413 147.564434 
L 297.249587 144.109868 
L 301.34876 144.187699 
L 305.447934 147.080567 
L 309.547107 143.674819 
L 313.646281 142.069377 
L 317.745455 142.504815 
L 321.844628 140.088469 
L 325.943802 138.71182 
L 330.042975 137.620902 
L 334.142149 137.480923 
L 338.241322 134.053915 
L 342.340496 135.891082 
L 346.439669 134.589669 
L 350.538843 133.574315 
L 354.638017 131.216004 
L 358.73719 127.9563 
L 362.836364 130.72777 
L 366.935537 129.091305 
L 371.034711 127.084046 
L 375.133884 125.64408 
L 379.233058 124.259241 
L 383.332231 125.903537 
L 387.431405 123.535826 
L 391.530579 121.803735 
L 395.629752 118.301827 
L 399.728926 121.437335 
L 403.828099 120.354428 
L 407.927273 118.315354 
L 412.026446 116.416484 
L 416.12562 116.290483 
L 420.224793 113.923577 
L 424.323967 113.794809 
L 428.42314 112.763921 
L 432.522314 111.697754 
L 436.621488 109.486615 
L 440.720661 111.668105 
L 444.819835 107.633149 
L 448.919008 108.082364 
L 453.018182 103.440655 
L 457.117355 105.941178 
L 461.216529 100.661335 
L 465.315702 101.721766 
L 469.414876 101.247984 
L 473.51405 98.478113 
L 477.613223 100.045788 
L 481.712397 98.054198 
L 485.81157 99.432469 
L 489.910744 96.494311 
L 494.009917 93.709433 
L 498.109091 94.56861 
" style="fill:none;stroke:#8eba42;stroke-dasharray:5.55,2.4;stroke-dashoffset:0;stroke-width:1.5;"/>
   </g>
   <g id="patch_3">
    <path d="M 72 252 
L 72 34.56 
" style="fill:none;stroke:#ffffff;stroke-linecap:square;stroke-linejoin:miter;"/>
   </g>
   <g id="patch_4">
    <path d="M 518.4 252 
L 518.4 34.56 
" style="fill:none;stroke:#ffffff;stroke-linecap:square;stroke-linejoin:miter;"/>
   </g>
   <g id="patch_5">
    <path d="M 72 252 
L 518.4 252 
" style="fill:none;stroke:#ffffff;stroke-linecap:square;stroke-linejoin:miter;"/>
   </g>
   <g id="patch_6">
    <path d="M 72 34.56 
L 518.4 34.56 
" style="fill:none;stroke:#ffffff;stroke-linecap:square;stroke-linejoin:miter;"/>
   </g>
   <g id="legend_1">
    <g id="patch_7">
     <path d="M 239.997656 130.62875 
L 350.402344 130.62875 
Q 352.402344 130.62875 352.402344 128.62875 
L 352.402344 41.56 
Q 352.402344 39.56 350.402344 39.56 
L 239.997656 39.56 
Q 237.997656 39.56 237.997656 41.56 
L 237.997656 128.62875 
Q 237.997656 130.62875 239.997656 130.62875 
z
" style="fill:#e5e5e5;opacity:0.8;stroke:#cccccc;stroke-linejoin:miter;stroke-width:0.5;"/>
    </g>
    <g id="line2d_31">
     <path d="M 241.997656 47.658437 
L 261.997656 47.658437 
" style="fill:none;stroke:#e24a33;stroke-linecap:square;stroke-width:1.5;"/>
    </g>
    <g id="line2d_32"/>
    <g id="text_15">
     <!-- width32(train) -->
     <g transform="translate(269.997656 51.158437)scale(0.1 -0.1)">
      <defs>
       <path d="M 269 3500 
L 844 3500 
L 1563 769 
L 2278 3500 
L 2956 3500 
L 3675 769 
L 4391 3500 
L 4966 3500 
L 4050 0 
L 3372 0 
L 2619 2869 
L 1863 0 
L 1184 0 
L 269 3500 
z
" id="DejaVuSans-77" transform="scale(0.015625)"/>
       <path d="M 603 3500 
L 1178 3500 
L 1178 0 
L 603 0 
L 603 3500 
z
M 603 4863 
L 1178 4863 
L 1178 4134 
L 603 4134 
L 603 4863 
z
" id="DejaVuSans-69" transform="scale(0.015625)"/>
       <path d="M 2906 2969 
L 2906 4863 
L 3481 4863 
L 3481 0 
L 2906 0 
L 2906 525 
Q 2725 213 2448 61 
Q 2172 -91 1784 -91 
Q 1150 -91 751 415 
Q 353 922 353 1747 
Q 353 2572 751 3078 
Q 1150 3584 1784 3584 
Q 2172 3584 2448 3432 
Q 2725 3281 2906 2969 
z
M 947 1747 
Q 947 1113 1208 752 
Q 1469 391 1925 391 
Q 2381 391 2643 752 
Q 2906 1113 2906 1747 
Q 2906 2381 2643 2742 
Q 2381 3103 1925 3103 
Q 1469 3103 1208 2742 
Q 947 2381 947 1747 
z
" id="DejaVuSans-64" transform="scale(0.015625)"/>
       <path d="M 1172 4494 
L 1172 3500 
L 2356 3500 
L 2356 3053 
L 1172 3053 
L 1172 1153 
Q 1172 725 1289 603 
Q 1406 481 1766 481 
L 2356 481 
L 2356 0 
L 1766 0 
Q 1100 0 847 248 
Q 594 497 594 1153 
L 594 3053 
L 172 3053 
L 172 3500 
L 594 3500 
L 594 4494 
L 1172 4494 
z
" id="DejaVuSans-74" transform="scale(0.015625)"/>
       <path d="M 2597 2516 
Q 3050 2419 3304 2112 
Q 3559 1806 3559 1356 
Q 3559 666 3084 287 
Q 2609 -91 1734 -91 
Q 1441 -91 1130 -33 
Q 819 25 488 141 
L 488 750 
Q 750 597 1062 519 
Q 1375 441 1716 441 
Q 2309 441 2620 675 
Q 2931 909 2931 1356 
Q 2931 1769 2642 2001 
Q 2353 2234 1838 2234 
L 1294 2234 
L 1294 2753 
L 1863 2753 
Q 2328 2753 2575 2939 
Q 2822 3125 2822 3475 
Q 2822 3834 2567 4026 
Q 2313 4219 1838 4219 
Q 1578 4219 1281 4162 
Q 984 4106 628 3988 
L 628 4550 
Q 988 4650 1302 4700 
Q 1616 4750 1894 4750 
Q 2613 4750 3031 4423 
Q 3450 4097 3450 3541 
Q 3450 3153 3228 2886 
Q 3006 2619 2597 2516 
z
" id="DejaVuSans-33" transform="scale(0.015625)"/>
       <path d="M 1984 4856 
Q 1566 4138 1362 3434 
Q 1159 2731 1159 2009 
Q 1159 1288 1364 580 
Q 1569 -128 1984 -844 
L 1484 -844 
Q 1016 -109 783 600 
Q 550 1309 550 2009 
Q 550 2706 781 3412 
Q 1013 4119 1484 4856 
L 1984 4856 
z
" id="DejaVuSans-28" transform="scale(0.015625)"/>
       <path d="M 2194 1759 
Q 1497 1759 1228 1600 
Q 959 1441 959 1056 
Q 959 750 1161 570 
Q 1363 391 1709 391 
Q 2188 391 2477 730 
Q 2766 1069 2766 1631 
L 2766 1759 
L 2194 1759 
z
M 3341 1997 
L 3341 0 
L 2766 0 
L 2766 531 
Q 2569 213 2275 61 
Q 1981 -91 1556 -91 
Q 1019 -91 701 211 
Q 384 513 384 1019 
Q 384 1609 779 1909 
Q 1175 2209 1959 2209 
L 2766 2209 
L 2766 2266 
Q 2766 2663 2505 2880 
Q 2244 3097 1772 3097 
Q 1472 3097 1187 3025 
Q 903 2953 641 2809 
L 641 3341 
Q 956 3463 1253 3523 
Q 1550 3584 1831 3584 
Q 2591 3584 2966 3190 
Q 3341 2797 3341 1997 
z
" id="DejaVuSans-61" transform="scale(0.015625)"/>
       <path d="M 513 4856 
L 1013 4856 
Q 1481 4119 1714 3412 
Q 1947 2706 1947 2009 
Q 1947 1309 1714 600 
Q 1481 -109 1013 -844 
L 513 -844 
Q 928 -128 1133 580 
Q 1338 1288 1338 2009 
Q 1338 2731 1133 3434 
Q 928 4138 513 4856 
z
" id="DejaVuSans-29" transform="scale(0.015625)"/>
      </defs>
      <use xlink:href="#DejaVuSans-77"/>
      <use x="81.787109" xlink:href="#DejaVuSans-69"/>
      <use x="109.570312" xlink:href="#DejaVuSans-64"/>
      <use x="173.046875" xlink:href="#DejaVuSans-74"/>
      <use x="212.255859" xlink:href="#DejaVuSans-68"/>
      <use x="275.634766" xlink:href="#DejaVuSans-33"/>
      <use x="339.257812" xlink:href="#DejaVuSans-32"/>
      <use x="402.880859" xlink:href="#DejaVuSans-28"/>
      <use x="441.894531" xlink:href="#DejaVuSans-74"/>
      <use x="481.103516" xlink:href="#DejaVuSans-72"/>
      <use x="522.216797" xlink:href="#DejaVuSans-61"/>
      <use x="583.496094" xlink:href="#DejaVuSans-69"/>
      <use x="611.279297" xlink:href="#DejaVuSans-6e"/>
      <use x="674.658203" xlink:href="#DejaVuSans-29"/>
     </g>
    </g>
    <g id="line2d_33">
     <path d="M 241.997656 62.336562 
L 261.997656 62.336562 
" style="fill:none;stroke:#348abd;stroke-linecap:square;stroke-width:1.5;"/>
    </g>
    <g id="line2d_34"/>
    <g id="text_16">
     <!-- width64(train) -->
     <g transform="translate(269.997656 65.836562)scale(0.1 -0.1)">
      <use xlink:href="#DejaVuSans-77"/>
      <use x="81.787109" xlink:href="#DejaVuSans-69"/>
      <use x="109.570312" xlink:href="#DejaVuSans-64"/>
      <use x="173.046875" xlink:href="#DejaVuSans-74"/>
      <use x="212.255859" xlink:href="#DejaVuSans-68"/>
      <use x="275.634766" xlink:href="#DejaVuSans-36"/>
      <use x="339.257812" xlink:href="#DejaVuSans-34"/>
      <use x="402.880859" xlink:href="#DejaVuSans-28"/>
      <use x="441.894531" xlink:href="#DejaVuSans-74"/>
      <use x="481.103516" xlink:href="#DejaVuSans-72"/>
      <use x="522.216797" xlink:href="#DejaVuSans-61"/>
      <use x="583.496094" xlink:href="#DejaVuSans-69"/>
      <use x="611.279297" xlink:href="#DejaVuSans-6e"/>
      <use x="674.658203" xlink:href="#DejaVuSans-29"/>
     </g>
    </g>
    <g id="line2d_35">
     <path d="M 241.997656 77.014687 
L 261.997656 77.014687 
" style="fill:none;stroke:#988ed5;stroke-linecap:square;stroke-width:1.5;"/>
    </g>
    <g id="line2d_36"/>
    <g id="text_17">
     <!-- width128(train) -->
     <g transform="translate(269.997656 80.514687)scale(0.1 -0.1)">
      <use xlink:href="#DejaVuSans-77"/>
      <use x="81.787109" xlink:href="#DejaVuSans-69"/>
      <use x="109.570312" xlink:href="#DejaVuSans-64"/>
      <use x="173.046875" xlink:href="#DejaVuSans-74"/>
      <use x="212.255859" xlink:href="#DejaVuSans-68"/>
      <use x="275.634766" xlink:href="#DejaVuSans-31"/>
      <use x="339.257812" xlink:href="#DejaVuSans-32"/>
      <use x="402.880859" xlink:href="#DejaVuSans-38"/>
      <use x="466.503906" xlink:href="#DejaVuSans-28"/>
      <use x="505.517578" xlink:href="#DejaVuSans-74"/>
      <use x="544.726562" xlink:href="#DejaVuSans-72"/>
      <use x="585.839844" xlink:href="#DejaVuSans-61"/>
      <use x="647.119141" xlink:href="#DejaVuSans-69"/>
      <use x="674.902344" xlink:href="#DejaVuSans-6e"/>
      <use x="738.28125" xlink:href="#DejaVuSans-29"/>
     </g>
    </g>
    <g id="line2d_37">
     <path d="M 241.997656 91.692813 
L 261.997656 91.692813 
" style="fill:none;stroke:#777777;stroke-dasharray:5.55,2.4;stroke-dashoffset:0;stroke-width:1.5;"/>
    </g>
    <g id="line2d_38"/>
    <g id="text_18">
     <!-- width32(valid) -->
     <g transform="translate(269.997656 95.192813)scale(0.1 -0.1)">
      <defs>
       <path d="M 191 3500 
L 800 3500 
L 1894 563 
L 2988 3500 
L 3597 3500 
L 2284 0 
L 1503 0 
L 191 3500 
z
" id="DejaVuSans-76" transform="scale(0.015625)"/>
       <path d="M 603 4863 
L 1178 4863 
L 1178 0 
L 603 0 
L 603 4863 
z
" id="DejaVuSans-6c" transform="scale(0.015625)"/>
      </defs>
      <use xlink:href="#DejaVuSans-77"/>
      <use x="81.787109" xlink:href="#DejaVuSans-69"/>
      <use x="109.570312" xlink:href="#DejaVuSans-64"/>
      <use x="173.046875" xlink:href="#DejaVuSans-74"/>
      <use x="212.255859" xlink:href="#DejaVuSans-68"/>
      <use x="275.634766" xlink:href="#DejaVuSans-33"/>
      <use x="339.257812" xlink:href="#DejaVuSans-32"/>
      <use x="402.880859" xlink:href="#DejaVuSans-28"/>
      <use x="441.894531" xlink:href="#DejaVuSans-76"/>
      <use x="501.074219" xlink:href="#DejaVuSans-61"/>
      <use x="562.353516" xlink:href="#DejaVuSans-6c"/>
      <use x="590.136719" xlink:href="#DejaVuSans-69"/>
      <use x="617.919922" xlink:href="#DejaVuSans-64"/>
      <use x="681.396484" xlink:href="#DejaVuSans-29"/>
     </g>
    </g>
    <g id="line2d_39">
     <path d="M 241.997656 106.370937 
L 261.997656 106.370937 
" style="fill:none;stroke:#fbc15e;stroke-dasharray:5.55,2.4;stroke-dashoffset:0;stroke-width:1.5;"/>
    </g>
    <g id="line2d_40"/>
    <g id="text_19">
     <!-- width64(valid) -->
     <g transform="translate(269.997656 109.870937)scale(0.1 -0.1)">
      <use xlink:href="#DejaVuSans-77"/>
      <use x="81.787109" xlink:href="#DejaVuSans-69"/>
      <use x="109.570312" xlink:href="#DejaVuSans-64"/>
      <use x="173.046875" xlink:href="#DejaVuSans-74"/>
      <use x="212.255859" xlink:href="#DejaVuSans-68"/>
      <use x="275.634766" xlink:href="#DejaVuSans-36"/>
      <use x="339.257812" xlink:href="#DejaVuSans-34"/>
      <use x="402.880859" xlink:href="#DejaVuSans-28"/>
      <use x="441.894531" xlink:href="#DejaVuSans-76"/>
      <use x="501.074219" xlink:href="#DejaVuSans-61"/>
      <use x="562.353516" xlink:href="#DejaVuSans-6c"/>
      <use x="590.136719" xlink:href="#DejaVuSans-69"/>
      <use x="617.919922" xlink:href="#DejaVuSans-64"/>
      <use x="681.396484" xlink:href="#DejaVuSans-29"/>
     </g>
    </g>
    <g id="line2d_41">
     <path d="M 241.997656 121.049062 
L 261.997656 121.049062 
" style="fill:none;stroke:#8eba42;stroke-dasharray:5.55,2.4;stroke-dashoffset:0;stroke-width:1.5;"/>
    </g>
    <g id="line2d_42"/>
    <g id="text_20">
     <!-- width128(valid) -->
     <g transform="translate(269.997656 124.549062)scale(0.1 -0.1)">
      <use xlink:href="#DejaVuSans-77"/>
      <use x="81.787109" xlink:href="#DejaVuSans-69"/>
      <use x="109.570312" xlink:href="#DejaVuSans-64"/>
      <use x="173.046875" xlink:href="#DejaVuSans-74"/>
      <use x="212.255859" xlink:href="#DejaVuSans-68"/>
      <use x="275.634766" xlink:href="#DejaVuSans-31"/>
      <use x="339.257812" xlink:href="#DejaVuSans-32"/>
      <use x="402.880859" xlink:href="#DejaVuSans-38"/>
      <use x="466.503906" xlink:href="#DejaVuSans-28"/>
      <use x="505.517578" xlink:href="#DejaVuSans-76"/>
      <use x="564.697266" xlink:href="#DejaVuSans-61"/>
      <use x="625.976562" xlink:href="#DejaVuSans-6c"/>
      <use x="653.759766" xlink:href="#DejaVuSans-69"/>
      <use x="681.542969" xlink:href="#DejaVuSans-64"/>
      <use x="745.019531" xlink:href="#DejaVuSans-29"/>
     </g>
    </g>
   </g>
  </g>
 </g>
 <defs>
  <clipPath id="pcb4aa5aae2">
   <rect height="217.44" width="446.4" x="72" y="34.56"/>
  </clipPath>
 </defs>
</svg>
